<svg width="590" height="195" viewBox="0 0 590 195" fill="none" xmlns="http://www.w3.org/2000/svg">
<g clip-path="url(#clip0_78_1466)">
<rect width="590" height="195" fill="white"/>
<path d="M569.7 24.5H463C458.306 24.5 454.5 28.3056 454.5 33V115C454.5 119.694 458.306 123.5 463 123.5H569.7C575.354 123.5 580.304 119.705 581.772 114.245L591.019 79.8403C592.047 76.0147 592.047 71.9853 591.019 68.1597L581.772 33.7554C580.304 28.2952 575.354 24.5 569.7 24.5Z" fill="#FFF3D9" stroke="white" stroke-width="5"/>
<path d="M451.7 24.5H345C340.306 24.5 336.5 28.3056 336.5 33V115C336.5 119.694 340.306 123.5 345 123.5H451.7C457.354 123.5 462.304 119.705 463.772 114.245L473.019 79.8403C474.047 76.0147 474.047 71.9853 473.019 68.1597L463.772 33.7554C462.304 28.2952 457.354 24.5 451.7 24.5Z" fill="#FFF3D9" stroke="white" stroke-width="5"/>
<path d="M333.7 24.5H227C222.306 24.5 218.5 28.3056 218.5 33V115C218.5 119.694 222.306 123.5 227 123.5H333.7C339.354 123.5 344.304 119.705 345.772 114.245L355.019 79.8403C356.047 76.0147 356.047 71.9853 355.019 68.1597L345.772 33.7554C344.304 28.2952 339.354 24.5 333.7 24.5Z" fill="#FFF3D9" stroke="white" stroke-width="5"/>
<path d="M215.7 24.5H109C104.306 24.5 100.5 28.3056 100.5 33V115C100.5 119.694 104.306 123.5 109 123.5H215.7C221.354 123.5 226.304 119.705 227.772 114.245L237.019 79.8403C238.047 76.0147 238.047 71.9853 237.019 68.1597L227.772 33.7554C226.304 28.2952 221.354 24.5 215.7 24.5Z" fill="#FFF3D9" stroke="white" stroke-width="5"/>
<path d="M96.1345 24.5H6C1.30558 24.5 -2.5 28.3056 -2.5 33V115C-2.5 119.694 1.30558 123.5 6 123.5H96.1345C101.948 123.5 106.994 119.492 108.31 113.83L116.383 79.0934C117.162 75.7424 117.162 72.2575 116.383 68.9066L108.31 34.1703C106.994 28.5078 101.948 24.5 96.1345 24.5Z" fill="#FFF3D9" stroke="white" stroke-width="5"/>
<path d="M171.106 48.4578L185.092 56.2646C186.734 57.1793 187.757 58.883 187.766 60.7297L187.728 94.6438V96.8221C187.511 99.795 184.47 101.027 182.626 100.324C182.611 100.324 182.599 100.324 182.596 100.315C182.552 100.298 182.514 100.272 182.476 100.252L169.942 91.3307C168.306 90.4045 167.291 88.6951 167.288 86.8456L165.696 65.4835L165.426 51.4679C165.341 49.4354 168.141 47.0571 171.109 48.455L171.106 48.4578Z" fill="#FFC240"/>
<g style="mix-blend-mode:multiply">
<path d="M170.003 49.8327L183.318 57.265C184.957 58.1826 185.977 59.8834 185.992 61.7301L186.036 97.2079C186.133 100.086 183.822 101.11 182.042 100.098L168.182 92.2854C166.543 91.3535 165.514 89.6984 165.517 87.8546L165.35 51.7136C165.35 49.7212 167.658 48.392 170.003 49.8355V49.8327Z" fill="#E2E9FB"/>
</g>
<path d="M169.842 50.2357L182.966 57.5594C184.581 58.4627 185.587 60.1407 185.602 61.9588L185.646 96.9249C185.742 99.7606 183.464 100.77 181.711 99.772L168.05 92.071C166.435 91.1534 165.42 89.5212 165.423 87.7031L165.256 52.0824C165.256 50.1185 167.528 48.8064 169.842 50.23V50.2357Z" fill="#FFAE00"/>
<path d="M184.561 96.2845L184.493 68.4477L184.485 63.7597L166.429 53.646L166.52 78.8872L166.546 86.2081L184.561 96.2845Z" fill="#FDEFCA"/>
<path d="M167.198 57.6636C167.198 55.0447 168.177 55.3721 169.483 56.0268L182.215 63.2292C183.847 64.2112 183.847 64.2112 183.847 66.3567V69.0581C183.847 70.1041 183.847 71.4136 182.215 70.4315L168.83 62.9017C168.177 62.5743 167.198 61.9197 167.198 59.3006L167.198 57.6636Z" fill="white"/>
<path d="M171.793 62.1514C171.793 62.12 171.793 62.126 171.737 62.0953L169.213 60.6076C169.182 60.6076 169.158 60.6329 169.158 60.6637V61.0573C169.158 61.0886 169.183 61.1134 169.213 61.1134L171.737 62.6011C171.768 62.6011 171.793 62.5757 171.793 62.5449V62.1514Z" fill="#FFAE00"/>
<path d="M171.792 59.9768L170.463 58.223C170.377 58.1718 170.27 58.1718 170.185 58.223L169.18 58.5095C169.165 58.518 169.157 58.5336 169.157 58.5505V58.6724C169.157 58.699 169.178 58.7201 169.204 58.7201L171.768 60.1874C171.795 60.1874 171.816 60.1663 171.816 60.1398V60.0179C171.816 60.001 171.806 59.9853 171.792 59.9768Z" fill="#FFAE00"/>
<path d="M169.597 59.2052L169.372 59.0964C169.344 59.0964 169.321 59.1194 169.321 59.1477V60.5145C169.321 60.5428 169.344 60.5658 169.372 60.5658L169.597 60.6637C169.626 60.6637 169.649 60.6407 169.649 60.6124V59.2565C169.649 59.2282 169.626 59.2052 169.597 59.2052Z" fill="#FFAE00"/>
<path d="M170.251 59.4813H170.026C169.998 59.4813 169.975 59.5042 169.975 59.5326V60.8418C169.975 60.8702 169.998 60.8931 170.026 60.8931L170.251 61.0119C170.28 61.0119 170.303 60.9889 170.303 60.9606V59.5326C170.303 59.5042 170.28 59.4813 170.251 59.4813Z" fill="#FFAE00"/>
<path d="M170.905 59.9805H170.68C170.652 59.9805 170.629 60.0034 170.629 60.0318V61.1692C170.629 61.1976 170.652 61.2205 170.68 61.2205L170.905 61.3527C170.934 61.3527 170.957 61.3297 170.957 61.3014V60.0318C170.957 60.0034 170.934 59.9805 170.905 59.9805Z" fill="#FFAE00"/>
<path d="M171.56 60.3616L171.335 60.2531C171.307 60.2531 171.284 60.2761 171.284 60.3044V61.4966C171.284 61.5249 171.307 61.5479 171.335 61.5479L171.56 61.6677C171.588 61.6677 171.611 61.6447 171.611 61.6164V60.4129C171.611 60.3845 171.588 60.3616 171.56 60.3616Z" fill="#FFAE00"/>
<path d="M173.074 61.1309L181.725 66.1414V66.6027L173.074 61.5923V61.1309Z" fill="#052E50"/>
<path d="M173.074 61.9197L181.725 66.9301V67.4509L173.074 62.4405V61.9197Z" fill="#052E50"/>
<path d="M167.198 65.6741C167.198 63.0551 168.177 63.3825 169.483 64.0372L182.215 71.2396C183.847 72.2217 183.847 72.2217 183.847 74.3671V77.0686C183.847 78.1145 183.847 79.4241 182.215 78.4419L168.83 70.9122C168.177 70.5848 167.198 69.9301 167.198 67.3111L167.198 65.6741Z" fill="#FFAE00"/>
<path d="M171.793 70.1618C171.793 70.1304 171.793 70.1365 171.737 70.1057L169.213 68.618C169.182 68.618 169.158 68.6434 169.158 68.6741V69.0677C169.158 69.0991 169.183 69.1238 169.213 69.1238L171.737 70.6115C171.768 70.6115 171.793 70.5862 171.793 70.5554V70.1618Z" fill="white"/>
<path d="M171.792 67.9873L170.463 66.2335C170.377 66.1822 170.27 66.1822 170.185 66.2335L169.18 66.5199C169.165 66.5284 169.157 66.5441 169.157 66.561V66.6829C169.157 66.7094 169.178 66.7305 169.204 66.7305L171.768 68.1979C171.795 68.1979 171.816 68.1768 171.816 68.1502V68.0283C171.816 68.0114 171.806 67.9957 171.792 67.9873Z" fill="white"/>
<path d="M169.597 67.2156L169.372 67.1069C169.344 67.1069 169.321 67.1298 169.321 67.1582V68.5249C169.321 68.5532 169.344 68.5762 169.372 68.5762L169.597 68.6741C169.626 68.6741 169.649 68.6512 169.649 68.6228V67.2669C169.649 67.2386 169.626 67.2156 169.597 67.2156Z" fill="white"/>
<path d="M170.251 67.4917H170.026C169.998 67.4917 169.975 67.5147 169.975 67.543V68.8523C169.975 68.8806 169.998 68.9036 170.026 68.9036L170.251 69.0223C170.28 69.0223 170.303 68.9994 170.303 68.971V67.543C170.303 67.5147 170.28 67.4917 170.251 67.4917Z" fill="white"/>
<path d="M170.905 67.9909H170.68C170.652 67.9909 170.629 68.0139 170.629 68.0422V69.1797C170.629 69.208 170.652 69.231 170.68 69.231L170.905 69.3631C170.934 69.3631 170.957 69.3402 170.957 69.3118V68.0422C170.957 68.0139 170.934 67.9909 170.905 67.9909Z" fill="white"/>
<path d="M171.56 68.372L171.335 68.2636C171.307 68.2636 171.284 68.2865 171.284 68.3149V69.5071C171.284 69.5354 171.307 69.5583 171.335 69.5583L171.56 69.6781C171.588 69.6781 171.611 69.6552 171.611 69.6268V68.4233C171.611 68.395 171.588 68.372 171.56 68.372Z" fill="white"/>
<path d="M173.074 69.1414L181.725 74.1518V74.6132L173.074 69.6027V69.1414Z" fill="white"/>
<path d="M173.074 69.9301L181.725 74.9406V75.4614L173.074 70.4509V69.9301Z" fill="white"/>
<path d="M167.198 73.6845C167.198 71.0656 168.177 71.393 169.483 72.0477L182.215 79.2501C183.847 80.2321 183.847 80.2321 183.847 82.3775V85.079C183.847 86.125 183.847 87.4345 182.215 86.4524L168.83 78.9226C168.177 78.5952 167.198 77.9406 167.198 75.3215L167.198 73.6845Z" fill="white"/>
<path d="M171.793 78.1723C171.793 78.1409 171.793 78.1469 171.737 78.1161L169.213 76.6285C169.182 76.6285 169.158 76.6538 169.158 76.6846V77.0782C169.158 77.1095 169.183 77.1343 169.213 77.1343L171.737 78.622C171.768 78.622 171.793 78.5966 171.793 78.5658V78.1723Z" fill="#FFAE00"/>
<path d="M171.792 75.9977L170.463 74.2439C170.377 74.1926 170.27 74.1926 170.185 74.2439L169.18 74.5304C169.165 74.5388 169.157 74.5545 169.157 74.5714V74.6933C169.157 74.7199 169.178 74.741 169.204 74.741L171.768 76.2083C171.795 76.2083 171.816 76.1872 171.816 76.1607V76.0388C171.816 76.0219 171.806 76.0062 171.792 75.9977Z" fill="#FFAE00"/>
<path d="M169.597 75.2261L169.372 75.1173C169.344 75.1173 169.321 75.1403 169.321 75.1686V76.5354C169.321 76.5637 169.344 76.5866 169.372 76.5866L169.597 76.6846C169.626 76.6846 169.649 76.6616 169.649 76.6333V75.2774C169.649 75.249 169.626 75.2261 169.597 75.2261Z" fill="#FFAE00"/>
<path d="M170.251 75.5022H170.026C169.998 75.5022 169.975 75.5251 169.975 75.5535V76.8627C169.975 76.8911 169.998 76.914 170.026 76.914L170.251 77.0328C170.28 77.0328 170.303 77.0098 170.303 76.9815V75.5535C170.303 75.5251 170.28 75.5022 170.251 75.5022Z" fill="#FFAE00"/>
<path d="M170.905 76.0013H170.68C170.652 76.0013 170.629 76.0243 170.629 76.0526V77.1901C170.629 77.2184 170.652 77.2414 170.68 77.2414L170.905 77.3736C170.934 77.3736 170.957 77.3506 170.957 77.3223V76.0526C170.957 76.0243 170.934 76.0013 170.905 76.0013Z" fill="#FFAE00"/>
<path d="M171.56 76.3825L171.335 76.274C171.307 76.274 171.284 76.297 171.284 76.3253V77.5175C171.284 77.5458 171.307 77.5688 171.335 77.5688L171.56 77.6886C171.588 77.6886 171.611 77.6656 171.611 77.6373V76.4338C171.611 76.4054 171.588 76.3825 171.56 76.3825Z" fill="#FFAE00"/>
<path d="M173.074 77.1518L181.725 82.1623V82.6236L173.074 77.6132V77.1518Z" fill="#052E50"/>
<path d="M173.074 77.9405L181.725 82.951V83.4718L173.074 78.4614V77.9405Z" fill="#052E50"/>
<path d="M167.198 81.695C167.198 79.076 168.177 79.4034 169.483 80.0581L182.215 87.2605C183.847 88.2426 183.847 88.2426 183.847 90.388V93.0894C183.847 94.1354 183.847 95.445 182.215 94.4628L168.83 86.933C168.177 86.6057 167.198 85.951 167.198 83.332L167.198 81.695Z" fill="white"/>
<path d="M171.793 86.1827C171.793 86.1513 171.793 86.1574 171.737 86.1266L169.213 84.6389C169.182 84.6389 169.158 84.6642 169.158 84.695V85.0886C169.158 85.12 169.183 85.1447 169.213 85.1447L171.737 86.6324C171.768 86.6324 171.793 86.607 171.793 86.5763V86.1827Z" fill="#FFAE00"/>
<path d="M171.792 84.0082L170.463 82.2544C170.377 82.2031 170.27 82.2031 170.185 82.2544L169.18 82.5408C169.165 82.5493 169.157 82.565 169.157 82.5819V82.7038C169.157 82.7303 169.178 82.7514 169.204 82.7514L171.768 84.2188C171.795 84.2188 171.816 84.1976 171.816 84.1711V84.0492C171.816 84.0323 171.806 84.0166 171.792 84.0082Z" fill="#FFAE00"/>
<path d="M169.597 83.2365L169.372 83.1278C169.344 83.1278 169.321 83.1507 169.321 83.1791V84.5458C169.321 84.5741 169.344 84.5971 169.372 84.5971L169.597 84.695C169.626 84.695 169.649 84.6721 169.649 84.6437V83.2878C169.649 83.2595 169.626 83.2365 169.597 83.2365Z" fill="#FFAE00"/>
<path d="M170.251 83.5126H170.026C169.998 83.5126 169.975 83.5356 169.975 83.5639V84.8732C169.975 84.9015 169.998 84.9245 170.026 84.9245L170.251 85.0432C170.28 85.0432 170.303 85.0202 170.303 84.9919V83.5639C170.303 83.5356 170.28 83.5126 170.251 83.5126Z" fill="#FFAE00"/>
<path d="M170.905 84.0118H170.68C170.652 84.0118 170.629 84.0348 170.629 84.0631V85.2006C170.629 85.2289 170.652 85.2518 170.68 85.2518L170.905 85.384C170.934 85.384 170.957 85.3611 170.957 85.3327V84.0631C170.957 84.0348 170.934 84.0118 170.905 84.0118Z" fill="#FFAE00"/>
<path d="M171.56 84.3929L171.335 84.2845C171.307 84.2845 171.284 84.3074 171.284 84.3358V85.5279C171.284 85.5563 171.307 85.5792 171.335 85.5792L171.56 85.699C171.588 85.699 171.611 85.6761 171.611 85.6477V84.4442C171.611 84.4159 171.588 84.3929 171.56 84.3929Z" fill="#FFAE00"/>
<path d="M173.074 85.1623L181.725 90.1727V90.6341L173.074 85.6236V85.1623Z" fill="#052E50"/>
<path d="M173.074 85.951L181.725 90.9615V91.4823L173.074 86.4718V85.951Z" fill="#052E50"/>
<path d="M168.51 69.6706C168.472 69.602 168.44 69.5448 168.44 69.5448C168.516 69.3333 169.132 68.7902 169.035 68.6672C168.748 68.3099 167.513 69.6792 167.513 69.6792C167.513 69.6792 167.645 69.3104 167.698 69.1904C167.757 69.056 167.713 68.9074 167.633 68.853C167.484 68.7501 167.317 68.9302 167.285 69.0303L166.827 69.8278C166.766 69.9364 166.722 70.0536 166.698 70.1737L166.651 70.4138C166.601 70.6768 166.364 71.1599 166.302 71.3429L166.593 72.4263C166.66 72.2719 167.419 71.36 167.551 71.2542C167.748 71.1027 167.953 70.9455 168.123 70.7626C168.123 70.7626 168.539 70.3338 168.572 70.1222C168.61 69.9679 168.589 69.8078 168.51 69.6706Z" fill="#062E4F"/>
<path d="M156.624 102.518C156.624 102.518 156.624 102.97 156.055 103.379C155.973 103.436 155.864 103.51 155.75 103.582C155.427 103.782 154.99 104.148 154.712 104.405C154.556 104.545 154.381 104.648 154.149 104.66C153.8 104.677 153.495 104.568 153.536 104.056C153.539 104.022 153.542 103.959 153.551 103.899C153.554 103.871 153.557 103.845 153.563 103.816C153.568 103.779 153.592 102.83 153.595 102.81C153.636 102.982 153.882 102.313 154.032 102.307C154.26 102.296 154.228 102.827 154.383 102.687C154.662 102.43 154.958 102.547 155.721 102.167L155.867 102.144C156.459 102.075 156.55 102.267 156.609 102.441C156.615 102.47 156.624 102.496 156.627 102.521L156.624 102.518Z" fill="#062E4F"/>
<path d="M161.083 104.857C161.083 104.857 160.547 104.805 160.368 104.8C159.946 104.785 159.025 104.528 158.735 104.72C158.406 104.94 157.679 105.126 157.67 104.528L157.254 104.66C157.245 104.785 157.21 105.526 157.207 105.571C157.192 105.792 157.239 106.015 157.36 106.197C157.635 106.621 158.491 106.375 158.984 106.278L160.45 106.086C160.984 105.98 161.332 105.617 161.426 105.3C161.45 105.085 161.303 104.891 161.086 104.854L161.083 104.857Z" fill="#062E4F"/>
<path d="M153.316 84.3608L153.143 84.9811C153.099 85.1355 153.07 85.2899 153.055 85.4471C152.982 86.1874 152.973 86.9335 153.029 87.6768L153.152 89.3004L153.53 102.656C153.492 103.193 155.331 103.247 155.325 102.601L155.694 88.7544L156.21 88.9517L157.201 104.588C157.201 105.14 159.037 105.191 159.054 104.528C159.054 104.528 159.597 88.6372 159.661 86.1446C159.708 84.3894 156.433 84.8611 156.433 84.7839L158.131 83.4918L153.313 84.358L153.316 84.3608Z" fill="#062E4F"/>
<path d="M157.785 81.6909C157.785 81.6909 151.78 82.7343 150.935 81.4479C150.56 80.8734 152.783 74.9875 152.783 74.9875L153.316 74.3444L154.82 74.7646C155.02 74.8189 155.31 74.5245 155.31 74.5245C155.061 75.3134 153.768 79.1468 153.463 80.0472C153.416 80.1873 157.849 80.4846 157.849 80.4846C157.512 80.5761 157.462 81.5566 157.782 81.6938L157.785 81.6909Z" fill="#062E4F"/>
<path d="M153.178 81.7767L153 84.7582C153.082 86.2703 159.327 86.5505 159.825 85.5386C159.922 85.3413 159.825 83.023 159.752 81.4994C159.708 80.6161 159.79 79.7271 160.001 78.8609C160.013 78.818 160.022 78.778 160.034 78.7323C160.168 78.1634 160.553 77.6803 161.086 77.4145C161.854 77.0257 163.461 76.3711 163.971 76.1424C164.288 76.0023 164.561 75.7851 164.769 75.5107L167.308 72.2519C167.589 71.9232 166.361 70.8969 166.033 71.1456L163.092 74.1786L161.382 74.7274C161.007 74.8475 160.602 74.8846 160.215 74.8103C159.462 74.6674 158.699 74.7674 158.653 74.756C158.392 74.6817 158.139 74.5759 157.902 74.4473C157.7 74.3387 157.556 74.2586 157.556 74.2586L157.524 74.2443L156.477 73.7012L156.395 73.6583C156.351 73.6383 156.181 73.7126 156.008 73.7927C155.829 73.8756 155.647 73.9613 155.589 73.9613C155.348 73.8756 155.111 73.8212 154.876 73.8098C154.782 73.8041 154.688 73.807 154.598 73.8098C153.598 73.8584 152.601 74.5159 152.648 75.8223L153.164 81.0306C153.187 81.2793 153.193 81.5251 153.178 81.7767Z" fill="#062E4F"/>
<path d="M155.131 74.5388C155.131 75.0161 155.932 75.4078 156.92 75.4078C157.752 75.4078 158.456 75.1276 158.65 74.7531C158.389 74.676 158.137 74.5731 157.899 74.4444C157.697 74.3358 157.553 74.2558 157.553 74.2558L157.521 74.2415L156.474 73.6983C156.307 73.7183 156.146 73.7498 156.005 73.7927C155.85 73.8384 155.706 73.8927 155.586 73.9613C155.301 74.1128 155.131 74.3158 155.131 74.5359V74.5388Z" fill="#062E4F"/>
<path d="M158.94 72.3948C158.641 73.8384 157.656 73.9756 156.732 73.5411C155.7 73.0551 155.07 71.8746 155.008 71.0113C154.914 69.6963 155.764 68.8388 156.882 68.7616C159.43 68.5901 159.043 71.8946 158.94 72.3948Z" fill="#062E4F"/>
<path d="M155.633 71.7145L155.735 74.5845C155.741 74.7188 155.873 74.8446 156.108 74.9189C156.515 75.0504 157.081 74.9933 157.374 74.7932C157.494 74.7103 157.547 74.6159 157.544 74.5245L157.445 71.6544L155.63 71.7173L155.633 71.7145Z" fill="#062E4F"/>
<path d="M156.805 70.5968C157.128 71.0084 157.612 71.2257 158.066 71.2028C158.213 71.1971 158.356 70.8426 158.544 70.6339C158.667 70.4967 158.852 70.5053 158.928 70.4396C159.26 70.1537 159.309 69.116 158.57 68.7015C157.846 68.2956 157.113 68.2899 156.609 68.3814C156.536 68.3957 157.008 68.6158 156.949 68.6644C156.371 69.096 156.307 69.9593 156.805 70.5939V70.5968Z" fill="#062E4F"/>
<path d="M156.506 72.7521L156.723 71.8974C156.782 71.6716 156.896 71.4629 157.058 71.2914C157.225 71.117 157.433 70.9855 157.667 70.9112L158.544 70.6339C158.491 71.3572 158.175 71.9517 157.494 72.6549C157.166 72.9951 156.811 73.2009 156.468 73.2753L156.462 73.1352C156.456 73.0066 156.471 72.8751 156.503 72.7521H156.506Z" fill="#062E4F"/>
<path d="M156.612 68.3842C157.682 68.2899 158.556 69.1475 158.559 70.4081C158.559 70.4853 158.553 70.5596 158.547 70.6339L157.67 70.9112C157.439 70.9855 157.228 71.1142 157.06 71.2914C156.899 71.4629 156.782 71.6716 156.726 71.8974L156.509 72.7521C156.477 72.8779 156.462 73.0066 156.468 73.1352L156.474 73.2753C155.817 73.4182 155.067 72.9437 154.812 72.0489C154.677 71.5773 153.507 68.6587 156.615 68.3842H156.612Z" fill="#062E4F"/>
<path d="M158.21 72.0947C158.456 72.392 158.494 72.7579 158.298 72.9122C158.101 73.0666 157.741 72.9522 157.497 72.6578C157.251 72.3605 157.213 71.9946 157.409 71.8403C157.606 71.6859 157.966 71.8002 158.21 72.0947Z" fill="#062E4F"/>
<path d="M21 58.4762C21 56.0041 23.0425 54 25.562 54H72.3223C74.8418 54 76.8843 56.0041 76.8843 58.4762V67.4286C76.8843 69.9007 74.8418 71.9048 72.3223 71.9048H25.562C23.0425 71.9048 21 69.9007 21 67.4286V58.4762Z" fill="white"/>
<path d="M34.1157 74.1429C34.1157 71.6707 36.1582 69.6667 38.6777 69.6667H85.438C87.9576 69.6667 90 71.6707 90 74.1429V83.0952C90 85.5674 87.9576 87.5714 85.438 87.5714H38.6777C36.1582 87.5714 34.1157 85.5674 34.1157 83.0952V74.1429Z" fill="#FFC039"/>
<path d="M35.2744 65.8035C35.2744 65.6963 35.1861 65.6117 35.0789 65.6117H26.3277C26.2184 65.6117 26.1322 65.6983 26.1322 65.8035V66.5399C26.1322 66.6471 26.2205 66.7317 26.3277 66.7317H35.0789C35.1882 66.7317 35.2744 66.6451 35.2744 66.5399V65.8035Z" fill="#062E4F"/>
<path d="M35.1945 60.4057L31.19 58.0482C30.8915 57.8728 30.5173 57.8728 30.2188 58.0482L26.2143 60.4057C26.1638 60.4346 26.1344 60.4882 26.1344 60.546V60.9626C26.1344 61.0534 26.2079 61.1256 26.3004 61.1256H35.1105C35.203 61.1256 35.2765 61.0534 35.2765 60.9626V60.546C35.2765 60.4882 35.245 60.4346 35.1966 60.4057H35.1945Z" fill="#062E4F"/>
<path d="M27.6688 61.6866H26.8826C26.7839 61.6866 26.704 61.7651 26.704 61.8619V64.8754C26.704 64.9722 26.7839 65.0507 26.8826 65.0507H27.6688C27.7675 65.0507 27.8475 64.9722 27.8475 64.8754V61.8619C27.8475 61.7651 27.7675 61.6866 27.6688 61.6866Z" fill="#062E4F"/>
<path d="M29.9538 61.6866H29.1676C29.069 61.6866 28.989 61.7651 28.989 61.8619V64.8754C28.989 64.9722 29.069 65.0507 29.1676 65.0507H29.9538C30.0525 65.0507 30.1325 64.9722 30.1325 64.8754V61.8619C30.1325 61.7651 30.0525 61.6866 29.9538 61.6866Z" fill="#062E4F"/>
<path d="M32.2389 61.6866H31.4527C31.354 61.6866 31.274 61.7651 31.274 61.8619V64.8754C31.274 64.9722 31.354 65.0507 31.4527 65.0507H32.2389C32.3375 65.0507 32.4175 64.9722 32.4175 64.8754V61.8619C32.4175 61.7651 32.3375 61.6866 32.2389 61.6866Z" fill="#062E4F"/>
<path d="M34.526 61.6866H33.7398C33.6411 61.6866 33.5611 61.7651 33.5611 61.8619V64.8754C33.5611 64.9722 33.6411 65.0507 33.7398 65.0507H34.526C34.6247 65.0507 34.7047 64.9722 34.7047 64.8754V61.8619C34.7047 61.7651 34.6247 61.6866 34.526 61.6866Z" fill="#062E4F"/>
<path d="M21 87.5714C21 85.0993 23.0425 83.0952 25.562 83.0952H72.3223C74.8418 83.0952 76.8843 85.0993 76.8843 87.5714V96.5238C76.8843 98.9959 74.8418 101 72.3223 101H25.562C23.0425 101 21 98.9959 21 96.5238V87.5714Z" fill="#FEDB8D"/>
<path d="M34.1339 95.4583C34.1339 95.351 34.0456 95.2665 33.9384 95.2665H25.1873C25.0779 95.2665 24.9918 95.3531 24.9918 95.4583V96.1946C24.9918 96.3019 25.08 96.3865 25.1873 96.3865H33.9384C34.0477 96.3865 34.1339 96.2998 34.1339 96.1946V95.4583Z" fill="#062E4F"/>
<path d="M34.0541 90.0605L30.0495 87.7029C29.751 87.5276 29.3769 87.5276 29.0784 87.7029L25.0738 90.0605C25.0234 90.0893 24.9939 90.143 24.9939 90.2007V90.6174C24.9939 90.7081 25.0675 90.7803 25.16 90.7803H33.97C34.0625 90.7803 34.1361 90.7081 34.1361 90.6174V90.2007C34.1361 90.143 34.1046 90.0893 34.0562 90.0605H34.0541Z" fill="#062E4F"/>
<path d="M26.5284 91.3413H25.7422C25.6435 91.3413 25.5635 91.4198 25.5635 91.5167V94.5301C25.5635 94.6269 25.6435 94.7054 25.7422 94.7054H26.5284C26.6271 94.7054 26.7071 94.6269 26.7071 94.5301V91.5167C26.7071 91.4198 26.6271 91.3413 26.5284 91.3413Z" fill="#062E4F"/>
<path d="M28.8134 91.3413H28.0272C27.9285 91.3413 27.8485 91.4198 27.8485 91.5167V94.5301C27.8485 94.6269 27.9285 94.7054 28.0272 94.7054H28.8134C28.9121 94.7054 28.9921 94.6269 28.9921 94.5301V91.5167C28.9921 91.4198 28.9121 91.3413 28.8134 91.3413Z" fill="#062E4F"/>
<path d="M31.0984 91.3413H30.3122C30.2135 91.3413 30.1335 91.4198 30.1335 91.5167V94.5301C30.1335 94.6269 30.2135 94.7054 30.3122 94.7054H31.0984C31.1971 94.7054 31.2771 94.6269 31.2771 94.5301V91.5167C31.2771 91.4198 31.1971 91.3413 31.0984 91.3413Z" fill="#062E4F"/>
<path d="M33.3856 91.3413H32.5994C32.5007 91.3413 32.4207 91.4198 32.4207 91.5167V94.5301C32.4207 94.6269 32.5007 94.7054 32.5994 94.7054H33.3856C33.4842 94.7054 33.5642 94.6269 33.5642 94.5301V91.5167C33.5642 91.4198 33.4842 91.3413 33.3856 91.3413Z" fill="#062E4F"/>
<path d="M40.9587 90.9286H69.4711V92.0476H40.9587V90.9286Z" fill="#FFAE00"/>
<path d="M40.9587 93.1667H69.4711V94.2857H40.9587V93.1667Z" fill="#FFAE00"/>
<path d="M48.3901 82.5892C48.3901 82.482 48.3018 82.3974 48.1946 82.3974H39.4434C39.3341 82.3974 39.2479 82.4841 39.2479 82.5892V83.3256C39.2479 83.4328 39.3362 83.5174 39.4434 83.5174H48.1946C48.3039 83.5174 48.3901 83.4308 48.3901 83.3256V82.5892Z" fill="#062E4F"/>
<path d="M48.3103 77.1914L44.3057 74.8339C44.0072 74.6586 43.633 74.6586 43.3345 74.8339L39.33 77.1914C39.2795 77.2203 39.2501 77.2739 39.2501 77.3317V77.7483C39.2501 77.8391 39.3237 77.9113 39.4162 77.9113H48.2262C48.3187 77.9113 48.3923 77.8391 48.3923 77.7483V77.3317C48.3923 77.2739 48.3607 77.2203 48.3124 77.1914H48.3103Z" fill="#062E4F"/>
<path d="M40.7845 78.4723H39.9984C39.8997 78.4723 39.8197 78.5508 39.8197 78.6476V81.6611C39.8197 81.7579 39.8997 81.8364 39.9984 81.8364H40.7845C40.8832 81.8364 40.9632 81.7579 40.9632 81.6611V78.6476C40.9632 78.5508 40.8832 78.4723 40.7845 78.4723Z" fill="#062E4F"/>
<path d="M43.0696 78.4723H42.2834C42.1847 78.4723 42.1047 78.5508 42.1047 78.6476V81.6611C42.1047 81.7579 42.1847 81.8364 42.2834 81.8364H43.0696C43.1682 81.8364 43.2482 81.7579 43.2482 81.6611V78.6476C43.2482 78.5508 43.1682 78.4723 43.0696 78.4723Z" fill="#062E4F"/>
<path d="M45.3546 78.4723H44.5684C44.4697 78.4723 44.3897 78.5508 44.3897 78.6476V81.6611C44.3897 81.7579 44.4697 81.8364 44.5684 81.8364H45.3546C45.4533 81.8364 45.5333 81.7579 45.5333 81.6611V78.6476C45.5333 78.5508 45.4533 78.4723 45.3546 78.4723Z" fill="#062E4F"/>
<path d="M47.6417 78.4723H46.8555C46.7568 78.4723 46.6768 78.5508 46.6768 78.6476V81.6611C46.6768 81.7579 46.7568 81.8364 46.8555 81.8364H47.6417C47.7404 81.8364 47.8204 81.7579 47.8204 81.6611V78.6476C47.8204 78.5508 47.7404 78.4723 47.6417 78.4723Z" fill="#062E4F"/>
<path d="M54.0744 76.9405H82.5868V78.0595H54.0744V76.9405Z" fill="#052E50"/>
<path d="M54.0744 79.1786H82.5868V80.2976H54.0744V79.1786Z" fill="#052E50"/>
<path d="M40.9587 61.2738H69.4711V62.3929H40.9587V61.2738Z" fill="#FEDB8D"/>
<path d="M40.9587 63.5119H69.4711V64.631H40.9587V63.5119Z" fill="#FEDB8D"/>
<path opacity="0.7" d="M308.819 50H277.528C272.106 50 267.711 54.4081 267.711 59.8458V91.2256C267.711 96.6633 272.106 101.071 277.528 101.071H308.819C314.241 101.071 318.636 96.6633 318.636 91.2256V59.8458C318.636 54.4081 314.241 50 308.819 50Z" fill="white"/>
<path d="M286.983 61.9117C294.448 58.5971 303.209 61.9913 306.515 69.4774C309.82 76.9635 306.435 85.7503 298.97 89.0649C291.506 92.3795 282.744 88.9853 279.439 81.4992C276.134 74.0131 279.518 65.2263 286.983 61.9117ZM297.631 86.0319C303.426 83.458 306.054 76.636 303.49 70.824C300.927 65.012 294.121 62.3738 288.326 64.9477C282.53 67.5217 279.9 74.3436 282.466 80.1587C285.033 85.9707 291.835 88.6089 297.634 86.035L297.631 86.0319Z" fill="#FFAF00"/>
<path d="M299.797 79.7455C299.797 79.5864 299.669 79.4609 299.514 79.4609H286.809C286.65 79.4609 286.525 79.5894 286.525 79.7455V80.8382C286.525 80.9973 286.653 81.1228 286.809 81.1228H299.514C299.672 81.1228 299.797 80.9942 299.797 80.8382V79.7455Z" fill="#062E4F"/>
<path d="M299.682 71.7361L293.868 68.2378C293.435 67.9777 292.891 67.9777 292.458 68.2378L286.644 71.7361C286.571 71.7789 286.528 71.8585 286.528 71.9442V72.5624C286.528 72.6971 286.635 72.8042 286.769 72.8042H299.56C299.694 72.8042 299.801 72.6971 299.801 72.5624V71.9442C299.801 71.8585 299.755 71.7789 299.685 71.7361H299.682Z" fill="#062E4F"/>
<path d="M288.756 73.6367H287.615C287.471 73.6367 287.355 73.7532 287.355 73.8968V78.3683C287.355 78.512 287.471 78.6284 287.615 78.6284H288.756C288.899 78.6284 289.015 78.512 289.015 78.3683V73.8968C289.015 73.7532 288.899 73.6367 288.756 73.6367Z" fill="#062E4F"/>
<path d="M292.073 73.6367H290.932C290.789 73.6367 290.673 73.7532 290.673 73.8968V78.3683C290.673 78.512 290.789 78.6284 290.932 78.6284H292.073C292.217 78.6284 292.333 78.512 292.333 78.3683V73.8968C292.333 73.7532 292.217 73.6367 292.073 73.6367Z" fill="#062E4F"/>
<path d="M295.391 73.6367H294.249C294.106 73.6367 293.99 73.7532 293.99 73.8968V78.3683C293.99 78.512 294.106 78.6284 294.249 78.6284H295.391C295.534 78.6284 295.65 78.512 295.65 78.3683V73.8968C295.65 73.7532 295.534 73.6367 295.391 73.6367Z" fill="#062E4F"/>
<path d="M298.711 73.6367H297.57C297.426 73.6367 297.31 73.7532 297.31 73.8968V78.3683C297.31 78.512 297.426 78.6284 297.57 78.6284H298.711C298.854 78.6284 298.97 78.512 298.97 78.3683V73.8968C298.97 73.7532 298.854 73.6367 298.711 73.6367Z" fill="#062E4F"/>
<path d="M406.982 47.843L392.996 55.5078C391.354 56.4059 390.331 58.0787 390.322 59.8917L390.36 93.1893V95.3279C390.577 98.2468 393.618 99.4564 395.462 98.766C395.477 98.766 395.489 98.766 395.491 98.7576C395.535 98.7407 395.574 98.7155 395.612 98.6958L408.146 89.9364C409.782 89.0271 410.797 87.3487 410.8 85.5328L412.392 64.5591L412.662 50.7983C412.747 48.8028 409.947 46.4678 406.979 47.8402L406.982 47.843Z" fill="#FFC240"/>
<g style="mix-blend-mode:multiply">
<path d="M408.085 49.1928L394.77 56.49C393.131 57.3909 392.111 59.0608 392.096 60.8739L392.052 95.7066C391.955 98.5329 394.266 99.5377 396.046 98.5441L409.905 90.8737C411.544 89.9587 412.574 88.3337 412.571 86.5234L412.738 51.0396C412.738 49.0834 410.43 47.7783 408.085 49.1956V49.1928Z" fill="#E2E9FB"/>
</g>
<path d="M408.246 49.5886L395.122 56.7791C393.507 57.666 392.501 59.3134 392.486 61.0984L392.442 95.4288C392.346 98.213 394.624 99.2037 396.377 98.2242L410.038 90.6632C411.653 89.7623 412.668 88.1597 412.665 86.3747L412.832 51.4016C412.832 49.4735 410.56 48.1853 408.246 49.583V49.5886Z" fill="#FFAE00"/>
<path d="M393.527 94.8002L393.594 67.4695L393.603 62.8666L411.659 52.9369L411.568 77.7192L411.542 84.9069L393.527 94.8002Z" fill="#FDEFCA"/>
<path d="M395.609 68.0841V76.7621L402.297 73.0433V64.3794L395.609 68.0841Z" fill="white"/>
<path d="M403.308 63.8854V72.5662L409.997 68.8475V60.1835L403.308 63.8854Z" fill="white"/>
<path d="M395.609 85.4738V88.4095L402.297 84.6907V81.7691L395.609 85.4738Z" fill="white"/>
<path d="M403.308 81.2779V84.2136L409.997 80.4949V77.5732L403.308 81.2779Z" fill="white"/>
<path d="M395.609 78.6566V79.2487L409.997 71.2808V70.7026L395.609 78.6566Z" fill="white"/>
<path d="M395.609 65.7799V66.3721L409.997 58.4013V57.826L395.609 65.7799Z" fill="white"/>
<path d="M395.609 80.7587V81.3565L409.997 73.3886V72.8048L395.609 80.7587Z" fill="white"/>
<path d="M395.609 82.8665V83.4615L409.997 75.4907V74.9125L395.609 82.8665Z" fill="white"/>
<path d="M407.31 69.9337C407.348 69.8663 407.38 69.8102 407.38 69.8102C407.304 69.6025 406.688 69.0692 406.785 68.9486C407.072 68.5977 408.307 69.9421 408.307 69.9421C408.307 69.9421 408.175 69.58 408.122 69.4622C408.063 69.3303 408.107 69.1843 408.186 69.131C408.336 69.0299 408.503 69.2068 408.535 69.305L408.993 70.088C409.054 70.1947 409.098 70.3098 409.122 70.4276L409.169 70.6634C409.219 70.9216 409.456 71.3959 409.518 71.5755L409.227 72.6392C409.16 72.4877 408.401 71.5924 408.269 71.4885C408.072 71.3398 407.867 71.1854 407.697 71.0058C407.697 71.0058 407.28 70.5848 407.248 70.3771C407.21 70.2256 407.231 70.0684 407.31 69.9337Z" fill="#062E4F"/>
<path d="M419.196 102.184C419.196 102.184 419.196 102.628 419.765 103.029C419.847 103.085 419.956 103.158 420.07 103.228C420.393 103.425 420.83 103.784 421.108 104.037C421.263 104.174 421.439 104.275 421.671 104.286C422.02 104.303 422.325 104.197 422.284 103.694C422.281 103.661 422.278 103.599 422.269 103.54C422.266 103.512 422.263 103.487 422.257 103.459C422.252 103.422 422.228 102.49 422.225 102.471C422.184 102.639 421.938 101.982 421.788 101.977C421.56 101.965 421.592 102.487 421.436 102.35C421.158 102.097 420.862 102.212 420.099 101.839L419.953 101.817C419.361 101.749 419.27 101.937 419.211 102.109C419.205 102.137 419.196 102.162 419.193 102.187L419.196 102.184Z" fill="#062E4F"/>
<path d="M414.737 104.48C414.737 104.48 415.273 104.43 415.452 104.424C415.874 104.41 416.795 104.157 417.085 104.345C417.414 104.562 418.141 104.744 418.15 104.157L418.566 104.286C418.575 104.41 418.61 105.137 418.613 105.182C418.628 105.398 418.581 105.617 418.46 105.796C418.185 106.212 417.329 105.97 416.836 105.875L415.37 105.687C414.836 105.583 414.487 105.227 414.394 104.915C414.37 104.705 414.517 104.514 414.734 104.477L414.737 104.48Z" fill="#062E4F"/>
<path d="M422.504 84.3568L422.677 84.9658C422.721 85.1174 422.75 85.2689 422.765 85.4233C422.838 86.1502 422.847 86.8827 422.791 87.6125L422.668 89.2066L422.29 102.319C422.328 102.847 420.489 102.9 420.495 102.266L420.126 88.6705L419.61 88.8642L418.619 104.216C418.619 104.758 416.783 104.809 416.766 104.157C416.766 104.157 416.223 88.5555 416.159 86.1081C416.112 84.3849 419.387 84.848 419.387 84.7722L417.689 83.5036L422.507 84.354L422.504 84.3568Z" fill="#062E4F"/>
<path d="M418.035 81.7354C418.035 81.7354 424.04 82.7598 424.885 81.4969C425.26 80.9327 423.037 75.154 423.037 75.154L422.504 74.5225L421 74.935C420.8 74.9884 420.51 74.6993 420.51 74.6993C420.759 75.4739 422.052 79.2376 422.357 80.1216C422.404 80.2592 417.971 80.551 417.971 80.551C418.308 80.6409 418.358 81.6035 418.038 81.7382L418.035 81.7354Z" fill="#062E4F"/>
<path d="M422.642 81.8196L422.82 84.7469C422.738 86.2316 416.493 86.5067 415.995 85.5131C415.898 85.3195 415.995 83.0433 416.068 81.5474C416.112 80.6802 416.03 79.8073 415.819 78.9569C415.807 78.9148 415.798 78.8755 415.786 78.8306C415.652 78.2721 415.267 77.7978 414.734 77.5368C413.966 77.1551 412.359 76.5124 411.849 76.2878C411.532 76.1503 411.259 75.937 411.051 75.6676L408.512 72.468C408.23 72.1453 409.459 71.1377 409.787 71.3819L412.728 74.3597L414.438 74.8986C414.813 75.0164 415.218 75.0529 415.605 74.9799C416.358 74.8396 417.12 74.9378 417.167 74.9266C417.428 74.8536 417.68 74.7498 417.918 74.6235C418.12 74.5169 418.264 74.4383 418.264 74.4383L418.296 74.4242L419.343 73.891L419.425 73.8489C419.469 73.8292 419.639 73.9022 419.812 73.9808C419.991 74.0622 420.173 74.1464 420.231 74.1464C420.472 74.0622 420.709 74.0089 420.944 73.9976C421.038 73.992 421.132 73.9948 421.222 73.9976C422.222 74.0453 423.219 74.6909 423.172 75.9735L422.656 81.0871C422.633 81.3313 422.627 81.5727 422.642 81.8196Z" fill="#062E4F"/>
<path d="M420.689 74.7133C420.689 75.182 419.888 75.5665 418.9 75.5665C418.068 75.5665 417.364 75.2915 417.17 74.9238C417.431 74.848 417.683 74.747 417.921 74.6207C418.123 74.514 418.267 74.4355 418.267 74.4355L418.299 74.4214L419.346 73.8882C419.513 73.9078 419.674 73.9387 419.815 73.9808C419.97 74.0257 420.114 74.079 420.234 74.1464C420.519 74.2951 420.689 74.4944 420.689 74.7105V74.7133Z" fill="#062E4F"/>
<path d="M416.88 72.6084C417.179 74.0257 418.164 74.1604 419.088 73.7338C420.12 73.2567 420.75 72.0976 420.812 71.25C420.906 69.9589 420.055 69.117 418.938 69.0412C416.39 68.8728 416.777 72.1172 416.88 72.6084Z" fill="#062E4F"/>
<path d="M420.187 71.9404L420.085 74.7582C420.079 74.8901 419.947 75.0136 419.712 75.0866C419.305 75.2157 418.739 75.1596 418.446 74.9631C418.326 74.8817 418.273 74.7891 418.276 74.6993L418.375 71.8815L420.19 71.9432L420.187 71.9404Z" fill="#062E4F"/>
<path d="M419.015 70.843C418.692 71.2472 418.208 71.4605 417.754 71.438C417.607 71.4324 417.464 71.0844 417.276 70.8795C417.153 70.7448 416.968 70.7532 416.892 70.6886C416.56 70.408 416.511 69.3892 417.249 68.9822C417.974 68.5837 418.707 68.5781 419.211 68.6679C419.284 68.6819 418.812 68.898 418.871 68.9458C419.449 69.3695 419.513 70.2171 419.015 70.8402V70.843Z" fill="#062E4F"/>
<path d="M419.314 72.9592L419.097 72.12C419.038 71.8983 418.924 71.6934 418.762 71.525C418.595 71.3538 418.387 71.2247 418.153 71.1517L417.276 70.8795C417.329 71.5896 417.645 72.1733 418.326 72.8638C418.654 73.1977 419.009 73.3998 419.352 73.4728L419.358 73.3353C419.363 73.209 419.349 73.0799 419.317 72.9592H419.314Z" fill="#062E4F"/>
<path d="M419.208 68.6707C418.138 68.5781 417.264 69.4201 417.261 70.6578C417.261 70.7336 417.267 70.8065 417.273 70.8795L418.15 71.1517C418.381 71.2247 418.592 71.351 418.759 71.525C418.921 71.6934 419.038 71.8983 419.094 72.12L419.311 72.9592C419.343 73.0827 419.358 73.209 419.352 73.3353L419.346 73.4728C420.003 73.6131 420.753 73.1472 421.008 72.2688C421.143 71.8057 422.313 68.9401 419.205 68.6707H419.208Z" fill="#062E4F"/>
<path d="M417.61 72.3137C417.364 72.6056 417.326 72.9648 417.522 73.1164C417.719 73.2679 418.079 73.1557 418.323 72.8666C418.569 72.5747 418.607 72.2154 418.411 72.0639C418.214 71.9123 417.853 72.0246 417.61 72.3137Z" fill="#062E4F"/>
<path fill-rule="evenodd" clip-rule="evenodd" d="M431.781 71.2143C436.288 71.2143 439.942 67.6166 439.942 63.1786C439.942 58.7406 436.288 55.1429 431.781 55.1429C427.274 55.1429 423.62 58.7406 423.62 63.1786C423.62 67.6166 427.274 71.2143 431.781 71.2143ZM436.424 60.9748L435.275 59.8441L430.809 64.2411L428.405 61.8735L427.256 63.0044L430.809 66.503L436.424 60.9748Z" fill="#FF7300"/>
<path d="M507.165 51.2857C507.165 49.3133 508.756 47.7143 510.719 47.7143H541.281C543.244 47.7143 544.835 49.3133 544.835 51.2857V102.714C544.835 104.687 543.244 106.286 541.281 106.286H510.719C508.756 106.286 507.165 104.687 507.165 102.714V51.2857Z" fill="#FCCD58"/>
<path d="M509.297 53.4286C509.297 51.4561 510.889 49.8571 512.851 49.8571H539.149C541.111 49.8571 542.702 51.4561 542.702 53.4286V100.571C542.702 102.544 541.111 104.143 539.149 104.143H512.851C510.889 104.143 509.297 102.544 509.297 100.571V53.4286Z" fill="#FFCF59"/>
<path fill-rule="evenodd" clip-rule="evenodd" d="M539.149 53.8957H512.851C511.163 53.8957 509.795 55.1803 509.795 56.765V100.806C509.795 102.391 511.163 103.676 512.851 103.676H539.149C540.837 103.676 542.205 102.391 542.205 100.806V56.765C542.205 55.1803 540.837 53.8957 539.149 53.8957ZM512.851 53.4286C510.889 53.4286 509.297 54.9224 509.297 56.765V100.806C509.297 102.649 510.889 104.143 512.851 104.143H539.149C541.111 104.143 542.702 102.649 542.702 100.806V56.765C542.702 54.9224 541.111 53.4286 539.149 53.4286H512.851Z" fill="#FFF3D9"/>
<path d="M512.141 66.2857C512.141 64.3133 513.732 62.7143 515.694 62.7143H536.661C538.624 62.7143 540.215 64.3133 540.215 66.2857V97C540.215 98.9724 538.624 100.571 536.661 100.571H515.694C513.732 100.571 512.141 98.9724 512.141 97V66.2857Z" fill="#FFE29B"/>
<path opacity="0.7" d="M533.767 73.3154C528.054 72.1086 518.697 73.3154 518.697 73.3154C517.977 89.4028 526.437 91.813 526.437 91.813C535.674 86.8198 533.767 73.3154 533.767 73.3154Z" fill="white"/>
<path d="M529.711 84.406H523.27C523.049 84.406 522.857 84.2569 522.804 84.0426L521.151 77.3186L520.384 77.2348C520.121 77.2058 519.932 76.9698 519.962 76.7089C519.991 76.447 520.228 76.2597 520.49 76.2887L521.59 76.4098C521.79 76.4326 521.955 76.5764 522.003 76.77L522.388 78.3361H531.562C531.71 78.3361 531.848 78.4034 531.939 78.5183C532.03 78.6342 532.062 78.7833 532.028 78.9261L530.845 83.7352L530.718 84.0468C530.64 84.2383 530.457 84.3677 530.25 84.3791L529.711 84.406Z" fill="#FF7300"/>
<path d="M524.714 84.9277C524.336 84.9277 524.031 85.232 524.031 85.6067C524.031 85.9814 524.337 86.2857 524.714 86.2857C525.09 86.2857 525.396 85.9814 525.396 85.6067C525.396 85.232 525.09 84.9277 524.714 84.9277Z" fill="#FF7300"/>
<path d="M528.859 84.9277C528.483 84.9277 528.177 85.232 528.177 85.6067C528.177 85.9814 528.483 86.2857 528.859 86.2857C529.237 86.2857 529.542 85.9814 529.542 85.6067C529.542 85.232 529.236 84.9277 528.859 84.9277Z" fill="#FF7300"/>
<path d="M534.63 72.784C527.651 71.0314 518.016 72.7645 518.016 72.7645C516.339 89.1138 526.336 92.8266 526.336 92.8266C536.513 88.4867 534.63 72.784 534.63 72.784ZM526.443 91.8851C526.443 91.8851 518.025 89.4876 518.741 73.4815C518.741 73.4815 528.05 72.2806 533.735 73.4815C533.735 73.4815 535.633 86.9181 526.443 91.8851Z" fill="#FF7300"/>
<ellipse cx="534.529" cy="73.0714" rx="4.61983" ry="4.64286" fill="#FF7300"/>
<path d="M533.996 73.9211L536.446 71.4587L536.823 71.8374L533.996 74.6786L532.3 72.9739L532.677 72.5952L533.996 73.9211Z" fill="white"/>
<g clip-path="url(#clip1_78_1466)">
<path d="M512.546 55.5541H507.165L513.92 49.1429H517.429L512.546 55.5541Z" fill="#FF7300"/>
<path d="M517.927 55.5541H512.546L517.429 49.1429H520.94L517.927 55.5541Z" fill="white"/>
<path d="M523.308 55.5541H517.927L520.94 49.1429H524.449L523.308 55.5541Z" fill="#FF7300"/>
<path d="M528.689 55.5541H523.308L524.449 49.1429H527.958L528.689 55.5541Z" fill="white"/>
<path d="M534.07 55.5541H528.689L527.958 49.1429H531.469L534.07 55.5541Z" fill="#FF7300"/>
<path d="M539.451 55.5541H534.07L531.469 49.1429H534.978L539.451 55.5541Z" fill="white"/>
<path d="M544.835 55.5541H539.451L534.978 49.1429H538.487L544.835 55.5541Z" fill="#FF7300"/>
<path d="M512.546 55.5541H507.179V55.8109C507.179 57.2504 508.388 58.4286 509.865 58.4286C511.342 58.4286 512.551 57.2504 512.551 55.8109V55.5473L512.546 55.5541Z" fill="#FF7300"/>
<path d="M523.29 55.5541H517.923V55.8109C517.923 57.2504 519.131 58.4286 520.608 58.4286C522.085 58.4286 523.294 57.2504 523.294 55.8109V55.5473L523.29 55.5541Z" fill="#FF7300"/>
<path d="M534.033 55.5541H528.666V55.8109C528.666 57.2504 529.875 58.4286 531.352 58.4286C532.829 58.4286 534.037 57.2504 534.037 55.8109V55.5473L534.033 55.5541Z" fill="#FF7300"/>
<path d="M544.776 55.5541H539.409V55.8109C539.409 57.2504 540.618 58.4286 542.095 58.4286C543.572 58.4286 544.781 57.2504 544.781 55.8109V55.5473L544.776 55.5541Z" fill="#FF7300"/>
<g style="mix-blend-mode:multiply" opacity="0.86">
<path d="M517.918 55.5541H512.551V55.8109C512.551 57.2504 513.76 58.4286 515.237 58.4286C516.714 58.4286 517.923 57.2504 517.923 55.8109V55.5473L517.918 55.5541Z" fill="#EAE4D9"/>
</g>
<g style="mix-blend-mode:multiply" opacity="0.86">
<path d="M528.661 55.5541H523.294V55.8109C523.294 57.2504 524.503 58.4286 525.98 58.4286C527.457 58.4286 528.666 57.2504 528.666 55.8109V55.5473L528.661 55.5541Z" fill="#EAE4D9"/>
</g>
<g style="mix-blend-mode:multiply" opacity="0.86">
<path d="M539.404 55.5541H534.037V55.8109C534.037 57.2504 535.246 58.4286 536.723 58.4286C538.2 58.4286 539.409 57.2504 539.409 55.8109V55.5473L539.404 55.5541Z" fill="#EAE4D9"/>
</g>
</g>
<circle cx="55.5" cy="26.5" r="9.5" fill="#052E50" stroke="white" stroke-width="4"/>
<path d="M55.014 22.333H56.499V30H55.014V24.72H53.254V23.521H54.2C54.739 23.521 55.014 23.301 55.014 22.74V22.333Z" fill="white"/>
<circle cx="172.5" cy="26.5" r="9.5" fill="#052E50" stroke="white" stroke-width="4"/>
<path d="M172.014 28.592H174.973V30H169.583V28.79C170.804 28.053 173.18 26.48 173.18 24.764C173.18 24.148 172.883 23.675 172.19 23.675C171.288 23.675 171.035 24.489 171.002 25.182L169.539 25.072C169.539 23.697 170.474 22.234 172.223 22.234C173.642 22.234 174.665 23.213 174.665 24.687C174.665 26.183 173.444 27.767 172.014 28.592Z" fill="white"/>
<circle cx="289.5" cy="26.5" r="9.5" fill="#052E50" stroke="white" stroke-width="4"/>
<path d="M289.701 30.11C288.183 30.11 286.808 29.274 286.808 27.536L288.293 27.448C288.293 28.251 288.92 28.68 289.745 28.68C290.438 28.68 291.098 28.383 291.098 27.558C291.098 26.568 290.152 26.579 289.371 26.579V25.413C290.427 25.413 290.691 25.039 290.691 24.555C290.691 23.939 290.251 23.642 289.69 23.642C289.063 23.642 288.667 24.016 288.656 24.632L287.182 24.533C287.182 23.07 288.359 22.223 289.712 22.223C291.021 22.223 292.187 23.004 292.187 24.346C292.187 24.962 291.934 25.501 291.373 25.82C292.242 26.139 292.594 26.865 292.594 27.668C292.594 29.296 291.197 30.11 289.701 30.11Z" fill="white"/>
<circle cx="406.5" cy="26.5" r="9.5" fill="#052E50" stroke="white" stroke-width="4"/>
<path d="M408.126 26.777H409.347V28.196H408.126V30H406.641V28.196H403.132V27.316L406.839 22.333H408.126V26.777ZM405.002 26.777H406.641V24.467L405.002 26.777Z" fill="white"/>
<circle cx="523.5" cy="26.5" r="9.5" fill="#052E50" stroke="white" stroke-width="4"/>
<path d="M523.41 25.187C524.983 25.187 526.061 26.408 526.061 27.805C526.061 29.268 524.884 30.621 523.212 30.621C521.716 30.621 520.561 29.565 520.385 28.256L521.848 28.014C521.903 28.553 522.31 29.191 523.19 29.191C524.114 29.191 524.477 28.465 524.477 27.805C524.477 27.178 524.136 26.573 523.212 26.573C522.585 26.573 522.211 26.881 522.002 27.233L520.616 26.892L521.364 22.833H525.72V24.252H522.585L522.365 25.429C522.739 25.231 523.113 25.187 523.41 25.187Z" fill="white"/>
<path d="M16.7988 145H14.8428L12.8748 141.604H12.0228V145H10.3428V136.636H13.1748C15.2268 136.636 16.0548 137.584 16.0548 139.072C16.0548 140.272 15.5148 141.04 14.5548 141.388L16.7988 145ZM12.0228 140.044H13.0068C13.7868 140.044 14.3628 139.9 14.3628 139.096C14.3628 138.304 13.7868 138.184 13.0068 138.184H12.0228V140.044Z" fill="#052E50"/>
<path d="M22.5287 142.024C22.5287 142.204 22.5167 142.372 22.4927 142.588H18.5207C18.5927 143.212 19.0127 143.656 19.8647 143.656C20.3567 143.656 20.8247 143.488 21.1967 143.044L22.3247 144.04C21.6887 144.748 20.8727 145.132 19.8527 145.132C17.7407 145.132 16.9007 143.62 16.9007 142.072C16.9007 140.56 17.7167 138.952 19.7567 138.952C21.6047 138.952 22.5287 140.296 22.5287 142.024ZM18.5087 141.352H20.9807C20.9567 140.704 20.4167 140.308 19.7447 140.308C18.9167 140.308 18.5807 140.872 18.5087 141.352Z" fill="#052E50"/>
<path d="M27.1811 136.636H28.8011V145H27.1811V144.472C26.7731 144.952 26.1251 145.132 25.5491 145.132C23.9771 145.132 23.0891 143.812 23.0891 142.036C23.0891 140.08 24.1571 138.952 25.5491 138.952C26.1851 138.952 26.8211 139.216 27.1811 139.624V136.636ZM25.9691 143.608C26.9531 143.608 27.3251 142.924 27.3251 142.048C27.3251 141.196 26.9651 140.44 25.9811 140.44C25.1531 140.44 24.7211 141.04 24.7211 142.048C24.7211 143.068 25.1531 143.608 25.9691 143.608Z" fill="#052E50"/>
<path d="M30.3062 138.112V136.636H31.9862V138.112H30.3062ZM30.3302 145V139.084H31.9622V145H30.3302Z" fill="#052E50"/>
<path d="M36.6509 138.952C37.0469 138.952 37.4069 139.06 37.8029 139.312L37.0229 140.764C36.8429 140.644 36.5669 140.56 36.2789 140.56C35.5229 140.56 35.1029 141.052 35.1029 142.132V145H33.4709V139.084H35.1149V140.02C35.3789 139.348 36.0029 138.952 36.6509 138.952Z" fill="#052E50"/>
<path d="M43.2123 142.024C43.2123 142.204 43.2003 142.372 43.1763 142.588H39.2043C39.2763 143.212 39.6963 143.656 40.5483 143.656C41.0403 143.656 41.5083 143.488 41.8803 143.044L43.0083 144.04C42.3723 144.748 41.5563 145.132 40.5363 145.132C38.4243 145.132 37.5843 143.62 37.5843 142.072C37.5843 140.56 38.4003 138.952 40.4403 138.952C42.2883 138.952 43.2123 140.296 43.2123 142.024ZM39.1923 141.352H41.6643C41.6403 140.704 41.1003 140.308 40.4283 140.308C39.6003 140.308 39.2643 140.872 39.1923 141.352Z" fill="#052E50"/>
<path d="M46.6407 145.132C44.6367 145.132 43.7127 143.596 43.7127 142.06C43.7127 140.5 44.6487 138.952 46.6287 138.952C47.8407 138.952 48.7767 139.528 49.2207 140.728L47.6847 141.34C47.5647 140.752 47.1567 140.368 46.6287 140.368C45.7047 140.368 45.3807 141.208 45.3807 142.06C45.3807 142.9 45.6927 143.704 46.6167 143.704C47.1447 143.704 47.5647 143.344 47.6967 142.768L49.1607 143.344C48.7647 144.448 47.8407 145.132 46.6407 145.132Z" fill="#052E50"/>
<path d="M53.4481 140.356H51.9601V143.092C51.9601 143.44 52.1041 143.788 52.7041 143.788C52.9321 143.788 53.1841 143.74 53.4481 143.656V144.94C53.0761 145.072 52.7041 145.132 52.3081 145.132C51.2521 145.132 50.3401 144.616 50.3401 143.224V140.356H49.3801V139.084H50.3401V138.076L51.9601 136.876V139.084H53.4481V140.356Z" fill="#052E50"/>
<path d="M54.5641 138.112V136.636H56.2441V138.112H54.5641ZM54.5881 145V139.084H56.2201V145H54.5881Z" fill="#052E50"/>
<path d="M60.2007 145.132C58.3287 145.132 57.2007 143.68 57.2007 142.036C57.2007 140.38 58.3167 138.952 60.2007 138.952C62.0727 138.952 63.2007 140.38 63.2007 142.036C63.2007 143.68 62.0607 145.132 60.2007 145.132ZM60.2007 143.704C61.2327 143.704 61.5807 142.888 61.5807 142.036C61.5807 141.172 61.2447 140.368 60.2007 140.368C59.1687 140.368 58.8207 141.172 58.8207 142.036C58.8207 142.876 59.1567 143.704 60.2007 143.704Z" fill="#052E50"/>
<path d="M67.5457 138.952C68.9017 138.952 69.6817 139.768 69.6817 141.124V145H68.0617V141.64C68.0617 141.208 68.0617 140.368 67.0417 140.368C65.8177 140.368 65.8177 141.58 65.8177 142.432V145H64.1857V139.084H65.8177V139.696C66.2497 139.144 66.8737 138.952 67.5457 138.952Z" fill="#052E50"/>
<path d="M77.1838 143.932L77.1958 144.94C76.8478 145.048 76.4998 145.108 76.1758 145.108C75.2398 145.108 74.4958 144.616 74.4958 143.428V140.08H73.5238V139.084H74.4958V137.812L75.7318 136.888V139.084H77.1838V140.08H75.7318V143.32C75.7318 143.824 76.0078 144.064 76.4758 144.064C76.6798 144.064 76.9198 144.016 77.1838 143.932Z" fill="#052E50"/>
<path d="M80.8982 145.108C79.1102 145.108 77.9702 143.728 77.9702 142.036C77.9702 140.332 79.1102 138.976 80.8982 138.976C82.6742 138.976 83.8142 140.332 83.8142 142.036C83.8142 143.728 82.6742 145.108 80.8982 145.108ZM80.8982 144.028C82.0502 144.028 82.5782 143.116 82.5782 142.036C82.5782 140.944 82.0382 140.056 80.8982 140.056C79.7462 140.056 79.2062 140.944 79.2062 142.036C79.2062 143.128 79.7462 144.028 80.8982 144.028Z" fill="#052E50"/>
<path d="M90.3859 138.976C91.9219 138.976 92.8579 139.84 92.8579 141.28V145H91.7299L91.6339 144.16C91.2499 144.76 90.5659 145.108 89.7259 145.108C88.4659 145.108 87.6259 144.352 87.6259 143.224C87.6259 142.552 87.9139 142.048 88.4419 141.784C88.8499 141.58 89.4019 141.484 90.2419 141.484H91.6219V141.28C91.6219 140.512 91.1539 140.056 90.3739 140.056C89.7259 140.056 89.1499 140.368 88.7059 140.98L87.8059 140.224C88.4899 139.384 89.3299 138.976 90.3859 138.976ZM89.9539 144.064C90.9139 144.064 91.6219 143.392 91.6219 142.456V142.432H90.3859C89.7019 142.432 89.3539 142.492 89.1259 142.672C88.9459 142.792 88.8619 142.996 88.8619 143.248C88.8619 143.752 89.2819 144.064 89.9539 144.064Z" fill="#052E50"/>
<path d="M21.1583 161.108C20.3903 161.108 19.8504 160.64 19.8504 159.632V152.636H21.0864V159.548C21.0864 159.86 21.2423 160.016 21.5543 160.016C21.6983 160.016 21.8664 159.992 22.0464 159.932V160.94C21.7464 161.048 21.4344 161.108 21.1583 161.108Z" fill="#052E50"/>
<path d="M23.167 153.932V152.636H24.487V153.932H23.167ZM23.215 161V155.084H24.451V161H23.215Z" fill="#052E50"/>
<path d="M28.1331 161.108C26.9091 161.108 25.9611 160.412 25.6731 159.488L26.6691 159.044C26.8491 159.536 27.2451 160.064 28.0851 160.064C28.7931 160.064 29.1651 159.68 29.1651 159.26C29.1651 158.072 25.9971 158.84 25.9971 156.68C25.9971 155.576 26.9571 154.976 28.1211 154.976C29.1171 154.976 29.8851 155.42 30.3171 156.236L29.3571 156.764C29.1291 156.344 28.7571 155.972 28.0731 155.972C27.5211 155.972 27.1731 156.224 27.1731 156.584C27.1731 157.652 30.3771 157.004 30.3771 159.188C30.3771 160.508 29.2611 161.108 28.1331 161.108Z" fill="#052E50"/>
<path d="M34.6623 159.932L34.6743 160.94C34.3263 161.048 33.9783 161.108 33.6543 161.108C32.7183 161.108 31.9743 160.616 31.9743 159.428V156.08H31.0023V155.084H31.9743V153.812L33.2103 152.888V155.084H34.6623V156.08H33.2103V159.32C33.2103 159.824 33.4863 160.064 33.9543 160.064C34.1583 160.064 34.3983 160.016 34.6623 159.932Z" fill="#052E50"/>
<path d="M41.4471 161.108C39.6591 161.108 38.5191 159.728 38.5191 158.036C38.5191 156.332 39.6591 154.976 41.4471 154.976C43.2231 154.976 44.3631 156.332 44.3631 158.036C44.3631 159.728 43.2231 161.108 41.4471 161.108ZM41.4471 160.028C42.5991 160.028 43.1271 159.116 43.1271 158.036C43.1271 156.944 42.5871 156.056 41.4471 156.056C40.2951 156.056 39.7551 156.944 39.7551 158.036C39.7551 159.128 40.2951 160.028 41.4471 160.028Z" fill="#052E50"/>
<path d="M46.0396 161V156.08H44.8756V155.084H46.0516V154.328C46.0516 152.912 46.8676 152.528 47.7436 152.528C48.1516 152.528 48.5116 152.612 48.8356 152.756L48.4276 153.716C48.2596 153.62 48.0676 153.56 47.8756 153.56C47.3716 153.56 47.2756 153.98 47.2756 154.304V155.084H48.7636V156.08H47.2756V161H46.0396Z" fill="#052E50"/>
<path d="M55.8057 154.964C57.3177 154.964 58.3377 156.128 58.3377 158.036C58.3377 159.812 57.4497 161.108 55.8057 161.108C55.0977 161.108 54.4257 160.868 54.0177 160.34V161H52.7817V152.636H54.0177V155.744C54.3897 155.264 55.0737 154.964 55.8057 154.964ZM55.5297 159.98C56.5857 159.98 57.1017 159.224 57.1017 158.048C57.1017 156.836 56.5617 156.08 55.5177 156.08C54.4377 156.08 53.8977 156.92 53.8977 158.048C53.8977 159.152 54.4137 159.98 55.5297 159.98Z" fill="#052E50"/>
<path d="M61.9387 154.976C63.4747 154.976 64.4107 155.84 64.4107 157.28V161H63.2827L63.1867 160.16C62.8027 160.76 62.1187 161.108 61.2787 161.108C60.0187 161.108 59.1787 160.352 59.1787 159.224C59.1787 158.552 59.4667 158.048 59.9947 157.784C60.4027 157.58 60.9547 157.484 61.7947 157.484H63.1747V157.28C63.1747 156.512 62.7067 156.056 61.9267 156.056C61.2787 156.056 60.7027 156.368 60.2587 156.98L59.3587 156.224C60.0427 155.384 60.8827 154.976 61.9387 154.976ZM61.5067 160.064C62.4667 160.064 63.1747 159.392 63.1747 158.456V158.432H61.9387C61.2547 158.432 60.9067 158.492 60.6787 158.672C60.4987 158.792 60.4147 158.996 60.4147 159.248C60.4147 159.752 60.8347 160.064 61.5067 160.064Z" fill="#052E50"/>
<path d="M69.1779 154.976C70.4859 154.976 71.2059 155.792 71.2059 157.244V161H69.9699V157.556C69.9699 156.86 69.8379 156.056 68.8179 156.056C67.5459 156.056 67.3299 157.28 67.3299 158.54V161H66.0939V155.084H67.3299V155.816C67.7379 155.252 68.4099 154.976 69.1779 154.976Z" fill="#052E50"/>
<path d="M72.938 161V152.636H74.174V157.724L76.598 155.084H78.266L76.07 157.352L78.542 161H77.066L75.23 158.12L74.174 159.272V161H72.938Z" fill="#052E50"/>
<path d="M81.3245 161.108C80.1005 161.108 79.1525 160.412 78.8645 159.488L79.8605 159.044C80.0405 159.536 80.4365 160.064 81.2765 160.064C81.9845 160.064 82.3565 159.68 82.3565 159.26C82.3565 158.072 79.1885 158.84 79.1885 156.68C79.1885 155.576 80.1485 154.976 81.3125 154.976C82.3085 154.976 83.0765 155.42 83.5085 156.236L82.5485 156.764C82.3205 156.344 81.9485 155.972 81.2645 155.972C80.7125 155.972 80.3645 156.224 80.3645 156.584C80.3645 157.652 83.5685 157.004 83.5685 159.188C83.5685 160.508 82.4525 161.108 81.3245 161.108Z" fill="#052E50"/>
<path d="M151.518 145V136.636H154.314C155.946 136.636 156.918 137.416 156.918 138.736C156.918 139.552 156.558 140.188 155.934 140.512C156.858 140.812 157.35 141.52 157.35 142.588C157.35 144.112 156.354 145 154.65 145H151.518ZM152.802 140.068H154.374C155.178 140.068 155.634 139.672 155.634 138.964C155.634 138.232 155.154 137.824 154.314 137.824H152.802V140.068ZM152.802 143.812H154.542C155.502 143.812 156.066 143.32 156.066 142.48C156.066 141.688 155.55 141.232 154.626 141.232H152.802V143.812Z" fill="#052E50"/>
<path d="M161.021 138.976C162.557 138.976 163.493 139.84 163.493 141.28V145H162.365L162.269 144.16C161.885 144.76 161.201 145.108 160.361 145.108C159.101 145.108 158.261 144.352 158.261 143.224C158.261 142.552 158.549 142.048 159.077 141.784C159.485 141.58 160.037 141.484 160.877 141.484H162.257V141.28C162.257 140.512 161.789 140.056 161.009 140.056C160.361 140.056 159.785 140.368 159.341 140.98L158.441 140.224C159.125 139.384 159.965 138.976 161.021 138.976ZM160.589 144.064C161.549 144.064 162.257 143.392 162.257 142.456V142.432H161.021C160.337 142.432 159.989 142.492 159.761 142.672C159.581 142.792 159.497 142.996 159.497 143.248C159.497 143.752 159.917 144.064 160.589 144.064Z" fill="#052E50"/>
<path d="M168.26 138.976C169.568 138.976 170.288 139.792 170.288 141.244V145H169.052V141.556C169.052 140.86 168.92 140.056 167.9 140.056C166.628 140.056 166.412 141.28 166.412 142.54V145H165.176V139.084H166.412V139.816C166.82 139.252 167.492 138.976 168.26 138.976Z" fill="#052E50"/>
<path d="M172.02 145V136.636H173.256V141.724L175.68 139.084H177.348L175.152 141.352L177.624 145H176.148L174.312 142.12L173.256 143.272V145H172.02Z" fill="#052E50"/>
<path d="M142.763 161.132C141.491 161.132 140.543 160.316 140.267 159.44L141.551 158.864C141.695 159.236 141.923 159.8 142.727 159.8C143.315 159.8 143.531 159.5 143.531 159.26C143.531 158.348 140.591 158.888 140.591 156.74C140.591 155.504 141.683 154.952 142.787 154.952C143.843 154.952 144.623 155.456 145.079 156.248L143.831 156.944C143.651 156.62 143.375 156.188 142.751 156.188C142.355 156.188 142.127 156.38 142.127 156.608C142.127 157.448 145.127 156.896 145.127 159.092C145.127 160.52 143.879 161.132 142.763 161.132Z" fill="#052E50"/>
<path d="M151.289 158.024C151.289 158.204 151.277 158.372 151.253 158.588H147.281C147.353 159.212 147.773 159.656 148.625 159.656C149.117 159.656 149.585 159.488 149.957 159.044L151.085 160.04C150.449 160.748 149.633 161.132 148.613 161.132C146.501 161.132 145.661 159.62 145.661 158.072C145.661 156.56 146.477 154.952 148.517 154.952C150.365 154.952 151.289 156.296 151.289 158.024ZM147.269 157.352H149.741C149.717 156.704 149.177 156.308 148.505 156.308C147.677 156.308 147.341 156.872 147.269 157.352Z" fill="#052E50"/>
<path d="M153.709 161.132C152.881 161.132 152.245 160.64 152.245 159.536V152.636H153.865V159.368C153.865 159.644 154.009 159.716 154.249 159.716C154.369 159.716 154.513 159.692 154.669 159.656V160.94C154.321 161.072 153.985 161.132 153.709 161.132Z" fill="#052E50"/>
<path d="M160.781 158.024C160.781 158.204 160.769 158.372 160.745 158.588H156.773C156.845 159.212 157.265 159.656 158.117 159.656C158.609 159.656 159.077 159.488 159.449 159.044L160.577 160.04C159.941 160.748 159.125 161.132 158.105 161.132C155.993 161.132 155.153 159.62 155.153 158.072C155.153 156.56 155.969 154.952 158.009 154.952C159.857 154.952 160.781 156.296 160.781 158.024ZM156.761 157.352H159.233C159.209 156.704 158.669 156.308 157.997 156.308C157.169 156.308 156.833 156.872 156.761 157.352Z" fill="#052E50"/>
<path d="M164.209 161.132C162.205 161.132 161.281 159.596 161.281 158.06C161.281 156.5 162.217 154.952 164.197 154.952C165.409 154.952 166.345 155.528 166.789 156.728L165.253 157.34C165.133 156.752 164.725 156.368 164.197 156.368C163.273 156.368 162.949 157.208 162.949 158.06C162.949 158.9 163.261 159.704 164.185 159.704C164.713 159.704 165.133 159.344 165.265 158.768L166.729 159.344C166.333 160.448 165.409 161.132 164.209 161.132Z" fill="#052E50"/>
<path d="M171.016 156.356H169.528V159.092C169.528 159.44 169.672 159.788 170.272 159.788C170.5 159.788 170.752 159.74 171.016 159.656V160.94C170.644 161.072 170.272 161.132 169.876 161.132C168.82 161.132 167.908 160.616 167.908 159.224V156.356H166.948V155.084H167.908V154.076L169.528 152.876V155.084H171.016V156.356Z" fill="#052E50"/>
<path d="M172.132 154.112V152.636H173.812V154.112H172.132ZM172.156 161V155.084H173.788V161H172.156Z" fill="#052E50"/>
<path d="M177.769 161.132C175.897 161.132 174.769 159.68 174.769 158.036C174.769 156.38 175.885 154.952 177.769 154.952C179.641 154.952 180.769 156.38 180.769 158.036C180.769 159.68 179.629 161.132 177.769 161.132ZM177.769 159.704C178.801 159.704 179.149 158.888 179.149 158.036C179.149 157.172 178.813 156.368 177.769 156.368C176.737 156.368 176.389 157.172 176.389 158.036C176.389 158.876 176.725 159.704 177.769 159.704Z" fill="#052E50"/>
<path d="M185.114 154.952C186.47 154.952 187.25 155.768 187.25 157.124V161H185.63V157.64C185.63 157.208 185.63 156.368 184.61 156.368C183.386 156.368 183.386 157.58 183.386 158.432V161H181.754V155.084H183.386V155.696C183.818 155.144 184.442 154.952 185.114 154.952Z" fill="#052E50"/>
<path d="M241.173 145V136.636H242.865V143.44H246.369V145H241.173Z" fill="#052E50"/>
<path d="M249.628 145.132C247.756 145.132 246.628 143.68 246.628 142.036C246.628 140.38 247.744 138.952 249.628 138.952C251.5 138.952 252.628 140.38 252.628 142.036C252.628 143.68 251.488 145.132 249.628 145.132ZM249.628 143.704C250.66 143.704 251.008 142.888 251.008 142.036C251.008 141.172 250.672 140.368 249.628 140.368C248.596 140.368 248.248 141.172 248.248 142.036C248.248 142.876 248.584 143.704 249.628 143.704Z" fill="#052E50"/>
<path d="M256 144.04C257.452 144.22 258.808 144.388 258.808 145.756C258.808 147.052 257.644 147.64 256.036 147.64C254.296 147.64 253.204 146.944 253.204 145.756C253.204 145.636 253.216 145.528 253.24 145.432L254.104 145C253.672 144.76 253.372 144.364 253.372 143.728C253.372 143.212 253.564 142.84 253.888 142.528C253.588 142.168 253.42 141.7 253.42 141.184C253.42 139.852 254.56 138.952 255.904 138.952C256.396 138.952 256.864 139.072 257.26 139.3L258.184 138.508L259.036 139.528L258.172 140.236C258.316 140.536 258.4 140.872 258.4 141.244C258.4 142.564 257.344 143.416 255.952 143.416C255.532 143.416 255.148 143.344 254.812 143.2C254.752 143.272 254.716 143.368 254.716 143.464C254.716 143.86 255.256 143.956 256 144.04ZM255.928 140.308C255.376 140.308 255.052 140.668 255.052 141.196C255.052 141.7 255.316 142.12 255.928 142.12C256.516 142.12 256.78 141.712 256.78 141.196C256.78 140.656 256.468 140.308 255.928 140.308ZM256.108 146.44C256.78 146.44 257.188 146.272 257.188 145.972C257.188 145.54 256.444 145.504 255.688 145.408C255.544 145.396 255.412 145.372 255.268 145.348L254.836 145.768C254.824 145.792 254.824 145.828 254.824 145.852C254.824 146.26 255.388 146.44 256.108 146.44Z" fill="#052E50"/>
<path d="M262.695 138.112V136.636H264.375V138.112H262.695ZM262.719 145V139.084H264.351V145H262.719Z" fill="#052E50"/>
<path d="M269.219 138.952C270.575 138.952 271.355 139.768 271.355 141.124V145H269.735V141.64C269.735 141.208 269.735 140.368 268.715 140.368C267.491 140.368 267.491 141.58 267.491 142.432V145H265.859V139.084H267.491V139.696C267.923 139.144 268.547 138.952 269.219 138.952Z" fill="#052E50"/>
<path d="M276.844 145L275.044 139.084H276.364L277.456 143.116L278.728 139.084H279.796L281.056 143.104L282.172 139.084H283.48L281.692 145H280.564L279.268 140.824L277.96 145H276.844Z" fill="#052E50"/>
<path d="M284.507 137.932V136.636H285.827V137.932H284.507ZM284.555 145V139.084H285.791V145H284.555Z" fill="#052E50"/>
<path d="M290.553 143.932L290.565 144.94C290.217 145.048 289.869 145.108 289.545 145.108C288.609 145.108 287.865 144.616 287.865 143.428V140.08H286.893V139.084H287.865V137.812L289.101 136.888V139.084H290.553V140.08H289.101V143.32C289.101 143.824 289.377 144.064 289.845 144.064C290.049 144.064 290.289 144.016 290.553 143.932Z" fill="#052E50"/>
<path d="M294.822 138.976C296.142 138.976 296.862 139.78 296.862 141.244V145H295.626V141.556C295.626 140.524 295.254 140.056 294.462 140.056C293.454 140.056 292.986 140.836 292.986 142.516V145H291.75V136.636H292.986V139.816C293.37 139.276 294.018 138.976 294.822 138.976Z" fill="#052E50"/>
<path d="M302.073 147.448L303.105 144.868L300.729 139.084H302.085L303.765 143.44L305.373 139.084H306.729L303.405 147.448H302.073Z" fill="#052E50"/>
<path d="M309.83 145.108C308.042 145.108 306.902 143.728 306.902 142.036C306.902 140.332 308.042 138.976 309.83 138.976C311.606 138.976 312.746 140.332 312.746 142.036C312.746 143.728 311.606 145.108 309.83 145.108ZM309.83 144.028C310.982 144.028 311.51 143.116 311.51 142.036C311.51 140.944 310.97 140.056 309.83 140.056C308.678 140.056 308.138 140.944 308.138 142.036C308.138 143.128 308.678 144.028 309.83 144.028Z" fill="#052E50"/>
<path d="M317.771 139.084H319.007V145H317.771V144.256C317.351 144.844 316.667 145.108 315.947 145.108C314.507 145.108 313.895 144.088 313.895 142.756V139.084H315.131V142.444C315.131 143.044 315.191 144.028 316.295 144.028C317.579 144.028 317.771 142.708 317.771 141.484V139.084Z" fill="#052E50"/>
<path d="M323.74 138.976C324.124 138.976 324.472 139.06 324.832 139.276L324.232 140.356C324.004 140.224 323.776 140.152 323.5 140.152C322.612 140.152 322.096 140.74 322.096 141.916V145H320.86V139.084H322.108V140.056C322.408 139.312 323.092 138.976 323.74 138.976Z" fill="#052E50"/>
<path d="M249.873 155.084H251.109V161H249.873V160.256C249.453 160.844 248.769 161.108 248.049 161.108C246.609 161.108 245.997 160.088 245.997 158.756V155.084H247.233V158.444C247.233 159.044 247.293 160.028 248.397 160.028C249.681 160.028 249.873 158.708 249.873 157.484V155.084Z" fill="#052E50"/>
<path d="M254.797 161.108C253.573 161.108 252.625 160.412 252.337 159.488L253.333 159.044C253.513 159.536 253.909 160.064 254.749 160.064C255.457 160.064 255.829 159.68 255.829 159.26C255.829 158.072 252.661 158.84 252.661 156.68C252.661 155.576 253.621 154.976 254.785 154.976C255.781 154.976 256.549 155.42 256.981 156.236L256.021 156.764C255.793 156.344 255.421 155.972 254.737 155.972C254.185 155.972 253.837 156.224 253.837 156.584C253.837 157.652 257.041 157.004 257.041 159.188C257.041 160.508 255.925 161.108 254.797 161.108Z" fill="#052E50"/>
<path d="M262.095 155.084H263.331V161H262.095V160.256C261.675 160.844 260.991 161.108 260.271 161.108C258.831 161.108 258.219 160.088 258.219 158.756V155.084H259.455V158.444C259.455 159.044 259.515 160.028 260.619 160.028C261.903 160.028 262.095 158.708 262.095 157.484V155.084Z" fill="#052E50"/>
<path d="M267.392 154.976C268.928 154.976 269.864 155.84 269.864 157.28V161H268.736L268.64 160.16C268.256 160.76 267.572 161.108 266.732 161.108C265.472 161.108 264.632 160.352 264.632 159.224C264.632 158.552 264.92 158.048 265.448 157.784C265.856 157.58 266.408 157.484 267.248 157.484H268.628V157.28C268.628 156.512 268.16 156.056 267.38 156.056C266.732 156.056 266.156 156.368 265.712 156.98L264.812 156.224C265.496 155.384 266.336 154.976 267.392 154.976ZM266.96 160.064C267.92 160.064 268.628 159.392 268.628 158.456V158.432H267.392C266.708 158.432 266.36 158.492 266.132 158.672C265.952 158.792 265.868 158.996 265.868 159.248C265.868 159.752 266.288 160.064 266.96 160.064Z" fill="#052E50"/>
<path d="M272.795 161.108C272.027 161.108 271.487 160.64 271.487 159.632V152.636H272.723V159.548C272.723 159.86 272.879 160.016 273.191 160.016C273.335 160.016 273.503 159.992 273.683 159.932V160.94C273.383 161.048 273.071 161.108 272.795 161.108Z" fill="#052E50"/>
<path d="M280.923 154.964C282.435 154.964 283.455 156.128 283.455 158.036C283.455 159.812 282.567 161.108 280.923 161.108C280.215 161.108 279.543 160.868 279.135 160.34V161H277.899V152.636H279.135V155.744C279.507 155.264 280.191 154.964 280.923 154.964ZM280.647 159.98C281.703 159.98 282.219 159.224 282.219 158.048C282.219 156.836 281.679 156.08 280.635 156.08C279.555 156.08 279.015 156.92 279.015 158.048C279.015 159.152 279.531 159.98 280.647 159.98Z" fill="#052E50"/>
<path d="M287.056 154.976C288.592 154.976 289.528 155.84 289.528 157.28V161H288.4L288.304 160.16C287.92 160.76 287.236 161.108 286.396 161.108C285.136 161.108 284.296 160.352 284.296 159.224C284.296 158.552 284.584 158.048 285.112 157.784C285.52 157.58 286.072 157.484 286.912 157.484H288.292V157.28C288.292 156.512 287.824 156.056 287.044 156.056C286.396 156.056 285.82 156.368 285.376 156.98L284.476 156.224C285.16 155.384 286 154.976 287.056 154.976ZM286.624 160.064C287.584 160.064 288.292 159.392 288.292 158.456V158.432H287.056C286.372 158.432 286.024 158.492 285.796 158.672C285.616 158.792 285.532 158.996 285.532 159.248C285.532 159.752 285.952 160.064 286.624 160.064Z" fill="#052E50"/>
<path d="M294.295 154.976C295.603 154.976 296.323 155.792 296.323 157.244V161H295.087V157.556C295.087 156.86 294.955 156.056 293.935 156.056C292.663 156.056 292.447 157.28 292.447 158.54V161H291.211V155.084H292.447V155.816C292.855 155.252 293.527 154.976 294.295 154.976Z" fill="#052E50"/>
<path d="M298.055 161V152.636H299.291V157.724L301.715 155.084H303.383L301.187 157.352L303.659 161H302.183L300.347 158.12L299.291 159.272V161H298.055Z" fill="#052E50"/>
<path d="M304.558 153.932V152.636H305.878V153.932H304.558ZM304.606 161V155.084H305.842V161H304.606Z" fill="#052E50"/>
<path d="M310.772 154.976C312.08 154.976 312.8 155.792 312.8 157.244V161H311.564V157.556C311.564 156.86 311.432 156.056 310.412 156.056C309.14 156.056 308.924 157.28 308.924 158.54V161H307.688V155.084H308.924V155.816C309.332 155.252 310.004 154.976 310.772 154.976Z" fill="#052E50"/>
<path d="M316.716 160.16C317.904 160.328 319.404 160.472 319.404 161.84C319.404 163.04 318.3 163.556 316.74 163.556C315.012 163.556 314.016 162.908 314.016 161.708C314.016 161.564 314.028 161.504 314.04 161.444L314.928 160.82C314.496 160.592 314.196 160.232 314.196 159.62C314.196 159.116 314.4 158.744 314.784 158.456C314.472 158.084 314.292 157.616 314.292 157.1C314.292 155.852 315.348 154.976 316.656 154.976C317.184 154.976 317.676 155.12 318.072 155.384L318.948 154.628L319.596 155.42L318.756 156.104C318.936 156.416 319.032 156.776 319.032 157.172C319.032 158.456 317.976 159.284 316.692 159.284C316.26 159.284 315.876 159.188 315.528 159.032C315.372 159.128 315.288 159.26 315.288 159.44C315.288 159.92 315.936 160.052 316.716 160.16ZM316.68 156.008C315.984 156.008 315.516 156.464 315.516 157.136C315.516 157.772 315.924 158.264 316.668 158.264C317.412 158.264 317.796 157.784 317.796 157.136C317.796 156.452 317.364 156.008 316.68 156.008ZM316.788 162.608C317.544 162.608 318.168 162.416 318.168 161.948C318.168 161.408 317.352 161.336 316.452 161.204C316.26 161.18 316.056 161.144 315.852 161.108L315.252 161.696C315.24 161.744 315.24 161.78 315.24 161.804C315.24 162.416 316.008 162.608 316.788 162.608Z" fill="#052E50"/>
<path d="M256.056 177.108C254.196 177.108 253.26 175.644 253.26 174.06C253.26 172.5 254.16 170.976 256.044 170.976C257.184 170.976 258.096 171.528 258.552 172.68L257.376 173.136C257.184 172.476 256.692 172.056 256.044 172.056C254.964 172.056 254.52 173.028 254.52 174.06C254.52 175.092 254.952 176.028 256.056 176.028C256.68 176.028 257.184 175.62 257.364 174.96L258.492 175.392C258.096 176.496 257.196 177.108 256.056 177.108Z" fill="#052E50"/>
<path d="M262.632 170.976C263.016 170.976 263.364 171.06 263.724 171.276L263.124 172.356C262.896 172.224 262.668 172.152 262.392 172.152C261.504 172.152 260.988 172.74 260.988 173.916V177H259.752V171.084H261V172.056C261.3 171.312 261.984 170.976 262.632 170.976Z" fill="#052E50"/>
<path d="M269.172 173.892C269.172 174.072 269.16 174.252 269.136 174.432H264.984C265.032 175.38 265.596 175.992 266.604 175.992C267.18 175.992 267.672 175.824 268.116 175.32L268.98 176.064C268.308 176.796 267.564 177.108 266.592 177.108C264.636 177.108 263.748 175.692 263.748 174.072C263.748 172.488 264.612 170.976 266.496 170.976C268.332 170.976 269.172 172.344 269.172 173.892ZM264.984 173.436H267.984V173.412C267.96 172.572 267.372 172.008 266.496 172.008C265.548 172.008 265.068 172.704 264.984 173.436Z" fill="#052E50"/>
<path d="M274.386 168.636H275.622V177H274.386V176.34C273.978 176.868 273.306 177.108 272.598 177.108C270.954 177.108 270.066 175.812 270.066 174.036C270.066 172.128 271.086 170.964 272.598 170.964C273.33 170.964 274.014 171.264 274.386 171.744V168.636ZM272.874 175.98C273.99 175.98 274.506 175.152 274.506 174.048C274.506 172.92 273.966 172.08 272.886 172.08C271.842 172.08 271.302 172.836 271.302 174.048C271.302 175.224 271.818 175.98 272.874 175.98Z" fill="#052E50"/>
<path d="M282.415 173.892C282.415 174.072 282.403 174.252 282.379 174.432H278.227C278.275 175.38 278.839 175.992 279.847 175.992C280.423 175.992 280.915 175.824 281.359 175.32L282.223 176.064C281.551 176.796 280.807 177.108 279.835 177.108C277.879 177.108 276.991 175.692 276.991 174.072C276.991 172.488 277.855 170.976 279.739 170.976C281.575 170.976 282.415 172.344 282.415 173.892ZM278.227 173.436H281.227V173.412C281.203 172.572 280.615 172.008 279.739 172.008C278.791 172.008 278.311 172.704 278.227 173.436Z" fill="#052E50"/>
<path d="M286.848 170.976C288.156 170.976 288.876 171.792 288.876 173.244V177H287.64V173.556C287.64 172.86 287.508 172.056 286.488 172.056C285.216 172.056 285 173.28 285 174.54V177H283.764V171.084H285V171.816C285.408 171.252 286.08 170.976 286.848 170.976Z" fill="#052E50"/>
<path d="M293.512 175.932L293.524 176.94C293.176 177.048 292.828 177.108 292.504 177.108C291.568 177.108 290.824 176.616 290.824 175.428V172.08H289.852V171.084H290.824V169.812L292.06 168.888V171.084H293.512V172.08H292.06V175.32C292.06 175.824 292.336 176.064 292.804 176.064C293.008 176.064 293.248 176.016 293.512 175.932Z" fill="#052E50"/>
<path d="M294.837 169.932V168.636H296.157V169.932H294.837ZM294.885 177V171.084H296.121V177H294.885Z" fill="#052E50"/>
<path d="M300.175 170.976C301.711 170.976 302.647 171.84 302.647 173.28V177H301.519L301.423 176.16C301.039 176.76 300.355 177.108 299.515 177.108C298.255 177.108 297.415 176.352 297.415 175.224C297.415 174.552 297.703 174.048 298.231 173.784C298.639 173.58 299.191 173.484 300.031 173.484H301.411V173.28C301.411 172.512 300.943 172.056 300.163 172.056C299.515 172.056 298.939 172.368 298.495 172.98L297.595 172.224C298.279 171.384 299.119 170.976 300.175 170.976ZM299.743 176.064C300.703 176.064 301.411 175.392 301.411 174.456V174.432H300.175C299.491 174.432 299.143 174.492 298.915 174.672C298.735 174.792 298.651 174.996 298.651 175.248C298.651 175.752 299.071 176.064 299.743 176.064Z" fill="#052E50"/>
<path d="M305.578 177.108C304.81 177.108 304.27 176.64 304.27 175.632V168.636H305.506V175.548C305.506 175.86 305.662 176.016 305.974 176.016C306.118 176.016 306.286 175.992 306.466 175.932V176.94C306.166 177.048 305.854 177.108 305.578 177.108Z" fill="#052E50"/>
<path d="M309.471 177.108C308.247 177.108 307.299 176.412 307.011 175.488L308.007 175.044C308.187 175.536 308.583 176.064 309.423 176.064C310.131 176.064 310.503 175.68 310.503 175.26C310.503 174.072 307.335 174.84 307.335 172.68C307.335 171.576 308.295 170.976 309.459 170.976C310.455 170.976 311.223 171.42 311.655 172.236L310.695 172.764C310.467 172.344 310.095 171.972 309.411 171.972C308.859 171.972 308.511 172.224 308.511 172.584C308.511 173.652 311.715 173.004 311.715 175.188C311.715 176.508 310.599 177.108 309.471 177.108Z" fill="#052E50"/>
<path d="M380.887 145H378.931L376.963 141.604H376.111V145H374.431V136.636H377.263C379.315 136.636 380.143 137.584 380.143 139.072C380.143 140.272 379.603 141.04 378.643 141.388L380.887 145ZM376.111 140.044H377.095C377.875 140.044 378.451 139.9 378.451 139.096C378.451 138.304 377.875 138.184 377.095 138.184H376.111V140.044Z" fill="#052E50"/>
<path d="M386.617 142.024C386.617 142.204 386.605 142.372 386.581 142.588H382.609C382.681 143.212 383.101 143.656 383.953 143.656C384.445 143.656 384.913 143.488 385.285 143.044L386.413 144.04C385.777 144.748 384.961 145.132 383.941 145.132C381.829 145.132 380.989 143.62 380.989 142.072C380.989 140.56 381.805 138.952 383.845 138.952C385.693 138.952 386.617 140.296 386.617 142.024ZM382.597 141.352H385.069C385.045 140.704 384.505 140.308 383.833 140.308C383.005 140.308 382.669 140.872 382.597 141.352Z" fill="#052E50"/>
<path d="M389.145 145L386.733 139.084H388.509L389.805 142.876L391.137 139.084H392.889L390.477 145H389.145Z" fill="#052E50"/>
<path d="M393.48 138.112V136.636H395.16V138.112H393.48ZM393.504 145V139.084H395.136V145H393.504Z" fill="#052E50"/>
<path d="M401.781 142.024C401.781 142.204 401.769 142.372 401.745 142.588H397.773C397.845 143.212 398.265 143.656 399.117 143.656C399.609 143.656 400.077 143.488 400.449 143.044L401.577 144.04C400.941 144.748 400.125 145.132 399.105 145.132C396.993 145.132 396.153 143.62 396.153 142.072C396.153 140.56 396.969 138.952 399.009 138.952C400.857 138.952 401.781 140.296 401.781 142.024ZM397.761 141.352H400.233C400.209 140.704 399.669 140.308 398.997 140.308C398.169 140.308 397.833 140.872 397.761 141.352Z" fill="#052E50"/>
<path d="M403.841 145L401.993 139.084H403.721L404.657 142.504L405.641 139.084H407.021L408.005 142.48L408.941 139.084H410.681L408.821 145H407.381L406.337 141.388L405.305 145H403.841Z" fill="#052E50"/>
<path d="M416.657 138.952C418.277 138.952 419.273 139.84 419.273 141.256V145H417.785L417.665 144.316C417.245 144.916 416.585 145.132 415.985 145.132C414.701 145.132 413.777 144.304 413.777 143.14C413.777 142.444 414.089 141.94 414.629 141.664C415.013 141.472 415.493 141.388 416.093 141.388H417.653V141.256C417.653 140.716 417.257 140.368 416.585 140.368C416.057 140.368 415.553 140.596 415.073 141.136L413.897 140.152C414.617 139.336 415.601 138.952 416.657 138.952ZM416.249 143.788C417.005 143.788 417.641 143.272 417.653 142.588H416.321C415.985 142.588 415.757 142.636 415.613 142.744C415.469 142.84 415.397 142.984 415.397 143.164C415.397 143.524 415.697 143.788 416.249 143.788Z" fill="#052E50"/>
<path d="M423.981 138.952C425.337 138.952 426.117 139.768 426.117 141.124V145H424.497V141.64C424.497 141.208 424.497 140.368 423.477 140.368C422.253 140.368 422.253 141.58 422.253 142.432V145H420.621V139.084H422.253V139.696C422.685 139.144 423.309 138.952 423.981 138.952Z" fill="#052E50"/>
<path d="M431.136 136.636H432.756V145H431.136V144.472C430.728 144.952 430.08 145.132 429.504 145.132C427.932 145.132 427.044 143.812 427.044 142.036C427.044 140.08 428.112 138.952 429.504 138.952C430.14 138.952 430.776 139.216 431.136 139.624V136.636ZM429.924 143.608C430.908 143.608 431.28 142.924 431.28 142.048C431.28 141.196 430.92 140.44 429.936 140.44C429.108 140.44 428.676 141.04 428.676 142.048C428.676 143.068 429.108 143.608 429.924 143.608Z" fill="#052E50"/>
<path d="M362.45 161L360.038 155.084H361.814L363.11 158.876L364.442 155.084H366.194L363.782 161H362.45Z" fill="#052E50"/>
<path d="M369.137 154.952C370.757 154.952 371.753 155.84 371.753 157.256V161H370.265L370.145 160.316C369.725 160.916 369.065 161.132 368.465 161.132C367.181 161.132 366.257 160.304 366.257 159.14C366.257 158.444 366.569 157.94 367.109 157.664C367.493 157.472 367.973 157.388 368.573 157.388H370.133V157.256C370.133 156.716 369.737 156.368 369.065 156.368C368.537 156.368 368.033 156.596 367.553 157.136L366.377 156.152C367.097 155.336 368.081 154.952 369.137 154.952ZM368.729 159.788C369.485 159.788 370.121 159.272 370.133 158.588H368.801C368.465 158.588 368.237 158.636 368.093 158.744C367.949 158.84 367.877 158.984 367.877 159.164C367.877 159.524 368.177 159.788 368.729 159.788Z" fill="#052E50"/>
<path d="M374.506 161.132C373.678 161.132 373.042 160.64 373.042 159.536V152.636H374.662V159.368C374.662 159.644 374.806 159.716 375.046 159.716C375.166 159.716 375.31 159.692 375.466 159.656V160.94C375.118 161.072 374.782 161.132 374.506 161.132Z" fill="#052E50"/>
<path d="M376.417 154.112V152.636H378.097V154.112H376.417ZM376.441 161V155.084H378.073V161H376.441Z" fill="#052E50"/>
<path d="M383.218 152.636H384.838V161H383.218V160.472C382.81 160.952 382.162 161.132 381.586 161.132C380.014 161.132 379.126 159.812 379.126 158.036C379.126 156.08 380.194 154.952 381.586 154.952C382.222 154.952 382.858 155.216 383.218 155.624V152.636ZM382.006 159.608C382.99 159.608 383.362 158.924 383.362 158.048C383.362 157.196 383.002 156.44 382.018 156.44C381.19 156.44 380.758 157.04 380.758 158.048C380.758 159.068 381.19 159.608 382.006 159.608Z" fill="#052E50"/>
<path d="M388.684 154.952C390.304 154.952 391.3 155.84 391.3 157.256V161H389.812L389.692 160.316C389.272 160.916 388.612 161.132 388.012 161.132C386.728 161.132 385.804 160.304 385.804 159.14C385.804 158.444 386.116 157.94 386.656 157.664C387.04 157.472 387.52 157.388 388.12 157.388H389.68V157.256C389.68 156.716 389.284 156.368 388.612 156.368C388.084 156.368 387.58 156.596 387.1 157.136L385.924 156.152C386.644 155.336 387.628 154.952 388.684 154.952ZM388.276 159.788C389.032 159.788 389.668 159.272 389.68 158.588H388.348C388.012 158.588 387.784 158.636 387.64 158.744C387.496 158.84 387.424 158.984 387.424 159.164C387.424 159.524 387.724 159.788 388.276 159.788Z" fill="#052E50"/>
<path d="M395.973 156.356H394.485V159.092C394.485 159.44 394.629 159.788 395.229 159.788C395.457 159.788 395.709 159.74 395.973 159.656V160.94C395.601 161.072 395.229 161.132 394.833 161.132C393.777 161.132 392.865 160.616 392.865 159.224V156.356H391.905V155.084H392.865V154.076L394.485 152.876V155.084H395.973V156.356Z" fill="#052E50"/>
<path d="M397.089 154.112V152.636H398.769V154.112H397.089ZM397.113 161V155.084H398.745V161H397.113Z" fill="#052E50"/>
<path d="M402.726 161.132C400.854 161.132 399.726 159.68 399.726 158.036C399.726 156.38 400.842 154.952 402.726 154.952C404.598 154.952 405.726 156.38 405.726 158.036C405.726 159.68 404.586 161.132 402.726 161.132ZM402.726 159.704C403.758 159.704 404.106 158.888 404.106 158.036C404.106 157.172 403.77 156.368 402.726 156.368C401.694 156.368 401.346 157.172 401.346 158.036C401.346 158.876 401.682 159.704 402.726 159.704Z" fill="#052E50"/>
<path d="M410.071 154.952C411.427 154.952 412.207 155.768 412.207 157.124V161H410.587V157.64C410.587 157.208 410.587 156.368 409.567 156.368C408.343 156.368 408.343 157.58 408.343 158.432V161H406.711V155.084H408.343V155.696C408.775 155.144 409.399 154.952 410.071 154.952Z" fill="#052E50"/>
<path d="M419.193 161.108C417.405 161.108 416.265 159.728 416.265 158.036C416.265 156.332 417.405 154.976 419.193 154.976C420.969 154.976 422.109 156.332 422.109 158.036C422.109 159.728 420.969 161.108 419.193 161.108ZM419.193 160.028C420.345 160.028 420.873 159.116 420.873 158.036C420.873 156.944 420.333 156.056 419.193 156.056C418.041 156.056 417.501 156.944 417.501 158.036C417.501 159.128 418.041 160.028 419.193 160.028Z" fill="#052E50"/>
<path d="M423.786 161V156.08H422.622V155.084H423.798V154.328C423.798 152.912 424.614 152.528 425.49 152.528C425.898 152.528 426.258 152.612 426.582 152.756L426.174 153.716C426.006 153.62 425.814 153.56 425.622 153.56C425.118 153.56 425.022 153.98 425.022 154.304V155.084H426.51V156.08H425.022V161H423.786Z" fill="#052E50"/>
<path d="M433.432 159.932L433.444 160.94C433.096 161.048 432.748 161.108 432.424 161.108C431.488 161.108 430.744 160.616 430.744 159.428V156.08H429.772V155.084H430.744V153.812L431.98 152.888V155.084H433.432V156.08H431.98V159.32C431.98 159.824 432.256 160.064 432.724 160.064C432.928 160.064 433.168 160.016 433.432 159.932Z" fill="#052E50"/>
<path d="M437.701 154.976C439.021 154.976 439.741 155.78 439.741 157.244V161H438.505V157.556C438.505 156.524 438.133 156.056 437.341 156.056C436.333 156.056 435.865 156.836 435.865 158.516V161H434.629V152.636H435.865V155.816C436.249 155.276 436.897 154.976 437.701 154.976Z" fill="#052E50"/>
<path d="M446.393 157.892C446.393 158.072 446.381 158.252 446.357 158.432H442.205C442.253 159.38 442.817 159.992 443.825 159.992C444.401 159.992 444.893 159.824 445.337 159.32L446.201 160.064C445.529 160.796 444.785 161.108 443.813 161.108C441.857 161.108 440.969 159.692 440.969 158.072C440.969 156.488 441.833 154.976 443.717 154.976C445.553 154.976 446.393 156.344 446.393 157.892ZM442.205 157.436H445.205V157.412C445.181 156.572 444.593 156.008 443.717 156.008C442.769 156.008 442.289 156.704 442.205 157.436Z" fill="#052E50"/>
<path d="M350.322 175.932L350.334 176.94C349.986 177.048 349.638 177.108 349.314 177.108C348.378 177.108 347.634 176.616 347.634 175.428V172.08H346.662V171.084H347.634V169.812L348.87 168.888V171.084H350.322V172.08H348.87V175.32C348.87 175.824 349.146 176.064 349.614 176.064C349.818 176.064 350.058 176.016 350.322 175.932Z" fill="#052E50"/>
<path d="M354.482 170.976C354.866 170.976 355.214 171.06 355.574 171.276L354.974 172.356C354.746 172.224 354.518 172.152 354.242 172.152C353.354 172.152 352.838 172.74 352.838 173.916V177H351.602V171.084H352.85V172.056C353.15 171.312 353.834 170.976 354.482 170.976Z" fill="#052E50"/>
<path d="M358.708 170.976C360.244 170.976 361.18 171.84 361.18 173.28V177H360.052L359.956 176.16C359.572 176.76 358.888 177.108 358.048 177.108C356.788 177.108 355.948 176.352 355.948 175.224C355.948 174.552 356.236 174.048 356.764 173.784C357.172 173.58 357.724 173.484 358.564 173.484H359.944V173.28C359.944 172.512 359.476 172.056 358.696 172.056C358.048 172.056 357.472 172.368 357.028 172.98L356.128 172.224C356.812 171.384 357.652 170.976 358.708 170.976ZM358.276 176.064C359.236 176.064 359.944 175.392 359.944 174.456V174.432H358.708C358.024 174.432 357.676 174.492 357.448 174.672C357.268 174.792 357.184 174.996 357.184 175.248C357.184 175.752 357.604 176.064 358.276 176.064Z" fill="#052E50"/>
<path d="M365.947 170.976C367.255 170.976 367.975 171.792 367.975 173.244V177H366.739V173.556C366.739 172.86 366.607 172.056 365.587 172.056C364.315 172.056 364.099 173.28 364.099 174.54V177H362.863V171.084H364.099V171.816C364.507 171.252 365.179 170.976 365.947 170.976Z" fill="#052E50"/>
<path d="M371.531 177.108C370.307 177.108 369.359 176.412 369.071 175.488L370.067 175.044C370.247 175.536 370.643 176.064 371.483 176.064C372.191 176.064 372.563 175.68 372.563 175.26C372.563 174.072 369.395 174.84 369.395 172.68C369.395 171.576 370.355 170.976 371.519 170.976C372.515 170.976 373.283 171.42 373.715 172.236L372.755 172.764C372.527 172.344 372.155 171.972 371.471 171.972C370.919 171.972 370.571 172.224 370.571 172.584C370.571 173.652 373.775 173.004 373.775 175.188C373.775 176.508 372.659 177.108 371.531 177.108Z" fill="#052E50"/>
<path d="M377.282 170.976C378.818 170.976 379.754 171.84 379.754 173.28V177H378.626L378.53 176.16C378.146 176.76 377.462 177.108 376.622 177.108C375.362 177.108 374.522 176.352 374.522 175.224C374.522 174.552 374.81 174.048 375.338 173.784C375.746 173.58 376.298 173.484 377.138 173.484H378.518V173.28C378.518 172.512 378.05 172.056 377.27 172.056C376.622 172.056 376.046 172.368 375.602 172.98L374.702 172.224C375.386 171.384 376.226 170.976 377.282 170.976ZM376.85 176.064C377.81 176.064 378.518 175.392 378.518 174.456V174.432H377.282C376.598 174.432 376.25 174.492 376.022 174.672C375.842 174.792 375.758 174.996 375.758 175.248C375.758 175.752 376.178 176.064 376.85 176.064Z" fill="#052E50"/>
<path d="M383.718 177.108C381.858 177.108 380.922 175.644 380.922 174.06C380.922 172.5 381.822 170.976 383.706 170.976C384.846 170.976 385.758 171.528 386.214 172.68L385.038 173.136C384.846 172.476 384.354 172.056 383.706 172.056C382.626 172.056 382.182 173.028 382.182 174.06C382.182 175.092 382.614 176.028 383.718 176.028C384.342 176.028 384.846 175.62 385.026 174.96L386.154 175.392C385.758 176.496 384.858 177.108 383.718 177.108Z" fill="#052E50"/>
<path d="M390.33 175.932L390.342 176.94C389.994 177.048 389.646 177.108 389.322 177.108C388.386 177.108 387.642 176.616 387.642 175.428V172.08H386.67V171.084H387.642V169.812L388.878 168.888V171.084H390.33V172.08H388.878V175.32C388.878 175.824 389.154 176.064 389.622 176.064C389.826 176.064 390.066 176.016 390.33 175.932Z" fill="#052E50"/>
<path d="M391.655 169.932V168.636H392.975V169.932H391.655ZM391.703 177V171.084H392.939V177H391.703Z" fill="#052E50"/>
<path d="M397.185 177.108C395.397 177.108 394.257 175.728 394.257 174.036C394.257 172.332 395.397 170.976 397.185 170.976C398.961 170.976 400.101 172.332 400.101 174.036C400.101 175.728 398.961 177.108 397.185 177.108ZM397.185 176.028C398.337 176.028 398.865 175.116 398.865 174.036C398.865 172.944 398.325 172.056 397.185 172.056C396.033 172.056 395.493 172.944 395.493 174.036C395.493 175.128 396.033 176.028 397.185 176.028Z" fill="#052E50"/>
<path d="M404.514 170.976C405.822 170.976 406.542 171.792 406.542 173.244V177H405.306V173.556C405.306 172.86 405.174 172.056 404.154 172.056C402.882 172.056 402.666 173.28 402.666 174.54V177H401.43V171.084H402.666V171.816C403.074 171.252 403.746 170.976 404.514 170.976Z" fill="#052E50"/>
<path d="M413.133 177.108C411.909 177.108 410.961 176.412 410.673 175.488L411.669 175.044C411.849 175.536 412.245 176.064 413.085 176.064C413.793 176.064 414.165 175.68 414.165 175.26C414.165 174.072 410.997 174.84 410.997 172.68C410.997 171.576 411.957 170.976 413.121 170.976C414.117 170.976 414.885 171.42 415.317 172.236L414.357 172.764C414.129 172.344 413.757 171.972 413.073 171.972C412.521 171.972 412.173 172.224 412.173 172.584C412.173 173.652 415.377 173.004 415.377 175.188C415.377 176.508 414.261 177.108 413.133 177.108Z" fill="#052E50"/>
<path d="M420.431 171.084H421.667V177H420.431V176.256C420.011 176.844 419.327 177.108 418.607 177.108C417.167 177.108 416.555 176.088 416.555 174.756V171.084H417.791V174.444C417.791 175.044 417.851 176.028 418.955 176.028C420.239 176.028 420.431 174.708 420.431 173.484V171.084Z" fill="#052E50"/>
<path d="M429.964 170.976C431.392 170.976 432.004 172.008 432.004 173.256V177H430.768V173.616C430.768 173.136 430.732 172.056 429.664 172.056C428.464 172.056 428.38 173.316 428.38 174.552V177H427.144V173.64C427.144 172.992 427.012 172.056 426.04 172.056C424.852 172.056 424.768 173.304 424.768 174.552V177H423.532L423.52 171.084H424.708V171.828C425.092 171.192 425.704 170.976 426.316 170.976C427.012 170.976 427.696 171.264 428.044 172.14C428.488 171.288 429.16 170.976 429.964 170.976Z" fill="#052E50"/>
<path d="M440.147 170.976C441.575 170.976 442.187 172.008 442.187 173.256V177H440.951V173.616C440.951 173.136 440.915 172.056 439.847 172.056C438.647 172.056 438.563 173.316 438.563 174.552V177H437.327V173.64C437.327 172.992 437.195 172.056 436.223 172.056C435.035 172.056 434.951 173.304 434.951 174.552V177H433.715L433.703 171.084H434.891V171.828C435.275 171.192 435.887 170.976 436.499 170.976C437.195 170.976 437.879 171.264 438.227 172.14C438.671 171.288 439.343 170.976 440.147 170.976Z" fill="#052E50"/>
<path d="M446.095 170.976C447.631 170.976 448.567 171.84 448.567 173.28V177H447.439L447.343 176.16C446.959 176.76 446.275 177.108 445.435 177.108C444.175 177.108 443.335 176.352 443.335 175.224C443.335 174.552 443.623 174.048 444.151 173.784C444.559 173.58 445.111 173.484 445.951 173.484H447.331V173.28C447.331 172.512 446.863 172.056 446.083 172.056C445.435 172.056 444.859 172.368 444.415 172.98L443.515 172.224C444.199 171.384 445.039 170.976 446.095 170.976ZM445.663 176.064C446.623 176.064 447.331 175.392 447.331 174.456V174.432H446.095C445.411 174.432 445.063 174.492 444.835 174.672C444.655 174.792 444.571 174.996 444.571 175.248C444.571 175.752 444.991 176.064 445.663 176.064Z" fill="#052E50"/>
<path d="M453.13 170.976C453.514 170.976 453.862 171.06 454.222 171.276L453.622 172.356C453.394 172.224 453.166 172.152 452.89 172.152C452.002 172.152 451.486 172.74 451.486 173.916V177H450.25V171.084H451.498V172.056C451.798 171.312 452.482 170.976 453.13 170.976Z" fill="#052E50"/>
<path d="M455.815 179.448L456.847 176.868L454.471 171.084H455.827L457.507 175.44L459.115 171.084H460.471L457.147 179.448H455.815Z" fill="#052E50"/>
<path d="M497.695 145V136.636H500.311C502.147 136.636 503.131 137.464 503.131 139.024C503.131 140.608 502.135 141.472 500.311 141.472H498.967V145H497.695ZM498.967 140.284H500.179C501.319 140.284 501.835 139.888 501.835 139.048C501.835 138.196 501.331 137.824 500.179 137.824H498.967V140.284Z" fill="#052E50"/>
<path d="M507.926 139.084H509.162V145H507.926V144.256C507.506 144.844 506.822 145.108 506.102 145.108C504.662 145.108 504.05 144.088 504.05 142.756V139.084H505.286V142.444C505.286 143.044 505.346 144.028 506.45 144.028C507.734 144.028 507.926 142.708 507.926 141.484V139.084Z" fill="#052E50"/>
<path d="M513.894 138.976C514.278 138.976 514.626 139.06 514.986 139.276L514.386 140.356C514.158 140.224 513.93 140.152 513.654 140.152C512.766 140.152 512.25 140.74 512.25 141.916V145H511.014V139.084H512.262V140.056C512.562 139.312 513.246 138.976 513.894 138.976Z" fill="#052E50"/>
<path d="M517.794 145.108C515.934 145.108 514.998 143.644 514.998 142.06C514.998 140.5 515.898 138.976 517.782 138.976C518.922 138.976 519.834 139.528 520.29 140.68L519.114 141.136C518.922 140.476 518.43 140.056 517.782 140.056C516.702 140.056 516.258 141.028 516.258 142.06C516.258 143.092 516.69 144.028 517.794 144.028C518.418 144.028 518.922 143.62 519.102 142.96L520.23 143.392C519.834 144.496 518.934 145.108 517.794 145.108Z" fill="#052E50"/>
<path d="M524.574 138.976C525.894 138.976 526.614 139.78 526.614 141.244V145H525.378V141.556C525.378 140.524 525.006 140.056 524.214 140.056C523.206 140.056 522.738 140.836 522.738 142.516V145H521.502V136.636H522.738V139.816C523.122 139.276 523.77 138.976 524.574 138.976Z" fill="#052E50"/>
<path d="M530.542 138.976C532.078 138.976 533.014 139.84 533.014 141.28V145H531.886L531.79 144.16C531.406 144.76 530.722 145.108 529.882 145.108C528.622 145.108 527.782 144.352 527.782 143.224C527.782 142.552 528.07 142.048 528.598 141.784C529.006 141.58 529.558 141.484 530.398 141.484H531.778V141.28C531.778 140.512 531.31 140.056 530.53 140.056C529.882 140.056 529.306 140.368 528.862 140.98L527.962 140.224C528.646 139.384 529.486 138.976 530.542 138.976ZM530.11 144.064C531.07 144.064 531.778 143.392 531.778 142.456V142.432H530.542C529.858 142.432 529.51 142.492 529.282 142.672C529.102 142.792 529.018 142.996 529.018 143.248C529.018 143.752 529.438 144.064 530.11 144.064Z" fill="#052E50"/>
<path d="M536.533 145.108C535.309 145.108 534.361 144.412 534.073 143.488L535.069 143.044C535.249 143.536 535.645 144.064 536.485 144.064C537.193 144.064 537.565 143.68 537.565 143.26C537.565 142.072 534.397 142.84 534.397 140.68C534.397 139.576 535.357 138.976 536.521 138.976C537.517 138.976 538.285 139.42 538.717 140.236L537.757 140.764C537.529 140.344 537.157 139.972 536.473 139.972C535.921 139.972 535.573 140.224 535.573 140.584C535.573 141.652 538.777 141.004 538.777 143.188C538.777 144.508 537.661 145.108 536.533 145.108Z" fill="#052E50"/>
<path d="M545.043 141.892C545.043 142.072 545.031 142.252 545.007 142.432H540.855C540.903 143.38 541.467 143.992 542.475 143.992C543.051 143.992 543.543 143.824 543.987 143.32L544.851 144.064C544.179 144.796 543.435 145.108 542.463 145.108C540.507 145.108 539.619 143.692 539.619 142.072C539.619 140.488 540.483 138.976 542.367 138.976C544.203 138.976 545.043 140.344 545.043 141.892ZM540.855 141.436H543.855V141.412C543.831 140.572 543.243 140.008 542.367 140.008C541.419 140.008 540.939 140.704 540.855 141.436Z" fill="#052E50"/>
<path d="M490.043 161.132C488.039 161.132 487.115 159.596 487.115 158.06C487.115 156.5 488.051 154.952 490.031 154.952C491.243 154.952 492.179 155.528 492.623 156.728L491.087 157.34C490.967 156.752 490.559 156.368 490.031 156.368C489.107 156.368 488.783 157.208 488.783 158.06C488.783 158.9 489.095 159.704 490.019 159.704C490.547 159.704 490.967 159.344 491.099 158.768L492.563 159.344C492.167 160.448 491.243 161.132 490.043 161.132Z" fill="#052E50"/>
<path d="M495.904 161.132C494.032 161.132 492.904 159.68 492.904 158.036C492.904 156.38 494.02 154.952 495.904 154.952C497.776 154.952 498.904 156.38 498.904 158.036C498.904 159.68 497.764 161.132 495.904 161.132ZM495.904 159.704C496.936 159.704 497.284 158.888 497.284 158.036C497.284 157.172 496.948 156.368 495.904 156.368C494.872 156.368 494.524 157.172 494.524 158.036C494.524 158.876 494.86 159.704 495.904 159.704Z" fill="#052E50"/>
<path d="M503.249 154.952C504.605 154.952 505.385 155.768 505.385 157.124V161H503.765V157.64C503.765 157.208 503.765 156.368 502.745 156.368C501.521 156.368 501.521 157.58 501.521 158.432V161H499.889V155.084H501.521V155.696C501.953 155.144 502.577 154.952 503.249 154.952Z" fill="#052E50"/>
<path d="M512 155.084V161H510.38V156.356H508.616V161H506.996V156.356H506.036V155.084H506.996V154.676C506.996 153.332 508.22 152.504 509.6 152.504C510.68 152.504 511.364 152.732 512.036 153.128L511.28 154.28C510.836 153.98 510.32 153.812 509.684 153.812C508.928 153.812 508.616 154.22 508.616 154.712V155.084H512Z" fill="#052E50"/>
<path d="M516.686 154.952C517.082 154.952 517.442 155.06 517.838 155.312L517.058 156.764C516.878 156.644 516.602 156.56 516.314 156.56C515.558 156.56 515.138 157.052 515.138 158.132V161H513.506V155.084H515.15V156.02C515.414 155.348 516.038 154.952 516.686 154.952Z" fill="#052E50"/>
<path d="M525.184 154.952C526.612 154.952 527.26 156.08 527.26 157.208V161H525.64V157.7C525.64 157.244 525.556 156.368 524.716 156.368C523.504 156.368 523.66 157.76 523.66 158.912V161H522.04V157.688C522.04 157.376 522.052 156.368 521.14 156.368C519.916 156.368 520.06 157.76 520.06 158.912V161H518.428L518.416 155.084H519.988V155.828C520.384 155.156 520.996 154.952 521.56 154.952C522.172 154.952 522.904 155.192 523.276 156.128C523.768 155.192 524.464 154.952 525.184 154.952Z" fill="#052E50"/>
<path d="M530.975 154.952C532.595 154.952 533.591 155.84 533.591 157.256V161H532.103L531.983 160.316C531.563 160.916 530.903 161.132 530.303 161.132C529.019 161.132 528.095 160.304 528.095 159.14C528.095 158.444 528.407 157.94 528.947 157.664C529.331 157.472 529.811 157.388 530.411 157.388H531.971V157.256C531.971 156.716 531.575 156.368 530.903 156.368C530.375 156.368 529.871 156.596 529.391 157.136L528.215 156.152C528.935 155.336 529.919 154.952 530.975 154.952ZM530.567 159.788C531.323 159.788 531.959 159.272 531.971 158.588H530.639C530.303 158.588 530.075 158.636 529.931 158.744C529.787 158.84 529.715 158.984 529.715 159.164C529.715 159.524 530.015 159.788 530.567 159.788Z" fill="#052E50"/>
<path d="M538.264 156.356H536.776V159.092C536.776 159.44 536.92 159.788 537.52 159.788C537.748 159.788 538 159.74 538.264 159.656V160.94C537.892 161.072 537.52 161.132 537.124 161.132C536.068 161.132 535.156 160.616 535.156 159.224V156.356H534.196V155.084H535.156V154.076L536.776 152.876V155.084H538.264V156.356Z" fill="#052E50"/>
<path d="M539.38 154.112V152.636H541.06V154.112H539.38ZM539.404 161V155.084H541.036V161H539.404Z" fill="#052E50"/>
<path d="M545.017 161.132C543.145 161.132 542.017 159.68 542.017 158.036C542.017 156.38 543.133 154.952 545.017 154.952C546.889 154.952 548.017 156.38 548.017 158.036C548.017 159.68 546.877 161.132 545.017 161.132ZM545.017 159.704C546.049 159.704 546.397 158.888 546.397 158.036C546.397 157.172 546.061 156.368 545.017 156.368C543.985 156.368 543.637 157.172 543.637 158.036C543.637 158.876 543.973 159.704 545.017 159.704Z" fill="#052E50"/>
<path d="M552.362 154.952C553.718 154.952 554.498 155.768 554.498 157.124V161H552.878V157.64C552.878 157.208 552.878 156.368 551.858 156.368C550.634 156.368 550.634 157.58 550.634 158.432V161H549.002V155.084H550.634V155.696C551.066 155.144 551.69 154.952 552.362 154.952Z" fill="#052E50"/>
</g>
<defs>
<clipPath id="clip0_78_1466">
<rect width="590" height="195" fill="white"/>
</clipPath>
<clipPath id="clip1_78_1466">
<rect width="37.6694" height="9.28572" fill="white" transform="translate(507.165 49.1429)"/>
</clipPath>
</defs>
</svg>
