<svg width="329" height="45" viewBox="0 0 329 45" fill="none" xmlns="http://www.w3.org/2000/svg">
<g clip-path="url(#clip0_1_62)">
<rect width="328.75" height="45" fill="white"/>
<path d="M49.2945 7.10094C44.1348 9.90985 42.3021 10.7665 41.5251 10.7665C41.306 10.7665 41.1267 10.886 41.1267 11.0055C41.1466 11.4438 42.2821 13.9738 42.6407 14.3722C43.2782 15.0695 44.4137 14.8703 46.7844 13.6551C49.155 12.4199 54.2947 9.61103 54.5338 9.37198C54.6135 9.31221 54.6533 8.11693 54.6334 6.72244L54.5736 4.21235L49.2945 7.10094Z" fill="#076E4E"/>
<path d="M117.107 3.53501C116.688 4.1725 116.25 4.79006 116.17 4.92951C116.051 5.12872 116.349 5.18849 117.565 5.18849L119.119 5.16857L121.649 2.3995H117.883L117.107 3.53501Z" fill="#076E4E"/>
<path d="M75.2318 7.37984C69.5144 8.87394 66.7254 13.7347 68.6379 18.8545C68.9765 19.751 69.3949 20.3486 70.391 21.3248C71.9448 22.8587 73.2198 23.5759 75.3115 24.1138C78.7778 25.0102 82.8418 24.3727 85.8698 22.5001L86.5472 22.1017L85.7304 21.006C85.2722 20.4084 84.8738 19.9303 84.8539 19.9303C84.814 19.9303 84.2562 20.2291 83.6187 20.6076C81.9055 21.6236 80.4313 21.9822 78.4989 21.8826C74.435 21.6435 71.8054 19.233 71.8054 15.7468C71.8054 13.3363 73.0206 11.4637 75.3315 10.3282C76.4271 9.79032 76.9252 9.67079 78.3794 9.61103C80.4313 9.51142 81.7262 9.83016 83.3996 10.8462L84.5351 11.5235L85.3519 10.4278C86.3081 9.17276 86.348 9.23252 84.1765 8.17669C81.7063 6.96149 78.0806 6.64275 75.2318 7.37984Z" fill="#076E4E"/>
<path d="M208.984 7.30015C206.035 8.01732 203.565 9.83016 202.45 12.1211C201.832 13.3961 201.792 13.5555 201.792 15.7468C201.792 17.8186 201.852 18.1374 202.33 19.1932C203.824 22.3607 207.031 24.2532 211.374 24.4524C214.263 24.5919 216.295 24.1935 218.785 22.9982L220.618 22.1216V14.7507H212.052V17.3405H217.231V18.9143C217.231 20.7869 217.132 20.8865 214.98 21.5638C212.251 22.3806 209.123 21.8228 207.211 20.1494C205.139 18.3167 204.721 14.8503 206.314 12.4598C208.326 9.43173 213.785 8.61496 217.072 10.8661C217.47 11.145 217.889 11.3641 218.008 11.3641C218.287 11.3641 219.642 9.55126 219.562 9.29228C219.423 8.89386 217.072 7.77826 215.538 7.37983C213.685 6.90172 210.757 6.86188 208.984 7.30015Z" fill="#076E4E"/>
<path d="M260.281 7.37984C257.472 8.11693 254.962 10.0294 253.906 12.2008C252.392 15.3484 253.189 19.3127 255.819 21.7232C259.504 25.0899 265.879 25.4684 270.78 22.5997L271.636 22.1017L271.238 21.5638C271.019 21.265 270.62 20.767 270.381 20.4482L269.903 19.8904L268.927 20.508C264.983 23.0181 259.524 22.0619 257.572 18.5159C257.034 17.5596 256.974 17.2608 256.974 15.7468C256.974 14.2328 257.034 13.934 257.572 12.9777C259.484 9.51142 264.863 8.49543 268.648 10.8661C269.067 11.145 269.485 11.3641 269.585 11.3641C269.843 11.3641 271.258 9.41181 271.138 9.2126C270.919 8.83409 268.09 7.57905 266.835 7.30015C265.042 6.86188 262.094 6.92165 260.281 7.37984Z" fill="#076E4E"/>
<path d="M280.043 7.28023C278.35 7.65874 276.119 8.85402 274.903 10.0692C270.999 13.9937 272.095 20.4084 277.115 23.038C279.306 24.1935 280.222 24.4126 283.071 24.4126C286 24.4126 286.976 24.2134 289.048 23.1376C295.442 19.8307 295.442 11.6629 289.028 8.31614C288.251 7.91771 287.036 7.45952 286.338 7.28023C284.784 6.92165 281.717 6.92165 280.043 7.28023ZM286.617 10.3282C291.378 12.6789 291.259 19.0139 286.398 21.2849C285.402 21.7631 285.024 21.8228 283.171 21.8228C281.318 21.8228 280.94 21.7631 279.963 21.3049C274.684 18.8346 275.103 11.902 280.641 9.92977C281.438 9.65087 282.115 9.57119 283.49 9.63095C285.063 9.67079 285.482 9.7704 286.617 10.3282Z" fill="#076E4E"/>
<path d="M89.7346 24.313H93.3204V18.3366H97.8226L100.313 21.3049L102.783 24.2931H104.935L107.086 24.313L105.771 22.7591C102.723 19.233 101.687 17.978 101.687 17.8784C101.687 17.8186 102.026 17.6593 102.444 17.5198C105.154 16.6433 106.449 15.0695 106.469 12.6391C106.469 10.2684 105.114 8.61496 102.405 7.7185C101.329 7.35991 100.552 7.30015 95.4719 7.22046L89.7346 7.14078V24.313ZM100.851 10.2684C103.002 11.1848 103.46 13.2566 101.787 14.7308C100.891 15.5277 99.6355 15.7468 96.209 15.7468H93.3204V9.96961H96.7071C99.3167 9.96961 100.273 10.0493 100.851 10.2684Z" fill="#076E4E"/>
<path d="M110.094 13.9937C110.154 20.0498 110.194 20.9064 110.513 21.6236C110.971 22.6396 111.548 23.2372 112.545 23.7751C113.302 24.1935 113.64 24.2134 119.577 24.2731L125.792 24.3329V21.524H114.855L114.298 21.0459C113.78 20.5877 113.74 20.4682 113.68 18.6553L113.6 16.7429H124.398V14.1531H113.64V9.96961H125.394V7.18062H110.034L110.094 13.9937Z" fill="#076E4E"/>
<path d="M129.577 24.3528L134.717 24.2532C140.474 24.1536 141.49 23.9743 143.761 22.779C145.455 21.9025 146.909 20.3486 147.546 18.7749C147.905 17.8585 147.985 17.2409 148.005 15.6472C148.005 13.7945 147.965 13.5555 147.367 12.3403C146.59 10.7665 145.235 9.45166 143.582 8.61496C141.331 7.47944 140.514 7.34 134.817 7.24039L129.577 7.14078V24.3528ZM140.932 10.5872C142.187 11.1848 143.343 12.2606 143.841 13.3363C144.359 14.3722 144.439 16.4839 144.02 17.719C143.602 18.994 142.427 20.2092 140.972 20.8865C139.916 21.3845 139.618 21.4244 136.51 21.4842L133.163 21.5638V9.92977L136.51 10.0095C139.618 10.0692 139.916 10.1091 140.932 10.5872Z" fill="#076E4E"/>
<path d="M151.491 24.313H155.077V7.18062H151.491V24.313Z" fill="#076E4E"/>
<path d="M158.264 9.96961H164.838V24.313H168.424V9.96961H174.799V7.18062H158.264V9.96961Z" fill="#076E4E"/>
<path d="M187.987 8.21653C187.489 9.13291 179.998 23.7153 179.819 24.1536C179.779 24.2333 180.556 24.313 181.552 24.313H183.365L184.401 22.2212L185.457 20.1295H194.84L195.796 22.2212L196.772 24.313H198.824C199.959 24.313 200.896 24.2931 200.896 24.2532C200.896 24.2333 198.943 20.4084 196.553 15.7468L192.21 7.28023L188.584 7.1607L187.987 8.21653ZM191.831 14.1332C192.688 15.8863 193.365 17.3804 193.286 17.4401C193.226 17.4999 191.752 17.5198 189.999 17.4999L186.811 17.4401L188.405 14.1132C189.282 12.2805 190.058 10.8063 190.118 10.8461C190.178 10.9059 190.955 12.3602 191.831 14.1332Z" fill="#076E4E"/>
<path d="M224.801 24.313H228.387V18.3366L230.738 18.3565H233.069L235.559 21.3447L238.049 24.313H240.081C241.217 24.313 242.133 24.2731 242.133 24.2333C242.133 24.1935 240.918 22.7591 239.444 21.006L236.754 17.8585L237.969 17.4202C240.459 16.5237 241.635 14.9898 241.615 12.659C241.615 10.4278 240.699 9.07315 238.547 8.097C236.894 7.33999 235.34 7.18062 229.841 7.18062H224.801V24.313ZM236.515 10.4278C238.547 11.5434 238.368 14.2129 236.196 15.2089C235.38 15.5874 234.842 15.6472 231.834 15.707L228.387 15.7866V9.92977L232.132 10.0095C235.26 10.0493 235.957 10.129 236.515 10.4278Z" fill="#076E4E"/>
<path d="M245.918 24.313H249.504V7.18062H245.918V24.313Z" fill="#076E4E"/>
<path d="M296.917 24.313H311.061V21.524H300.303V7.18062H296.917V24.313Z" fill="#076E4E"/>
<path d="M313.053 13.9937C313.053 20.8068 313.053 20.8267 313.531 21.8627C314.089 23.038 315.045 23.7751 316.439 24.0938C316.938 24.2134 319.866 24.313 322.974 24.313H328.592V21.524H323.312C319.886 21.524 317.874 21.4443 317.575 21.3049C316.858 20.9861 316.639 20.3088 316.639 18.4362V16.7429H327.197V14.1531H316.639V9.96961H328.193V7.18062H313.053V13.9937Z" fill="#076E4E"/>
<path d="M205.219 29.9706C204.243 30.2894 203.605 30.6679 203.027 31.2655C202.25 32.0425 202.191 32.162 202.191 33.1979C202.191 34.2537 202.23 34.3533 203.027 35.0705C204.003 35.9271 205.278 36.3853 208.864 37.1622C210.239 37.4611 211.693 37.8794 212.111 38.0786C213.984 39.0548 212.072 40.6485 209.044 40.6485C207.709 40.6485 205.278 40.0508 204.023 39.4333C203.386 39.0946 202.828 38.8556 202.808 38.8954C202.788 38.9352 202.529 39.2938 202.23 39.6922C201.932 40.0907 201.693 40.509 201.693 40.6086C201.693 40.7082 202.23 41.027 202.888 41.3059C207.271 43.2183 212.53 42.9793 214.781 40.8078C216.634 39.0149 215.877 36.704 213.108 35.6681C212.47 35.4291 210.737 34.9709 209.263 34.6521C207.789 34.3334 206.235 33.935 205.836 33.7557C204.163 33.0186 204.9 31.9428 207.39 31.5046C209.083 31.1858 211.155 31.5046 212.868 32.3413L214.203 32.9788L214.821 32.0823L215.458 31.1858L214.303 30.648C212.49 29.7913 210.996 29.4925 208.665 29.4925C207.012 29.4925 206.294 29.5921 205.219 29.9706Z" fill="#5E646B"/>
<path d="M285.761 29.7714C283.45 30.4288 281.378 32.1022 280.701 33.9151C280.242 35.1103 280.322 37.4212 280.88 38.5567C282.155 41.1664 285.9 42.8996 289.566 42.5609C291.139 42.4215 293.152 41.8238 294.168 41.2063L294.885 40.7481L294.247 39.9712L293.59 39.1942L292.215 39.8715C291.1 40.4293 290.562 40.5688 289.347 40.6086C287.514 40.7082 286.498 40.4493 285.243 39.5927C282.932 38.0587 282.553 35.1701 284.386 33.178C285.561 31.903 286.876 31.3851 288.948 31.3851C290.462 31.405 290.801 31.4647 292.016 32.0624L293.391 32.7198L293.909 32.0624C294.187 31.7038 294.426 31.3054 294.426 31.2058C294.426 30.9269 292.773 30.1101 291.518 29.7913C290.203 29.4328 286.996 29.4328 285.761 29.7714Z" fill="#5E646B"/>
<path d="M318.173 29.9706C317.197 30.2894 316.559 30.6679 315.981 31.2655C315.204 32.0425 315.145 32.162 315.145 33.1979C315.145 34.2537 315.185 34.3533 315.981 35.0705C316.958 35.9271 318.232 36.3853 321.818 37.1622C323.193 37.4611 324.647 37.8794 325.065 38.0786C326.938 39.0548 325.026 40.6485 321.998 40.6485C320.663 40.6485 318.232 40.0508 316.977 39.4333C316.34 39.0946 315.782 38.8556 315.762 38.8954C315.742 38.9352 315.483 39.2938 315.185 39.6922C314.886 40.0907 314.647 40.509 314.647 40.6086C314.647 40.7082 315.185 41.027 315.842 41.3059C320.225 43.2183 325.484 42.9793 327.735 40.8078C329.588 39.0149 328.831 36.704 326.062 35.6681C325.424 35.4291 323.691 34.9709 322.217 34.6521C318.511 33.8553 317.635 33.4369 317.974 32.5803C318.272 31.7636 320.842 31.1858 322.834 31.4647C324.169 31.6639 326.062 32.2815 326.699 32.7596C327.058 33.0186 327.137 32.9588 327.755 32.1221L328.412 31.1858L327.257 30.648C325.444 29.7913 323.95 29.4925 321.619 29.4925C319.966 29.4925 319.248 29.5921 318.173 29.9706Z" fill="#5E646B"/>
<path d="M70.2117 42.4414H72.9807L73.1003 38.5567L76.4869 38.4372C80.3915 38.2978 81.3079 38.0587 82.5231 36.8435C84.316 35.0506 84.057 32.1421 81.9852 30.7476C80.6305 29.8312 79.6345 29.6917 74.7537 29.6917H70.2117V42.4414ZM79.495 32.0425C81.3079 32.9788 81.1684 35.3892 79.256 36.1861C78.7978 36.3853 77.722 36.465 75.7896 36.465H73.0007V34.1143C73.0007 32.8194 73.0604 31.6839 73.16 31.5843C73.2397 31.5046 74.5147 31.4847 76.0088 31.5444C78.1802 31.6241 78.8775 31.7237 79.495 32.0425Z" fill="#5E646B"/>
<path d="M88.619 36.0666L85.1925 42.4414H88.0413L89.7545 39.254H97.1055L98.6992 42.4414H100.293C101.887 42.4414 101.907 42.4414 101.667 41.9832C101.548 41.7442 100.014 38.8755 98.2609 35.6084L95.0536 29.6917H92.0255L88.619 36.0666ZM95.9102 37.2021C95.9102 37.4013 95.2528 37.4611 93.3204 37.4611C91.906 37.4611 90.7307 37.4212 90.7307 37.3615C90.7307 37.3216 91.3283 36.1463 92.0455 34.7518L93.3802 32.2417L94.6352 34.5924C95.3325 35.9072 95.9102 37.0826 95.9102 37.2021Z" fill="#5E646B"/>
<path d="M105.174 33.5166L108.461 37.3415V42.4414H111.25V39.8915L111.27 37.3615L113.003 35.3494C113.959 34.2338 115.433 32.5006 116.29 31.5046L117.844 29.6917H114.716L112.425 32.4807C111.19 34.0147 110.114 35.2697 110.054 35.2697C109.995 35.2697 108.919 34.0147 107.664 32.4807L105.373 29.6917H101.867L105.174 33.5166Z" fill="#5E646B"/>
<path d="M121.21 42.4414H123.601L123.641 37.72L123.7 33.0186L126.151 36.3255C127.505 38.1583 128.681 39.6923 128.78 39.752C128.86 39.8118 130.115 38.2579 131.55 36.3255L134.159 32.7995V42.4414H136.948V29.6917H135.414L133.86 29.7117L131.669 32.6999C130.474 34.3533 129.378 35.7877 129.259 35.8873C129.119 36.0068 128.262 35.0107 126.689 32.8792L124.318 29.6917H121.21V42.4414Z" fill="#5E646B"/>
<path d="M142.327 34.4131C142.327 37.2419 142.427 39.4731 142.546 39.9512C142.825 40.9473 143.821 41.9434 144.817 42.2223C145.295 42.3418 147.467 42.4414 150.156 42.4414H154.678V40.4493H150.654C148.423 40.4493 146.411 40.3895 146.152 40.3297C145.494 40.1504 145.116 39.254 145.116 37.8595V36.6642H153.682V34.8713L149.459 34.8314L145.216 34.7717V31.5843L149.857 31.5245L154.479 31.4847V29.6917H142.327V34.4131Z" fill="#5E646B"/>
<path d="M159.858 42.4414H162.647L162.687 37.8396L162.746 33.2377L166.83 37.8396L170.914 42.4215L172.368 42.4414H173.803V29.6917H171.014L170.974 34.2139L170.914 38.7559L166.85 34.2139L162.766 29.6917H159.858V42.4414Z" fill="#5E646B"/>
<path d="M177.588 31.4647L182.668 31.5843L182.727 37.0029L182.767 42.4414H185.556V31.4847H190.736V29.6917H177.588V31.4647Z" fill="#5E646B"/>
<path d="M220.219 34.5127C220.219 37.1822 220.319 39.6723 220.419 40.0508C220.678 40.9672 221.714 41.9434 222.71 42.2223C223.168 42.3418 225.399 42.4414 228.049 42.4414H232.571V40.4692L228.168 40.4094C223.825 40.3497 223.765 40.3497 223.387 39.8715C223.088 39.513 223.008 39.0946 223.008 38.0388V36.6642H231.575V34.8713H223.008V31.4847H232.172V29.6917H220.219V34.5127Z" fill="#5E646B"/>
<path d="M237.352 42.4414H240.141V37.8595H243.707L247.771 42.4414H249.364C251.217 42.4414 251.317 42.7402 248.528 39.6723L246.635 37.5806L247.731 37.222C251.357 36.0068 251.576 31.8432 248.109 30.2097C247.293 29.8312 246.814 29.7913 242.292 29.7316L237.352 29.6519V42.4414ZM246.356 31.9429C247.352 32.3612 247.791 33.0784 247.651 34.0346C247.412 35.5486 246.018 36.0666 242.332 36.0666H240.141V31.4249L242.89 31.5245C244.663 31.6042 245.898 31.7436 246.356 31.9429Z" fill="#5E646B"/>
<path d="M253.946 30.9269C254.325 31.6241 255.819 34.4928 257.253 37.3017L259.883 42.4414H262.791L265.999 36.206C267.772 32.7596 269.226 29.8909 269.226 29.8312C269.226 29.7515 268.628 29.6917 267.871 29.6917H266.537L264.007 34.7119L261.496 39.752L259.026 34.7119L256.576 29.6917H253.249L253.946 30.9269Z" fill="#5E646B"/>
<path d="M273.011 42.4414H275.8V29.6917H273.011V42.4414Z" fill="#5E646B"/>
<path d="M298.949 35.0107C299.008 40.2301 299.008 40.3696 299.467 41.0071C300.383 42.282 300.662 42.3418 306.14 42.4016L311.061 42.4812V40.4493H306.897C302.993 40.4493 302.714 40.4293 302.216 40.0309C301.738 39.6524 301.698 39.513 301.698 38.1384V36.6642H310.065V34.8713H301.698V31.4847H310.862V29.6917H298.889L298.949 35.0107Z" fill="#5E646B"/>
<path d="M18.3167 6.8619C15.2288 7.45954 11.2247 9.15286 8.2763 11.1051C5.1088 13.2168 1.90147 16.8823 0.76595 19.7112C-1.34571 24.9306 1.04485 30.887 6.26424 33.437C8.95362 34.7518 10.627 35.1104 14.1332 35.1303C17.6593 35.1502 20.249 34.7119 24.0739 33.4569C30.9667 31.2058 42.1426 25.6477 51.2267 19.9901C55.0715 17.5796 54.693 18.1573 54.6333 14.7109L54.5735 11.8024L52.2826 13.0973C48.7963 15.0695 42.4613 18.5159 42.1625 18.5757C42.0231 18.6155 40.9473 16.4839 39.3536 12.9578L36.7837 7.28025L32.9987 7.22048L29.2136 7.18064L18.6952 26.8032L19.2729 26.8629C20.1494 26.9625 22.8986 26.345 24.6716 25.6677C26.9227 24.7911 27.6 24.054 29.0543 20.8268C31.0066 16.464 32.421 13.5555 32.5604 13.5555C32.66 13.5555 34.6123 18.2768 35.8674 21.5838C35.967 21.8826 35.3295 22.2611 31.7436 23.9943C26.5243 26.5243 24.5919 27.3012 21.5041 28.0981C12.3602 30.4687 5.26817 30.0902 4.31195 27.2016C3.35573 24.2732 7.45952 18.7948 13.0773 15.5078C15.8464 13.8941 19.8904 12.5395 22.8986 12.2407C23.6157 12.161 24.1935 12.0614 24.1935 12.0016C24.1935 11.5833 23.1376 8.55521 22.8189 8.03726C22.0021 6.74237 20.7271 6.40371 18.3167 6.8619Z" fill="#5E646B"/>
<path d="M41.4852 26.9227L38.5567 28.5164L39.6524 31.146C41.2262 34.951 40.9274 34.7518 45.5093 34.8315C47.601 34.8713 49.2944 34.8315 49.2944 34.7319C49.3143 34.3534 44.812 25.3091 44.6328 25.3091C44.5132 25.329 43.0988 26.0462 41.4852 26.9227Z" fill="#5E646B"/>
<path d="M0.487051 42.4414H50.8881V38.0587H0.487051V42.4414Z" fill="#5E646B"/>
</g>
<defs>
<clipPath id="clip0_1_62">
<rect width="328.75" height="45" fill="white"/>
</clipPath>
</defs>
</svg>
