<svg width="72" height="54" viewBox="0 0 72 54" fill="none" xmlns="http://www.w3.org/2000/svg">
<path fill-rule="evenodd" clip-rule="evenodd" d="M9.10651 19.7873L1.12476 12.3073C0.881628 12.0799 0.688035 11.8067 0.555745 11.5041C0.42345 11.2014 0.355225 10.8757 0.355225 10.5465C0.355225 10.2173 0.42345 9.89158 0.555745 9.58895C0.688035 9.28632 0.881803 9.01295 1.12493 8.78557L9.09981 1.32118C9.58189 0.907152 10.2085 0.690612 10.8495 0.716334C11.494 0.742198 12.1036 1.01105 12.55 1.46698C12.9966 1.92296 13.2451 2.53059 13.243 3.16231C13.2408 3.79071 12.9908 4.39364 12.5457 4.84593L9.06292 8.10656L30.849 8.10656C31.5103 8.10656 32.145 8.36319 32.6132 8.82058C33.0815 9.27802 33.3449 9.89882 33.3449 10.5465C33.3449 11.1942 33.0815 11.815 32.6132 12.2724C32.145 12.7298 31.5103 12.9864 30.849 12.9864L9.05309 12.9864L12.5522 16.2624L12.5607 16.2698C12.8119 16.4874 13.0157 16.7524 13.1598 17.0489C13.3039 17.3455 13.3854 17.6675 13.3991 17.9957C13.4129 18.3238 13.3588 18.6513 13.2401 18.9584C13.1214 19.2656 12.9405 19.5461 12.7083 19.7831C12.4762 20.0202 12.1976 20.209 11.8892 20.3383C11.5809 20.4675 11.2491 20.5347 10.9136 20.5358C10.5782 20.5369 10.246 20.4719 9.93674 20.3446C9.62753 20.2173 9.34765 20.0303 9.11391 19.7948L9.10651 19.7873Z" fill="#FFAE00"/>
<path fill-rule="evenodd" clip-rule="evenodd" d="M62.6222 52.5372L70.6039 45.0571C70.847 44.8298 71.0406 44.5565 71.1729 44.2539C71.3052 43.9513 71.3734 43.6256 71.3734 43.2964C71.3734 42.9672 71.3052 42.6414 71.1729 42.3388C71.0406 42.0362 70.8469 41.7628 70.6037 41.5354L62.6288 34.071C62.1468 33.657 61.5202 33.4405 60.8792 33.4662C60.2347 33.4921 59.6251 33.7609 59.1786 34.2168C58.7321 34.6728 58.4836 35.2805 58.4857 35.9122C58.4878 36.5406 58.7379 37.1435 59.183 37.5958L62.6657 40.8564L40.8797 40.8564C40.2183 40.8564 39.5837 41.1131 39.1155 41.5704C38.6472 42.0279 38.3838 42.6487 38.3838 43.2964C38.3838 43.9441 38.6472 44.5649 39.1155 45.0223C39.5837 45.4797 40.2183 45.7363 40.8797 45.7363L62.6756 45.7363L59.1765 49.0123L59.168 49.0196C58.9168 49.2372 58.7129 49.5022 58.5688 49.7988C58.4247 50.0954 58.3433 50.4174 58.3295 50.7455C58.3157 51.0737 58.3698 51.4011 58.4886 51.7083C58.6073 52.0154 58.7882 52.2959 59.0203 52.533C59.2525 52.77 59.5311 52.9588 59.8394 53.0881C60.1478 53.2174 60.4796 53.2846 60.815 53.2857C61.1505 53.2868 61.4827 53.2217 61.7919 53.0944C62.1011 52.9671 62.381 52.7802 62.6147 52.5446L62.6222 52.5372Z" fill="#FFAE00"/>
<path d="M14.9194 22.0777C14.9194 20.6935 16.3834 19.5714 18.1893 19.5714H54.4843C56.2902 19.5714 57.7541 20.6935 57.7541 22.0777V31.3509C57.7541 32.735 56.2902 33.8571 54.4843 33.8571H18.1893C16.3834 33.8571 14.9194 32.735 14.9194 31.3509V22.0777Z" fill="#052E50"/>
<path d="M24.5971 24.118H25.7289V29.5665H24.565L22.3415 26.0097V29.5665H21.2097V24.118H22.3656L24.5971 27.6513V24.118Z" fill="white"/>
<path d="M29.3143 29.6994C27.7089 29.6994 26.6092 28.5503 26.6092 26.8461C26.6092 25.1264 27.7089 23.9851 29.3143 23.9851C30.9357 23.9851 32.0274 25.1264 32.0274 26.8461C32.0274 28.5581 30.9197 29.6994 29.3143 29.6994ZM29.3143 28.6441C30.2775 28.6441 30.8876 27.9483 30.8876 26.8461C30.8876 25.7283 30.2775 25.0404 29.3143 25.0404C28.3591 25.0404 27.741 25.7205 27.741 26.8461C27.741 27.964 28.3591 28.6441 29.3143 28.6441Z" fill="white"/>
<path d="M34.8651 29.5665V24.118H35.9969V29.5665H34.8651Z" fill="white"/>
<path d="M37.2716 29.5665V24.118H39.2864C40.4182 24.118 41.0925 24.6339 41.0925 25.4938C41.0925 25.9862 40.8838 26.3849 40.5146 26.6116C41.1086 26.8461 41.3975 27.2917 41.3975 27.9483C41.3975 28.9567 40.6992 29.5665 39.5593 29.5665H37.2716ZM38.4035 26.2208H39.2864C39.7199 26.2208 39.9607 26.041 39.9607 25.6657C39.9607 25.3062 39.7119 25.1264 39.2864 25.1264H38.4035V26.2208ZM38.4035 28.5503H39.4711C40.0008 28.5503 40.2657 28.2923 40.2657 27.8858C40.2657 27.3699 39.8563 27.2448 39.4711 27.2448H38.4035V28.5503Z" fill="white"/>
<path d="M45.6312 29.5665L45.2379 28.5424H43.0866L42.6933 29.5665H41.4571L43.7448 24.118H44.5877L46.8593 29.5665H45.6312ZM43.4799 27.5262H44.8526L44.1703 25.7517L43.4799 27.5262Z" fill="white"/>
<path d="M50.8496 24.118H51.9814V29.5665H50.8175L48.594 26.0097V29.5665H47.4622V24.118H48.6181L50.8496 27.6513V24.118Z" fill="white"/>
<path fill-rule="evenodd" clip-rule="evenodd" d="M42.0889 13.3594C43.2751 13.3594 44.2366 12.4231 44.2366 11.268C44.2366 10.1129 43.2751 9.17649 42.0889 9.17649C40.9028 9.17649 39.9413 10.1129 39.9413 11.268C39.9413 12.4231 40.9028 13.3594 42.0889 13.3594ZM42.0889 14.0025C43.6397 14.0025 44.8969 12.7782 44.8969 11.268C44.8969 9.75775 43.6397 8.53348 42.0889 8.53348C40.5382 8.53348 39.281 9.75775 39.281 11.268C39.281 12.7782 40.5382 14.0025 42.0889 14.0025Z" fill="#9F9FB3"/>
<path fill-rule="evenodd" clip-rule="evenodd" d="M30.1551 45.8816C31.3412 45.8816 32.3028 44.9452 32.3028 43.7901C32.3028 42.635 31.3412 41.6986 30.1551 41.6986C28.969 41.6986 28.0074 42.635 28.0074 43.7901C28.0074 44.9452 28.969 45.8816 30.1551 45.8816ZM30.1551 46.5246C31.7059 46.5246 32.963 45.3003 32.963 43.7901C32.963 42.2799 31.7059 41.0556 30.1551 41.0556C28.6043 41.0556 27.3472 42.2799 27.3472 43.7901C27.3472 45.3003 28.6043 46.5246 30.1551 46.5246Z" fill="#9F9FB3"/>
</svg>
