<svg width="175" height="133" viewBox="0 0 175 133" fill="none" xmlns="http://www.w3.org/2000/svg">
<path fill-rule="evenodd" clip-rule="evenodd" d="M21.7049 48.4653L2.14396 29.7653C1.54812 29.1968 1.07368 28.5138 0.749473 27.7572C0.425258 27.0006 0.258057 26.1863 0.258057 25.3633C0.258057 24.5404 0.425258 23.726 0.749473 22.9695C1.07368 22.2129 1.54854 21.5294 2.14438 20.961L21.6884 2.30002C22.8699 1.26496 24.4055 0.723608 25.9763 0.787913C27.5559 0.852573 29.0498 1.5247 30.1439 2.66453C31.2382 3.80449 31.8473 5.32356 31.8421 6.90287C31.8369 8.47384 31.2241 9.98119 30.1332 11.1119L21.598 19.2635L74.9892 19.2635C76.61 19.2635 78.1654 19.9051 79.3128 21.0485C80.4604 22.1921 81.1059 23.7441 81.1059 25.3633C81.1059 26.9826 80.4604 28.5346 79.3128 29.6782C78.1654 30.8216 76.61 31.4632 74.9892 31.4632L21.5739 31.4632L30.1492 39.6531L30.17 39.6715C30.7857 40.2155 31.2852 40.878 31.6383 41.6194C31.9915 42.3609 32.191 43.1659 32.2249 43.9862C32.2587 44.8066 32.1261 45.6252 31.8351 46.3931C31.5441 47.161 31.1007 47.8622 30.5318 48.4549C29.9629 49.0475 29.2801 49.5195 28.5245 49.8427C27.7688 50.1659 26.9556 50.3339 26.1336 50.3366C25.3116 50.3393 24.4973 50.1768 23.7395 49.8585C22.9817 49.5403 22.2958 49.0729 21.723 48.484L21.7049 48.4653Z" fill="#FFAE00"/>
<path fill-rule="evenodd" clip-rule="evenodd" d="M152.856 130.34L172.417 111.64C173.013 111.071 173.487 110.388 173.811 109.632C174.135 108.875 174.303 108.061 174.303 107.238C174.303 106.415 174.135 105.601 173.811 104.844C173.487 104.088 173.012 103.404 172.416 102.836L152.872 84.1747C151.691 83.1396 150.155 82.5982 148.584 82.6625C147.005 82.7272 145.511 83.3993 144.417 84.5392C143.323 85.6791 142.713 87.1982 142.719 88.7775C142.724 90.3485 143.337 91.8558 144.428 92.9865L152.963 101.138L99.5715 101.138C97.9507 101.138 96.3954 101.78 95.2479 102.923C94.1003 104.067 93.4548 105.619 93.4548 107.238C93.4548 108.857 94.1003 110.409 95.2479 111.553C96.3954 112.696 97.9507 113.338 99.5715 113.338L152.987 113.338L144.412 121.528L144.391 121.546C143.775 122.09 143.276 122.753 142.922 123.494C142.569 124.236 142.37 125.04 142.336 125.861C142.302 126.681 142.435 127.5 142.726 128.268C143.017 129.036 143.46 129.737 144.029 130.33C144.598 130.922 145.281 131.394 146.036 131.717C146.792 132.041 147.605 132.209 148.427 132.211C149.249 132.214 150.063 132.051 150.821 131.733C151.579 131.415 152.265 130.948 152.838 130.359L152.856 130.34Z" fill="#FFAE00"/>
<path d="M35.9504 54.1913C35.9504 50.7309 39.5381 47.9257 43.9638 47.9257H132.912C137.338 47.9257 140.926 50.7309 140.926 54.1913V77.3743C140.926 80.8347 137.338 83.6399 132.912 83.6399H43.9638C39.5382 83.6399 35.9504 80.8347 35.9504 77.3743V54.1913Z" fill="#052E50"/>
<path d="M46.8298 73.64C44.1725 73.64 42.0954 71.972 41.7024 69.421L44.3222 68.7342C44.4719 70.3433 45.4637 71.1871 46.8672 71.1871C48.0087 71.1871 48.8134 70.5984 48.8134 69.4995C48.8134 68.7145 48.1771 68.1847 46.362 67.4194C43.6111 66.2616 42.6193 65.202 42.6193 63.1612C42.6193 60.9241 44.2848 59.3542 46.7736 59.3542C48.5701 59.3542 49.9923 60.2177 50.8157 61.9249L48.6262 63.3574C48.2146 62.337 47.5035 61.8072 46.6988 61.8072C45.8941 61.8072 45.2579 62.3566 45.2579 63.1023C45.2579 63.8872 45.8193 64.3778 47.7467 65.1627C50.535 66.3009 51.4519 67.3017 51.4519 69.2444C51.4519 71.8739 49.487 73.64 46.8298 73.64Z" fill="white"/>
<path d="M61.1656 73.3652L60.2487 70.7946H55.2336L54.3166 73.3652H51.4348L56.768 59.6878H58.7329L64.0287 73.3652H61.1656ZM56.1505 68.2436H59.3505L57.7598 63.7891L56.1505 68.2436Z" fill="white"/>
<path d="M73.3312 59.6878H75.9697V73.3652H73.2563L68.0728 64.4367V73.3652H65.4343V59.6878H68.1289L73.3312 68.5575V59.6878Z" fill="white"/>
<path d="M82.8123 73.64C80.155 73.64 78.0779 71.972 77.6849 69.421L80.3047 68.7342C80.4544 70.3433 81.4462 71.1871 82.8497 71.1871C83.9912 71.1871 84.7959 70.5984 84.7959 69.4995C84.7959 68.7145 84.1596 68.1847 82.3445 67.4194C79.5936 66.2616 78.6018 65.202 78.6018 63.1612C78.6018 60.9241 80.2673 59.3542 82.7561 59.3542C84.5526 59.3542 85.9748 60.2177 86.7982 61.9249L84.6087 63.3574C84.1971 62.337 83.486 61.8072 82.6813 61.8072C81.8766 61.8072 81.2404 62.3566 81.2404 63.1023C81.2404 63.8872 81.8018 64.3778 83.7292 65.1627C86.5175 66.3009 87.4344 67.3017 87.4344 69.2444C87.4344 71.8739 85.4695 73.64 82.8123 73.64Z" fill="white"/>
<path d="M93.8328 73.3652V59.6878H96.4714V73.3652H93.8328Z" fill="white"/>
<path d="M99.4431 73.3652V59.6878H104.14C106.779 59.6878 108.351 60.983 108.351 63.1415C108.351 64.3778 107.864 65.3786 107.003 65.9477C108.388 66.5364 109.062 67.6549 109.062 69.3032C109.062 71.8346 107.434 73.3652 104.776 73.3652H99.4431ZM102.082 64.9665H104.14C105.151 64.9665 105.712 64.5152 105.712 63.5732C105.712 62.6706 105.132 62.2192 104.14 62.2192H102.082V64.9665ZM102.082 70.8142H104.571C105.806 70.8142 106.423 70.1666 106.423 69.1462C106.423 67.8511 105.469 67.5371 104.571 67.5371H102.082V70.8142Z" fill="white"/>
<path d="M118.931 73.3652L118.014 70.7946H112.999L112.082 73.3652H109.201L114.534 59.6878H116.499L121.794 73.3652H118.931ZM113.916 68.2436H117.116L115.526 63.7891L113.916 68.2436Z" fill="white"/>
<path d="M131.097 59.6878H133.735V73.3652H131.022L125.839 64.4367V73.3652H123.2V59.6878H125.895L131.097 68.5575V59.6878Z" fill="white"/>
<path fill-rule="evenodd" clip-rule="evenodd" d="M102.535 32.3957C105.442 32.3957 107.798 30.0547 107.798 27.167C107.798 24.2792 105.442 21.9383 102.535 21.9383C99.6279 21.9383 97.2715 24.2792 97.2715 27.167C97.2715 30.0547 99.6279 32.3957 102.535 32.3957ZM102.535 34.0032C106.335 34.0032 109.416 30.9425 109.416 27.167C109.416 23.3914 106.335 20.3307 102.535 20.3307C98.7342 20.3307 95.6533 23.3914 95.6533 27.167C95.6533 30.9425 98.7342 34.0032 102.535 34.0032Z" fill="#9F9FB3"/>
<path fill-rule="evenodd" clip-rule="evenodd" d="M73.2889 113.701C76.1957 113.701 78.5521 111.36 78.5521 108.472C78.5521 105.585 76.1957 103.244 73.2889 103.244C70.3821 103.244 68.0256 105.585 68.0256 108.472C68.0256 111.36 70.3821 113.701 73.2889 113.701ZM73.2889 115.308C77.0894 115.308 80.1703 112.248 80.1703 108.472C80.1703 104.697 77.0894 101.636 73.2889 101.636C69.4884 101.636 66.4075 104.697 66.4075 108.472C66.4075 112.248 69.4884 115.308 73.2889 115.308Z" fill="#9F9FB3"/>
</svg>
