<svg width="375" height="491" viewBox="0 0 375 491" fill="none" xmlns="http://www.w3.org/2000/svg">
<g clip-path="url(#clip0_177_3261)">
<rect width="375" height="491" rx="28" fill="white"/>
<path d="M30 434.736V423.584H32.256V432.656H36.928V434.736H30Z" fill="#052E50"/>
<path d="M37.9304 425.552V423.584H40.1704V425.552H37.9304ZM37.9624 434.736V426.848H40.1384V434.736H37.9624Z" fill="#052E50"/>
<path d="M46.6299 426.672C48.4379 426.672 49.4779 427.76 49.4779 429.568V434.736H47.3179V430.256C47.3179 429.68 47.3179 428.56 45.9579 428.56C44.3259 428.56 44.3259 430.176 44.3259 431.312V434.736H42.1499V426.848H44.3259V427.664C44.9019 426.928 45.7339 426.672 46.6299 426.672Z" fill="#052E50"/>
<path d="M50.2657 434.736L52.9217 430.752L50.2657 426.848H52.9217L54.3617 429.28L55.8018 426.848H58.4578L55.7857 430.752L58.4578 434.736H55.8018L54.3617 432.24L52.9217 434.736H50.2657Z" fill="#052E50"/>
<path d="M62.4146 434.912C59.9186 434.912 58.4146 432.976 58.4146 430.784C58.4146 428.576 59.9026 426.672 62.4146 426.672C64.9106 426.672 66.4146 428.576 66.4146 430.784C66.4146 432.976 64.8946 434.912 62.4146 434.912ZM62.4146 433.008C63.7906 433.008 64.2546 431.92 64.2546 430.784C64.2546 429.632 63.8066 428.56 62.4146 428.56C61.0386 428.56 60.5746 429.632 60.5746 430.784C60.5746 431.904 61.0226 433.008 62.4146 433.008Z" fill="#052E50"/>
<path d="M71.9349 425.312V423.584H73.6949V425.312H71.9349ZM71.9989 434.736V426.848H73.6469V434.736H71.9989Z" fill="#052E50"/>
<path d="M78.5563 434.88C76.9243 434.88 75.6602 433.952 75.2762 432.72L76.6042 432.128C76.8442 432.784 77.3722 433.488 78.4922 433.488C79.4362 433.488 79.9323 432.976 79.9323 432.416C79.9323 430.832 75.7082 431.856 75.7082 428.976C75.7082 427.504 76.9882 426.704 78.5402 426.704C79.8682 426.704 80.8923 427.296 81.4683 428.384L80.1883 429.088C79.8843 428.528 79.3882 428.032 78.4762 428.032C77.7402 428.032 77.2762 428.368 77.2762 428.848C77.2762 430.272 81.5483 429.408 81.5483 432.32C81.5483 434.08 80.0603 434.88 78.5563 434.88Z" fill="#052E50"/>
<path d="M90.3647 426.704C92.4128 426.704 93.6608 427.856 93.6608 429.776V434.736H92.1567L92.0288 433.616C91.5168 434.416 90.6047 434.88 89.4847 434.88C87.8047 434.88 86.6847 433.872 86.6847 432.368C86.6847 431.472 87.0688 430.8 87.7728 430.448C88.3168 430.176 89.0527 430.048 90.1727 430.048H92.0127V429.776C92.0127 428.752 91.3888 428.144 90.3488 428.144C89.4848 428.144 88.7167 428.56 88.1247 429.376L86.9248 428.368C87.8368 427.248 88.9567 426.704 90.3647 426.704ZM89.7887 433.488C91.0687 433.488 92.0127 432.592 92.0127 431.344V431.312H90.3647C89.4527 431.312 88.9887 431.392 88.6847 431.632C88.4447 431.792 88.3327 432.064 88.3327 432.4C88.3327 433.072 88.8927 433.488 89.7887 433.488Z" fill="#052E50"/>
<path d="M102.4 434.88C100.768 434.88 99.504 433.952 99.12 432.72L100.448 432.128C100.688 432.784 101.216 433.488 102.336 433.488C103.28 433.488 103.776 432.976 103.776 432.416C103.776 430.832 99.552 431.856 99.552 428.976C99.552 427.504 100.832 426.704 102.384 426.704C103.712 426.704 104.736 427.296 105.312 428.384L104.032 429.088C103.728 428.528 103.232 428.032 102.32 428.032C101.584 428.032 101.12 428.368 101.12 428.848C101.12 430.272 105.392 429.408 105.392 432.32C105.392 434.08 103.904 434.88 102.4 434.88Z" fill="#052E50"/>
<path d="M112.131 426.848H113.779V434.736H112.131V433.744C111.571 434.528 110.659 434.88 109.699 434.88C107.779 434.88 106.963 433.52 106.963 431.744V426.848H108.611V431.328C108.611 432.128 108.691 433.44 110.163 433.44C111.875 433.44 112.131 431.68 112.131 430.048V426.848Z" fill="#052E50"/>
<path d="M120.297 426.688C122.313 426.688 123.673 428.24 123.673 430.784C123.673 433.152 122.489 434.88 120.297 434.88C119.353 434.88 118.457 434.56 117.913 433.856V434.736H116.265V423.584H117.913V427.728C118.409 427.088 119.321 426.688 120.297 426.688ZM119.929 433.376C121.337 433.376 122.025 432.368 122.025 430.8C122.025 429.184 121.305 428.176 119.913 428.176C118.473 428.176 117.753 429.296 117.753 430.8C117.753 432.272 118.441 433.376 119.929 433.376Z" fill="#052E50"/>
<path d="M127.978 434.88C126.346 434.88 125.082 433.952 124.698 432.72L126.026 432.128C126.266 432.784 126.794 433.488 127.914 433.488C128.858 433.488 129.354 432.976 129.354 432.416C129.354 430.832 125.13 431.856 125.13 428.976C125.13 427.504 126.41 426.704 127.962 426.704C129.29 426.704 130.314 427.296 130.89 428.384L129.61 429.088C129.306 428.528 128.81 428.032 127.898 428.032C127.162 428.032 126.698 428.368 126.698 428.848C126.698 430.272 130.97 429.408 130.97 432.32C130.97 434.08 129.482 434.88 127.978 434.88Z" fill="#052E50"/>
<path d="M132.732 425.312V423.584H134.492V425.312H132.732ZM132.796 434.736V426.848H134.444V434.736H132.796Z" fill="#052E50"/>
<path d="M142.057 423.584H143.705V434.736H142.057V433.856C141.513 434.56 140.617 434.88 139.673 434.88C137.481 434.88 136.297 433.152 136.297 430.784C136.297 428.24 137.657 426.688 139.673 426.688C140.649 426.688 141.561 427.088 142.057 427.728V423.584ZM140.041 433.376C141.529 433.376 142.217 432.272 142.217 430.8C142.217 429.296 141.497 428.176 140.057 428.176C138.665 428.176 137.945 429.184 137.945 430.8C137.945 432.368 138.633 433.376 140.041 433.376Z" fill="#052E50"/>
<path d="M146.122 425.312V423.584H147.882V425.312H146.122ZM146.186 434.736V426.848H147.834V434.736H146.186Z" fill="#052E50"/>
<path d="M153.24 426.704C155.288 426.704 156.536 427.856 156.536 429.776V434.736H155.032L154.904 433.616C154.392 434.416 153.48 434.88 152.36 434.88C150.68 434.88 149.56 433.872 149.56 432.368C149.56 431.472 149.944 430.8 150.648 430.448C151.192 430.176 151.928 430.048 153.048 430.048H154.888V429.776C154.888 428.752 154.264 428.144 153.224 428.144C152.36 428.144 151.592 428.56 151 429.376L149.8 428.368C150.712 427.248 151.832 426.704 153.24 426.704ZM152.664 433.488C153.944 433.488 154.888 432.592 154.888 431.344V431.312H153.24C152.328 431.312 151.864 431.392 151.56 431.632C151.32 431.792 151.208 432.064 151.208 432.4C151.208 433.072 151.768 433.488 152.664 433.488Z" fill="#052E50"/>
<path d="M162.62 426.704C163.132 426.704 163.596 426.816 164.076 427.104L163.276 428.544C162.972 428.368 162.668 428.272 162.3 428.272C161.116 428.272 160.428 429.056 160.428 430.624V434.736H158.78V426.848H160.444V428.144C160.844 427.152 161.756 426.704 162.62 426.704Z" fill="#052E50"/>
<path d="M166.201 438L167.577 434.56L164.409 426.848H166.217L168.457 432.656L170.601 426.848H172.409L167.977 438H166.201Z" fill="#052E50"/>
<path d="M180.949 434.88C178.565 434.88 177.045 433.04 177.045 430.784C177.045 428.512 178.565 426.704 180.949 426.704C183.317 426.704 184.837 428.512 184.837 430.784C184.837 433.04 183.317 434.88 180.949 434.88ZM180.949 433.44C182.485 433.44 183.189 432.224 183.189 430.784C183.189 429.328 182.469 428.144 180.949 428.144C179.413 428.144 178.693 429.328 178.693 430.784C178.693 432.24 179.413 433.44 180.949 433.44Z" fill="#052E50"/>
<path d="M187.072 434.736V428.176H185.52V426.848H187.088V425.84C187.088 423.952 188.176 423.44 189.344 423.44C189.888 423.44 190.368 423.552 190.8 423.744L190.256 425.024C190.032 424.896 189.776 424.816 189.52 424.816C188.848 424.816 188.72 425.376 188.72 425.808V426.848H190.704V428.176H188.72V434.736H187.072Z" fill="#052E50"/>
<rect width="182" height="25" transform="translate(30 450)" fill="white"/>
<path d="M57.2893 453.945C54.4329 455.505 53.4183 455.981 52.9882 455.981C52.8668 455.981 52.7676 456.048 52.7676 456.114C52.7786 456.358 53.4072 457.763 53.6058 457.985C53.9587 458.372 54.5873 458.261 55.8997 457.586C57.2121 456.9 60.0576 455.339 60.1899 455.207C60.234 455.173 60.2561 454.509 60.245 453.735L60.212 452.34L57.2893 453.945Z" fill="#076E4E"/>
<path d="M94.8326 451.964C94.601 452.318 94.3583 452.661 94.3142 452.739C94.2481 452.849 94.4135 452.882 95.0862 452.882L95.9465 452.871L97.3471 451.333H95.2627L94.8326 451.964Z" fill="#076E4E"/>
<path d="M71.6503 454.1C68.485 454.93 66.941 457.63 67.9998 460.475C68.1872 460.973 68.4188 461.305 68.9703 461.847C69.8305 462.699 70.5364 463.098 71.6944 463.396C73.6134 463.895 75.8632 463.54 77.5396 462.5L77.9146 462.279L77.4624 461.67C77.2087 461.338 76.9881 461.072 76.9771 461.072C76.9551 461.072 76.6463 461.238 76.2933 461.449C75.3449 462.013 74.5287 462.212 73.459 462.157C71.2091 462.024 69.7533 460.685 69.7533 458.748C69.7533 457.409 70.4261 456.369 71.7054 455.738C72.312 455.439 72.5877 455.373 73.3928 455.339C74.5287 455.284 75.2456 455.461 76.172 456.026L76.8007 456.402L77.2528 455.793C77.7822 455.096 77.8043 455.129 76.6021 454.543C75.2346 453.867 73.2274 453.69 71.6503 454.1Z" fill="#076E4E"/>
<path d="M145.697 454.056C144.065 454.454 142.697 455.461 142.08 456.734C141.738 457.442 141.716 457.531 141.716 458.748C141.716 459.899 141.749 460.076 142.013 460.663C142.841 462.423 144.616 463.474 147.02 463.585C148.62 463.662 149.744 463.441 151.123 462.777L152.138 462.29V458.195H147.395V459.634H150.263V460.508C150.263 461.548 150.208 461.604 149.017 461.98C147.506 462.434 145.774 462.124 144.715 461.194C143.568 460.176 143.337 458.25 144.219 456.922C145.333 455.24 148.355 454.786 150.175 456.037C150.395 456.192 150.627 456.313 150.693 456.313C150.847 456.313 151.597 455.306 151.553 455.162C151.476 454.941 150.175 454.321 149.325 454.1C148.3 453.834 146.679 453.812 145.697 454.056Z" fill="#076E4E"/>
<path d="M174.096 454.1C172.541 454.509 171.151 455.572 170.567 456.778C169.729 458.527 170.17 460.729 171.625 462.068C173.666 463.939 177.195 464.149 179.908 462.555L180.382 462.279L180.162 461.98C180.04 461.814 179.82 461.537 179.687 461.36L179.423 461.05L178.882 461.393C176.699 462.788 173.677 462.257 172.596 460.287C172.298 459.755 172.265 459.589 172.265 458.748C172.265 457.907 172.298 457.741 172.596 457.21C173.655 455.284 176.632 454.72 178.728 456.037C178.96 456.192 179.191 456.313 179.246 456.313C179.39 456.313 180.173 455.229 180.107 455.118C179.985 454.908 178.419 454.211 177.724 454.056C176.732 453.812 175.099 453.845 174.096 454.1Z" fill="#076E4E"/>
<path d="M185.036 454.045C184.099 454.255 182.864 454.919 182.191 455.594C180.029 457.774 180.636 461.338 183.415 462.799C184.628 463.441 185.136 463.563 186.713 463.563C188.334 463.563 188.874 463.452 190.021 462.854C193.562 461.017 193.561 456.479 190.01 454.62C189.58 454.399 188.907 454.144 188.521 454.045C187.661 453.845 185.963 453.845 185.036 454.045ZM188.676 455.738C191.312 457.044 191.245 460.563 188.554 461.825C188.003 462.091 187.793 462.124 186.768 462.124C185.742 462.124 185.533 462.091 184.992 461.836C182.07 460.464 182.301 456.612 185.367 455.516C185.808 455.362 186.183 455.317 186.944 455.35C187.816 455.373 188.047 455.428 188.676 455.738Z" fill="#076E4E"/>
<path d="M79.6791 463.507H81.6643V460.187H84.1568L85.5354 461.836L86.9029 463.496H88.094L89.2851 463.507L88.5572 462.644C86.8699 460.685 86.2964 459.988 86.2964 459.932C86.2964 459.899 86.4839 459.811 86.7155 459.733C88.2154 459.246 88.9322 458.372 88.9433 457.022C88.9433 455.705 88.1933 454.786 86.6934 454.288C86.0978 454.089 85.6677 454.056 82.8554 454.011L79.6791 453.967V463.507ZM85.8332 455.705C87.0243 456.214 87.2779 457.365 86.3515 458.184C85.8552 458.626 85.1604 458.748 83.2635 458.748H81.6643V455.539H83.5392C84.9839 455.539 85.5133 455.583 85.8332 455.705Z" fill="#076E4E"/>
<path d="M90.9505 457.774C90.9836 461.139 91.0056 461.615 91.1821 462.013C91.4357 462.578 91.7556 462.91 92.307 463.208C92.7261 463.441 92.9136 463.452 96.2001 463.485L99.6411 463.518V461.958H93.5863L93.2775 461.692C92.9908 461.438 92.9687 461.371 92.9356 460.364L92.8915 459.302H98.8691V457.863H92.9136V455.539H99.4205V453.989H90.9174L90.9505 457.774Z" fill="#076E4E"/>
<path d="M101.737 463.529L104.582 463.474C107.769 463.419 108.332 463.319 109.589 462.655C110.526 462.168 111.332 461.305 111.684 460.43C111.883 459.921 111.927 459.578 111.938 458.693C111.938 457.664 111.916 457.531 111.585 456.856C111.155 455.981 110.405 455.251 109.49 454.786C108.243 454.155 107.791 454.078 104.637 454.022L101.737 453.967V463.529ZM108.023 455.882C108.718 456.214 109.357 456.811 109.633 457.409C109.92 457.985 109.964 459.158 109.732 459.844C109.501 460.552 108.85 461.227 108.045 461.604C107.46 461.88 107.295 461.902 105.575 461.936L103.722 461.98V455.516L105.575 455.561C107.295 455.594 107.46 455.616 108.023 455.882Z" fill="#076E4E"/>
<path d="M113.868 463.507H115.853V453.989H113.868V463.507Z" fill="#076E4E"/>
<path d="M117.618 455.539H121.257V463.507H123.243V455.539H126.772V453.989H117.618V455.539Z" fill="#076E4E"/>
<path d="M134.073 454.565C133.797 455.074 129.65 463.175 129.551 463.419C129.529 463.463 129.959 463.507 130.51 463.507H131.514L132.088 462.345L132.672 461.183H137.867L138.396 462.345L138.936 463.507H140.072C140.701 463.507 141.219 463.496 141.219 463.474C141.219 463.463 140.138 461.338 138.815 458.748L136.411 454.045L134.404 453.978L134.073 454.565ZM136.201 457.852C136.675 458.826 137.05 459.656 137.006 459.689C136.973 459.722 136.157 459.733 135.187 459.722L133.422 459.689L134.304 457.841C134.79 456.822 135.22 456.003 135.253 456.026C135.286 456.059 135.716 456.867 136.201 457.852Z" fill="#076E4E"/>
<path d="M154.454 463.507H156.439V460.187L157.74 460.198H159.031L160.409 461.858L161.788 463.507H162.913C163.541 463.507 164.049 463.485 164.049 463.463C164.049 463.441 163.376 462.644 162.56 461.67L161.071 459.921L161.744 459.678C163.122 459.18 163.773 458.328 163.762 457.033C163.762 455.793 163.255 455.041 162.064 454.498C161.148 454.078 160.288 453.989 157.244 453.989H154.454V463.507ZM160.939 455.793C162.064 456.413 161.964 457.896 160.762 458.449C160.31 458.66 160.012 458.693 158.347 458.726L156.439 458.77V455.516L158.512 455.561C160.244 455.583 160.63 455.627 160.939 455.793Z" fill="#076E4E"/>
<path d="M166.144 463.507H168.129V453.989H166.144V463.507Z" fill="#076E4E"/>
<path d="M194.378 463.507H202.208V461.958H196.253V453.989H194.378V463.507Z" fill="#076E4E"/>
<path d="M203.311 457.774C203.311 461.559 203.311 461.57 203.576 462.146C203.884 462.799 204.414 463.208 205.186 463.385C205.461 463.452 207.083 463.507 208.803 463.507H211.913V461.958H208.991C207.094 461.958 205.98 461.913 205.814 461.836C205.417 461.659 205.296 461.283 205.296 460.242V459.302H211.141V457.863H205.296V455.539H211.693V453.989H203.311V457.774Z" fill="#076E4E"/>
<path d="M143.611 466.65C143.07 466.827 142.717 467.038 142.397 467.37C141.967 467.801 141.934 467.868 141.934 468.443C141.934 469.03 141.956 469.085 142.397 469.484C142.938 469.96 143.644 470.214 145.629 470.646C146.39 470.812 147.195 471.044 147.427 471.155C148.463 471.697 147.405 472.583 145.728 472.583C144.989 472.583 143.644 472.25 142.949 471.907C142.596 471.719 142.287 471.586 142.276 471.609C142.265 471.631 142.122 471.83 141.956 472.051C141.791 472.273 141.659 472.505 141.659 472.56C141.659 472.616 141.956 472.793 142.32 472.948C144.747 474.01 147.658 473.877 148.904 472.671C149.93 471.675 149.511 470.391 147.978 469.816C147.625 469.683 146.666 469.428 145.849 469.251C145.033 469.074 144.173 468.853 143.953 468.753C143.026 468.344 143.434 467.746 144.813 467.503C145.75 467.325 146.897 467.503 147.846 467.967L148.585 468.322L148.926 467.824L149.279 467.325L148.64 467.027C147.636 466.551 146.809 466.385 145.519 466.385C144.603 466.385 144.206 466.44 143.611 466.65Z" fill="#5E646B"/>
<path d="M188.2 466.54C186.92 466.905 185.773 467.835 185.398 468.842C185.145 469.506 185.189 470.79 185.498 471.42C186.204 472.87 188.277 473.833 190.306 473.645C191.177 473.568 192.291 473.235 192.854 472.892L193.251 472.638L192.898 472.206L192.534 471.775L191.773 472.151C191.155 472.461 190.858 472.538 190.185 472.56C189.17 472.616 188.608 472.472 187.913 471.996C186.634 471.144 186.424 469.539 187.439 468.432C188.089 467.724 188.817 467.436 189.964 467.436C190.802 467.447 190.99 467.48 191.663 467.812L192.424 468.178L192.71 467.812C192.865 467.613 192.997 467.392 192.997 467.337C192.997 467.182 192.082 466.728 191.387 466.551C190.659 466.352 188.883 466.352 188.2 466.54Z" fill="#5E646B"/>
<path d="M206.143 466.65C205.603 466.827 205.25 467.038 204.93 467.37C204.5 467.801 204.467 467.868 204.467 468.443C204.467 469.03 204.489 469.085 204.93 469.484C205.471 469.96 206.176 470.214 208.162 470.646C208.923 470.812 209.728 471.044 209.959 471.155C210.996 471.697 209.937 472.583 208.261 472.583C207.522 472.583 206.176 472.25 205.482 471.907C205.129 471.719 204.82 471.586 204.809 471.609C204.798 471.631 204.655 471.83 204.489 472.051C204.324 472.273 204.191 472.505 204.191 472.56C204.191 472.616 204.489 472.793 204.853 472.948C207.279 474.01 210.191 473.877 211.437 472.671C212.463 471.675 212.044 470.391 210.511 469.816C210.158 469.683 209.198 469.428 208.382 469.251C206.331 468.809 205.846 468.576 206.033 468.1C206.199 467.646 207.621 467.325 208.724 467.48C209.463 467.591 210.511 467.934 210.864 468.2C211.062 468.344 211.106 468.31 211.448 467.846L211.812 467.325L211.172 467.027C210.169 466.551 209.342 466.385 208.051 466.385C207.136 466.385 206.739 466.44 206.143 466.65Z" fill="#5E646B"/>
<path d="M68.8691 473.579H70.4021L70.4683 471.42L72.3432 471.354C74.5048 471.277 75.0121 471.144 75.6849 470.469C76.6775 469.473 76.5341 467.857 75.3871 467.082C74.6372 466.573 74.0857 466.495 71.3837 466.495H68.8691V473.579ZM74.0085 467.801C75.0121 468.322 74.9349 469.661 73.8762 470.103C73.6225 470.214 73.027 470.258 71.9572 470.258H70.4132V468.952C70.4132 468.233 70.4462 467.602 70.5014 467.547C70.5455 467.503 71.2513 467.492 72.0785 467.525C73.2806 467.569 73.6666 467.624 74.0085 467.801Z" fill="#5E646B"/>
<path d="M79.0597 470.037L77.1627 473.579H78.7398L79.6883 471.808H83.7579L84.6402 473.579H85.5225C86.4048 473.579 86.4158 473.579 86.2835 473.324C86.2173 473.191 85.3681 471.598 84.3976 469.782L82.6219 466.495H80.9456L79.0597 470.037ZM83.0962 470.668C83.0962 470.779 82.7322 470.812 81.6624 470.812C80.8794 470.812 80.2287 470.79 80.2287 470.756C80.2287 470.734 80.5596 470.081 80.9566 469.307L81.6955 467.912L82.3903 469.218C82.7763 469.948 83.0962 470.601 83.0962 470.668Z" fill="#5E646B"/>
<path d="M88.2245 468.62L90.0442 470.745V473.579H91.5883V472.162L91.5993 470.756L92.5588 469.639C93.0882 469.019 93.9043 468.056 94.3785 467.503L95.2388 466.495H93.5073L92.239 468.045C91.5552 468.897 90.9596 469.594 90.9265 469.594C90.8935 469.594 90.2979 468.897 89.6031 468.045L88.3348 466.495H86.3937L88.2245 468.62Z" fill="#5E646B"/>
<path d="M97.1026 473.579H98.4261L98.4481 470.956L98.4812 468.344L99.8377 470.181C100.588 471.199 101.238 472.051 101.294 472.084C101.338 472.118 102.032 471.254 102.827 470.181L104.271 468.222V473.579H105.815V466.495H104.966L104.106 466.507L102.893 468.167C102.231 469.085 101.624 469.882 101.558 469.937C101.481 470.004 101.007 469.45 100.136 468.266L98.8231 466.495H97.1026V473.579Z" fill="#5E646B"/>
<path d="M108.793 469.118C108.793 470.69 108.848 471.93 108.914 472.195C109.069 472.749 109.62 473.302 110.172 473.457C110.436 473.523 111.638 473.579 113.127 473.579H115.631V472.472H113.403C112.168 472.472 111.054 472.439 110.911 472.405C110.547 472.306 110.337 471.808 110.337 471.033V470.369H115.079V469.373L112.741 469.351L110.392 469.318V467.547L112.962 467.514L115.521 467.492V466.495H108.793V469.118Z" fill="#5E646B"/>
<path d="M118.498 473.579H120.042L120.064 471.022L120.097 468.465L122.358 471.022L124.619 473.568L125.424 473.579H126.218V466.495H124.674L124.652 469.008L124.619 471.531L122.369 469.008L120.108 466.495H118.498V473.579Z" fill="#5E646B"/>
<path d="M128.314 467.48L131.126 467.547L131.159 470.557L131.181 473.579H132.725V467.492H135.593V466.495H128.314V467.48Z" fill="#5E646B"/>
<path d="M151.915 469.174C151.915 470.657 151.97 472.04 152.026 472.25C152.169 472.76 152.742 473.302 153.294 473.457C153.548 473.523 154.783 473.579 156.25 473.579H158.753V472.483L156.316 472.45C153.911 472.417 153.878 472.417 153.669 472.151C153.503 471.952 153.459 471.719 153.459 471.133V470.369H158.202V469.373H153.459V467.492H158.532V466.495H151.915V469.174Z" fill="#5E646B"/>
<path d="M161.4 473.579H162.944V471.033H164.918L167.168 473.579H168.05C169.076 473.579 169.131 473.745 167.587 472.04L166.539 470.878L167.146 470.679C169.153 470.004 169.274 467.691 167.355 466.783C166.903 466.573 166.639 466.551 164.135 466.518L161.4 466.473V473.579ZM166.385 467.746C166.936 467.978 167.179 468.377 167.102 468.908C166.969 469.749 166.197 470.037 164.157 470.037H162.944V467.458L164.466 467.514C165.447 467.558 166.131 467.635 166.385 467.746Z" fill="#5E646B"/>
<path d="M170.587 467.182C170.796 467.569 171.624 469.163 172.418 470.723L173.873 473.579H175.484L177.259 470.114C178.241 468.2 179.046 466.606 179.046 466.573C179.046 466.529 178.715 466.495 178.296 466.495H177.557L176.156 469.284L174.767 472.084L173.399 469.284L172.043 466.495H170.201L170.587 467.182Z" fill="#5E646B"/>
<path d="M181.141 473.579H182.685V466.495H181.141V473.579Z" fill="#5E646B"/>
<path d="M195.501 469.45C195.534 472.35 195.534 472.428 195.787 472.782C196.295 473.49 196.449 473.523 199.482 473.556L202.206 473.601V472.472H199.901C197.74 472.472 197.585 472.461 197.309 472.239C197.045 472.029 197.023 471.952 197.023 471.188V470.369H201.655V469.373H197.023V467.492H202.096V466.495H195.468L195.501 469.45Z" fill="#5E646B"/>
<path d="M40.1403 453.812C38.4309 454.144 36.2141 455.085 34.5819 456.169C32.8283 457.343 31.0527 459.379 30.424 460.951C29.255 463.85 30.5784 467.159 33.468 468.576C34.9568 469.306 35.8832 469.506 37.8243 469.517C39.7764 469.528 41.2101 469.284 43.3276 468.587C47.1436 467.336 53.3307 464.249 58.3597 461.106C60.4883 459.766 60.2787 460.087 60.2456 458.173L60.2126 456.557L58.9443 457.276C57.0142 458.372 53.5071 460.287 53.3417 460.32C53.2645 460.342 52.6689 459.158 51.7866 457.199L50.3639 454.045L48.2685 454.011L46.173 453.989L40.3499 464.891L40.6697 464.924C41.155 464.979 42.6769 464.636 43.6585 464.26C44.9047 463.773 45.2797 463.363 46.0848 461.57C47.1656 459.147 47.9486 457.531 48.0258 457.531C48.081 457.531 49.1618 460.154 49.8566 461.991C49.9118 462.157 49.5588 462.367 47.5737 463.33C44.6841 464.736 43.6144 465.167 41.9049 465.61C36.8427 466.927 32.9165 466.717 32.3871 465.112C31.8578 463.485 34.1297 460.441 37.2398 458.615C38.7728 457.719 41.0116 456.966 42.6769 456.8C43.074 456.756 43.3938 456.701 43.3938 456.667C43.3938 456.435 42.8093 454.753 42.6328 454.465C42.1806 453.746 41.4748 453.558 40.1403 453.812Z" fill="#5E646B"/>
<path d="M52.9667 464.957L51.3455 465.842L51.9521 467.303C52.8233 469.417 52.6579 469.306 55.1945 469.351C56.3525 469.373 57.29 469.351 57.29 469.295C57.301 469.085 54.8085 464.061 54.7092 464.061C54.6431 464.072 53.86 464.47 52.9667 464.957Z" fill="#5E646B"/>
<path d="M30.2696 473.579H58.1722V471.144H30.2696V473.579Z" fill="#5E646B"/>
<path d="M16 183C16 171.954 24.9543 163 36 163H120C131.046 163 140 171.954 140 183V267C140 278.046 131.046 287 120 287H36C24.9543 287 16 278.046 16 267V183Z" fill="#FFAE00"/>
<path d="M28 195C28 183.954 36.9543 175 48 175H339C350.046 175 359 183.954 359 195V376C359 387.046 350.046 396 339 396H48C36.9543 396 28 387.046 28 376V195Z" fill="white"/>
<path fill-rule="evenodd" clip-rule="evenodd" d="M339 176H48C37.5066 176 29 184.507 29 195V376C29 386.493 37.5066 395 48 395H339C349.493 395 358 386.493 358 376V195C358 184.507 349.493 176 339 176ZM48 175C36.9543 175 28 183.954 28 195V376C28 387.046 36.9543 396 48 396H339C350.046 396 359 387.046 359 376V195C359 183.954 350.046 175 339 175H48Z" fill="#CFCFD7"/>
<rect x="44" y="243" width="39" height="130" rx="19.5" fill="#FAFAFB"/>
<rect x="44" y="243" width="39" height="39" rx="19.5" fill="#FFAE00"/>
<path d="M64.2542 255H67V271H64.2542V259.981H61V257.479H62.7492C63.7458 257.479 64.2542 257.02 64.2542 255.849V255Z" fill="white"/>
<rect x="44" y="334" width="39" height="39" rx="19.5" fill="#FFAE00"/>
<path d="M63.0101 358.918H69V362H58.0891V359.351C60.5607 357.738 65.3704 354.295 65.3704 350.538C65.3704 349.19 64.7692 348.154 63.3664 348.154C61.5405 348.154 61.0283 349.936 60.9615 351.453L58 351.212C58 348.203 59.8927 345 63.4332 345C66.3057 345 68.3765 347.143 68.3765 350.37C68.3765 353.644 65.9049 357.112 63.0101 358.918Z" fill="white"/>
<path d="M103.08 261.208C99.8315 261.208 97.7835 258.984 97.7835 255.416C97.7835 251.832 99.8475 249.624 103.112 249.624C105.432 249.624 107.128 250.728 107.944 252.824L106.36 253.432C105.832 251.976 104.712 251.256 103.112 251.256C100.824 251.256 99.4955 252.744 99.4955 255.4C99.4955 258.072 100.824 259.576 103.08 259.576C104.696 259.576 105.832 258.824 106.36 257.352L107.976 257.96C107.16 260.072 105.416 261.208 103.08 261.208Z" fill="#052E50"/>
<path d="M113.656 252.968C115.416 252.968 116.376 254.04 116.376 255.992V261H114.728V256.408C114.728 255.032 114.232 254.408 113.176 254.408C111.832 254.408 111.208 255.448 111.208 257.688V261H109.56V249.848H111.208V254.088C111.72 253.368 112.584 252.968 113.656 252.968Z" fill="#052E50"/>
<path d="M121.869 261.144C119.485 261.144 117.965 259.304 117.965 257.048C117.965 254.776 119.485 252.968 121.869 252.968C124.237 252.968 125.757 254.776 125.757 257.048C125.757 259.304 124.237 261.144 121.869 261.144ZM121.869 259.704C123.405 259.704 124.109 258.488 124.109 257.048C124.109 255.592 123.389 254.408 121.869 254.408C120.333 254.408 119.613 255.592 119.613 257.048C119.613 258.504 120.333 259.704 121.869 259.704Z" fill="#052E50"/>
<path d="M130.728 261.144C128.344 261.144 126.824 259.304 126.824 257.048C126.824 254.776 128.344 252.968 130.728 252.968C133.096 252.968 134.616 254.776 134.616 257.048C134.616 259.304 133.096 261.144 130.728 261.144ZM130.728 259.704C132.264 259.704 132.968 258.488 132.968 257.048C132.968 255.592 132.248 254.408 130.728 254.408C129.192 254.408 128.472 255.592 128.472 257.048C128.472 258.504 129.192 259.704 130.728 259.704Z" fill="#052E50"/>
<path d="M138.836 261.144C137.204 261.144 135.94 260.216 135.556 258.984L136.884 258.392C137.124 259.048 137.652 259.752 138.772 259.752C139.716 259.752 140.212 259.24 140.212 258.68C140.212 257.096 135.988 258.12 135.988 255.24C135.988 253.768 137.268 252.968 138.82 252.968C140.148 252.968 141.172 253.56 141.748 254.648L140.468 255.352C140.164 254.792 139.668 254.296 138.756 254.296C138.02 254.296 137.556 254.632 137.556 255.112C137.556 256.536 141.828 255.672 141.828 258.584C141.828 260.344 140.34 261.144 138.836 261.144Z" fill="#052E50"/>
<path d="M150.183 256.856C150.183 257.096 150.167 257.336 150.135 257.576H144.599C144.663 258.84 145.415 259.656 146.759 259.656C147.527 259.656 148.183 259.432 148.775 258.76L149.927 259.752C149.031 260.728 148.039 261.144 146.743 261.144C144.135 261.144 142.951 259.256 142.951 257.096C142.951 254.984 144.103 252.968 146.615 252.968C149.063 252.968 150.183 254.792 150.183 256.856ZM144.599 256.248H148.599V256.216C148.567 255.096 147.783 254.344 146.615 254.344C145.351 254.344 144.711 255.272 144.599 256.248Z" fill="#052E50"/>
<path d="M159.916 259.576L159.932 260.92C159.468 261.064 159.004 261.144 158.572 261.144C157.324 261.144 156.332 260.488 156.332 258.904V254.44H155.036V253.112H156.332V251.416L157.98 250.184V253.112H159.916V254.44H157.98V258.76C157.98 259.432 158.348 259.752 158.972 259.752C159.244 259.752 159.564 259.688 159.916 259.576Z" fill="#052E50"/>
<path d="M165.609 252.968C167.369 252.968 168.329 254.04 168.329 255.992V261H166.681V256.408C166.681 255.032 166.185 254.408 165.129 254.408C163.785 254.408 163.161 255.448 163.161 257.688V261H161.513V249.848H163.161V254.088C163.673 253.368 164.537 252.968 165.609 252.968Z" fill="#052E50"/>
<path d="M177.198 256.856C177.198 257.096 177.182 257.336 177.15 257.576H171.614C171.678 258.84 172.43 259.656 173.774 259.656C174.542 259.656 175.198 259.432 175.79 258.76L176.942 259.752C176.046 260.728 175.054 261.144 173.758 261.144C171.15 261.144 169.966 259.256 169.966 257.096C169.966 254.984 171.118 252.968 173.63 252.968C176.078 252.968 177.198 254.792 177.198 256.856ZM171.614 256.248H175.614V256.216C175.582 255.096 174.798 254.344 173.63 254.344C172.366 254.344 171.726 255.272 171.614 256.248Z" fill="#052E50"/>
<path d="M187.092 252.952C189.108 252.952 190.468 254.504 190.468 257.048C190.468 259.416 189.284 261.144 187.092 261.144C186.148 261.144 185.252 260.824 184.708 260.12V261H183.06V249.848H184.708V253.992C185.204 253.352 186.116 252.952 187.092 252.952ZM186.724 259.64C188.132 259.64 188.82 258.632 188.82 257.064C188.82 255.448 188.1 254.44 186.708 254.44C185.268 254.44 184.548 255.56 184.548 257.064C184.548 258.536 185.236 259.64 186.724 259.64Z" fill="#052E50"/>
<path d="M195.269 252.968C197.317 252.968 198.565 254.12 198.565 256.04V261H197.061L196.933 259.88C196.421 260.68 195.509 261.144 194.389 261.144C192.709 261.144 191.589 260.136 191.589 258.632C191.589 257.736 191.973 257.064 192.677 256.712C193.221 256.44 193.957 256.312 195.077 256.312H196.917V256.04C196.917 255.016 196.293 254.408 195.253 254.408C194.389 254.408 193.621 254.824 193.029 255.64L191.829 254.632C192.741 253.512 193.861 252.968 195.269 252.968ZM194.693 259.752C195.973 259.752 196.917 258.856 196.917 257.608V257.576H195.269C194.357 257.576 193.893 257.656 193.589 257.896C193.349 258.056 193.237 258.328 193.237 258.664C193.237 259.336 193.797 259.752 194.693 259.752Z" fill="#052E50"/>
<path d="M204.922 252.968C206.666 252.968 207.626 254.056 207.626 255.992V261H205.978V256.408C205.978 255.48 205.802 254.408 204.442 254.408C202.746 254.408 202.458 256.04 202.458 257.72V261H200.81V253.112H202.458V254.088C203.002 253.336 203.898 252.968 204.922 252.968Z" fill="#052E50"/>
<path d="M209.935 261V249.848H211.583V256.632L214.815 253.112H217.039L214.111 256.136L217.407 261H215.439L212.991 257.16L211.583 258.696V261H209.935Z" fill="#052E50"/>
<path d="M222.972 261V254.808H221.516V253.112H222.988V252.312C222.988 250.216 224.172 249.672 225.484 249.672C226.14 249.672 226.604 249.816 227.052 250.008L226.364 251.672C226.172 251.56 225.964 251.48 225.724 251.48C225.18 251.48 225.132 251.96 225.132 252.312V253.112H226.844V254.808H225.132V261H222.972Z" fill="#052E50"/>
<path d="M231.998 252.936C232.526 252.936 233.006 253.08 233.534 253.416L232.494 255.352C232.254 255.192 231.886 255.08 231.502 255.08C230.494 255.08 229.934 255.736 229.934 257.176V261H227.758V253.112H229.95V254.36C230.302 253.464 231.134 252.936 231.998 252.936Z" fill="#052E50"/>
<path d="M237.194 261.176C234.698 261.176 233.194 259.24 233.194 257.048C233.194 254.84 234.682 252.936 237.194 252.936C239.69 252.936 241.194 254.84 241.194 257.048C241.194 259.24 239.674 261.176 237.194 261.176ZM237.194 259.272C238.57 259.272 239.034 258.184 239.034 257.048C239.034 255.896 238.586 254.824 237.194 254.824C235.818 254.824 235.354 255.896 235.354 257.048C235.354 258.168 235.802 259.272 237.194 259.272Z" fill="#052E50"/>
<path d="M251.532 252.936C253.436 252.936 254.3 254.44 254.3 255.944V261H252.14V256.6C252.14 255.992 252.028 254.824 250.908 254.824C249.292 254.824 249.5 256.68 249.5 258.216V261H247.34V256.584C247.34 256.168 247.356 254.824 246.14 254.824C244.508 254.824 244.7 256.68 244.7 258.216V261H242.524L242.508 253.112H244.604V254.104C245.132 253.208 245.948 252.936 246.7 252.936C247.516 252.936 248.492 253.256 248.988 254.504C249.644 253.256 250.572 252.936 251.532 252.936Z" fill="#052E50"/>
<path d="M261.4 261L258.936 253.112H261.24L262.488 257.672L263.8 253.112H265.64L266.952 257.64L268.2 253.112H270.52L268.04 261H266.12L264.728 256.184L263.352 261H261.4Z" fill="#052E50"/>
<path d="M275.957 252.936C277.749 252.936 278.805 254.008 278.805 255.832V261H276.645V256.376C276.645 255.32 276.197 254.824 275.269 254.824C274.005 254.824 273.653 255.848 273.653 257.992V261H271.477V249.848H273.653V253.928C274.165 253.256 274.949 252.936 275.957 252.936Z" fill="#052E50"/>
<path d="M280.616 251.816V249.848H282.856V251.816H280.616ZM280.648 261V253.112H282.824V261H280.648Z" fill="#052E50"/>
<path d="M288.052 261.176C285.38 261.176 284.148 259.128 284.148 257.08C284.148 255 285.396 252.936 288.036 252.936C289.652 252.936 290.9 253.704 291.492 255.304L289.444 256.12C289.284 255.336 288.74 254.824 288.036 254.824C286.804 254.824 286.372 255.944 286.372 257.08C286.372 258.2 286.788 259.272 288.02 259.272C288.724 259.272 289.284 258.792 289.46 258.024L291.412 258.792C290.884 260.264 289.652 261.176 288.052 261.176Z" fill="#052E50"/>
<path d="M297.144 252.936C298.936 252.936 299.992 254.008 299.992 255.832V261H297.832V256.376C297.832 255.32 297.384 254.824 296.456 254.824C295.192 254.824 294.84 255.848 294.84 257.992V261H292.664V249.848H294.84V253.928C295.352 253.256 296.136 252.936 297.144 252.936Z" fill="#052E50"/>
<path d="M306.11 264.264L307.55 260.76L304.526 253.112H306.926L308.702 258.28L310.606 253.112H312.99L308.462 264.264H306.11Z" fill="#052E50"/>
<path d="M316.71 261.176C314.214 261.176 312.71 259.24 312.71 257.048C312.71 254.84 314.198 252.936 316.71 252.936C319.206 252.936 320.71 254.84 320.71 257.048C320.71 259.24 319.19 261.176 316.71 261.176ZM316.71 259.272C318.086 259.272 318.55 258.184 318.55 257.048C318.55 255.896 318.102 254.824 316.71 254.824C315.334 254.824 314.87 255.896 314.87 257.048C314.87 258.168 315.318 259.272 316.71 259.272Z" fill="#052E50"/>
<path d="M326.952 253.112H329.128V261H326.952V260.152C326.392 260.872 325.56 261.176 324.68 261.176C322.648 261.176 321.8 259.784 321.8 258.008V253.112H323.96V257.528C323.96 258.184 324.024 259.272 325.336 259.272C326.952 259.272 326.952 257.544 326.952 255.912V253.112Z" fill="#052E50"/>
<path d="M99.3995 283L96.9355 275.112H99.2395L100.488 279.672L101.8 275.112H103.64L104.952 279.64L106.2 275.112H108.52L106.04 283H104.12L102.728 278.184L101.352 283H99.3995Z" fill="#052E50"/>
<path d="M112.565 274.936C114.725 274.936 116.053 276.12 116.053 278.008V283H114.069L113.909 282.088C113.349 282.888 112.469 283.176 111.669 283.176C109.957 283.176 108.725 282.072 108.725 280.52C108.725 279.592 109.141 278.92 109.861 278.552C110.373 278.296 111.013 278.184 111.813 278.184H113.893V278.008C113.893 277.288 113.365 276.824 112.469 276.824C111.765 276.824 111.093 277.128 110.453 277.848L108.885 276.536C109.845 275.448 111.157 274.936 112.565 274.936ZM112.021 281.384C113.029 281.384 113.877 280.696 113.893 279.784H112.117C111.669 279.784 111.365 279.848 111.173 279.992C110.981 280.12 110.885 280.312 110.885 280.552C110.885 281.032 111.285 281.384 112.021 281.384Z" fill="#052E50"/>
<path d="M122.331 274.936C124.139 274.936 125.179 276.024 125.179 277.832V283H123.019V278.52C123.019 277.944 123.019 276.824 121.659 276.824C120.027 276.824 120.027 278.44 120.027 279.576V283H117.851V275.112H120.027V275.928C120.603 275.192 121.435 274.936 122.331 274.936Z" fill="#052E50"/>
<path d="M131.503 276.808H129.519V280.456C129.519 280.92 129.711 281.384 130.511 281.384C130.815 281.384 131.151 281.32 131.503 281.208V282.92C131.007 283.096 130.511 283.176 129.983 283.176C128.575 283.176 127.359 282.488 127.359 280.632V276.808H126.079V275.112H127.359V273.768L129.519 272.168V275.112H131.503V276.808Z" fill="#052E50"/>
<path d="M141.347 276.808H139.363V280.456C139.363 280.92 139.555 281.384 140.355 281.384C140.659 281.384 140.995 281.32 141.347 281.208V282.92C140.851 283.096 140.355 283.176 139.827 283.176C138.419 283.176 137.203 282.488 137.203 280.632V276.808H135.923V275.112H137.203V273.768L139.363 272.168V275.112H141.347V276.808Z" fill="#052E50"/>
<path d="M146.085 283.176C143.589 283.176 142.085 281.24 142.085 279.048C142.085 276.84 143.573 274.936 146.085 274.936C148.581 274.936 150.085 276.84 150.085 279.048C150.085 281.24 148.565 283.176 146.085 283.176ZM146.085 281.272C147.461 281.272 147.925 280.184 147.925 279.048C147.925 277.896 147.477 276.824 146.085 276.824C144.709 276.824 144.245 277.896 144.245 279.048C144.245 280.168 144.693 281.272 146.085 281.272Z" fill="#052E50"/>
<path d="M164.313 274.936C166.217 274.936 167.081 276.44 167.081 277.944V283H164.921V278.6C164.921 277.992 164.809 276.824 163.689 276.824C162.073 276.824 162.281 278.68 162.281 280.216V283H160.121V278.584C160.121 278.168 160.137 276.824 158.921 276.824C157.289 276.824 157.481 278.68 157.481 280.216V283H155.305L155.289 275.112H157.385V276.104C157.913 275.208 158.729 274.936 159.481 274.936C160.297 274.936 161.273 275.256 161.769 276.504C162.425 275.256 163.353 274.936 164.313 274.936Z" fill="#052E50"/>
<path d="M172.034 274.936C174.194 274.936 175.522 276.12 175.522 278.008V283H173.538L173.378 282.088C172.818 282.888 171.938 283.176 171.138 283.176C169.426 283.176 168.194 282.072 168.194 280.52C168.194 279.592 168.61 278.92 169.33 278.552C169.842 278.296 170.482 278.184 171.282 278.184H173.362V278.008C173.362 277.288 172.834 276.824 171.938 276.824C171.234 276.824 170.562 277.128 169.922 277.848L168.354 276.536C169.314 275.448 170.626 274.936 172.034 274.936ZM171.49 281.384C172.498 281.384 173.346 280.696 173.362 279.784H171.586C171.138 279.784 170.834 279.848 170.642 279.992C170.45 280.12 170.354 280.312 170.354 280.552C170.354 281.032 170.754 281.384 171.49 281.384Z" fill="#052E50"/>
<path d="M177.336 283V271.848H179.512V278.008L182.088 275.112H184.984L182.072 278.12L185.288 283H182.712L180.536 279.528L179.512 280.696V283H177.336Z" fill="#052E50"/>
<path d="M192.59 279.032C192.59 279.272 192.574 279.496 192.542 279.784H187.246C187.342 280.616 187.902 281.208 189.038 281.208C189.694 281.208 190.318 280.984 190.814 280.392L192.318 281.72C191.47 282.664 190.382 283.176 189.022 283.176C186.206 283.176 185.086 281.16 185.086 279.096C185.086 277.08 186.174 274.936 188.894 274.936C191.358 274.936 192.59 276.728 192.59 279.032ZM187.23 278.136H190.526C190.494 277.272 189.774 276.744 188.878 276.744C187.774 276.744 187.326 277.496 187.23 278.136Z" fill="#052E50"/>
<path d="M198.22 286.264L199.66 282.76L196.636 275.112H199.036L200.812 280.28L202.716 275.112H205.1L200.572 286.264H198.22Z" fill="#052E50"/>
<path d="M208.819 283.176C206.323 283.176 204.819 281.24 204.819 279.048C204.819 276.84 206.307 274.936 208.819 274.936C211.315 274.936 212.819 276.84 212.819 279.048C212.819 281.24 211.299 283.176 208.819 283.176ZM208.819 281.272C210.195 281.272 210.659 280.184 210.659 279.048C210.659 277.896 210.211 276.824 208.819 276.824C207.443 276.824 206.979 277.896 206.979 279.048C206.979 280.168 207.427 281.272 208.819 281.272Z" fill="#052E50"/>
<path d="M219.061 275.112H221.237V283H219.061V282.152C218.501 282.872 217.669 283.176 216.789 283.176C214.757 283.176 213.909 281.784 213.909 280.008V275.112H216.069V279.528C216.069 280.184 216.133 281.272 217.445 281.272C219.061 281.272 219.061 279.544 219.061 277.912V275.112Z" fill="#052E50"/>
<path d="M227.498 274.936C228.026 274.936 228.506 275.08 229.034 275.416L227.994 277.352C227.754 277.192 227.386 277.08 227.002 277.08C225.994 277.08 225.434 277.736 225.434 279.176V283H223.258V275.112H225.45V276.36C225.802 275.464 226.634 274.936 227.498 274.936Z" fill="#052E50"/>
<path d="M238.128 276.808H236.144V280.456C236.144 280.92 236.336 281.384 237.136 281.384C237.44 281.384 237.776 281.32 238.128 281.208V282.92C237.632 283.096 237.136 283.176 236.608 283.176C235.2 283.176 233.984 282.488 233.984 280.632V276.808H232.704V275.112H233.984V273.768L236.144 272.168V275.112H238.128V276.808Z" fill="#052E50"/>
<path d="M243.779 274.936C244.307 274.936 244.787 275.08 245.315 275.416L244.275 277.352C244.035 277.192 243.667 277.08 243.283 277.08C242.275 277.08 241.715 277.736 241.715 279.176V283H239.539V275.112H241.731V276.36C242.083 275.464 242.915 274.936 243.779 274.936Z" fill="#052E50"/>
<path d="M249.269 274.936C251.429 274.936 252.757 276.12 252.757 278.008V283H250.773L250.613 282.088C250.053 282.888 249.173 283.176 248.373 283.176C246.661 283.176 245.429 282.072 245.429 280.52C245.429 279.592 245.845 278.92 246.565 278.552C247.077 278.296 247.717 278.184 248.517 278.184H250.597V278.008C250.597 277.288 250.069 276.824 249.173 276.824C248.469 276.824 247.797 277.128 247.157 277.848L245.589 276.536C246.549 275.448 247.861 274.936 249.269 274.936ZM248.725 281.384C249.733 281.384 250.581 280.696 250.597 279.784H248.821C248.373 279.784 248.069 279.848 247.877 279.992C247.685 280.12 247.589 280.312 247.589 280.552C247.589 281.032 247.989 281.384 248.725 281.384Z" fill="#052E50"/>
<path d="M259.034 274.936C260.842 274.936 261.882 276.024 261.882 277.832V283H259.722V278.52C259.722 277.944 259.722 276.824 258.362 276.824C256.73 276.824 256.73 278.44 256.73 279.576V283H254.554V275.112H256.73V275.928C257.306 275.192 258.138 274.936 259.034 274.936Z" fill="#052E50"/>
<path d="M266.238 283.176C264.542 283.176 263.278 282.088 262.91 280.92L264.622 280.152C264.814 280.648 265.118 281.4 266.19 281.4C266.974 281.4 267.262 281 267.262 280.68C267.262 279.464 263.342 280.184 263.342 277.32C263.342 275.672 264.798 274.936 266.27 274.936C267.678 274.936 268.718 275.608 269.326 276.664L267.662 277.592C267.422 277.16 267.054 276.584 266.222 276.584C265.694 276.584 265.39 276.84 265.39 277.144C265.39 278.264 269.39 277.528 269.39 280.456C269.39 282.36 267.726 283.176 266.238 283.176Z" fill="#052E50"/>
<path d="M271.269 283V276.808H269.813V275.112H271.285V274.312C271.285 272.216 272.469 271.672 273.781 271.672C274.437 271.672 274.901 271.816 275.349 272.008L274.661 273.672C274.469 273.56 274.261 273.48 274.021 273.48C273.477 273.48 273.429 273.96 273.429 274.312V275.112H275.141V276.808H273.429V283H271.269Z" fill="#052E50"/>
<path d="M282.731 279.032C282.731 279.272 282.715 279.496 282.683 279.784H277.387C277.483 280.616 278.043 281.208 279.179 281.208C279.835 281.208 280.459 280.984 280.955 280.392L282.459 281.72C281.611 282.664 280.523 283.176 279.163 283.176C276.347 283.176 275.227 281.16 275.227 279.096C275.227 277.08 276.315 274.936 279.035 274.936C281.499 274.936 282.731 276.728 282.731 279.032ZM277.371 278.136H280.667C280.635 277.272 279.915 276.744 279.019 276.744C277.915 276.744 277.467 277.496 277.371 278.136Z" fill="#052E50"/>
<path d="M288.326 274.936C288.854 274.936 289.334 275.08 289.862 275.416L288.822 277.352C288.582 277.192 288.214 277.08 287.83 277.08C286.822 277.08 286.262 277.736 286.262 279.176V283H284.086V275.112H286.278V276.36C286.63 275.464 287.462 274.936 288.326 274.936Z" fill="#052E50"/>
<path d="M297.801 274.968C299.849 274.968 301.097 276.12 301.097 278.04V283H299.593L299.465 281.88C298.953 282.68 298.041 283.144 296.921 283.144C295.241 283.144 294.121 282.136 294.121 280.632C294.121 279.736 294.505 279.064 295.209 278.712C295.753 278.44 296.489 278.312 297.609 278.312H299.449V278.04C299.449 277.016 298.825 276.408 297.785 276.408C296.921 276.408 296.153 276.824 295.561 277.64L294.361 276.632C295.273 275.512 296.393 274.968 297.801 274.968ZM297.225 281.752C298.505 281.752 299.449 280.856 299.449 279.608V279.576H297.801C296.889 279.576 296.425 279.656 296.121 279.896C295.881 280.056 295.769 280.328 295.769 280.664C295.769 281.336 296.329 281.752 297.225 281.752Z" fill="#052E50"/>
<path d="M307.453 274.968C309.197 274.968 310.157 276.056 310.157 277.992V283H308.509V278.408C308.509 277.48 308.333 276.408 306.973 276.408C305.277 276.408 304.989 278.04 304.989 279.72V283H303.341V275.112H304.989V276.088C305.533 275.336 306.429 274.968 307.453 274.968Z" fill="#052E50"/>
<path d="M317.602 271.848H319.25V283H317.602V282.12C317.058 282.824 316.162 283.144 315.218 283.144C313.026 283.144 311.842 281.416 311.842 279.048C311.842 276.504 313.202 274.952 315.218 274.952C316.194 274.952 317.106 275.352 317.602 275.992V271.848ZM315.586 281.64C317.074 281.64 317.762 280.536 317.762 279.064C317.762 277.56 317.042 276.44 315.602 276.44C314.21 276.44 313.49 277.448 313.49 279.064C313.49 280.632 314.178 281.64 315.586 281.64Z" fill="#052E50"/>
<path d="M99.8955 305.144C98.8715 305.144 98.1515 304.52 98.1515 303.176V293.848H99.7995V303.064C99.7995 303.48 100.008 303.688 100.424 303.688C100.616 303.688 100.84 303.656 101.08 303.576V304.92C100.68 305.064 100.264 305.144 99.8955 305.144Z" fill="#052E50"/>
<path d="M105.838 305.144C103.454 305.144 101.934 303.304 101.934 301.048C101.934 298.776 103.454 296.968 105.838 296.968C108.206 296.968 109.726 298.776 109.726 301.048C109.726 303.304 108.206 305.144 105.838 305.144ZM105.838 303.704C107.374 303.704 108.078 302.488 108.078 301.048C108.078 299.592 107.358 298.408 105.838 298.408C104.302 298.408 103.582 299.592 103.582 301.048C103.582 302.504 104.302 303.704 105.838 303.704Z" fill="#052E50"/>
<path d="M114.425 303.88C116.009 304.104 118.009 304.296 118.009 306.12C118.009 307.72 116.537 308.408 114.457 308.408C112.153 308.408 110.825 307.544 110.825 305.944C110.825 305.752 110.841 305.672 110.857 305.592L112.041 304.76C111.465 304.456 111.065 303.976 111.065 303.16C111.065 302.488 111.337 301.992 111.849 301.608C111.433 301.112 111.193 300.488 111.193 299.8C111.193 298.136 112.601 296.968 114.345 296.968C115.049 296.968 115.705 297.16 116.233 297.512L117.401 296.504L118.265 297.56L117.145 298.472C117.385 298.888 117.513 299.368 117.513 299.896C117.513 301.608 116.105 302.712 114.393 302.712C113.817 302.712 113.305 302.584 112.841 302.376C112.633 302.504 112.521 302.68 112.521 302.92C112.521 303.56 113.385 303.736 114.425 303.88ZM114.377 298.344C113.449 298.344 112.825 298.952 112.825 299.848C112.825 300.696 113.369 301.352 114.361 301.352C115.353 301.352 115.865 300.712 115.865 299.848C115.865 298.936 115.289 298.344 114.377 298.344ZM114.521 307.144C115.529 307.144 116.361 306.888 116.361 306.264C116.361 305.544 115.273 305.448 114.073 305.272C113.817 305.24 113.545 305.192 113.273 305.144L112.473 305.928C112.457 305.992 112.457 306.04 112.457 306.072C112.457 306.888 113.481 307.144 114.521 307.144Z" fill="#052E50"/>
<path d="M123.73 295.576V293.848H125.49V295.576H123.73ZM123.794 305V297.112H125.442V305H123.794Z" fill="#052E50"/>
<path d="M132.015 296.968C133.759 296.968 134.719 298.056 134.719 299.992V305H133.071V300.408C133.071 299.48 132.895 298.408 131.535 298.408C129.839 298.408 129.551 300.04 129.551 301.72V305H127.903V297.112H129.551V298.088C130.095 297.336 130.991 296.968 132.015 296.968Z" fill="#052E50"/>
<path d="M137.477 305V303.032H139.253V305H137.477Z" fill="#052E50"/>
<path d="M103 353.272C99.6721 353.272 97.4961 350.968 97.4961 347.416C97.4961 343.848 99.6561 341.56 102.984 341.56C105.4 341.56 107.208 342.76 108.024 344.888L105.944 345.704C105.48 344.376 104.424 343.704 102.984 343.704C100.936 343.704 99.7521 345.032 99.7521 347.4C99.7521 349.768 100.968 351.112 103 351.112C104.472 351.112 105.512 350.424 105.944 349.064L108.056 349.864C107.272 352.056 105.432 353.272 103 353.272Z" fill="#052E50"/>
<path d="M112.304 353.176C109.808 353.176 108.304 351.24 108.304 349.048C108.304 346.84 109.792 344.936 112.304 344.936C114.8 344.936 116.304 346.84 116.304 349.048C116.304 351.24 114.784 353.176 112.304 353.176ZM112.304 351.272C113.68 351.272 114.144 350.184 114.144 349.048C114.144 347.896 113.696 346.824 112.304 346.824C110.928 346.824 110.464 347.896 110.464 349.048C110.464 350.168 110.912 351.272 112.304 351.272Z" fill="#052E50"/>
<path d="M122.097 344.936C123.905 344.936 124.945 346.024 124.945 347.832V353H122.785V348.52C122.785 347.944 122.785 346.824 121.425 346.824C119.793 346.824 119.793 348.44 119.793 349.576V353H117.617V345.112H119.793V345.928C120.369 345.192 121.201 344.936 122.097 344.936Z" fill="#052E50"/>
<path d="M133.765 345.112V353H131.605V346.808H129.253V353H127.093V346.808H125.813V345.112H127.093V344.568C127.093 342.776 128.725 341.672 130.565 341.672C132.005 341.672 132.917 341.976 133.813 342.504L132.805 344.04C132.213 343.64 131.525 343.416 130.677 343.416C129.669 343.416 129.253 343.96 129.253 344.616V345.112H133.765Z" fill="#052E50"/>
<path d="M140.014 344.936C140.542 344.936 141.022 345.08 141.55 345.416L140.51 347.352C140.27 347.192 139.902 347.08 139.518 347.08C138.51 347.08 137.95 347.736 137.95 349.176V353H135.774V345.112H137.966V346.36C138.318 345.464 139.15 344.936 140.014 344.936Z" fill="#052E50"/>
<path d="M151.345 344.936C153.249 344.936 154.113 346.44 154.113 347.944V353H151.953V348.6C151.953 347.992 151.841 346.824 150.721 346.824C149.105 346.824 149.313 348.68 149.313 350.216V353H147.153V348.584C147.153 348.168 147.169 346.824 145.953 346.824C144.321 346.824 144.513 348.68 144.513 350.216V353H142.337L142.321 345.112H144.417V346.104C144.945 345.208 145.761 344.936 146.513 344.936C147.329 344.936 148.305 345.256 148.801 346.504C149.457 345.256 150.385 344.936 151.345 344.936Z" fill="#052E50"/>
<path d="M164.301 346.808H162.317V350.456C162.317 350.92 162.509 351.384 163.309 351.384C163.613 351.384 163.949 351.32 164.301 351.208V352.92C163.805 353.096 163.309 353.176 162.781 353.176C161.373 353.176 160.157 352.488 160.157 350.632V346.808H158.877V345.112H160.157V343.768L162.317 342.168V345.112H164.301V346.808Z" fill="#052E50"/>
<path d="M169.926 344.936C171.718 344.936 172.774 346.008 172.774 347.832V353H170.614V348.376C170.614 347.32 170.166 346.824 169.238 346.824C167.974 346.824 167.622 347.848 167.622 349.992V353H165.446V341.848H167.622V345.928C168.134 345.256 168.918 344.936 169.926 344.936Z" fill="#052E50"/>
<path d="M181.465 349.032C181.465 349.272 181.449 349.496 181.417 349.784H176.121C176.217 350.616 176.777 351.208 177.913 351.208C178.569 351.208 179.193 350.984 179.689 350.392L181.193 351.72C180.345 352.664 179.257 353.176 177.897 353.176C175.081 353.176 173.961 351.16 173.961 349.096C173.961 347.08 175.049 344.936 177.769 344.936C180.233 344.936 181.465 346.728 181.465 349.032ZM176.105 348.136H179.401C179.369 347.272 178.649 346.744 177.753 346.744C176.649 346.744 176.201 347.496 176.105 348.136Z" fill="#052E50"/>
<path d="M191.191 346.808H189.207V350.456C189.207 350.92 189.399 351.384 190.199 351.384C190.503 351.384 190.839 351.32 191.191 351.208V352.92C190.695 353.096 190.199 353.176 189.671 353.176C188.263 353.176 187.047 352.488 187.047 350.632V346.808H185.767V345.112H187.047V343.768L189.207 342.168V345.112H191.191V346.808Z" fill="#052E50"/>
<path d="M196.842 344.936C197.37 344.936 197.85 345.08 198.378 345.416L197.338 347.352C197.098 347.192 196.73 347.08 196.346 347.08C195.338 347.08 194.778 347.736 194.778 349.176V353H192.602V345.112H194.794V346.36C195.146 345.464 195.978 344.936 196.842 344.936Z" fill="#052E50"/>
<path d="M202.332 344.936C204.492 344.936 205.82 346.12 205.82 348.008V353H203.836L203.676 352.088C203.116 352.888 202.236 353.176 201.436 353.176C199.724 353.176 198.492 352.072 198.492 350.52C198.492 349.592 198.908 348.92 199.628 348.552C200.14 348.296 200.78 348.184 201.58 348.184H203.66V348.008C203.66 347.288 203.132 346.824 202.236 346.824C201.532 346.824 200.86 347.128 200.22 347.848L198.652 346.536C199.612 345.448 200.924 344.936 202.332 344.936ZM201.788 351.384C202.796 351.384 203.644 350.696 203.66 349.784H201.884C201.436 349.784 201.132 349.848 200.94 349.992C200.748 350.12 200.652 350.312 200.652 350.552C200.652 351.032 201.052 351.384 201.788 351.384Z" fill="#052E50"/>
<path d="M212.097 344.936C213.905 344.936 214.945 346.024 214.945 347.832V353H212.785V348.52C212.785 347.944 212.785 346.824 211.425 346.824C209.793 346.824 209.793 348.44 209.793 349.576V353H207.617V345.112H209.793V345.928C210.369 345.192 211.201 344.936 212.097 344.936Z" fill="#052E50"/>
<path d="M219.301 353.176C217.605 353.176 216.341 352.088 215.973 350.92L217.685 350.152C217.877 350.648 218.181 351.4 219.253 351.4C220.037 351.4 220.325 351 220.325 350.68C220.325 349.464 216.405 350.184 216.405 347.32C216.405 345.672 217.861 344.936 219.333 344.936C220.741 344.936 221.781 345.608 222.389 346.664L220.725 347.592C220.485 347.16 220.117 346.584 219.285 346.584C218.757 346.584 218.453 346.84 218.453 347.144C218.453 348.264 222.453 347.528 222.453 350.456C222.453 352.36 220.789 353.176 219.301 353.176Z" fill="#052E50"/>
<path d="M224.332 353V346.808H222.876V345.112H224.348V344.312C224.348 342.216 225.532 341.672 226.844 341.672C227.5 341.672 227.964 341.816 228.412 342.008L227.724 343.672C227.532 343.56 227.324 343.48 227.084 343.48C226.54 343.48 226.492 343.96 226.492 344.312V345.112H228.204V346.808H226.492V353H224.332Z" fill="#052E50"/>
<path d="M235.794 349.032C235.794 349.272 235.778 349.496 235.746 349.784H230.45C230.546 350.616 231.106 351.208 232.242 351.208C232.898 351.208 233.522 350.984 234.018 350.392L235.522 351.72C234.674 352.664 233.586 353.176 232.226 353.176C229.41 353.176 228.29 351.16 228.29 349.096C228.29 347.08 229.378 344.936 232.098 344.936C234.562 344.936 235.794 346.728 235.794 349.032ZM230.434 348.136H233.73C233.698 347.272 232.978 346.744 232.082 346.744C230.978 346.744 230.53 347.496 230.434 348.136Z" fill="#052E50"/>
<path d="M241.389 344.936C241.917 344.936 242.397 345.08 242.925 345.416L241.885 347.352C241.645 347.192 241.277 347.08 240.893 347.08C239.885 347.08 239.325 347.736 239.325 349.176V353H237.149V345.112H239.341V346.36C239.693 345.464 240.525 344.936 241.389 344.936Z" fill="#052E50"/>
<path d="M243.777 355.416L244.961 350.92H246.913L244.865 355.416H243.777Z" fill="#052E50"/>
<path d="M259.574 348.856C259.574 349.096 259.558 349.336 259.526 349.576H253.99C254.054 350.84 254.806 351.656 256.15 351.656C256.918 351.656 257.574 351.432 258.166 350.76L259.318 351.752C258.422 352.728 257.43 353.144 256.134 353.144C253.526 353.144 252.342 351.256 252.342 349.096C252.342 346.984 253.494 344.968 256.006 344.968C258.454 344.968 259.574 346.792 259.574 348.856ZM253.99 348.248H257.99V348.216C257.958 347.096 257.174 346.344 256.006 346.344C254.742 346.344 254.102 347.272 253.99 348.248Z" fill="#052E50"/>
<path d="M263.405 353L260.189 345.112H261.997L264.093 350.872L266.205 345.112H267.997L264.781 353H263.405Z" fill="#052E50"/>
<path d="M275.636 348.856C275.636 349.096 275.62 349.336 275.588 349.576H270.052C270.116 350.84 270.868 351.656 272.212 351.656C272.98 351.656 273.636 351.432 274.228 350.76L275.38 351.752C274.484 352.728 273.492 353.144 272.196 353.144C269.588 353.144 268.404 351.256 268.404 349.096C268.404 346.984 269.556 344.968 272.068 344.968C274.516 344.968 275.636 346.792 275.636 348.856ZM270.052 348.248H274.052V348.216C274.02 347.096 273.236 346.344 272.068 346.344C270.804 346.344 270.164 347.272 270.052 348.248Z" fill="#052E50"/>
<path d="M281.275 344.968C281.787 344.968 282.251 345.08 282.731 345.368L281.931 346.808C281.627 346.632 281.323 346.536 280.955 346.536C279.771 346.536 279.083 347.32 279.083 348.888V353H277.435V345.112H279.099V346.408C279.499 345.416 280.411 344.968 281.275 344.968Z" fill="#052E50"/>
<path d="M284.856 356.264L286.232 352.824L283.064 345.112H284.872L287.112 350.92L289.256 345.112H291.064L286.632 356.264H284.856Z" fill="#052E50"/>
<path d="M296.417 351.576L296.433 352.92C295.969 353.064 295.505 353.144 295.073 353.144C293.825 353.144 292.833 352.488 292.833 350.904V346.44H291.537V345.112H292.833V343.416L294.481 342.184V345.112H296.417V346.44H294.481V350.76C294.481 351.432 294.849 351.752 295.473 351.752C295.745 351.752 296.065 351.688 296.417 351.576Z" fill="#052E50"/>
<path d="M302.11 344.968C303.87 344.968 304.83 346.04 304.83 347.992V353H303.182V348.408C303.182 347.032 302.686 346.408 301.63 346.408C300.286 346.408 299.662 347.448 299.662 349.688V353H298.014V341.848H299.662V346.088C300.174 345.368 301.038 344.968 302.11 344.968Z" fill="#052E50"/>
<path d="M307.059 343.576V341.848H308.819V343.576H307.059ZM307.123 353V345.112H308.771V353H307.123Z" fill="#052E50"/>
<path d="M315.344 344.968C317.088 344.968 318.048 346.056 318.048 347.992V353H316.4V348.408C316.4 347.48 316.224 346.408 314.864 346.408C313.168 346.408 312.88 348.04 312.88 349.72V353H311.232V345.112H312.88V346.088C313.424 345.336 314.32 344.968 315.344 344.968Z" fill="#052E50"/>
<path d="M323.269 351.88C324.853 352.104 326.853 352.296 326.853 354.12C326.853 355.72 325.381 356.408 323.301 356.408C320.997 356.408 319.669 355.544 319.669 353.944C319.669 353.752 319.685 353.672 319.701 353.592L320.885 352.76C320.309 352.456 319.909 351.976 319.909 351.16C319.909 350.488 320.181 349.992 320.693 349.608C320.277 349.112 320.037 348.488 320.037 347.8C320.037 346.136 321.445 344.968 323.189 344.968C323.893 344.968 324.549 345.16 325.077 345.512L326.245 344.504L327.109 345.56L325.989 346.472C326.229 346.888 326.357 347.368 326.357 347.896C326.357 349.608 324.949 350.712 323.237 350.712C322.661 350.712 322.149 350.584 321.685 350.376C321.477 350.504 321.365 350.68 321.365 350.92C321.365 351.56 322.229 351.736 323.269 351.88ZM323.221 346.344C322.293 346.344 321.669 346.952 321.669 347.848C321.669 348.696 322.213 349.352 323.205 349.352C324.197 349.352 324.709 348.712 324.709 347.848C324.709 346.936 324.133 346.344 323.221 346.344ZM323.365 355.144C324.373 355.144 325.205 354.888 325.205 354.264C325.205 353.544 324.117 353.448 322.917 353.272C322.661 353.24 322.389 353.192 322.117 353.144L321.317 353.928C321.301 353.992 321.301 354.04 321.301 354.072C321.301 354.888 322.325 355.144 323.365 355.144Z" fill="#052E50"/>
<path d="M98.1681 365.576V363.848H99.9281V365.576H98.1681ZM98.2321 375V367.112H99.8801V375H98.2321Z" fill="#052E50"/>
<path d="M104.789 375.144C103.157 375.144 101.893 374.216 101.509 372.984L102.837 372.392C103.077 373.048 103.605 373.752 104.725 373.752C105.669 373.752 106.165 373.24 106.165 372.68C106.165 371.096 101.941 372.12 101.941 369.24C101.941 367.768 103.221 366.968 104.773 366.968C106.101 366.968 107.125 367.56 107.701 368.648L106.421 369.352C106.117 368.792 105.621 368.296 104.709 368.296C103.973 368.296 103.509 368.632 103.509 369.112C103.509 370.536 107.781 369.672 107.781 372.584C107.781 374.344 106.293 375.144 104.789 375.144Z" fill="#052E50"/>
<path d="M117.702 366.952C119.862 366.952 121.078 368.664 121.078 371.064C121.078 373.56 119.75 375.144 117.702 375.144C116.71 375.144 115.814 374.744 115.318 374.104V378.264H113.67V367.112H115.318V367.992C115.862 367.272 116.774 366.952 117.702 366.952ZM117.318 373.704C118.742 373.704 119.43 372.664 119.43 371.048C119.43 369.384 118.726 368.408 117.334 368.408C115.878 368.408 115.158 369.48 115.158 371.048C115.158 372.568 115.846 373.704 117.318 373.704Z" fill="#052E50"/>
<path d="M126.775 366.968C127.287 366.968 127.751 367.08 128.231 367.368L127.431 368.808C127.127 368.632 126.823 368.536 126.455 368.536C125.271 368.536 124.583 369.32 124.583 370.888V375H122.935V367.112H124.599V368.408C124.999 367.416 125.911 366.968 126.775 366.968Z" fill="#052E50"/>
<path d="M135.496 370.856C135.496 371.096 135.48 371.336 135.448 371.576H129.912C129.976 372.84 130.728 373.656 132.072 373.656C132.84 373.656 133.496 373.432 134.088 372.76L135.24 373.752C134.344 374.728 133.352 375.144 132.056 375.144C129.448 375.144 128.264 373.256 128.264 371.096C128.264 368.984 129.416 366.968 131.928 366.968C134.376 366.968 135.496 368.792 135.496 370.856ZM129.912 370.248H133.912V370.216C133.88 369.096 133.096 368.344 131.928 368.344C130.664 368.344 130.024 369.272 129.912 370.248Z" fill="#052E50"/>
<path d="M137.247 370.824V369.592H141.743V370.824H137.247Z" fill="#052E50"/>
<path d="M150.378 367.112V375H148.73V368.44H146.026V375H144.378V368.44H143.066V367.112H144.378V366.52C144.378 364.696 145.834 363.704 147.546 363.704C148.746 363.704 149.594 363.976 150.394 364.488L149.626 365.656C149.066 365.256 148.426 365.032 147.626 365.032C146.554 365.032 146.026 365.592 146.026 366.552V367.112H150.378Z" fill="#052E50"/>
<path d="M154.459 375.144C153.435 375.144 152.715 374.52 152.715 373.176V363.848H154.363V373.064C154.363 373.48 154.571 373.688 154.987 373.688C155.179 373.688 155.403 373.656 155.643 373.576V374.92C155.243 375.064 154.827 375.144 154.459 375.144Z" fill="#052E50"/>
<path d="M158.865 375.144C157.841 375.144 157.121 374.52 157.121 373.176V363.848H158.769V373.064C158.769 373.48 158.977 373.688 159.393 373.688C159.585 373.688 159.809 373.656 160.049 373.576V374.92C159.649 375.064 159.233 375.144 158.865 375.144Z" fill="#052E50"/>
<path d="M168.183 370.856C168.183 371.096 168.167 371.336 168.135 371.576H162.599C162.663 372.84 163.415 373.656 164.759 373.656C165.527 373.656 166.183 373.432 166.775 372.76L167.927 373.752C167.031 374.728 166.039 375.144 164.743 375.144C162.135 375.144 160.951 373.256 160.951 371.096C160.951 368.984 162.103 366.968 164.615 366.968C167.063 366.968 168.183 368.792 168.183 370.856ZM162.599 370.248H166.599V370.216C166.567 369.096 165.783 368.344 164.615 368.344C163.351 368.344 162.711 369.272 162.599 370.248Z" fill="#052E50"/>
<path d="M175.134 363.848H176.782V375H175.134V374.12C174.59 374.824 173.694 375.144 172.75 375.144C170.558 375.144 169.374 373.416 169.374 371.048C169.374 368.504 170.734 366.952 172.75 366.952C173.726 366.952 174.638 367.352 175.134 367.992V363.848ZM173.118 373.64C174.606 373.64 175.294 372.536 175.294 371.064C175.294 369.56 174.574 368.44 173.134 368.44C171.742 368.44 171.022 369.448 171.022 371.064C171.022 372.632 171.71 373.64 173.118 373.64Z" fill="#052E50"/>
<path d="M179.919 371.704L179.727 363.848H181.359L181.167 371.704H179.919ZM179.599 375V373.032H181.471V375H179.599Z" fill="#052E50"/>
<path d="M44 209.408V191.286H47.666V198.384H55.154V191.286H58.82V209.408H55.154V201.738H47.666V209.408H44Z" fill="#052E50"/>
<path d="M67.7792 209.694C63.7232 209.694 61.2792 206.548 61.2792 202.986C61.2792 199.398 63.6972 196.304 67.7792 196.304C71.8352 196.304 74.2792 199.398 74.2792 202.986C74.2792 206.548 71.8092 209.694 67.7792 209.694ZM67.7792 206.6C70.0152 206.6 70.7692 204.832 70.7692 202.986C70.7692 201.114 70.0412 199.372 67.7792 199.372C65.5432 199.372 64.7892 201.114 64.7892 202.986C64.7892 204.806 65.5172 206.6 67.7792 206.6Z" fill="#052E50"/>
<path d="M78.3454 209.408L74.3414 196.59H78.0854L80.1134 204L82.2454 196.59H85.2354L87.3674 203.948L89.3954 196.59H93.1654L89.1354 209.408H86.0154L83.7534 201.582L81.5174 209.408H78.3454Z" fill="#052E50"/>
<path d="M108.895 191.286H112.405V209.408H108.895V208.264C108.011 209.304 106.607 209.694 105.359 209.694C101.953 209.694 100.029 206.834 100.029 202.986C100.029 198.748 102.343 196.304 105.359 196.304C106.737 196.304 108.115 196.876 108.895 197.76V191.286ZM106.269 206.392C108.401 206.392 109.207 204.91 109.207 203.012C109.207 201.166 108.427 199.528 106.295 199.528C104.501 199.528 103.565 200.828 103.565 203.012C103.565 205.222 104.501 206.392 106.269 206.392Z" fill="#052E50"/>
<path d="M121.074 209.694C117.018 209.694 114.574 206.548 114.574 202.986C114.574 199.398 116.992 196.304 121.074 196.304C125.13 196.304 127.574 199.398 127.574 202.986C127.574 206.548 125.104 209.694 121.074 209.694ZM121.074 206.6C123.31 206.6 124.064 204.832 124.064 202.986C124.064 201.114 123.336 199.372 121.074 199.372C118.838 199.372 118.084 201.114 118.084 202.986C118.084 204.806 118.812 206.6 121.074 206.6Z" fill="#052E50"/>
<path d="M140.963 202.96C140.963 203.35 140.937 203.714 140.885 204.182H132.279C132.435 205.534 133.345 206.496 135.191 206.496C136.257 206.496 137.271 206.132 138.077 205.17L140.521 207.328C139.143 208.862 137.375 209.694 135.165 209.694C130.589 209.694 128.769 206.418 128.769 203.064C128.769 199.788 130.537 196.304 134.957 196.304C138.961 196.304 140.963 199.216 140.963 202.96ZM132.253 201.504H137.609C137.557 200.1 136.387 199.242 134.931 199.242C133.137 199.242 132.409 200.464 132.253 201.504Z" fill="#052E50"/>
<path d="M147.247 209.694C144.491 209.694 142.437 207.926 141.839 206.028L144.621 204.78C144.933 205.586 145.427 206.808 147.169 206.808C148.443 206.808 148.911 206.158 148.911 205.638C148.911 203.662 142.541 204.832 142.541 200.178C142.541 197.5 144.907 196.304 147.299 196.304C149.587 196.304 151.277 197.396 152.265 199.112L149.561 200.62C149.171 199.918 148.573 198.982 147.221 198.982C146.363 198.982 145.869 199.398 145.869 199.892C145.869 201.712 152.369 200.516 152.369 205.274C152.369 208.368 149.665 209.694 147.247 209.694Z" fill="#052E50"/>
<path d="M160.912 194.484V191.286H164.552V194.484H160.912ZM160.964 209.408V196.59H164.5V209.408H160.964Z" fill="#052E50"/>
<path d="M175.049 199.346H171.825V205.274C171.825 206.028 172.137 206.782 173.437 206.782C173.931 206.782 174.477 206.678 175.049 206.496V209.278C174.243 209.564 173.437 209.694 172.579 209.694C170.291 209.694 168.315 208.576 168.315 205.56V199.346H166.235V196.59H168.315V194.406L171.825 191.806V196.59H175.049V199.346Z" fill="#052E50"/>
<path d="M186.027 209.408L182.023 196.59H185.767L187.795 204L189.927 196.59H192.917L195.049 203.948L197.077 196.59H200.847L196.817 209.408H193.697L191.435 201.582L189.199 209.408H186.027Z" fill="#052E50"/>
<path d="M207.402 209.694C203.346 209.694 200.902 206.548 200.902 202.986C200.902 199.398 203.32 196.304 207.402 196.304C211.458 196.304 213.902 199.398 213.902 202.986C213.902 206.548 211.432 209.694 207.402 209.694ZM207.402 206.6C209.638 206.6 210.392 204.832 210.392 202.986C210.392 201.114 209.664 199.372 207.402 199.372C205.166 199.372 204.412 201.114 204.412 202.986C204.412 204.806 205.14 206.6 207.402 206.6Z" fill="#052E50"/>
<path d="M222.927 196.304C223.785 196.304 224.565 196.538 225.423 197.084L223.733 200.23C223.343 199.97 222.745 199.788 222.121 199.788C220.483 199.788 219.573 200.854 219.573 203.194V209.408H216.037V196.59H219.599V198.618C220.171 197.162 221.523 196.304 222.927 196.304Z" fill="#052E50"/>
<path d="M226.701 209.408V191.286H230.237V201.296L234.423 196.59H239.129L234.397 201.478L239.623 209.408H235.437L231.901 203.766L230.237 205.664V209.408H226.701Z" fill="#052E50"/>
<path d="M243.909 203.87V202.596C243.909 198.124 248.121 198.774 248.121 196.018C248.121 194.588 247.081 193.938 245.495 193.938C243.545 193.938 242.687 194.952 242.687 196.85H239.593C239.593 193.132 241.959 191 245.469 191C248.511 191 251.189 192.586 251.189 196.07C251.189 200.724 246.899 200.282 246.899 202.752V203.87H243.909ZM243.597 209.408V205.872H247.315V209.408H243.597Z" fill="#052E50"/>
<rect x="16" y="16" width="163.5" height="122.688" rx="20" fill="#FFF3D9"/>
<path fill-rule="evenodd" clip-rule="evenodd" d="M71.1067 48.7874L63.125 41.3074C62.8819 41.08 62.6883 40.8068 62.556 40.5041C62.4237 40.2015 62.3555 39.8758 62.3555 39.5466C62.3555 39.2174 62.4237 38.8917 62.556 38.589C62.6883 38.2864 62.882 38.013 63.1252 37.7856L71.1001 30.3213C71.5821 29.9072 72.2087 29.6907 72.8497 29.7164C73.4942 29.7423 74.1038 30.0111 74.5503 30.4671C74.9968 30.923 75.2453 31.5307 75.2432 32.1624C75.2411 32.7908 74.991 33.3937 74.5459 33.846L71.0632 37.1066L92.8492 37.1066C93.5106 37.1066 94.1452 37.3633 94.6134 37.8207C95.0817 38.2781 95.3451 38.8989 95.3451 39.5466C95.3451 40.1943 95.0817 40.8151 94.6134 41.2725C94.1452 41.7299 93.5106 41.9865 92.8492 41.9865L71.0533 41.9865L74.5524 45.2625L74.5609 45.2698C74.8121 45.4875 75.016 45.7525 75.1601 46.049C75.3042 46.3456 75.3856 46.6676 75.3994 46.9957C75.4132 47.3239 75.3591 47.6513 75.2403 47.9585C75.1216 48.2656 74.9407 48.5461 74.7086 48.7832C74.4764 49.0203 74.1978 49.209 73.8895 49.3383C73.5811 49.4676 73.2493 49.5348 72.9139 49.5359C72.5785 49.537 72.2462 49.4719 71.937 49.3447C71.6278 49.2174 71.3479 49.0304 71.1142 48.7948L71.1067 48.7874Z" fill="#FFAE00"/>
<path fill-rule="evenodd" clip-rule="evenodd" d="M124.623 81.5371L132.605 74.0571C132.848 73.8297 133.042 73.5565 133.174 73.2539C133.306 72.9513 133.374 72.6255 133.374 72.2963C133.374 71.9671 133.306 71.6414 133.174 71.3388C133.042 71.0362 132.848 70.7628 132.605 70.5354L124.63 63.071C124.148 62.657 123.521 62.4404 122.88 62.4662C122.236 62.492 121.626 62.7609 121.18 63.2168C120.733 63.6728 120.485 64.2804 120.487 64.9121C120.489 65.5405 120.739 66.1435 121.184 66.5958L124.667 69.8564L102.881 69.8564C102.219 69.8564 101.585 70.113 101.116 70.5704C100.648 71.0279 100.385 71.6487 100.385 72.2963C100.385 72.944 100.648 73.5648 101.116 74.0223C101.585 74.4796 102.219 74.7363 102.881 74.7363L124.677 74.7363L121.177 78.0122L121.169 78.0196C120.918 78.2372 120.714 78.5022 120.57 78.7988C120.426 79.0954 120.344 79.4173 120.33 79.7455C120.317 80.0736 120.371 80.4011 120.49 80.7082C120.608 81.0154 120.789 81.2959 121.021 81.533C121.253 81.77 121.532 81.9588 121.84 82.0881C122.149 82.2174 122.481 82.2845 122.816 82.2856C123.151 82.2867 123.484 82.2217 123.793 82.0944C124.102 81.9671 124.382 81.7801 124.616 81.5446L124.623 81.5371Z" fill="#FFAE00"/>
<path d="M76.9199 51.0778C76.9199 49.6936 78.3839 48.5715 80.1897 48.5715H116.485C118.291 48.5715 119.755 49.6936 119.755 51.0778V60.351C119.755 61.7352 118.291 62.8572 116.485 62.8572H80.1897C78.3839 62.8572 76.9199 61.7352 76.9199 60.351V51.0778Z" fill="#052E50"/>
<path d="M86.5983 53.118H87.7302V58.5665H86.5662L84.3428 55.0097V58.5665H83.2109V53.118H84.3668L86.5983 56.6513V53.118Z" fill="white"/>
<path d="M91.3155 58.6994C89.7101 58.6994 88.6104 57.5503 88.6104 55.8462C88.6104 54.1264 89.7101 52.9851 91.3155 52.9851C92.937 52.9851 94.0286 54.1264 94.0286 55.8462C94.0286 57.5581 92.9209 58.6994 91.3155 58.6994ZM91.3155 57.6441C92.2787 57.6441 92.8888 56.9484 92.8888 55.8462C92.8888 54.7283 92.2787 54.0404 91.3155 54.0404C90.3603 54.0404 89.7422 54.7205 89.7422 55.8462C89.7422 56.964 90.3603 57.6441 91.3155 57.6441Z" fill="white"/>
<path d="M96.8663 58.5665V53.118H97.9981V58.5665H96.8663Z" fill="white"/>
<path d="M99.2729 58.5665V53.118H101.288C102.419 53.118 103.094 53.6339 103.094 54.4938C103.094 54.9863 102.885 55.385 102.516 55.6116C103.11 55.8462 103.399 56.2917 103.399 56.9484C103.399 57.9568 102.7 58.5665 101.561 58.5665H99.2729ZM100.405 55.2208H101.288C101.721 55.2208 101.962 55.041 101.962 54.6658C101.962 54.3062 101.713 54.1264 101.288 54.1264H100.405V55.2208ZM100.405 57.5503H101.472C102.002 57.5503 102.267 57.2923 102.267 56.8858C102.267 56.3699 101.858 56.2448 101.472 56.2448H100.405V57.5503Z" fill="white"/>
<path d="M107.632 58.5665L107.239 57.5425H105.088L104.695 58.5665H103.458L105.746 53.118H106.589L108.861 58.5665H107.632ZM105.481 56.5262H106.854L106.171 54.7518L105.481 56.5262Z" fill="white"/>
<path d="M112.851 53.118H113.983V58.5665H112.819L110.595 55.0097V58.5665H109.463V53.118H110.619L112.851 56.6513V53.118Z" fill="white"/>
<path fill-rule="evenodd" clip-rule="evenodd" d="M104.089 42.3594C105.275 42.3594 106.237 41.423 106.237 40.2679C106.237 39.1128 105.275 38.1765 104.089 38.1765C102.903 38.1765 101.942 39.1128 101.942 40.2679C101.942 41.423 102.903 42.3594 104.089 42.3594ZM104.089 43.0024C105.64 43.0024 106.897 41.7782 106.897 40.2679C106.897 38.7577 105.64 37.5334 104.089 37.5334C102.538 37.5334 101.281 38.7577 101.281 40.2679C101.281 41.7782 102.538 43.0024 104.089 43.0024Z" fill="#9F9FB3"/>
<path fill-rule="evenodd" clip-rule="evenodd" d="M92.1556 74.8816C93.3417 74.8816 94.3032 73.9452 94.3032 72.7902C94.3032 71.6351 93.3417 70.6987 92.1556 70.6987C90.9695 70.6987 90.0079 71.6351 90.0079 72.7902C90.0079 73.9452 90.9695 74.8816 92.1556 74.8816ZM92.1556 75.5246C93.7064 75.5246 94.9635 74.3004 94.9635 72.7902C94.9635 71.2799 93.7064 70.0557 92.1556 70.0557C90.6048 70.0557 89.3477 71.2799 89.3477 72.7902C89.3477 74.3004 90.6048 75.5246 92.1556 75.5246Z" fill="#9F9FB3"/>
<path d="M36.6489 99.648C34.3769 99.648 32.6009 98.288 32.2649 96.208L34.5049 95.648C34.6329 96.96 35.4809 97.648 36.6809 97.648C37.6569 97.648 38.3449 97.168 38.3449 96.272C38.3449 95.632 37.8009 95.2 36.2489 94.576C33.8969 93.632 33.0489 92.768 33.0489 91.104C33.0489 89.28 34.4729 88 36.6009 88C38.1369 88 39.3529 88.704 40.0569 90.096L38.1849 91.264C37.8329 90.432 37.2249 90 36.5369 90C35.8489 90 35.3049 90.448 35.3049 91.056C35.3049 91.696 35.7849 92.096 37.4329 92.736C39.8169 93.664 40.6009 94.48 40.6009 96.064C40.6009 98.208 38.9209 99.648 36.6489 99.648Z" fill="#052E50"/>
<path d="M41.8458 90.24V88.272H44.0858V90.24H41.8458ZM41.8778 99.424V91.536H44.0538V99.424H41.8778Z" fill="#052E50"/>
<path d="M55.0893 91.36C56.9933 91.36 57.8573 92.864 57.8573 94.368V99.424H55.6973V95.024C55.6973 94.416 55.5853 93.248 54.4653 93.248C52.8493 93.248 53.0573 95.104 53.0573 96.64V99.424H50.8973V95.008C50.8973 94.592 50.9133 93.248 49.6973 93.248C48.0653 93.248 48.2573 95.104 48.2573 96.64V99.424H46.0813L46.0653 91.536H48.1613V92.528C48.6893 91.632 49.5053 91.36 50.2573 91.36C51.0733 91.36 52.0493 91.68 52.5453 92.928C53.2013 91.68 54.1293 91.36 55.0893 91.36Z" fill="#052E50"/>
<path d="M64.0266 91.36C66.1546 91.36 67.3066 93.152 67.3066 95.488C67.3066 98.128 65.8506 99.6 64.0266 99.6C63.2106 99.6 62.3626 99.264 61.8666 98.72V102.688H59.6906V91.536H61.8666V92.208C62.4266 91.6 63.2746 91.36 64.0266 91.36ZM63.4506 97.696C64.5866 97.696 65.1466 96.928 65.1466 95.472C65.1466 94.016 64.6026 93.264 63.4826 93.264C62.1386 93.264 61.6586 94.208 61.6586 95.472C61.6586 96.72 62.1706 97.696 63.4506 97.696Z" fill="#052E50"/>
<path d="M70.5935 99.6C69.4895 99.6 68.6415 98.944 68.6415 97.472V88.272H70.8015V97.248C70.8015 97.616 70.9935 97.712 71.3135 97.712C71.4735 97.712 71.6655 97.68 71.8735 97.632V99.344C71.4095 99.52 70.9615 99.6 70.5935 99.6Z" fill="#052E50"/>
<path d="M73.1426 90.24V88.272H75.3826V90.24H73.1426ZM73.1746 99.424V91.536H75.3506V99.424H73.1746Z" fill="#052E50"/>
<path d="M84.3381 91.536V99.424H82.1781V93.232H79.8261V99.424H77.6661V93.232H76.3861V91.536H77.6661V90.992C77.6661 89.2 79.2981 88.096 81.1381 88.096C82.5781 88.096 83.4901 88.4 84.3861 88.928L83.3781 90.464C82.7861 90.064 82.0981 89.84 81.2501 89.84C80.2421 89.84 79.8261 90.384 79.8261 91.04V91.536H84.3381Z" fill="#052E50"/>
<path d="M93.1945 95.456C93.1945 95.696 93.1785 95.92 93.1465 96.208H87.8505C87.9465 97.04 88.5065 97.632 89.6425 97.632C90.2985 97.632 90.9225 97.408 91.4185 96.816L92.9225 98.144C92.0745 99.088 90.9865 99.6 89.6265 99.6C86.8105 99.6 85.6905 97.584 85.6905 95.52C85.6905 93.504 86.7785 91.36 89.4985 91.36C91.9625 91.36 93.1945 93.152 93.1945 95.456ZM87.8345 94.56H91.1305C91.0985 93.696 90.3785 93.168 89.4825 93.168C88.3785 93.168 87.9305 93.92 87.8345 94.56Z" fill="#052E50"/>
<path d="M99.3976 88.272H101.558V99.424H99.3976V98.72C98.8536 99.36 97.9896 99.6 97.2216 99.6C95.1256 99.6 93.9416 97.84 93.9416 95.472C93.9416 92.864 95.3656 91.36 97.2216 91.36C98.0696 91.36 98.9176 91.712 99.3976 92.256V88.272ZM97.7816 97.568C99.0936 97.568 99.5896 96.656 99.5896 95.488C99.5896 94.352 99.1096 93.344 97.7976 93.344C96.6936 93.344 96.1176 94.144 96.1176 95.488C96.1176 96.848 96.6936 97.568 97.7816 97.568Z" fill="#052E50"/>
<path d="M111.967 93.232H109.983V96.88C109.983 97.344 110.175 97.808 110.975 97.808C111.279 97.808 111.615 97.744 111.967 97.632V99.344C111.471 99.52 110.975 99.6 110.447 99.6C109.039 99.6 107.823 98.912 107.823 97.056V93.232H106.543V91.536H107.823V90.192L109.983 88.592V91.536H111.967V93.232Z" fill="#052E50"/>
<path d="M117.618 91.36C118.146 91.36 118.626 91.504 119.154 91.84L118.114 93.776C117.874 93.616 117.506 93.504 117.122 93.504C116.114 93.504 115.554 94.16 115.554 95.6V99.424H113.378V91.536H115.57V92.784C115.922 91.888 116.754 91.36 117.618 91.36Z" fill="#052E50"/>
<path d="M123.108 91.36C125.268 91.36 126.596 92.544 126.596 94.432V99.424H124.612L124.452 98.512C123.892 99.312 123.012 99.6 122.212 99.6C120.5 99.6 119.268 98.496 119.268 96.944C119.268 96.016 119.684 95.344 120.404 94.976C120.916 94.72 121.556 94.608 122.356 94.608H124.436V94.432C124.436 93.712 123.908 93.248 123.012 93.248C122.308 93.248 121.636 93.552 120.996 94.272L119.428 92.96C120.388 91.872 121.7 91.36 123.108 91.36ZM122.564 97.808C123.572 97.808 124.42 97.12 124.436 96.208H122.66C122.212 96.208 121.908 96.272 121.716 96.416C121.524 96.544 121.428 96.736 121.428 96.976C121.428 97.456 121.828 97.808 122.564 97.808Z" fill="#052E50"/>
<path d="M132.873 91.36C134.681 91.36 135.721 92.448 135.721 94.256V99.424H133.561V94.944C133.561 94.368 133.561 93.248 132.201 93.248C130.569 93.248 130.569 94.864 130.569 96V99.424H128.393V91.536H130.569V92.352C131.145 91.616 131.977 91.36 132.873 91.36Z" fill="#052E50"/>
<path d="M140.077 99.6C138.381 99.6 137.117 98.512 136.749 97.344L138.461 96.576C138.653 97.072 138.957 97.824 140.029 97.824C140.813 97.824 141.101 97.424 141.101 97.104C141.101 95.888 137.181 96.608 137.181 93.744C137.181 92.096 138.637 91.36 140.109 91.36C141.517 91.36 142.557 92.032 143.165 93.088L141.501 94.016C141.261 93.584 140.893 93.008 140.061 93.008C139.533 93.008 139.229 93.264 139.229 93.568C139.229 94.688 143.229 93.952 143.229 96.88C143.229 98.784 141.565 99.6 140.077 99.6Z" fill="#052E50"/>
<path d="M145.108 99.424V93.232H143.652V91.536H145.124V90.736C145.124 88.64 146.308 88.096 147.62 88.096C148.276 88.096 148.74 88.24 149.188 88.432L148.5 90.096C148.308 89.984 148.1 89.904 147.86 89.904C147.316 89.904 147.268 90.384 147.268 90.736V91.536H148.98V93.232H147.268V99.424H145.108Z" fill="#052E50"/>
<path d="M156.57 95.456C156.57 95.696 156.554 95.92 156.522 96.208H151.226C151.322 97.04 151.882 97.632 153.018 97.632C153.674 97.632 154.298 97.408 154.794 96.816L156.298 98.144C155.45 99.088 154.362 99.6 153.002 99.6C150.186 99.6 149.066 97.584 149.066 95.52C149.066 93.504 150.154 91.36 152.874 91.36C155.338 91.36 156.57 93.152 156.57 95.456ZM151.21 94.56H154.506C154.474 93.696 153.754 93.168 152.858 93.168C151.754 93.168 151.306 93.92 151.21 94.56Z" fill="#052E50"/>
<path d="M162.165 91.36C162.693 91.36 163.173 91.504 163.701 91.84L162.661 93.776C162.421 93.616 162.053 93.504 161.669 93.504C160.661 93.504 160.101 94.16 160.101 95.6V99.424H157.925V91.536H160.117V92.784C160.469 91.888 161.301 91.36 162.165 91.36Z" fill="#052E50"/>
<path d="M26.0477 120.576C24.8957 119.36 24.0957 116.816 24.0957 113.872C24.0957 110.592 24.9117 108.384 26.0317 107.168H27.9677C26.4957 109.008 25.8077 111.12 25.8077 113.888C25.8077 116.816 26.5117 118.704 27.9677 120.576H26.0477Z" fill="#052E50"/>
<path d="M29.887 119.424L27.423 111.536H29.727L30.975 116.096L32.287 111.536H34.127L35.439 116.064L36.687 111.536H39.007L36.527 119.424H34.607L33.215 114.608L31.839 119.424H29.887Z" fill="#052E50"/>
<path d="M39.9161 110.24V108.272H42.1561V110.24H39.9161ZM39.9481 119.424V111.536H42.1241V119.424H39.9481Z" fill="#052E50"/>
<path d="M48.6156 113.232H46.6316V116.88C46.6316 117.344 46.8236 117.808 47.6236 117.808C47.9276 117.808 48.2636 117.744 48.6156 117.632V119.344C48.1196 119.52 47.6236 119.6 47.0956 119.6C45.6876 119.6 44.4716 118.912 44.4716 117.056V113.232H43.1916V111.536H44.4716V110.192L46.6316 108.592V111.536H48.6156V113.232Z" fill="#052E50"/>
<path d="M54.241 111.36C56.033 111.36 57.089 112.432 57.089 114.256V119.424H54.929V114.8C54.929 113.744 54.481 113.248 53.553 113.248C52.289 113.248 51.937 114.272 51.937 116.416V119.424H49.761V108.272H51.937V112.352C52.449 111.68 53.233 111.36 54.241 111.36Z" fill="#052E50"/>
<path d="M67.1751 111.36C69.3031 111.36 70.4551 113.152 70.4551 115.488C70.4551 118.128 68.9991 119.6 67.1751 119.6C66.3591 119.6 65.5111 119.264 65.0151 118.72V122.688H62.8391V111.536H65.0151V112.208C65.5751 111.6 66.4231 111.36 67.1751 111.36ZM66.5991 117.696C67.7351 117.696 68.2951 116.928 68.2951 115.472C68.2951 114.016 67.7511 113.264 66.6311 113.264C65.2871 113.264 64.8071 114.208 64.8071 115.472C64.8071 116.72 65.3191 117.696 66.5991 117.696Z" fill="#052E50"/>
<path d="M76.11 111.36C76.638 111.36 77.118 111.504 77.646 111.84L76.606 113.776C76.366 113.616 75.998 113.504 75.614 113.504C74.606 113.504 74.046 114.16 74.046 115.6V119.424H71.87V111.536H74.062V112.784C74.414 111.888 75.246 111.36 76.11 111.36Z" fill="#052E50"/>
<path d="M84.8586 115.456C84.8586 115.696 84.8426 115.92 84.8106 116.208H79.5146C79.6106 117.04 80.1706 117.632 81.3066 117.632C81.9626 117.632 82.5866 117.408 83.0826 116.816L84.5866 118.144C83.7386 119.088 82.6506 119.6 81.2906 119.6C78.4746 119.6 77.3546 117.584 77.3546 115.52C77.3546 113.504 78.4426 111.36 81.1626 111.36C83.6266 111.36 84.8586 113.152 84.8586 115.456ZM79.4986 114.56H82.7946C82.7626 113.696 82.0426 113.168 81.1466 113.168C80.0426 113.168 79.5946 113.92 79.4986 114.56Z" fill="#052E50"/>
<path d="M86.1817 115.536V113.92H90.9017V115.536H86.1817Z" fill="#052E50"/>
<path d="M99.8616 111.536V119.424H97.7016V113.232H95.3496V119.424H93.1896V113.232H91.9096V111.536H93.1896V110.992C93.1896 109.2 94.8216 108.096 96.6616 108.096C98.1016 108.096 99.0136 108.4 99.9096 108.928L98.9016 110.464C98.3096 110.064 97.6216 109.84 96.7736 109.84C95.7656 109.84 95.3496 110.384 95.3496 111.04V111.536H99.8616Z" fill="#052E50"/>
<path d="M103.742 119.6C102.638 119.6 101.79 118.944 101.79 117.472V108.272H103.95V117.248C103.95 117.616 104.142 117.712 104.462 117.712C104.622 117.712 104.814 117.68 105.022 117.632V119.344C104.558 119.52 104.11 119.6 103.742 119.6Z" fill="#052E50"/>
<path d="M108.195 119.6C107.091 119.6 106.243 118.944 106.243 117.472V108.272H108.403V117.248C108.403 117.616 108.595 117.712 108.915 117.712C109.075 117.712 109.267 117.68 109.475 117.632V119.344C109.011 119.52 108.563 119.6 108.195 119.6Z" fill="#052E50"/>
<path d="M117.624 115.456C117.624 115.696 117.608 115.92 117.576 116.208H112.28C112.376 117.04 112.936 117.632 114.072 117.632C114.728 117.632 115.352 117.408 115.848 116.816L117.352 118.144C116.504 119.088 115.416 119.6 114.056 119.6C111.24 119.6 110.12 117.584 110.12 115.52C110.12 113.504 111.208 111.36 113.928 111.36C116.392 111.36 117.624 113.152 117.624 115.456ZM112.264 114.56H115.56C115.528 113.696 114.808 113.168 113.912 113.168C112.808 113.168 112.36 113.92 112.264 114.56Z" fill="#052E50"/>
<path d="M123.827 108.272H125.987V119.424H123.827V118.72C123.283 119.36 122.419 119.6 121.651 119.6C119.555 119.6 118.371 117.84 118.371 115.472C118.371 112.864 119.795 111.36 121.651 111.36C122.499 111.36 123.347 111.712 123.827 112.256V108.272ZM122.211 117.568C123.523 117.568 124.019 116.656 124.019 115.488C124.019 114.352 123.539 113.344 122.227 113.344C121.123 113.344 120.547 114.144 120.547 115.488C120.547 116.848 121.123 117.568 122.211 117.568Z" fill="#052E50"/>
<path d="M132.189 119.424V108.272H134.445V119.424H132.189Z" fill="#052E50"/>
<path d="M136.986 119.424V108.272H141.002C143.258 108.272 144.602 109.328 144.602 111.088C144.602 112.096 144.186 112.912 143.45 113.376C144.634 113.856 145.21 114.768 145.21 116.112C145.21 118.176 143.818 119.424 141.546 119.424H136.986ZM139.242 112.576H141.002C141.866 112.576 142.346 112.208 142.346 111.44C142.346 110.704 141.85 110.336 141.002 110.336H139.242V112.576ZM139.242 117.344H141.37C142.426 117.344 142.954 116.816 142.954 115.984C142.954 114.928 142.138 114.672 141.37 114.672H139.242V117.344Z" fill="#052E50"/>
<path d="M153.648 119.424L152.864 117.328H148.576L147.792 119.424H145.328L149.888 108.272H151.568L156.096 119.424H153.648ZM149.36 115.248H152.096L150.736 111.616L149.36 115.248Z" fill="#052E50"/>
<path d="M164.05 108.272H166.306V119.424H163.986L159.554 112.144V119.424H157.298V108.272H159.602L164.05 115.504V108.272Z" fill="#052E50"/>
<path d="M169.453 120.576H167.517C168.989 118.704 169.693 116.816 169.693 113.888C169.693 111.12 169.005 109.008 167.517 107.168H169.469C170.573 108.384 171.405 110.592 171.405 113.872C171.405 116.816 170.605 119.36 169.453 120.576Z" fill="#052E50"/>
<rect x="195.5" y="16" width="163.5" height="119.328" rx="20" fill="#FFF3D9"/>
<path d="M289.952 50.9034L284.444 50.6574L286.64 38.9861C286.974 37.0378 284.429 35.8518 283.177 37.4598L266.874 57.3708C265.857 58.5689 266.744 60.3927 268.324 60.4902L273.831 60.7362L271.635 72.4075C271.238 74.3495 273.846 75.5418 275.098 73.9338L291.401 54.0228C292.425 52.7635 291.538 50.9396 289.952 50.9034Z" fill="#052E50"/>
<mask id="path-28-outside-1_177_3261" maskUnits="userSpaceOnUse" x="284.352" y="53.1079" width="29" height="29" fill="black">
<rect fill="white" x="284.352" y="53.1079" width="29" height="29"/>
<path fill-rule="evenodd" clip-rule="evenodd" d="M298.791 77.4399C304.556 77.4399 309.23 72.8884 309.23 67.2739C309.23 61.6594 304.556 57.1079 298.791 57.1079C293.025 57.1079 288.352 61.6594 288.352 67.2739C288.352 72.8884 293.025 77.4399 298.791 77.4399ZM301.818 65.1641H302.702C303.39 65.1641 303.949 65.705 303.949 66.3705V70.7937C303.949 71.4592 303.39 72.0001 302.702 72.0001H295.22C294.533 72.0001 293.974 71.4592 293.974 70.7937V66.3705C293.974 65.705 294.533 65.1641 295.22 65.1641H296.105V63.9065C296.105 62.3829 297.386 61.1429 298.961 61.1429C299.723 61.1429 300.441 61.4304 300.981 61.9522C301.52 62.4745 301.818 63.1686 301.818 63.9065V65.1641ZM299.55 69.8221V68.7872L299.55 68.7877C299.817 68.6077 299.992 68.3097 299.992 67.9714C299.992 67.2526 299.205 66.7113 298.419 67.1099C298.274 67.1827 298.153 67.2984 298.076 67.4376C297.777 67.9784 297.972 68.5162 298.373 68.7877V69.81C298.373 70.0408 298.506 70.2649 298.728 70.3484C299.15 70.5067 299.55 70.2096 299.55 69.8221ZM297.327 65.1641H300.595L300.596 65.1647V63.9071C300.596 63.4848 300.425 63.0877 300.117 62.7892C299.808 62.4906 299.397 62.3257 298.961 62.3257C298.06 62.3257 297.327 63.035 297.327 63.9065V65.1641Z"/>
</mask>
<path fill-rule="evenodd" clip-rule="evenodd" d="M298.791 77.4399C304.556 77.4399 309.23 72.8884 309.23 67.2739C309.23 61.6594 304.556 57.1079 298.791 57.1079C293.025 57.1079 288.352 61.6594 288.352 67.2739C288.352 72.8884 293.025 77.4399 298.791 77.4399ZM301.818 65.1641H302.702C303.39 65.1641 303.949 65.705 303.949 66.3705V70.7937C303.949 71.4592 303.39 72.0001 302.702 72.0001H295.22C294.533 72.0001 293.974 71.4592 293.974 70.7937V66.3705C293.974 65.705 294.533 65.1641 295.22 65.1641H296.105V63.9065C296.105 62.3829 297.386 61.1429 298.961 61.1429C299.723 61.1429 300.441 61.4304 300.981 61.9522C301.52 62.4745 301.818 63.1686 301.818 63.9065V65.1641ZM299.55 69.8221V68.7872L299.55 68.7877C299.817 68.6077 299.992 68.3097 299.992 67.9714C299.992 67.2526 299.205 66.7113 298.419 67.1099C298.274 67.1827 298.153 67.2984 298.076 67.4376C297.777 67.9784 297.972 68.5162 298.373 68.7877V69.81C298.373 70.0408 298.506 70.2649 298.728 70.3484C299.15 70.5067 299.55 70.2096 299.55 69.8221ZM297.327 65.1641H300.595L300.596 65.1647V63.9071C300.596 63.4848 300.425 63.0877 300.117 62.7892C299.808 62.4906 299.397 62.3257 298.961 62.3257C298.06 62.3257 297.327 63.035 297.327 63.9065V65.1641Z" fill="#FF7300"/>
<path d="M301.818 65.1641H297.818V69.1641H301.818V65.1641ZM296.105 65.1641V69.1641H300.105V65.1641H296.105ZM300.981 61.9522L303.762 59.0775L303.761 59.0761L300.981 61.9522ZM299.55 68.7872L302.473 66.0569L295.55 58.6439V68.7872H299.55ZM299.55 68.7877L296.627 71.5179L298.958 74.0139L301.789 72.1028L299.55 68.7877ZM298.419 67.1099L300.221 70.6809L300.228 70.6774L298.419 67.1099ZM298.076 67.4376L301.577 69.3717L301.577 69.3713L298.076 67.4376ZM298.373 68.7877H302.373V66.6648L300.614 65.4749L298.373 68.7877ZM298.728 70.3484L300.134 66.6034L300.133 66.6033L298.728 70.3484ZM300.595 65.1641L303.375 62.2884L302.213 61.1641H300.595V65.1641ZM297.327 65.1641H293.327V69.1641H297.327V65.1641ZM300.596 65.1647L297.815 68.0405L304.596 74.5955V65.1647H300.596ZM300.117 62.7892L302.898 59.9144L302.896 59.9121L300.117 62.7892ZM305.23 67.2739C305.23 70.58 302.447 73.4399 298.791 73.4399V81.4399C306.664 81.4399 313.23 75.1969 313.23 67.2739H305.23ZM298.791 61.1079C302.447 61.1079 305.23 63.9678 305.23 67.2739H313.23C313.23 59.351 306.664 53.1079 298.791 53.1079V61.1079ZM292.352 67.2739C292.352 63.9678 295.134 61.1079 298.791 61.1079V53.1079C290.917 53.1079 284.352 59.351 284.352 67.2739H292.352ZM298.791 73.4399C295.134 73.4399 292.352 70.58 292.352 67.2739H284.352C284.352 75.1969 290.917 81.4399 298.791 81.4399V73.4399ZM302.702 61.1641H301.818V69.1641H302.702V61.1641ZM307.949 66.3705C307.949 63.3726 305.474 61.1641 302.702 61.1641V69.1641C301.306 69.1641 299.949 68.0374 299.949 66.3705H307.949ZM307.949 70.7937V66.3705H299.949V70.7937H307.949ZM302.702 76.0001C305.473 76.0001 307.949 73.792 307.949 70.7937H299.949C299.949 69.1264 301.306 68.0001 302.702 68.0001V76.0001ZM295.22 76.0001H302.702V68.0001H295.22V76.0001ZM289.974 70.7937C289.974 73.792 292.449 76.0001 295.22 76.0001V68.0001C296.616 68.0001 297.974 69.1264 297.974 70.7937H289.974ZM289.974 66.3705V70.7937H297.974V66.3705H289.974ZM295.22 61.1641C292.449 61.1641 289.974 63.3722 289.974 66.3705H297.974C297.974 68.0378 296.616 69.1641 295.22 69.1641V61.1641ZM296.105 61.1641H295.22V69.1641H296.105V61.1641ZM292.105 63.9065V65.1641H300.105V63.9065H292.105ZM298.961 57.1429C295.303 57.1429 292.105 60.0501 292.105 63.9065H300.105C300.105 64.7158 299.47 65.1429 298.961 65.1429V57.1429ZM303.761 59.0761C302.462 57.8212 300.743 57.1429 298.961 57.1429V65.1429C298.704 65.1429 298.419 65.0397 298.201 64.8283L303.761 59.0761ZM305.818 63.9065C305.818 62.0638 305.065 60.3386 303.762 59.0775L298.199 64.8268C297.976 64.6104 297.818 64.2735 297.818 63.9065H305.818ZM305.818 65.1641V63.9065H297.818V65.1641H305.818ZM295.55 68.7872V69.8221H303.55V68.7872H295.55ZM302.474 66.0575L302.473 66.0569L296.627 71.5174L296.627 71.5179L302.474 66.0575ZM295.992 67.9714C295.992 66.8796 296.563 65.978 297.312 65.4726L301.789 72.1028C303.07 71.2375 303.992 69.7397 303.992 67.9714H295.992ZM300.228 70.6774C298.485 71.5611 295.992 70.3828 295.992 67.9714H303.992C303.992 64.1224 299.925 61.8614 296.61 63.5423L300.228 70.6774ZM301.577 69.3713C301.253 69.9589 300.771 70.4032 300.221 70.6809L296.617 63.5388C295.777 63.9623 295.053 64.6378 294.574 65.5038L301.577 69.3713ZM300.614 65.4749C301.174 65.8537 301.636 66.4503 301.833 67.2069C302.041 68.0072 301.9 68.7868 301.577 69.3717L294.575 65.5035C293.21 67.9736 294.13 70.7462 296.131 72.1004L300.614 65.4749ZM302.373 69.81V68.7877H294.373V69.81H302.373ZM300.133 66.6033C301.686 67.186 302.373 68.615 302.373 69.81H294.373C294.373 71.4665 295.325 73.3438 297.323 74.0934L300.133 66.6033ZM295.55 69.8221C295.55 67.2955 298.054 65.8231 300.134 66.6034L297.322 74.0933C300.245 75.1903 303.55 73.1238 303.55 69.8221H295.55ZM300.595 61.1641H297.327V69.1641H300.595V61.1641ZM303.376 62.2889L303.375 62.2884L297.815 68.0399L297.815 68.0405L303.376 62.2889ZM296.596 63.9071V65.1647H304.596V63.9071H296.596ZM297.335 65.664C296.882 65.2252 296.596 64.5918 296.596 63.9071H304.596C304.596 62.3778 303.969 60.9503 302.898 59.9144L297.335 65.664ZM298.961 66.3257C298.374 66.3257 297.785 66.0978 297.338 65.6662L302.896 59.9121C301.831 58.8834 300.42 58.3257 298.961 58.3257V66.3257ZM301.327 63.9065C301.327 65.3678 300.144 66.3257 298.961 66.3257V58.3257C295.977 58.3257 293.327 60.7021 293.327 63.9065H301.327ZM301.327 65.1641V63.9065H293.327V65.1641H301.327Z" fill="#FFF3D9" mask="url(#path-28-outside-1_177_3261)"/>
<path d="M266.925 42.8934L261.276 38.6721C260.247 37.8923 258.816 38.0921 258.015 39.0947C257.623 39.5663 257.459 40.1613 257.556 40.7608C257.652 41.3602 257.965 41.8887 258.449 42.2706L264.098 46.4918C265.066 47.2556 266.558 47.0719 267.359 46.0692C267.547 45.8632 267.69 45.5817 267.772 45.2842C267.957 44.3757 267.621 43.4582 266.925 42.8934Z" fill="#FFAE00"/>
<path d="M259.763 62.2002L252.703 63.0961C251.411 63.2683 250.577 64.39 250.693 65.6324C250.87 66.8909 252.022 67.7026 253.298 67.5899L260.358 66.694C261.312 66.5608 262.014 65.9152 262.26 65.0227C262.342 64.7252 262.347 64.4712 262.307 64.1417C262.175 62.9588 260.978 62.0715 259.763 62.2002Z" fill="#FFAE00"/>
<path d="M262.969 54.6178C263.298 53.4278 262.583 52.22 261.361 51.9002L254.456 50.0936C253.234 49.7738 251.994 50.4701 251.666 51.6601C251.337 52.8501 252.052 54.058 253.274 54.3777L260.118 56.1683C261.401 56.5041 262.641 55.8079 262.969 54.6178Z" fill="#FFAE00"/>
<path d="M238.865 99.152V88H241.121V99.152H238.865Z" fill="#052E50"/>
<path d="M252.414 91.088C254.318 91.088 255.182 92.592 255.182 94.096V99.152H253.022V94.752C253.022 94.144 252.91 92.976 251.79 92.976C250.174 92.976 250.382 94.832 250.382 96.368V99.152H248.222V94.736C248.222 94.32 248.238 92.976 247.022 92.976C245.39 92.976 245.582 94.832 245.582 96.368V99.152H243.406L243.39 91.264H245.486V92.256C246.014 91.36 246.83 91.088 247.582 91.088C248.398 91.088 249.374 91.408 249.87 92.656C250.526 91.408 251.454 91.088 252.414 91.088Z" fill="#052E50"/>
<path d="M266.023 91.088C267.927 91.088 268.791 92.592 268.791 94.096V99.152H266.631V94.752C266.631 94.144 266.519 92.976 265.399 92.976C263.783 92.976 263.991 94.832 263.991 96.368V99.152H261.831V94.736C261.831 94.32 261.847 92.976 260.631 92.976C258.999 92.976 259.191 94.832 259.191 96.368V99.152H257.015L256.999 91.264H259.095V92.256C259.623 91.36 260.439 91.088 261.191 91.088C262.007 91.088 262.983 91.408 263.479 92.656C264.135 91.408 265.063 91.088 266.023 91.088Z" fill="#052E50"/>
<path d="M277.457 95.184C277.457 95.424 277.441 95.648 277.409 95.936H272.113C272.209 96.768 272.769 97.36 273.905 97.36C274.561 97.36 275.185 97.136 275.681 96.544L277.185 97.872C276.337 98.816 275.249 99.328 273.889 99.328C271.073 99.328 269.953 97.312 269.953 95.248C269.953 93.232 271.041 91.088 273.761 91.088C276.225 91.088 277.457 92.88 277.457 95.184ZM272.097 94.288H275.393C275.361 93.424 274.641 92.896 273.745 92.896C272.641 92.896 272.193 93.648 272.097 94.288Z" fill="#052E50"/>
<path d="M283.66 88H285.82V99.152H283.66V98.448C283.116 99.088 282.252 99.328 281.484 99.328C279.388 99.328 278.204 97.568 278.204 95.2C278.204 92.592 279.628 91.088 281.484 91.088C282.332 91.088 283.18 91.44 283.66 91.984V88ZM282.044 97.296C283.356 97.296 283.852 96.384 283.852 95.216C283.852 94.08 283.372 93.072 282.06 93.072C280.956 93.072 280.38 93.872 280.38 95.216C280.38 96.576 280.956 97.296 282.044 97.296Z" fill="#052E50"/>
<path d="M287.827 89.968V88H290.067V89.968H287.827ZM287.859 99.152V91.264H290.035V99.152H287.859Z" fill="#052E50"/>
<path d="M295.182 91.088C297.342 91.088 298.67 92.272 298.67 94.16V99.152H296.686L296.526 98.24C295.966 99.04 295.086 99.328 294.286 99.328C292.574 99.328 291.342 98.224 291.342 96.672C291.342 95.744 291.758 95.072 292.478 94.704C292.99 94.448 293.63 94.336 294.43 94.336H296.51V94.16C296.51 93.44 295.982 92.976 295.086 92.976C294.382 92.976 293.71 93.28 293.07 94L291.502 92.688C292.462 91.6 293.774 91.088 295.182 91.088ZM294.638 97.536C295.646 97.536 296.494 96.848 296.51 95.936H294.734C294.286 95.936 293.982 96 293.79 96.144C293.598 96.272 293.502 96.464 293.502 96.704C293.502 97.184 293.902 97.536 294.638 97.536Z" fill="#052E50"/>
<path d="M304.901 92.96H302.917V96.608C302.917 97.072 303.109 97.536 303.909 97.536C304.213 97.536 304.549 97.472 304.901 97.36V99.072C304.405 99.248 303.909 99.328 303.381 99.328C301.973 99.328 300.757 98.64 300.757 96.784V92.96H299.477V91.264H300.757V89.92L302.917 88.32V91.264H304.901V92.96Z" fill="#052E50"/>
<path d="M313.191 95.184C313.191 95.424 313.175 95.648 313.143 95.936H307.847C307.943 96.768 308.503 97.36 309.639 97.36C310.295 97.36 310.919 97.136 311.415 96.544L312.919 97.872C312.071 98.816 310.983 99.328 309.623 99.328C306.807 99.328 305.687 97.312 305.687 95.248C305.687 93.232 306.775 91.088 309.495 91.088C311.959 91.088 313.191 92.88 313.191 95.184ZM307.831 94.288H311.127C311.095 93.424 310.375 92.896 309.479 92.896C308.375 92.896 307.927 93.648 307.831 94.288Z" fill="#052E50"/>
<path d="M243.175 111.088C245.335 111.088 246.663 112.272 246.663 114.16V119.152H244.679L244.519 118.24C243.959 119.04 243.079 119.328 242.279 119.328C240.567 119.328 239.335 118.224 239.335 116.672C239.335 115.744 239.751 115.072 240.471 114.704C240.983 114.448 241.623 114.336 242.423 114.336H244.503V114.16C244.503 113.44 243.975 112.976 243.079 112.976C242.375 112.976 241.703 113.28 241.063 114L239.495 112.688C240.455 111.6 241.767 111.088 243.175 111.088ZM242.631 117.536C243.639 117.536 244.487 116.848 244.503 115.936H242.727C242.279 115.936 241.975 116 241.783 116.144C241.591 116.272 241.495 116.464 241.495 116.704C241.495 117.184 241.895 117.536 242.631 117.536Z" fill="#052E50"/>
<path d="M252.94 111.088C254.748 111.088 255.788 112.176 255.788 113.984V119.152H253.628V114.672C253.628 114.096 253.628 112.976 252.268 112.976C250.636 112.976 250.636 114.592 250.636 115.728V119.152H248.46V111.264H250.636V112.08C251.212 111.344 252.044 111.088 252.94 111.088Z" fill="#052E50"/>
<path d="M262.48 108H264.64V119.152H262.48V118.448C261.936 119.088 261.072 119.328 260.304 119.328C258.208 119.328 257.024 117.568 257.024 115.2C257.024 112.592 258.448 111.088 260.304 111.088C261.152 111.088 262 111.44 262.48 111.984V108ZM260.864 117.296C262.176 117.296 262.672 116.384 262.672 115.216C262.672 114.08 262.192 113.072 260.88 113.072C259.776 113.072 259.2 113.872 259.2 115.216C259.2 116.576 259.776 117.296 260.864 117.296Z" fill="#052E50"/>
<path d="M273.082 119.328C271.386 119.328 270.122 118.24 269.754 117.072L271.466 116.304C271.658 116.8 271.962 117.552 273.034 117.552C273.818 117.552 274.106 117.152 274.106 116.832C274.106 115.616 270.186 116.336 270.186 113.472C270.186 111.824 271.642 111.088 273.114 111.088C274.522 111.088 275.562 111.76 276.17 112.816L274.506 113.744C274.266 113.312 273.898 112.736 273.066 112.736C272.538 112.736 272.234 112.992 272.234 113.296C272.234 114.416 276.234 113.68 276.234 116.608C276.234 118.512 274.57 119.328 273.082 119.328Z" fill="#052E50"/>
<path d="M284.449 115.184C284.449 115.424 284.433 115.648 284.401 115.936H279.105C279.201 116.768 279.761 117.36 280.897 117.36C281.553 117.36 282.177 117.136 282.673 116.544L284.177 117.872C283.329 118.816 282.241 119.328 280.881 119.328C278.065 119.328 276.945 117.312 276.945 115.248C276.945 113.232 278.033 111.088 280.753 111.088C283.217 111.088 284.449 112.88 284.449 115.184ZM279.089 114.288H282.385C282.353 113.424 281.633 112.896 280.737 112.896C279.633 112.896 279.185 113.648 279.089 114.288Z" fill="#052E50"/>
<path d="M289.02 119.328C286.348 119.328 285.116 117.28 285.116 115.232C285.116 113.152 286.364 111.088 289.004 111.088C290.62 111.088 291.868 111.856 292.46 113.456L290.412 114.272C290.252 113.488 289.708 112.976 289.004 112.976C287.772 112.976 287.34 114.096 287.34 115.232C287.34 116.352 287.756 117.424 288.988 117.424C289.692 117.424 290.252 116.944 290.428 116.176L292.38 116.944C291.852 118.416 290.62 119.328 289.02 119.328Z" fill="#052E50"/>
<path d="M298.452 111.264H300.628V119.152H298.452V118.304C297.892 119.024 297.06 119.328 296.18 119.328C294.148 119.328 293.3 117.936 293.3 116.16V111.264H295.46V115.68C295.46 116.336 295.524 117.424 296.836 117.424C298.452 117.424 298.452 115.696 298.452 114.064V111.264Z" fill="#052E50"/>
<path d="M306.888 111.088C307.416 111.088 307.896 111.232 308.424 111.568L307.384 113.504C307.144 113.344 306.776 113.232 306.392 113.232C305.384 113.232 304.824 113.888 304.824 115.328V119.152H302.648V111.264H304.84V112.512C305.192 111.616 306.024 111.088 306.888 111.088Z" fill="#052E50"/>
<path d="M315.637 115.184C315.637 115.424 315.621 115.648 315.589 115.936H310.293C310.389 116.768 310.949 117.36 312.085 117.36C312.741 117.36 313.365 117.136 313.861 116.544L315.365 117.872C314.517 118.816 313.429 119.328 312.069 119.328C309.253 119.328 308.133 117.312 308.133 115.248C308.133 113.232 309.221 111.088 311.941 111.088C314.405 111.088 315.637 112.88 315.637 115.184ZM310.277 114.288H313.573C313.541 113.424 312.821 112.896 311.925 112.896C310.821 112.896 310.373 113.648 310.277 114.288Z" fill="#052E50"/>
</g>
<defs>
<clipPath id="clip0_177_3261">
<rect width="375" height="491" rx="28" fill="white"/>
</clipPath>
</defs>
</svg>
