<svg width="211" height="145" viewBox="0 0 211 145" fill="none" xmlns="http://www.w3.org/2000/svg">
<path d="M143.057 57.1019L126.771 56.3588L133.264 21.1032C134.253 15.2177 126.727 11.6353 123.023 16.4926L74.8161 76.6379C71.806 80.2569 74.4297 85.7664 79.1012 86.0607L95.3873 86.8038L88.8942 122.059C87.719 127.926 95.4316 131.527 99.1349 126.67L147.342 66.5247C150.371 62.7206 147.748 57.2111 143.057 57.1019Z" fill="#052E50"/>
<mask id="path-2-outside-1_1_83" maskUnits="userSpaceOnUse" x="134.327" y="71.8435" width="70" height="70" fill="black">
<rect fill="white" x="134.327" y="71.8435" width="70" height="70"/>
<path fill-rule="evenodd" clip-rule="evenodd" d="M169.196 137.261C186.244 137.261 200.065 123.512 200.065 106.552C200.065 89.5922 186.244 75.8435 169.196 75.8435C152.148 75.8435 138.327 89.5922 138.327 106.552C138.327 123.512 152.148 137.261 169.196 137.261ZM178.147 100.179H180.762C182.796 100.179 184.449 101.813 184.449 103.823V117.184C184.449 119.195 182.796 120.828 180.762 120.828H158.639C156.605 120.828 154.951 119.195 154.951 117.184V103.823C154.951 101.813 156.605 100.179 158.639 100.179H161.253V96.3801C161.253 91.7779 165.044 88.0321 169.7 88.0321C171.954 88.0321 174.076 88.9006 175.672 90.4767C177.268 92.0544 178.147 94.1512 178.147 96.3802V100.179ZM171.441 114.249V111.123L171.443 111.125C172.231 110.581 172.748 109.681 172.748 108.659C172.748 106.488 170.421 104.852 168.097 106.056C167.669 106.277 167.31 106.626 167.083 107.046C166.199 108.68 166.774 110.305 167.96 111.125V114.213C167.96 114.91 168.353 115.587 169.011 115.839C170.258 116.317 171.441 115.42 171.441 114.249ZM164.869 96.3802V100.179H174.532L174.534 100.181V96.3818C174.534 95.1063 174.03 93.9069 173.117 93.005C172.203 92.103 170.99 91.605 169.701 91.605C167.037 91.605 164.869 93.7474 164.869 96.3802Z"/>
</mask>
<path fill-rule="evenodd" clip-rule="evenodd" d="M169.196 137.261C186.244 137.261 200.065 123.512 200.065 106.552C200.065 89.5922 186.244 75.8435 169.196 75.8435C152.148 75.8435 138.327 89.5922 138.327 106.552C138.327 123.512 152.148 137.261 169.196 137.261ZM178.147 100.179H180.762C182.796 100.179 184.449 101.813 184.449 103.823V117.184C184.449 119.195 182.796 120.828 180.762 120.828H158.639C156.605 120.828 154.951 119.195 154.951 117.184V103.823C154.951 101.813 156.605 100.179 158.639 100.179H161.253V96.3801C161.253 91.7779 165.044 88.0321 169.7 88.0321C171.954 88.0321 174.076 88.9006 175.672 90.4767C177.268 92.0544 178.147 94.1512 178.147 96.3802V100.179ZM171.441 114.249V111.123L171.443 111.125C172.231 110.581 172.748 109.681 172.748 108.659C172.748 106.488 170.421 104.852 168.097 106.056C167.669 106.277 167.31 106.626 167.083 107.046C166.199 108.68 166.774 110.305 167.96 111.125V114.213C167.96 114.91 168.353 115.587 169.011 115.839C170.258 116.317 171.441 115.42 171.441 114.249ZM164.869 96.3802V100.179H174.532L174.534 100.181V96.3818C174.534 95.1063 174.03 93.9069 173.117 93.005C172.203 92.103 170.99 91.605 169.701 91.605C167.037 91.605 164.869 93.7474 164.869 96.3802Z" fill="#FF7300"/>
<path d="M178.147 100.179H174.147V104.179H178.147V100.179ZM161.253 100.179V104.179H165.253V100.179H161.253ZM175.672 90.4767L178.484 87.6318L178.482 87.6303L175.672 90.4767ZM171.441 111.123L174.394 108.425L167.441 100.817V111.123H171.441ZM171.443 111.125L168.49 113.823L170.843 116.398L173.714 114.417L171.443 111.125ZM168.097 106.056L169.929 109.612L169.936 109.608L168.097 106.056ZM167.083 107.046L170.601 108.949L170.601 108.949L167.083 107.046ZM167.96 111.125H171.96V109.027L170.234 107.834L167.96 111.125ZM169.011 115.839L170.443 112.104L170.442 112.104L169.011 115.839ZM164.869 100.179H160.869V104.179H164.869V100.179ZM174.532 100.179L177.344 97.3338L176.175 96.179H174.532V100.179ZM174.534 100.181L171.722 103.026L178.534 109.757V100.181H174.534ZM173.117 93.005L175.929 90.1599L175.927 90.1577L173.117 93.005ZM196.065 106.552C196.065 121.283 184.055 133.261 169.196 133.261V141.261C188.434 141.261 204.065 125.741 204.065 106.552H196.065ZM169.196 79.8435C184.055 79.8435 196.065 91.821 196.065 106.552H204.065C204.065 87.3634 188.434 71.8435 169.196 71.8435V79.8435ZM142.327 106.552C142.327 91.821 154.337 79.8435 169.196 79.8435V71.8435C149.958 71.8435 134.327 87.3634 134.327 106.552H142.327ZM169.196 133.261C154.337 133.261 142.327 121.283 142.327 106.552H134.327C134.327 125.741 149.958 141.261 169.196 141.261V133.261ZM180.762 96.179H178.147V104.179H180.762V96.179ZM188.449 103.823C188.449 99.5597 184.961 96.179 180.762 96.179V104.179C180.631 104.179 180.449 104.066 180.449 103.823H188.449ZM188.449 117.184V103.823H180.449V117.184H188.449ZM180.762 124.828C184.96 124.828 188.449 121.448 188.449 117.184H180.449C180.449 116.941 180.631 116.828 180.762 116.828V124.828ZM158.639 124.828H180.762V116.828H158.639V124.828ZM150.951 117.184C150.951 121.448 154.44 124.828 158.639 124.828V116.828C158.769 116.828 158.951 116.941 158.951 117.184H150.951ZM150.951 103.823V117.184H158.951V103.823H150.951ZM158.639 96.179C154.44 96.179 150.951 99.5593 150.951 103.823H158.951C158.951 104.066 158.769 104.179 158.639 104.179V96.179ZM161.253 96.179H158.639V104.179H161.253V96.179ZM157.253 96.3801V100.179H165.253V96.3801H157.253ZM169.7 84.0321C162.879 84.0321 157.253 89.5244 157.253 96.3801H165.253C165.253 94.0313 167.208 92.0321 169.7 92.0321V84.0321ZM178.482 87.6303C176.134 85.3111 173.001 84.0321 169.7 84.0321V92.0321C170.908 92.0321 172.018 92.4901 172.862 93.323L178.482 87.6303ZM182.147 96.3802C182.147 93.0746 180.835 89.9555 178.484 87.6318L172.86 93.3216C173.702 94.1533 174.147 95.2279 174.147 96.3802H182.147ZM182.147 100.179V96.3802H174.147V100.179H182.147ZM167.441 111.123V114.249H175.441V111.123H167.441ZM174.395 108.426L174.394 108.425L168.488 113.822L168.49 113.823L174.395 108.426ZM168.748 108.659C168.748 108.288 168.942 107.99 169.172 107.832L173.714 114.417C175.519 113.172 176.748 111.073 176.748 108.659H168.748ZM169.936 109.608C169.94 109.606 169.917 109.619 169.867 109.63C169.816 109.642 169.75 109.65 169.673 109.648C169.514 109.642 169.355 109.594 169.218 109.511C168.96 109.354 168.748 109.044 168.748 108.659H176.748C176.748 103.481 171.237 99.925 166.257 102.505L169.936 109.608ZM170.601 108.949C170.438 109.25 170.204 109.47 169.929 109.612L166.264 102.501C165.135 103.083 164.182 104.002 163.564 105.144L170.601 108.949ZM170.234 107.834C170.403 107.951 170.555 108.143 170.622 108.404C170.655 108.536 170.661 108.666 170.646 108.778C170.631 108.891 170.601 108.949 170.601 108.949L163.564 105.144C161.662 108.661 162.905 112.493 165.685 114.415L170.234 107.834ZM171.96 114.213V111.125H163.96V114.213H171.96ZM170.442 112.104C171.58 112.54 171.96 113.536 171.96 114.213H163.96C163.96 116.284 165.126 118.634 167.579 119.574L170.442 112.104ZM167.441 114.249C167.441 112.619 169.067 111.577 170.443 112.104L167.579 119.574C171.45 121.058 175.441 118.221 175.441 114.249H167.441ZM168.869 100.179V96.3802H160.869V100.179H168.869ZM174.532 96.179H164.869V104.179H174.532V96.179ZM177.345 97.3354L177.344 97.3338L171.721 103.024L171.722 103.026L177.345 97.3354ZM170.534 96.3818V100.181H178.534V96.3818H170.534ZM170.306 95.85C170.465 96.0073 170.534 96.1851 170.534 96.3818H178.534C178.534 94.0276 177.595 91.8064 175.929 90.1599L170.306 95.85ZM169.701 95.605C169.94 95.605 170.144 95.6904 170.308 95.8523L175.927 90.1577C174.263 88.5157 172.039 87.605 169.701 87.605V95.605ZM168.869 96.3802C168.869 96.0008 169.201 95.605 169.701 95.605V87.605C164.872 87.605 160.869 91.494 160.869 96.3802H168.869Z" fill="#FFF3D9" mask="url(#path-2-outside-1_1_83)"/>
<path d="M74.968 32.9056L58.2652 20.1542C55.2207 17.7987 50.9896 18.4022 48.6218 21.4309C47.4622 22.8553 46.9767 24.6527 47.2625 26.4635C47.5483 28.2743 48.4732 29.8705 49.9051 31.0241L66.6079 43.7754C69.4717 46.0826 73.8835 45.5275 76.2513 42.4988C76.8068 41.8765 77.2302 41.0261 77.473 40.1274C78.0205 37.383 77.0255 34.6118 74.968 32.9056Z" fill="#FFAE00"/>
<path d="M53.7914 91.226L32.9136 93.9321C29.0924 94.4524 26.6275 97.8405 26.9699 101.594C27.4929 105.395 30.8987 107.847 34.6714 107.506L55.5492 104.8C58.37 104.398 60.4465 102.448 61.1747 99.7517C61.4174 98.8531 61.4309 98.0858 61.3123 97.0905C60.9214 93.5172 57.3834 90.8371 53.7914 91.226Z" fill="#FFAE00"/>
<path d="M63.2711 68.3217C64.242 64.7269 62.128 61.0784 58.5144 60.1126L38.098 54.6553C34.4845 53.6894 30.8169 55.7925 29.846 59.3872C28.8751 62.982 30.9892 66.6305 34.6027 67.5964L54.8384 73.0053C58.6326 74.0195 62.3002 71.9164 63.2711 68.3217Z" fill="#FFAE00"/>
</svg>
