<svg width="24" height="24" viewBox="0 0 38 38" xmlns="http://www.w3.org/2000/svg"><path d="M19,.56A18.44,18.44,0,1,0,37.44,19,18.461,18.461,0,0,0,19,.56Z"/><circle cx="19.017" cy="26.242" fill="#fff" r="1.878"/><path d="M19.018,21.95h-.013a1.251,1.251,0,0,1-1.238-1.262c.016-1.638,1.362-3.326,2.551-4.815.245-.307.479-.6.683-.872a1.517,1.517,0,0,0,.067-1.61,2.368,2.368,0,0,0-2-1.34h0c-1.447,0-2.629.87-2.629,1.9a1.25,1.25,0,0,1-2.5,0c0-2.427,2.281-4.4,5.085-4.4l.12,0a4.831,4.831,0,0,1,4.173,2.734A3.975,3.975,0,0,1,23,16.5c-.218.291-.468.605-.73.934-.795,1-2,2.5-2,3.279A1.25,1.25,0,0,1,19.018,21.95Z" fill="#fff"/></svg>