<svg width="78" height="28" viewBox="0 0 78 28" fill="none" xmlns="http://www.w3.org/2000/svg">
<path d="M33.7281 27.802C34.8648 27.802 35.7248 27.1953 36.0913 26.1016L35.1041 25.7025C34.9022 26.381 34.4161 26.7243 33.7281 26.7243C32.7783 26.7243 32.21 26.0537 32.21 24.8722C32.21 23.6907 32.7634 23.0282 33.7206 23.0282C34.3937 23.0282 34.8872 23.3634 35.1041 24.026L36.0763 23.6189C35.6949 22.5572 34.8498 21.9584 33.7206 21.9584C32.1651 21.9584 31.1555 23.1 31.1555 24.8802C31.1555 26.6524 32.1726 27.802 33.7281 27.802ZM40.7221 27.802C42.2178 27.802 43.2498 26.6365 43.2498 24.8882C43.2498 23.1319 42.2328 21.9664 40.7221 21.9664C39.2264 21.9664 38.2019 23.1319 38.2019 24.8882C38.2019 26.6285 39.2264 27.802 40.7221 27.802ZM40.7221 26.7243C39.8322 26.7243 39.2564 26.0298 39.2564 24.8882C39.2564 23.7386 39.8322 23.0441 40.7221 23.0441C41.6195 23.0441 42.1879 23.7466 42.1879 24.8882C42.1879 26.0138 41.6195 26.7243 40.7221 26.7243ZM46.9683 27.6663V24.034L49.0398 27.6663H50.1242V22.1021H49.0697V25.7104L46.9907 22.1021H45.9139V27.6663H46.9683ZM54.2166 27.6663V24.034L56.2881 27.6663H57.3725V22.1021H56.318V25.7104L54.239 22.1021H53.1622V27.6663H54.2166ZM63.8954 27.6663V26.6285H61.4649V25.3113H63.7458V24.2735H61.4649V23.1319H63.8954V22.1021H60.4105V27.6663H63.8954ZM68.9525 27.802C70.0892 27.802 70.9493 27.1953 71.3157 26.1016L70.3285 25.7025C70.1266 26.381 69.6405 26.7243 68.9525 26.7243C68.0028 26.7243 67.4344 26.0537 67.4344 24.8722C67.4344 23.6907 67.9878 23.0282 68.945 23.0282C69.6181 23.0282 70.1117 23.3634 70.3285 24.026L71.3007 23.6189C70.9193 22.5572 70.0743 21.9584 68.945 21.9584C67.3895 21.9584 66.3799 23.1 66.3799 24.8802C66.3799 26.6524 67.397 27.802 68.9525 27.802ZM75.9092 27.6663V23.1319H77.4871V22.1021H73.2693V23.1319H74.8472V27.6663H75.9092Z" fill="#052E50"/>
<path fill-rule="evenodd" clip-rule="evenodd" d="M72.8889 3.97453C75.7172 3.97453 78 6.43702 78 9.43952C78 12.4636 75.7172 14.9045 72.8889 14.9045C70.0607 14.9045 67.7778 12.4636 67.7778 9.43952C67.7778 6.41542 70.0607 3.97453 72.8889 3.97453ZM59.5759 4.23374C59.7577 4.23374 59.9193 4.32014 60.0203 4.47135L60.0405 4.51455L62.0809 7.71146L64.1415 4.49295C64.2425 4.34174 64.4243 4.23374 64.6062 4.23374H66.3031C66.4041 4.23374 66.4647 4.32014 66.4647 4.38495C66.4647 4.40655 66.4647 4.44975 66.4445 4.47135L63.2728 9.52593L66.4041 14.4293C66.4041 14.4509 66.4243 14.4941 66.4243 14.5157V14.5373C66.4243 14.6237 66.3637 14.7101 66.2829 14.7101H64.4647C64.3031 14.7101 64.1213 14.6237 64.0203 14.4725L64.0001 14.4293L62.0809 11.4052L60.2022 14.4077C60.1011 14.5589 59.9193 14.6669 59.7375 14.6669H57.9395C57.8587 14.6669 57.7779 14.5805 57.7779 14.4941C57.7779 14.4509 57.7779 14.4077 57.7981 14.3861L60.9092 9.52593L57.7375 4.51455C57.7375 4.47135 57.7173 4.44975 57.7173 4.42815V4.40655C57.7173 4.32014 57.7779 4.23374 57.8587 4.23374H59.5759ZM32.5458 0.648015C32.7681 0.648015 32.9499 0.842422 32.9499 1.08003V12.55L38.6064 12.5284C38.8286 12.5284 39.0104 12.7228 39.0104 12.9604V14.2565C39.0104 14.4941 38.8286 14.6885 38.6064 14.6885H31.3337C31.1115 14.6885 30.9297 14.4941 30.9297 14.2565V1.08003C30.9297 0.842422 31.1115 0.648015 31.3337 0.648015H32.5458ZM43.3336 4.32014C43.5356 4.32014 43.7175 4.51455 43.7175 4.75216V14.2565C43.7175 14.4941 43.5558 14.6885 43.3336 14.6885H42.0811C41.8791 14.6885 41.6973 14.4941 41.6973 14.2565V4.75216C41.6973 4.51455 41.8589 4.32014 42.0811 4.32014H43.3336ZM51.1113 4.06094C51.7376 4.06094 52.3032 4.19054 52.8487 4.42815C53.3941 4.68736 53.8588 5.01137 54.2628 5.44338C54.6669 5.8754 54.9699 6.37222 55.2123 6.93384C55.4345 7.51706 55.5557 8.12188 55.5557 8.7699V14.2565C55.5557 14.4941 55.3941 14.6885 55.1719 14.6885H53.9194C53.7174 14.6885 53.5355 14.4941 53.5355 14.2565V8.7267C53.5355 8.35949 53.4951 8.01387 53.3537 7.71146C53.2123 7.40905 53.0507 7.12824 52.8285 6.89063C52.6063 6.65303 52.3638 6.45862 52.0608 6.32901C51.7578 6.19941 51.4548 6.13461 51.1113 6.13461C50.7679 6.13461 50.4649 6.19941 50.1618 6.32901C49.879 6.48022 49.6164 6.65303 49.3942 6.89063C49.1719 7.12824 48.9901 7.38745 48.8689 7.71146C48.7477 8.03547 48.6871 8.35949 48.6871 8.7267V14.2565C48.6871 14.4941 48.5255 14.6885 48.3033 14.6885H47.0508C46.8487 14.6885 46.6669 14.4941 46.6669 14.2565V8.7699C46.6669 8.12188 46.7881 7.49546 47.0104 6.93384C47.2326 6.37222 47.5558 5.8754 47.9598 5.44338C48.3639 5.01137 48.8285 4.66576 49.374 4.42815C49.9194 4.19054 50.5053 4.06094 51.1113 4.06094ZM72.8889 6.11301C71.1718 6.11301 69.7576 7.60346 69.7576 9.46112C69.7576 11.2972 71.1516 12.8092 72.8889 12.8092C74.6263 12.8092 76.0202 11.3188 76.0202 9.46112C76.0202 7.62506 74.6263 6.11301 72.8889 6.11301ZM42.7276 -7.62939e-06C43.4528 -7.62939e-06 44.0407 0.628607 44.0407 1.40404C44.0407 2.17948 43.4528 2.80809 42.7276 2.80809C42.0023 2.80809 41.4144 2.17948 41.4144 1.40404C41.4144 0.628607 42.0023 -7.62939e-06 42.7276 -7.62939e-06Z" fill="#052E50"/>
<path fill-rule="evenodd" clip-rule="evenodd" d="M10.0649 1.73274H19.8718C21.4396 1.73274 22.7106 3.08949 22.7106 4.76312C22.7106 6.43675 21.4396 7.79349 19.8718 7.79349H10.0649C8.49706 7.79349 7.22607 6.43675 7.22607 4.76312C7.22607 3.08949 8.49706 1.73274 10.0649 1.73274Z" fill="#FFC74D"/>
<path opacity="0.75" fill-rule="evenodd" clip-rule="evenodd" d="M19.8718 1.73275C21.4396 1.73275 22.7106 3.0895 22.7106 4.76313V15.2317C22.7106 16.9053 21.4396 18.2621 19.8718 18.2621C18.3039 18.2621 17.033 16.9053 17.033 15.2317V4.76313C17.033 3.0895 18.3039 1.73275 19.8718 1.73275Z" fill="#FFAE00"/>
<path fill-rule="evenodd" clip-rule="evenodd" d="M12.6457 25.9758H2.83881C1.27096 25.9758 -2.47955e-05 24.619 -2.47955e-05 22.9454C-2.47955e-05 21.2718 1.27096 19.915 2.83881 19.915H12.6457C14.2135 19.915 15.4845 21.2718 15.4845 22.9454C15.4845 24.619 14.2135 25.9758 12.6457 25.9758Z" fill="#FFC74D"/>
<path opacity="0.75" fill-rule="evenodd" clip-rule="evenodd" d="M2.83878 25.9757C1.27094 25.9757 -4.57764e-05 24.619 -4.57764e-05 22.9454L-4.57764e-05 12.4768C-4.57764e-05 10.8032 1.27094 9.44642 2.83878 9.44642C4.40663 9.44642 5.67761 10.8032 5.67761 12.4768L5.67761 22.9454C5.67761 24.619 4.40663 25.9757 2.83878 25.9757Z" fill="#FFAE00"/>
</svg>