<svg width="51" height="20" viewBox="0 0 51 20" fill="none" xmlns="http://www.w3.org/2000/svg">
<g clip-path="url(#clip0_2_13)">
<path d="M17.5881 16C18.1122 16 18.5087 15.7375 18.6777 15.2643L18.2225 15.0916C18.1294 15.3852 17.9053 15.5337 17.5881 15.5337C17.1502 15.5337 16.8882 15.2436 16.8882 14.7324C16.8882 14.2213 17.1433 13.9346 17.5847 13.9346C17.895 13.9346 18.1226 14.0796 18.2225 14.3663L18.6708 14.1902C18.4949 13.7308 18.1053 13.4718 17.5847 13.4718C16.8675 13.4718 16.402 13.9657 16.402 14.7359C16.402 15.5026 16.8709 16 17.5881 16ZM20.8128 16C21.5024 16 21.9782 15.4957 21.9782 14.7393C21.9782 13.9795 21.5092 13.4752 20.8128 13.4752C20.1232 13.4752 19.6508 13.9795 19.6508 14.7393C19.6508 15.4923 20.1232 16 20.8128 16ZM20.8128 15.5337C20.4024 15.5337 20.137 15.2332 20.137 14.7393C20.137 14.242 20.4024 13.9415 20.8128 13.9415C21.2265 13.9415 21.4886 14.2454 21.4886 14.7393C21.4886 15.2263 21.2265 15.5337 20.8128 15.5337ZM23.6926 15.9413V14.3698L24.6477 15.9413H25.1477V13.5339H24.6615V15.0951L23.703 13.5339H23.2064V15.9413H23.6926ZM27.0345 15.9413V14.3698L27.9896 15.9413H28.4896V13.5339H28.0034V15.0951L27.0448 13.5339H26.5483V15.9413H27.0345ZM31.497 15.9413V15.4923H30.3764V14.9224H31.428V14.4734H30.3764V13.9795H31.497V13.5339H29.8902V15.9413H31.497ZM33.8286 16C34.3527 16 34.7492 15.7375 34.9182 15.2643L34.4631 15.0916C34.37 15.3852 34.1458 15.5337 33.8286 15.5337C33.3907 15.5337 33.1287 15.2436 33.1287 14.7324C33.1287 14.2213 33.3838 13.9346 33.8252 13.9346C34.1355 13.9346 34.3631 14.0796 34.4631 14.3663L34.9113 14.1902C34.7355 13.7308 34.3458 13.4718 33.8252 13.4718C33.108 13.4718 32.6425 13.9657 32.6425 14.7359C32.6425 15.5026 33.1115 16 33.8286 16ZM37.036 15.9413V13.9795H37.7636V13.5339H35.8189V13.9795H36.5466V15.9413H37.036Z" fill="#052E50"/>
<path fill-rule="evenodd" clip-rule="evenodd" d="M35.644 5.69102C36.948 5.69102 38.0004 6.7564 38.0004 8.05546C38.0004 9.36382 36.948 10.4199 35.644 10.4199C34.34 10.4199 33.2874 9.36382 33.2874 8.05546C33.2874 6.74706 34.34 5.69102 35.644 5.69102ZM29.5059 5.80317C29.5897 5.80317 29.6642 5.84055 29.7108 5.90597L29.7201 5.92466L30.6608 7.30778L31.6109 5.91531C31.6574 5.84989 31.7413 5.80317 31.8251 5.80317H32.6075C32.6541 5.80317 32.682 5.84055 32.682 5.86858C32.682 5.87793 32.682 5.89662 32.6727 5.90597L31.2104 8.09284L32.6541 10.2143C32.6541 10.2236 32.6634 10.2423 32.6634 10.2517V10.261C32.6634 10.2984 32.6354 10.3358 32.5982 10.3358H31.7599C31.6854 10.3358 31.6016 10.2984 31.555 10.233L31.5457 10.2143L30.6608 8.90589L29.7946 10.2049C29.748 10.2704 29.6642 10.3171 29.5804 10.3171H28.7514C28.7142 10.3171 28.6769 10.2797 28.6769 10.2423C28.6769 10.2236 28.6769 10.2049 28.6862 10.1956L30.1206 8.09284L28.6583 5.92466C28.6583 5.90597 28.649 5.89662 28.649 5.88728V5.87793C28.649 5.84055 28.6769 5.80317 28.7142 5.80317H29.5059ZM17.0434 4.25178C17.1459 4.25178 17.2297 4.33589 17.2297 4.43869V9.4012L19.8377 9.39186C19.9401 9.39186 20.024 9.47597 20.024 9.57877V10.1395C20.024 10.2423 19.9401 10.3264 19.8377 10.3264H16.4846C16.3821 10.3264 16.2983 10.2423 16.2983 10.1395V4.43869C16.2983 4.33589 16.3821 4.25178 16.4846 4.25178H17.0434ZM22.0172 5.84055C22.1104 5.84055 22.1942 5.92466 22.1942 6.02746V10.1395C22.1942 10.2423 22.1197 10.3264 22.0172 10.3264H21.4397C21.3466 10.3264 21.2628 10.2423 21.2628 10.1395V6.02746C21.2628 5.92466 21.3373 5.84055 21.4397 5.84055H22.0172ZM25.6032 5.7284C25.892 5.7284 26.1528 5.78448 26.4042 5.88728C26.6557 5.99942 26.87 6.1396 27.0562 6.32651C27.2425 6.51342 27.3822 6.72837 27.494 6.97135C27.5965 7.22368 27.6523 7.48535 27.6523 7.76571V10.1395C27.6523 10.2423 27.5778 10.3264 27.4754 10.3264H26.8979C26.8048 10.3264 26.7209 10.2423 26.7209 10.1395V7.74702C26.7209 7.58815 26.7023 7.43862 26.6371 7.30778C26.5719 7.17695 26.4974 7.05546 26.3949 6.95266C26.2925 6.84986 26.1807 6.76575 26.041 6.70967C25.9013 6.6536 25.7616 6.62557 25.6032 6.62557C25.4449 6.62557 25.3052 6.6536 25.1654 6.70967C25.035 6.77509 24.914 6.84986 24.8115 6.95266C24.709 7.05546 24.6252 7.1676 24.5693 7.30778C24.5134 7.44797 24.4855 7.58815 24.4855 7.74702V10.1395C24.4855 10.2423 24.411 10.3264 24.3085 10.3264H23.731C23.6379 10.3264 23.5541 10.2423 23.5541 10.1395V7.76571C23.5541 7.48535 23.61 7.21433 23.7124 6.97135C23.8149 6.72837 23.9639 6.51342 24.1502 6.32651C24.3365 6.1396 24.5507 5.99008 24.8022 5.88728C25.0537 5.78448 25.3238 5.7284 25.6032 5.7284ZM35.644 6.61622C34.8522 6.61622 34.2002 7.26106 34.2002 8.0648C34.2002 8.85917 34.8429 9.51335 35.644 9.51335C36.4451 9.51335 37.0876 8.86851 37.0876 8.0648C37.0876 7.2704 36.4451 6.61622 35.644 6.61622ZM21.7378 3.97142C22.0722 3.97142 22.3432 4.24338 22.3432 4.57887C22.3432 4.91437 22.0722 5.18633 21.7378 5.18633C21.4034 5.18633 21.1324 4.91437 21.1324 4.57887C21.1324 4.24338 21.4034 3.97142 21.7378 3.97142Z" fill="#052E50"/>
<path fill-rule="evenodd" clip-rule="evenodd" d="M6.63983 4.72105H11.1614C11.8843 4.72105 12.4703 5.30807 12.4703 6.03215C12.4703 6.75625 11.8843 7.34324 11.1614 7.34324H6.63983C5.91699 7.34324 5.33099 6.75625 5.33099 6.03215C5.33099 5.30807 5.91699 4.72105 6.63983 4.72105Z" fill="#FFC74D"/>
<path opacity="0.75" fill-rule="evenodd" clip-rule="evenodd" d="M11.1611 4.72105C11.884 4.72105 12.47 5.30807 12.47 6.03214V10.5614C12.47 11.2855 11.884 11.8725 11.1611 11.8725C10.4383 11.8725 9.85229 11.2855 9.85229 10.5614V6.03214C9.85229 5.30807 10.4383 4.72105 11.1611 4.72105Z" fill="#FFAE00"/>
<path fill-rule="evenodd" clip-rule="evenodd" d="M7.83033 15.2099H3.3088C2.58594 15.2099 1.99994 14.6229 1.99994 13.8988C1.99994 13.1747 2.58594 12.5877 3.3088 12.5877H7.83033C8.5532 12.5877 9.1392 13.1747 9.1392 13.8988C9.1392 14.6229 8.5532 15.2099 7.83033 15.2099Z" fill="#FFC74D"/>
<path opacity="0.75" fill-rule="evenodd" clip-rule="evenodd" d="M3.30902 15.2099C2.58615 15.2099 2.00015 14.6229 2.00015 13.8988V9.36953C2.00015 8.64542 2.58615 8.05844 3.30902 8.05844C4.03188 8.05844 4.61788 8.64542 4.61788 9.36953V13.8988C4.61788 14.6229 4.03188 15.2099 3.30902 15.2099Z" fill="#FFAE00"/>
<path d="M46.0484 11.9631V11.539C46.1524 11.4652 46.2211 11.3433 46.2211 11.2047C46.2211 10.9101 45.9138 10.6883 45.6069 10.8516C45.5506 10.8815 45.5033 10.9289 45.4731 10.9859C45.3567 11.2076 45.4324 11.428 45.5891 11.5392V11.9581C45.5891 12.0527 45.6411 12.1446 45.7276 12.1788C45.8924 12.2436 46.0484 12.1219 46.0484 11.9631Z" fill="#FFAE00"/>
<path d="M45.1811 9.53895V10.0543H46.4564L46.4567 9.53917C46.4567 9.36611 46.3902 9.20342 46.2698 9.08106C46.1491 8.95869 45.9887 8.89113 45.8189 8.89113C45.4673 8.89113 45.1811 9.18178 45.1811 9.53895Z" fill="#FFAE00"/>
<path fill-rule="evenodd" clip-rule="evenodd" d="M45.8182 15.6364C48.4291 15.6364 50.5455 13.5199 50.5455 10.9091C50.5455 8.2983 48.4291 6.18182 45.8182 6.18182C43.2073 6.18182 41.0909 8.2983 41.0909 10.9091C41.0909 13.5199 43.2073 15.6364 45.8182 15.6364ZM46.9335 10.0543H47.2786C47.5469 10.0543 47.7651 10.2759 47.7651 10.5487V12.3613C47.7651 12.634 47.5469 12.8556 47.2786 12.8556H44.3589C44.0902 12.8556 43.872 12.634 43.872 12.3613V10.5487C43.872 10.2759 44.0902 10.0543 44.3589 10.0543H44.704V9.53895C44.704 8.91459 45.204 8.40644 45.8185 8.40644C46.116 8.40644 46.3964 8.52426 46.6069 8.73808C46.8175 8.95211 46.9335 9.23655 46.9335 9.53895V10.0543Z" fill="#FFAE00"/>
</g>
<defs>
<clipPath id="clip0_2_13">
<rect width="50.5455" height="20" fill="white"/>
</clipPath>
</defs>
</svg>
