<svg width="1770" height="762" viewBox="0 0 1770 762" fill="none" xmlns="http://www.w3.org/2000/svg">
<rect width="1770" height="762" rx="28" fill="white"/>
<path d="M74 700.779V680.566H78.089V697.009H86.557V700.779H74Z" fill="#052E50"/>
<path d="M88.3738 684.133V680.566H92.4338V684.133H88.3738ZM88.4318 700.779V686.482H92.3758V700.779H88.4318Z" fill="#052E50"/>
<path d="M104.142 686.163C107.419 686.163 109.304 688.135 109.304 691.412V700.779H105.389V692.659C105.389 691.615 105.389 689.585 102.924 689.585C99.9656 689.585 99.9656 692.514 99.9656 694.573V700.779H96.0216V686.482H99.9656V687.961C101.01 686.627 102.518 686.163 104.142 686.163Z" fill="#052E50"/>
<path d="M110.732 700.779L115.546 693.558L110.732 686.482H115.546L118.156 690.89L120.766 686.482H125.58L120.737 693.558L125.58 700.779H120.766L118.156 696.255L115.546 700.779H110.732Z" fill="#052E50"/>
<path d="M132.752 701.098C128.228 701.098 125.502 697.589 125.502 693.616C125.502 689.614 128.199 686.163 132.752 686.163C137.276 686.163 140.002 689.614 140.002 693.616C140.002 697.589 137.247 701.098 132.752 701.098ZM132.752 697.647C135.246 697.647 136.087 695.675 136.087 693.616C136.087 691.528 135.275 689.585 132.752 689.585C130.258 689.585 129.417 691.528 129.417 693.616C129.417 695.646 130.229 697.647 132.752 697.647Z" fill="#052E50"/>
<path d="M150.007 683.698V680.566H153.197V683.698H150.007ZM150.123 700.779V686.482H153.11V700.779H150.123Z" fill="#052E50"/>
<path d="M162.008 701.04C159.05 701.04 156.759 699.358 156.063 697.125L158.47 696.052C158.905 697.241 159.862 698.517 161.892 698.517C163.603 698.517 164.502 697.589 164.502 696.574C164.502 693.703 156.846 695.559 156.846 690.339C156.846 687.671 159.166 686.221 161.979 686.221C164.386 686.221 166.242 687.294 167.286 689.266L164.966 690.542C164.415 689.527 163.516 688.628 161.863 688.628C160.529 688.628 159.688 689.237 159.688 690.107C159.688 692.688 167.431 691.122 167.431 696.4C167.431 699.59 164.734 701.04 162.008 701.04Z" fill="#052E50"/>
<path d="M183.411 686.221C187.123 686.221 189.385 688.309 189.385 691.789V700.779H186.659L186.427 698.749C185.499 700.199 183.846 701.04 181.816 701.04C178.771 701.04 176.741 699.213 176.741 696.487C176.741 694.863 177.437 693.645 178.713 693.007C179.699 692.514 181.033 692.282 183.063 692.282H186.398V691.789C186.398 689.933 185.267 688.831 183.382 688.831C181.816 688.831 180.424 689.585 179.351 691.064L177.176 689.237C178.829 687.207 180.859 686.221 183.411 686.221ZM182.367 698.517C184.687 698.517 186.398 696.893 186.398 694.631V694.573H183.411C181.758 694.573 180.917 694.718 180.366 695.153C179.931 695.443 179.728 695.936 179.728 696.545C179.728 697.763 180.743 698.517 182.367 698.517Z" fill="#052E50"/>
<path d="M205.225 701.04C202.267 701.04 199.976 699.358 199.28 697.125L201.687 696.052C202.122 697.241 203.079 698.517 205.109 698.517C206.82 698.517 207.719 697.589 207.719 696.574C207.719 693.703 200.063 695.559 200.063 690.339C200.063 687.671 202.383 686.221 205.196 686.221C207.603 686.221 209.459 687.294 210.503 689.266L208.183 690.542C207.632 689.527 206.733 688.628 205.08 688.628C203.746 688.628 202.905 689.237 202.905 690.107C202.905 692.688 210.648 691.122 210.648 696.4C210.648 699.59 207.951 701.04 205.225 701.04Z" fill="#052E50"/>
<path d="M222.863 686.482H225.85V700.779H222.863V698.981C221.848 700.402 220.195 701.04 218.455 701.04C214.975 701.04 213.496 698.575 213.496 695.356V686.482H216.483V694.602C216.483 696.052 216.628 698.43 219.296 698.43C222.399 698.43 222.863 695.24 222.863 692.282V686.482Z" fill="#052E50"/>
<path d="M237.663 686.192C241.317 686.192 243.782 689.005 243.782 693.616C243.782 697.908 241.636 701.04 237.663 701.04C235.952 701.04 234.328 700.46 233.342 699.184V700.779H230.355V680.566H233.342V688.077C234.241 686.917 235.894 686.192 237.663 686.192ZM236.996 698.314C239.548 698.314 240.795 696.487 240.795 693.645C240.795 690.716 239.49 688.889 236.967 688.889C234.357 688.889 233.052 690.919 233.052 693.645C233.052 696.313 234.299 698.314 236.996 698.314Z" fill="#052E50"/>
<path d="M251.585 701.04C248.627 701.04 246.336 699.358 245.64 697.125L248.047 696.052C248.482 697.241 249.439 698.517 251.469 698.517C253.18 698.517 254.079 697.589 254.079 696.574C254.079 693.703 246.423 695.559 246.423 690.339C246.423 687.671 248.743 686.221 251.556 686.221C253.963 686.221 255.819 687.294 256.863 689.266L254.543 690.542C253.992 689.527 253.093 688.628 251.44 688.628C250.106 688.628 249.265 689.237 249.265 690.107C249.265 692.688 257.008 691.122 257.008 696.4C257.008 699.59 254.311 701.04 251.585 701.04Z" fill="#052E50"/>
<path d="M260.201 683.698V680.566H263.391V683.698H260.201ZM260.317 700.779V686.482H263.304V700.779H260.317Z" fill="#052E50"/>
<path d="M277.104 680.566H280.091V700.779H277.104V699.184C276.118 700.46 274.494 701.04 272.783 701.04C268.81 701.04 266.664 697.908 266.664 693.616C266.664 689.005 269.129 686.192 272.783 686.192C274.552 686.192 276.205 686.917 277.104 688.077V680.566ZM273.45 698.314C276.147 698.314 277.394 696.313 277.394 693.645C277.394 690.919 276.089 688.889 273.479 688.889C270.956 688.889 269.651 690.716 269.651 693.645C269.651 696.487 270.898 698.314 273.45 698.314Z" fill="#052E50"/>
<path d="M284.472 683.698V680.566H287.662V683.698H284.472ZM284.588 700.779V686.482H287.575V700.779H284.588Z" fill="#052E50"/>
<path d="M297.372 686.221C301.084 686.221 303.346 688.309 303.346 691.789V700.779H300.62L300.388 698.749C299.46 700.199 297.807 701.04 295.777 701.04C292.732 701.04 290.702 699.213 290.702 696.487C290.702 694.863 291.398 693.645 292.674 693.007C293.66 692.514 294.994 692.282 297.024 692.282H300.359V691.789C300.359 689.933 299.228 688.831 297.343 688.831C295.777 688.831 294.385 689.585 293.312 691.064L291.137 689.237C292.79 687.207 294.82 686.221 297.372 686.221ZM296.328 698.517C298.648 698.517 300.359 696.893 300.359 694.631V694.573H297.372C295.719 694.573 294.878 694.718 294.327 695.153C293.892 695.443 293.689 695.936 293.689 696.545C293.689 697.763 294.704 698.517 296.328 698.517Z" fill="#052E50"/>
<path d="M314.374 686.221C315.302 686.221 316.143 686.424 317.013 686.946L315.563 689.556C315.012 689.237 314.461 689.063 313.794 689.063C311.648 689.063 310.401 690.484 310.401 693.326V700.779H307.414V686.482H310.43V688.831C311.155 687.033 312.808 686.221 314.374 686.221Z" fill="#052E50"/>
<path d="M320.864 706.695L323.358 700.46L317.616 686.482H320.893L324.953 697.009L328.839 686.482H332.116L324.083 706.695H320.864Z" fill="#052E50"/>
<path d="M347.595 701.04C343.274 701.04 340.519 697.705 340.519 693.616C340.519 689.498 343.274 686.221 347.595 686.221C351.887 686.221 354.642 689.498 354.642 693.616C354.642 697.705 351.887 701.04 347.595 701.04ZM347.595 698.43C350.379 698.43 351.655 696.226 351.655 693.616C351.655 690.977 350.35 688.831 347.595 688.831C344.811 688.831 343.506 690.977 343.506 693.616C343.506 696.255 344.811 698.43 347.595 698.43Z" fill="#052E50"/>
<path d="M358.693 700.779V688.889H355.88V686.482H358.722V684.655C358.722 681.233 360.694 680.305 362.811 680.305C363.797 680.305 364.667 680.508 365.45 680.856L364.464 683.176C364.058 682.944 363.594 682.799 363.13 682.799C361.912 682.799 361.68 683.814 361.68 684.597V686.482H365.276V688.889H361.68V700.779H358.693Z" fill="#052E50"/>
<g clip-path="url(#clip0_177_3232)">
<rect width="328.75" height="45" transform="translate(381.45 671)" fill="white"/>
<path d="M430.745 678.101C425.585 680.91 423.753 681.766 422.976 681.766C422.756 681.766 422.577 681.886 422.577 682.005C422.597 682.444 423.733 684.974 424.091 685.372C424.729 686.069 425.864 685.87 428.235 684.655C430.605 683.42 435.745 680.611 435.984 680.372C436.064 680.312 436.104 679.117 436.084 677.722L436.024 675.212L430.745 678.101Z" fill="#076E4E"/>
<path d="M498.557 674.535C498.139 675.172 497.701 675.79 497.621 675.929C497.501 676.129 497.8 676.188 499.015 676.188L500.569 676.168L503.099 673.399H499.334L498.557 674.535Z" fill="#076E4E"/>
<path d="M456.683 678.38C450.965 679.874 448.176 684.735 450.089 689.854C450.427 690.751 450.846 691.349 451.842 692.325C453.396 693.859 454.67 694.576 456.762 695.114C460.229 696.01 464.292 695.373 467.321 693.5L467.998 693.102L467.181 692.006C466.723 691.408 466.324 690.93 466.305 690.93C466.265 690.93 465.707 691.229 465.069 691.608C463.356 692.624 461.882 692.982 459.95 692.882C455.886 692.643 453.256 690.233 453.256 686.747C453.256 684.336 454.471 682.464 456.782 681.328C457.878 680.79 458.376 680.671 459.83 680.611C461.882 680.511 463.177 680.83 464.85 681.846L465.986 682.523L466.803 681.428C467.759 680.173 467.799 680.232 465.627 679.177C463.157 677.961 459.531 677.643 456.683 678.38Z" fill="#076E4E"/>
<path d="M590.434 678.3C587.486 679.017 585.016 680.83 583.9 683.121C583.283 684.396 583.243 684.555 583.243 686.747C583.243 688.819 583.303 689.137 583.781 690.193C585.275 693.361 588.482 695.253 592.825 695.452C595.714 695.592 597.746 695.193 600.236 693.998L602.069 693.122V685.751H593.502V688.34H598.682V689.914C598.682 691.787 598.582 691.886 596.431 692.564C593.702 693.381 590.574 692.823 588.661 691.149C586.59 689.317 586.171 685.85 587.765 683.46C589.777 680.432 595.235 679.615 598.523 681.866C598.921 682.145 599.339 682.364 599.459 682.364C599.738 682.364 601.092 680.551 601.013 680.292C600.873 679.894 598.523 678.778 596.989 678.38C595.136 677.902 592.207 677.862 590.434 678.3Z" fill="#076E4E"/>
<path d="M641.732 678.38C638.923 679.117 636.413 681.029 635.357 683.201C633.843 686.348 634.64 690.313 637.27 692.723C640.955 696.09 647.33 696.468 652.23 693.6L653.087 693.102L652.689 692.564C652.47 692.265 652.071 691.767 651.832 691.448L651.354 690.89L650.378 691.508C646.433 694.018 640.975 693.062 639.023 689.516C638.485 688.56 638.425 688.261 638.425 686.747C638.425 685.233 638.485 684.934 639.023 683.978C640.935 680.511 646.314 679.495 650.099 681.866C650.517 682.145 650.936 682.364 651.035 682.364C651.294 682.364 652.709 680.412 652.589 680.213C652.37 679.834 649.541 678.579 648.286 678.3C646.493 677.862 643.545 677.922 641.732 678.38Z" fill="#076E4E"/>
<path d="M661.494 678.28C659.801 678.659 657.569 679.854 656.354 681.069C652.45 684.994 653.545 691.408 658.565 694.038C660.757 695.193 661.673 695.413 664.522 695.413C667.45 695.413 668.426 695.213 670.498 694.138C676.893 690.831 676.893 682.663 670.478 679.316C669.701 678.918 668.486 678.459 667.789 678.28C666.235 677.922 663.167 677.922 661.494 678.28ZM668.068 681.328C672.829 683.679 672.71 690.014 667.849 692.285C666.853 692.763 666.474 692.823 664.622 692.823C662.769 692.823 662.39 692.763 661.414 692.305C656.135 689.835 656.553 682.902 662.091 680.93C662.888 680.651 663.566 680.571 664.94 680.631C666.514 680.671 666.932 680.77 668.068 681.328Z" fill="#076E4E"/>
<path d="M471.185 695.313H474.771V689.336H479.273L481.764 692.305L484.234 695.293H486.385L488.537 695.313L487.222 693.759C484.174 690.233 483.138 688.978 483.138 688.878C483.138 688.819 483.477 688.659 483.895 688.52C486.604 687.643 487.899 686.069 487.919 683.639C487.919 681.268 486.565 679.615 483.855 678.718C482.779 678.36 482.003 678.3 476.923 678.22L471.185 678.141V695.313ZM482.301 681.268C484.453 682.185 484.911 684.257 483.238 685.731C482.341 686.528 481.086 686.747 477.66 686.747H474.771V680.97H478.158C480.767 680.97 481.724 681.049 482.301 681.268Z" fill="#076E4E"/>
<path d="M491.545 684.994C491.605 691.05 491.644 691.906 491.963 692.624C492.421 693.64 492.999 694.237 493.995 694.775C494.752 695.193 495.091 695.213 501.027 695.273L507.243 695.333V692.524H496.306L495.748 692.046C495.23 691.588 495.19 691.468 495.131 689.655L495.051 687.743H505.848V685.153H495.091V680.97H506.844V678.181H491.485L491.545 684.994Z" fill="#076E4E"/>
<path d="M511.028 695.353L516.168 695.253C521.925 695.154 522.941 694.974 525.212 693.779C526.905 692.902 528.36 691.349 528.997 689.775C529.356 688.858 529.435 688.241 529.455 686.647C529.455 684.794 529.415 684.555 528.818 683.34C528.041 681.766 526.686 680.452 525.033 679.615C522.782 678.479 521.965 678.34 516.267 678.24L511.028 678.141V695.353ZM522.383 681.587C523.638 682.185 524.794 683.26 525.292 684.336C525.81 685.372 525.889 687.484 525.471 688.719C525.053 689.994 523.877 691.209 522.423 691.886C521.367 692.384 521.068 692.424 517.961 692.484L514.614 692.564V680.93L517.961 681.009C521.068 681.069 521.367 681.109 522.383 681.587Z" fill="#076E4E"/>
<path d="M532.941 695.313H536.527V678.181H532.941V695.313Z" fill="#076E4E"/>
<path d="M539.715 680.97H546.289V695.313H549.875V680.97H556.249V678.181H539.715V680.97Z" fill="#076E4E"/>
<path d="M569.437 679.216C568.939 680.133 561.449 694.715 561.27 695.154C561.23 695.233 562.007 695.313 563.003 695.313H564.816L565.851 693.221L566.907 691.129H576.29L577.246 693.221L578.223 695.313H580.275C581.41 695.313 582.346 695.293 582.346 695.253C582.346 695.233 580.394 691.408 578.004 686.747L573.661 678.28L570.035 678.161L569.437 679.216ZM573.282 685.133C574.139 686.886 574.816 688.38 574.736 688.44C574.677 688.5 573.202 688.52 571.449 688.5L568.262 688.44L569.856 685.113C570.732 683.28 571.509 681.806 571.569 681.846C571.629 681.906 572.406 683.36 573.282 685.133Z" fill="#076E4E"/>
<path d="M606.252 695.313H609.838V689.336L612.189 689.356H614.519L617.01 692.345L619.5 695.313H621.532C622.667 695.313 623.584 695.273 623.584 695.233C623.584 695.193 622.368 693.759 620.894 692.006L618.205 688.858L619.42 688.42C621.91 687.524 623.086 685.99 623.066 683.659C623.066 681.428 622.149 680.073 619.998 679.097C618.344 678.34 616.79 678.181 611.292 678.181H606.252V695.313ZM617.966 681.428C619.998 682.543 619.818 685.213 617.647 686.209C616.83 686.587 616.292 686.647 613.284 686.707L609.838 686.787V680.93L613.583 681.009C616.711 681.049 617.408 681.129 617.966 681.428Z" fill="#076E4E"/>
<path d="M627.369 695.313H630.954V678.181H627.369V695.313Z" fill="#076E4E"/>
<path d="M678.367 695.313H692.511V692.524H681.754V678.181H678.367V695.313Z" fill="#076E4E"/>
<path d="M694.504 684.994C694.504 691.807 694.504 691.827 694.982 692.863C695.539 694.038 696.496 694.775 697.89 695.094C698.388 695.213 701.317 695.313 704.424 695.313H710.042V692.524H704.763C701.337 692.524 699.325 692.444 699.026 692.305C698.309 691.986 698.089 691.309 698.089 689.436V687.743H708.648V685.153H698.089V680.97H709.644V678.181H694.504V684.994Z" fill="#076E4E"/>
<path d="M586.669 700.971C585.693 701.289 585.055 701.668 584.478 702.265C583.701 703.042 583.641 703.162 583.641 704.198C583.641 705.254 583.681 705.353 584.478 706.07C585.454 706.927 586.729 707.385 590.315 708.162C591.689 708.461 593.144 708.879 593.562 709.079C595.434 710.055 593.522 711.648 590.494 711.648C589.159 711.648 586.729 711.051 585.474 710.433C584.836 710.095 584.279 709.855 584.259 709.895C584.239 709.935 583.98 710.294 583.681 710.692C583.382 711.091 583.143 711.509 583.143 711.609C583.143 711.708 583.681 712.027 584.338 712.306C588.721 714.218 593.98 713.979 596.231 711.808C598.084 710.015 597.327 707.704 594.558 706.668C593.92 706.429 592.187 705.971 590.713 705.652C589.239 705.333 587.685 704.935 587.287 704.756C585.613 704.019 586.35 702.943 588.841 702.504C590.534 702.186 592.606 702.504 594.319 703.341L595.654 703.979L596.271 703.082L596.909 702.186L595.753 701.648C593.94 700.791 592.446 700.492 590.115 700.492C588.462 700.492 587.745 700.592 586.669 700.971Z" fill="#5E646B"/>
<path d="M667.211 700.771C664.9 701.429 662.828 703.102 662.151 704.915C661.693 706.11 661.773 708.421 662.33 709.557C663.605 712.166 667.351 713.9 671.016 713.561C672.59 713.421 674.602 712.824 675.618 712.206L676.335 711.748L675.698 710.971L675.04 710.194L673.666 710.871C672.55 711.429 672.012 711.569 670.797 711.609C668.964 711.708 667.948 711.449 666.693 710.593C664.382 709.059 664.004 706.17 665.837 704.178C667.012 702.903 668.327 702.385 670.399 702.385C671.913 702.405 672.251 702.465 673.466 703.062L674.841 703.72L675.359 703.062C675.638 702.704 675.877 702.305 675.877 702.206C675.877 701.927 674.223 701.11 672.968 700.791C671.654 700.433 668.446 700.433 667.211 700.771Z" fill="#5E646B"/>
<path d="M699.623 700.971C698.647 701.289 698.01 701.668 697.432 702.265C696.655 703.042 696.595 703.162 696.595 704.198C696.595 705.254 696.635 705.353 697.432 706.07C698.408 706.927 699.683 707.385 703.269 708.162C704.643 708.461 706.098 708.879 706.516 709.079C708.389 710.055 706.476 711.648 703.448 711.648C702.113 711.648 699.683 711.051 698.428 710.433C697.79 710.095 697.233 709.855 697.213 709.895C697.193 709.935 696.934 710.294 696.635 710.692C696.336 711.091 696.097 711.509 696.097 711.609C696.097 711.708 696.635 712.027 697.292 712.306C701.675 714.218 706.934 713.979 709.185 711.808C711.038 710.015 710.281 707.704 707.512 706.668C706.875 706.429 705.141 705.971 703.667 705.652C699.962 704.855 699.085 704.437 699.424 703.58C699.723 702.763 702.293 702.186 704.285 702.465C705.619 702.664 707.512 703.281 708.149 703.76C708.508 704.019 708.588 703.959 709.205 703.122L709.863 702.186L708.707 701.648C706.894 700.791 705.4 700.492 703.07 700.492C701.416 700.492 700.699 700.592 699.623 700.971Z" fill="#5E646B"/>
<path d="M451.662 713.441H454.431L454.551 709.557L457.937 709.437C461.842 709.298 462.758 709.059 463.974 707.843C465.766 706.05 465.507 703.142 463.436 701.747C462.081 700.831 461.085 700.692 456.204 700.692H451.662V713.441ZM460.945 703.042C462.758 703.979 462.619 706.389 460.706 707.186C460.248 707.385 459.172 707.465 457.24 707.465H454.451V705.114C454.451 703.819 454.511 702.684 454.61 702.584C454.69 702.504 455.965 702.485 457.459 702.544C459.631 702.624 460.328 702.724 460.945 703.042Z" fill="#5E646B"/>
<path d="M470.069 707.066L466.643 713.441H469.492L471.205 710.254H478.556L480.15 713.441H481.743C483.337 713.441 483.357 713.441 483.118 712.983C482.998 712.744 481.464 709.875 479.711 706.608L476.504 700.692H473.476L470.069 707.066ZM477.361 708.202C477.361 708.401 476.703 708.461 474.771 708.461C473.356 708.461 472.181 708.421 472.181 708.361C472.181 708.322 472.779 707.146 473.496 705.752L474.831 703.242L476.086 705.592C476.783 706.907 477.361 708.082 477.361 708.202Z" fill="#5E646B"/>
<path d="M486.624 704.517L489.911 708.341V713.441H492.7V710.891L492.72 708.361L494.453 706.349C495.409 705.234 496.884 703.501 497.74 702.504L499.294 700.692H496.166L493.875 703.481C492.64 705.015 491.565 706.27 491.505 706.27C491.445 706.27 490.369 705.015 489.114 703.481L486.823 700.692H483.317L486.624 704.517Z" fill="#5E646B"/>
<path d="M502.661 713.441H505.051L505.091 708.72L505.151 704.019L507.601 707.325C508.956 709.158 510.131 710.692 510.231 710.752C510.311 710.812 511.566 709.258 513 707.325L515.61 703.799V713.441H518.399V700.692H516.865L515.311 700.712L513.119 703.7C511.924 705.353 510.829 706.788 510.709 706.887C510.57 707.007 509.713 706.011 508.139 703.879L505.768 700.692H502.661V713.441Z" fill="#5E646B"/>
<path d="M523.777 705.413C523.777 708.242 523.877 710.473 523.997 710.951C524.275 711.947 525.272 712.943 526.268 713.222C526.746 713.342 528.917 713.441 531.606 713.441H536.129V711.449H532.105C529.873 711.449 527.861 711.389 527.602 711.33C526.945 711.15 526.566 710.254 526.566 708.859V707.664H535.133V705.871L530.909 705.831L526.666 705.772V702.584L531.308 702.524L535.929 702.485V700.692H523.777V705.413Z" fill="#5E646B"/>
<path d="M541.308 713.441H544.097L544.137 708.839L544.197 704.238L548.281 708.839L552.365 713.421L553.819 713.441H555.253V700.692H552.464L552.424 705.214L552.365 709.756L548.301 705.214L544.217 700.692H541.308V713.441Z" fill="#5E646B"/>
<path d="M559.038 702.465L564.118 702.584L564.178 708.003L564.218 713.441H567.007V702.485H572.186V700.692H559.038V702.465Z" fill="#5E646B"/>
<path d="M601.67 705.513C601.67 708.182 601.769 710.672 601.869 711.051C602.128 711.967 603.164 712.943 604.16 713.222C604.618 713.342 606.849 713.441 609.499 713.441H614.021V711.469L609.618 711.409C605.276 711.35 605.216 711.35 604.837 710.871C604.539 710.513 604.459 710.095 604.459 709.039V707.664H613.025V705.871H604.459V702.485H613.623V700.692H601.67V705.513Z" fill="#5E646B"/>
<path d="M618.802 713.441H621.591V708.859H625.157L629.221 713.441H630.815C632.668 713.441 632.767 713.74 629.978 710.672L628.086 708.581L629.181 708.222C632.807 707.007 633.026 702.843 629.56 701.21C628.743 700.831 628.265 700.791 623.743 700.731L618.802 700.652V713.441ZM627.807 702.943C628.803 703.361 629.241 704.078 629.102 705.035C628.863 706.549 627.468 707.066 623.783 707.066H621.591V702.425L624.34 702.524C626.113 702.604 627.349 702.744 627.807 702.943Z" fill="#5E646B"/>
<path d="M635.397 701.927C635.775 702.624 637.269 705.493 638.704 708.302L641.333 713.441H644.242L647.449 707.206C649.222 703.76 650.676 700.891 650.676 700.831C650.676 700.751 650.079 700.692 649.322 700.692H647.987L645.457 705.712L642.947 710.752L640.477 705.712L638.026 700.692H634.699L635.397 701.927Z" fill="#5E646B"/>
<path d="M654.461 713.441H657.25V700.692H654.461V713.441Z" fill="#5E646B"/>
<path d="M680.399 706.011C680.459 711.23 680.459 711.369 680.917 712.007C681.833 713.282 682.112 713.342 687.591 713.401L692.511 713.481V711.449H688.348C684.443 711.449 684.164 711.429 683.666 711.031C683.188 710.652 683.148 710.513 683.148 709.138V707.664H691.515V705.871H683.148V702.485H692.312V700.692H680.339L680.399 706.011Z" fill="#5E646B"/>
<path d="M399.767 677.862C396.679 678.459 392.675 680.153 389.726 682.105C386.559 684.217 383.352 687.882 382.216 690.711C380.104 695.93 382.495 701.887 387.714 704.437C390.404 705.752 392.077 706.11 395.583 706.13C399.109 706.15 401.699 705.712 405.524 704.457C412.417 702.206 423.593 696.648 432.677 690.99C436.522 688.579 436.143 689.157 436.083 685.711L436.024 682.802L433.733 684.097C430.247 686.069 423.912 689.516 423.613 689.575C423.473 689.615 422.398 687.484 420.804 683.958L418.234 678.28L414.449 678.22L410.664 678.18L400.145 697.803L400.723 697.863C401.6 697.962 404.349 697.345 406.122 696.667C408.373 695.791 409.05 695.054 410.504 691.827C412.457 687.464 413.871 684.555 414.011 684.555C414.11 684.555 416.063 689.277 417.318 692.584C417.417 692.882 416.78 693.261 413.194 694.994C407.974 697.524 406.042 698.301 402.954 699.098C393.81 701.468 386.718 701.09 385.762 698.201C384.806 695.273 388.91 689.795 394.528 686.508C397.297 684.894 401.341 683.539 404.349 683.24C405.066 683.161 405.644 683.061 405.644 683.001C405.644 682.583 404.588 679.555 404.269 679.037C403.452 677.742 402.177 677.403 399.767 677.862Z" fill="#5E646B"/>
<path d="M422.935 697.922L420.007 699.516L421.103 702.146C422.676 705.951 422.378 705.752 426.959 705.831C429.051 705.871 430.745 705.831 430.745 705.732C430.764 705.353 426.262 696.309 426.083 696.309C425.963 696.329 424.549 697.046 422.935 697.922Z" fill="#5E646B"/>
<path d="M381.937 713.441H432.338V709.059H381.937V713.441Z" fill="#5E646B"/>
</g>
<path d="M54 300C54 288.954 62.9543 280 74 280H248C259.046 280 268 288.954 268 300V474C268 485.046 259.046 494 248 494H74C62.9543 494 54 485.046 54 474V300Z" fill="#FFAE00"/>
<path d="M74 320C74 308.954 82.9543 300 94 300H1676C1687.05 300 1696 308.954 1696 320V602C1696 613.046 1687.05 622 1676 622H94C82.9543 622 74 613.046 74 602V320Z" fill="white"/>
<path fill-rule="evenodd" clip-rule="evenodd" d="M1676 301H94C83.5066 301 75 309.507 75 320V602C75 612.493 83.5066 621 94 621H1676C1686.49 621 1695 612.493 1695 602V320C1695 309.507 1686.49 301 1676 301ZM94 300C82.9543 300 74 308.954 74 320V602C74 613.046 82.9543 622 94 622H1676C1687.05 622 1696 613.046 1696 602V320C1696 308.954 1687.05 300 1676 300H94Z" fill="#CFCFD7"/>
<rect x="114" y="436" width="60" height="146" rx="30" fill="#FAFAFB"/>
<rect x="114" y="436" width="60" height="60" rx="30" fill="#FFAE00"/>
<path d="M144.375 455.545H148.425V476.455H144.375V462.055H139.575V458.785H142.155C143.625 458.785 144.375 458.185 144.375 456.655V455.545Z" fill="white"/>
<rect x="114" y="522" width="60" height="60" rx="30" fill="#FFAE00"/>
<path d="M143.34 558.75H151.41V562.59H136.71V559.29C140.04 557.28 146.52 552.99 146.52 548.31C146.52 546.63 145.71 545.34 143.82 545.34C141.36 545.34 140.67 547.56 140.58 549.45L136.59 549.15C136.59 545.4 139.14 541.41 143.91 541.41C147.78 541.41 150.57 544.08 150.57 548.1C150.57 552.18 147.24 556.5 143.34 558.75Z" fill="white"/>
<path d="M216.16 478.416C209.664 478.416 205.568 473.968 205.568 466.832C205.568 459.664 209.696 455.248 216.224 455.248C220.864 455.248 224.256 457.456 225.888 461.648L222.72 462.864C221.664 459.952 219.424 458.512 216.224 458.512C211.648 458.512 208.992 461.488 208.992 466.8C208.992 472.144 211.648 475.152 216.16 475.152C219.392 475.152 221.664 473.648 222.72 470.704L225.952 471.92C224.32 476.144 220.832 478.416 216.16 478.416Z" fill="#052E50"/>
<path d="M237.313 461.936C240.833 461.936 242.753 464.08 242.753 467.984V478H239.457V468.816C239.457 466.064 238.465 464.816 236.353 464.816C233.665 464.816 232.417 466.896 232.417 471.376V478H229.121V455.696H232.417V464.176C233.441 462.736 235.169 461.936 237.313 461.936Z" fill="#052E50"/>
<path d="M253.739 478.288C248.971 478.288 245.931 474.608 245.931 470.096C245.931 465.552 248.971 461.936 253.739 461.936C258.475 461.936 261.515 465.552 261.515 470.096C261.515 474.608 258.475 478.288 253.739 478.288ZM253.739 475.408C256.811 475.408 258.219 472.976 258.219 470.096C258.219 467.184 256.779 464.816 253.739 464.816C250.667 464.816 249.227 467.184 249.227 470.096C249.227 473.008 250.667 475.408 253.739 475.408Z" fill="#052E50"/>
<path d="M271.458 478.288C266.69 478.288 263.65 474.608 263.65 470.096C263.65 465.552 266.69 461.936 271.458 461.936C276.194 461.936 279.234 465.552 279.234 470.096C279.234 474.608 276.194 478.288 271.458 478.288ZM271.458 475.408C274.53 475.408 275.938 472.976 275.938 470.096C275.938 467.184 274.498 464.816 271.458 464.816C268.386 464.816 266.946 467.184 266.946 470.096C266.946 473.008 268.386 475.408 271.458 475.408Z" fill="#052E50"/>
<path d="M287.673 478.288C284.409 478.288 281.881 476.432 281.113 473.968L283.769 472.784C284.249 474.096 285.305 475.504 287.545 475.504C289.433 475.504 290.425 474.48 290.425 473.36C290.425 470.192 281.977 472.24 281.977 466.48C281.977 463.536 284.537 461.936 287.641 461.936C290.297 461.936 292.345 463.12 293.497 465.296L290.937 466.704C290.329 465.584 289.337 464.592 287.513 464.592C286.041 464.592 285.113 465.264 285.113 466.224C285.113 469.072 293.657 467.344 293.657 473.168C293.657 476.688 290.681 478.288 287.673 478.288Z" fill="#052E50"/>
<path d="M310.366 469.712C310.366 470.192 310.334 470.672 310.27 471.152H299.198C299.326 473.68 300.83 475.312 303.518 475.312C305.054 475.312 306.366 474.864 307.55 473.52L309.854 475.504C308.062 477.456 306.078 478.288 303.486 478.288C298.27 478.288 295.902 474.512 295.902 470.192C295.902 465.968 298.206 461.936 303.23 461.936C308.126 461.936 310.366 465.584 310.366 469.712ZM299.198 468.496H307.198V468.432C307.134 466.192 305.566 464.688 303.23 464.688C300.702 464.688 299.422 466.544 299.198 468.496Z" fill="#052E50"/>
<path d="M329.834 475.152L329.866 477.84C328.938 478.128 328.01 478.288 327.146 478.288C324.65 478.288 322.666 476.976 322.666 473.808V464.88H320.074V462.224H322.666V458.832L325.962 456.368V462.224H329.834V464.88H325.962V473.52C325.962 474.864 326.698 475.504 327.946 475.504C328.49 475.504 329.13 475.376 329.834 475.152Z" fill="#052E50"/>
<path d="M341.22 461.936C344.74 461.936 346.66 464.08 346.66 467.984V478H343.364V468.816C343.364 466.064 342.372 464.816 340.26 464.816C337.572 464.816 336.324 466.896 336.324 471.376V478H333.028V455.696H336.324V464.176C337.348 462.736 339.076 461.936 341.22 461.936Z" fill="#052E50"/>
<path d="M364.398 469.712C364.398 470.192 364.366 470.672 364.302 471.152H353.23C353.358 473.68 354.862 475.312 357.55 475.312C359.086 475.312 360.398 474.864 361.582 473.52L363.886 475.504C362.094 477.456 360.11 478.288 357.518 478.288C352.302 478.288 349.934 474.512 349.934 470.192C349.934 465.968 352.238 461.936 357.262 461.936C362.158 461.936 364.398 465.584 364.398 469.712ZM353.23 468.496H361.23V468.432C361.166 466.192 359.598 464.688 357.262 464.688C354.734 464.688 353.454 466.544 353.23 468.496Z" fill="#052E50"/>
<path d="M384.185 461.904C388.217 461.904 390.937 465.008 390.937 470.096C390.937 474.832 388.569 478.288 384.185 478.288C382.297 478.288 380.505 477.648 379.417 476.24V478H376.121V455.696H379.417V463.984C380.409 462.704 382.233 461.904 384.185 461.904ZM383.449 475.28C386.265 475.28 387.641 473.264 387.641 470.128C387.641 466.896 386.201 464.88 383.417 464.88C380.537 464.88 379.097 467.12 379.097 470.128C379.097 473.072 380.473 475.28 383.449 475.28Z" fill="#052E50"/>
<path d="M400.54 461.936C404.636 461.936 407.132 464.24 407.132 468.08V478H404.124L403.868 475.76C402.844 477.36 401.02 478.288 398.78 478.288C395.42 478.288 393.18 476.272 393.18 473.264C393.18 471.472 393.948 470.128 395.356 469.424C396.444 468.88 397.916 468.624 400.156 468.624H403.836V468.08C403.836 466.032 402.588 464.816 400.508 464.816C398.78 464.816 397.244 465.648 396.06 467.28L393.66 465.264C395.484 463.024 397.724 461.936 400.54 461.936ZM399.388 475.504C401.948 475.504 403.836 473.712 403.836 471.216V471.152H400.54C398.716 471.152 397.788 471.312 397.18 471.792C396.7 472.112 396.476 472.656 396.476 473.328C396.476 474.672 397.596 475.504 399.388 475.504Z" fill="#052E50"/>
<path d="M419.845 461.936C423.333 461.936 425.253 464.112 425.253 467.984V478H421.957V468.816C421.957 466.96 421.605 464.816 418.885 464.816C415.493 464.816 414.917 468.08 414.917 471.44V478H411.621V462.224H414.917V464.176C416.005 462.672 417.797 461.936 419.845 461.936Z" fill="#052E50"/>
<path d="M429.871 478V455.696H433.167V469.264L439.631 462.224H444.079L438.223 468.272L444.815 478H440.879L435.983 470.32L433.167 473.392V478H429.871Z" fill="#052E50"/>
<path d="M455.945 478V465.616H453.033V462.224H455.977V460.624C455.977 456.432 458.345 455.344 460.969 455.344C462.281 455.344 463.209 455.632 464.105 456.016L462.729 459.344C462.345 459.12 461.929 458.96 461.449 458.96C460.361 458.96 460.265 459.92 460.265 460.624V462.224H463.689V465.616H460.265V478H455.945Z" fill="#052E50"/>
<path d="M473.996 461.872C475.052 461.872 476.012 462.16 477.068 462.832L474.988 466.704C474.508 466.384 473.772 466.16 473.004 466.16C470.988 466.16 469.868 467.472 469.868 470.352V478H465.516V462.224H469.9V464.72C470.604 462.928 472.268 461.872 473.996 461.872Z" fill="#052E50"/>
<path d="M484.39 478.352C479.398 478.352 476.39 474.48 476.39 470.096C476.39 465.68 479.366 461.872 484.39 461.872C489.382 461.872 492.39 465.68 492.39 470.096C492.39 474.48 489.35 478.352 484.39 478.352ZM484.39 474.544C487.142 474.544 488.07 472.368 488.07 470.096C488.07 467.792 487.174 465.648 484.39 465.648C481.638 465.648 480.71 467.792 480.71 470.096C480.71 472.336 481.606 474.544 484.39 474.544Z" fill="#052E50"/>
<path d="M513.064 461.872C516.872 461.872 518.6 464.88 518.6 467.888V478H514.28V469.2C514.28 467.984 514.056 465.648 511.816 465.648C508.584 465.648 509 469.36 509 472.432V478H504.68V469.168C504.68 468.336 504.712 465.648 502.28 465.648C499.016 465.648 499.4 469.36 499.4 472.432V478H495.048L495.016 462.224H499.208V464.208C500.264 462.416 501.896 461.872 503.4 461.872C505.032 461.872 506.984 462.512 507.976 465.008C509.288 462.512 511.144 461.872 513.064 461.872Z" fill="#052E50"/>
<path d="M532.8 478L527.872 462.224H532.48L534.976 471.344L537.6 462.224H541.28L543.904 471.28L546.4 462.224H551.04L546.08 478H542.24L539.456 468.368L536.704 478H532.8Z" fill="#052E50"/>
<path d="M561.915 461.872C565.499 461.872 567.611 464.016 567.611 467.664V478H563.291V468.752C563.291 466.64 562.395 465.648 560.539 465.648C558.011 465.648 557.307 467.696 557.307 471.984V478H552.955V455.696H557.307V463.856C558.331 462.512 559.899 461.872 561.915 461.872Z" fill="#052E50"/>
<path d="M571.234 459.632V455.696H575.714V459.632H571.234ZM571.298 478V462.224H575.65V478H571.298Z" fill="#052E50"/>
<path d="M586.105 478.352C580.761 478.352 578.297 474.256 578.297 470.16C578.297 466 580.793 461.872 586.073 461.872C589.305 461.872 591.801 463.408 592.985 466.608L588.889 468.24C588.569 466.672 587.481 465.648 586.073 465.648C583.609 465.648 582.745 467.888 582.745 470.16C582.745 472.4 583.577 474.544 586.041 474.544C587.449 474.544 588.569 473.584 588.921 472.048L592.825 473.584C591.769 476.528 589.305 478.352 586.105 478.352Z" fill="#052E50"/>
<path d="M604.29 461.872C607.874 461.872 609.986 464.016 609.986 467.664V478H605.666V468.752C605.666 466.64 604.77 465.648 602.914 465.648C600.386 465.648 599.682 467.696 599.682 471.984V478H595.33V455.696H599.682V463.856C600.706 462.512 602.274 461.872 604.29 461.872Z" fill="#052E50"/>
<path d="M622.222 484.528L625.102 477.52L619.054 462.224H623.854L627.406 472.56L631.214 462.224H635.982L626.926 484.528H622.222Z" fill="#052E50"/>
<path d="M643.421 478.352C638.429 478.352 635.421 474.48 635.421 470.096C635.421 465.68 638.397 461.872 643.421 461.872C648.413 461.872 651.421 465.68 651.421 470.096C651.421 474.48 648.381 478.352 643.421 478.352ZM643.421 474.544C646.173 474.544 647.101 472.368 647.101 470.096C647.101 467.792 646.205 465.648 643.421 465.648C640.669 465.648 639.741 467.792 639.741 470.096C639.741 472.336 640.637 474.544 643.421 474.544Z" fill="#052E50"/>
<path d="M663.905 462.224H668.257V478H663.905V476.304C662.785 477.744 661.121 478.352 659.361 478.352C655.297 478.352 653.601 475.568 653.601 472.016V462.224H657.921V471.056C657.921 472.368 658.049 474.544 660.673 474.544C663.905 474.544 663.905 471.088 663.905 467.824V462.224Z" fill="#052E50"/>
<path d="M682.863 478L677.935 462.224H682.543L685.039 471.344L687.663 462.224H691.343L693.967 471.28L696.463 462.224H701.103L696.143 478H692.303L689.519 468.368L686.767 478H682.863Z" fill="#052E50"/>
<path d="M709.195 461.872C713.515 461.872 716.171 464.24 716.171 468.016V478H712.203L711.883 476.176C710.763 477.776 709.003 478.352 707.403 478.352C703.979 478.352 701.515 476.144 701.515 473.04C701.515 471.184 702.347 469.84 703.787 469.104C704.811 468.592 706.091 468.368 707.691 468.368H711.851V468.016C711.851 466.576 710.795 465.648 709.003 465.648C707.595 465.648 706.251 466.256 704.971 467.696L701.835 465.072C703.755 462.896 706.379 461.872 709.195 461.872ZM708.107 474.768C710.123 474.768 711.819 473.392 711.851 471.568H708.299C707.403 471.568 706.795 471.696 706.411 471.984C706.027 472.24 705.835 472.624 705.835 473.104C705.835 474.064 706.635 474.768 708.107 474.768Z" fill="#052E50"/>
<path d="M728.726 461.872C732.342 461.872 734.422 464.048 734.422 467.664V478H730.102V469.04C730.102 467.888 730.102 465.648 727.382 465.648C724.118 465.648 724.118 468.88 724.118 471.152V478H719.766V462.224H724.118V463.856C725.27 462.384 726.934 461.872 728.726 461.872Z" fill="#052E50"/>
<path d="M747.07 465.616H743.102V472.912C743.102 473.84 743.486 474.768 745.086 474.768C745.694 474.768 746.366 474.64 747.07 474.416V477.84C746.078 478.192 745.086 478.352 744.03 478.352C741.214 478.352 738.782 476.976 738.782 473.264V465.616H736.222V462.224H738.782V459.536L743.102 456.336V462.224H747.07V465.616Z" fill="#052E50"/>
<path d="M766.758 465.616H762.79V472.912C762.79 473.84 763.174 474.768 764.774 474.768C765.382 474.768 766.054 474.64 766.758 474.416V477.84C765.766 478.192 764.774 478.352 763.718 478.352C760.902 478.352 758.47 476.976 758.47 473.264V465.616H755.91V462.224H758.47V459.536L762.79 456.336V462.224H766.758V465.616Z" fill="#052E50"/>
<path d="M776.233 478.352C771.241 478.352 768.233 474.48 768.233 470.096C768.233 465.68 771.209 461.872 776.233 461.872C781.225 461.872 784.233 465.68 784.233 470.096C784.233 474.48 781.193 478.352 776.233 478.352ZM776.233 474.544C778.985 474.544 779.913 472.368 779.913 470.096C779.913 467.792 779.017 465.648 776.233 465.648C773.481 465.648 772.553 467.792 772.553 470.096C772.553 472.336 773.449 474.544 776.233 474.544Z" fill="#052E50"/>
<path d="M812.689 461.872C816.497 461.872 818.225 464.88 818.225 467.888V478H813.905V469.2C813.905 467.984 813.681 465.648 811.441 465.648C808.209 465.648 808.625 469.36 808.625 472.432V478H804.305V469.168C804.305 468.336 804.337 465.648 801.905 465.648C798.641 465.648 799.025 469.36 799.025 472.432V478H794.673L794.641 462.224H798.833V464.208C799.889 462.416 801.521 461.872 803.025 461.872C804.657 461.872 806.609 462.512 807.601 465.008C808.913 462.512 810.769 461.872 812.689 461.872Z" fill="#052E50"/>
<path d="M828.132 461.872C832.452 461.872 835.108 464.24 835.108 468.016V478H831.14L830.82 476.176C829.7 477.776 827.94 478.352 826.34 478.352C822.916 478.352 820.452 476.144 820.452 473.04C820.452 471.184 821.284 469.84 822.724 469.104C823.748 468.592 825.028 468.368 826.628 468.368H830.788V468.016C830.788 466.576 829.732 465.648 827.94 465.648C826.532 465.648 825.188 466.256 823.908 467.696L820.772 465.072C822.692 462.896 825.316 461.872 828.132 461.872ZM827.044 474.768C829.06 474.768 830.756 473.392 830.788 471.568H827.236C826.34 471.568 825.732 471.696 825.348 471.984C824.964 472.24 824.772 472.624 824.772 473.104C824.772 474.064 825.572 474.768 827.044 474.768Z" fill="#052E50"/>
<path d="M838.736 478V455.696H843.088V468.016L848.24 462.224H854.032L848.208 468.24L854.64 478H849.488L845.136 471.056L843.088 473.392V478H838.736Z" fill="#052E50"/>
<path d="M869.244 470.064C869.244 470.544 869.212 470.992 869.148 471.568H858.556C858.748 473.232 859.868 474.416 862.14 474.416C863.452 474.416 864.7 473.968 865.692 472.784L868.7 475.44C867.004 477.328 864.828 478.352 862.108 478.352C856.476 478.352 854.236 474.32 854.236 470.192C854.236 466.16 856.412 461.872 861.852 461.872C866.78 461.872 869.244 465.456 869.244 470.064ZM858.524 468.272H865.116C865.052 466.544 863.612 465.488 861.82 465.488C859.612 465.488 858.716 466.992 858.524 468.272Z" fill="#052E50"/>
<path d="M880.503 484.528L883.383 477.52L877.335 462.224H882.135L885.687 472.56L889.495 462.224H894.263L885.207 484.528H880.503Z" fill="#052E50"/>
<path d="M901.702 478.352C896.71 478.352 893.702 474.48 893.702 470.096C893.702 465.68 896.678 461.872 901.702 461.872C906.694 461.872 909.702 465.68 909.702 470.096C909.702 474.48 906.662 478.352 901.702 478.352ZM901.702 474.544C904.454 474.544 905.382 472.368 905.382 470.096C905.382 467.792 904.486 465.648 901.702 465.648C898.95 465.648 898.022 467.792 898.022 470.096C898.022 472.336 898.918 474.544 901.702 474.544Z" fill="#052E50"/>
<path d="M922.186 462.224H926.538V478H922.186V476.304C921.066 477.744 919.402 478.352 917.642 478.352C913.578 478.352 911.882 475.568 911.882 472.016V462.224H916.202V471.056C916.202 472.368 916.33 474.544 918.954 474.544C922.186 474.544 922.186 471.088 922.186 467.824V462.224Z" fill="#052E50"/>
<path d="M939.059 461.872C940.115 461.872 941.075 462.16 942.131 462.832L940.051 466.704C939.571 466.384 938.835 466.16 938.067 466.16C936.051 466.16 934.931 467.472 934.931 470.352V478H930.579V462.224H934.963V464.72C935.667 462.928 937.331 461.872 939.059 461.872Z" fill="#052E50"/>
<path d="M960.32 465.616H956.352V472.912C956.352 473.84 956.736 474.768 958.336 474.768C958.944 474.768 959.616 474.64 960.32 474.416V477.84C959.328 478.192 958.336 478.352 957.28 478.352C954.464 478.352 952.032 476.976 952.032 473.264V465.616H949.472V462.224H952.032V459.536L956.352 456.336V462.224H960.32V465.616Z" fill="#052E50"/>
<path d="M971.621 461.872C972.677 461.872 973.637 462.16 974.693 462.832L972.613 466.704C972.133 466.384 971.397 466.16 970.629 466.16C968.613 466.16 967.493 467.472 967.493 470.352V478H963.141V462.224H967.525V464.72C968.229 462.928 969.893 461.872 971.621 461.872Z" fill="#052E50"/>
<path d="M982.601 461.872C986.921 461.872 989.577 464.24 989.577 468.016V478H985.609L985.289 476.176C984.169 477.776 982.409 478.352 980.809 478.352C977.385 478.352 974.921 476.144 974.921 473.04C974.921 471.184 975.753 469.84 977.193 469.104C978.217 468.592 979.497 468.368 981.097 468.368H985.257V468.016C985.257 466.576 984.201 465.648 982.409 465.648C981.001 465.648 979.657 466.256 978.377 467.696L975.241 465.072C977.161 462.896 979.785 461.872 982.601 461.872ZM981.513 474.768C983.529 474.768 985.225 473.392 985.257 471.568H981.705C980.809 471.568 980.201 471.696 979.817 471.984C979.433 472.24 979.241 472.624 979.241 473.104C979.241 474.064 980.041 474.768 981.513 474.768Z" fill="#052E50"/>
<path d="M1002.13 461.872C1005.75 461.872 1007.83 464.048 1007.83 467.664V478H1003.51V469.04C1003.51 467.888 1003.51 465.648 1000.79 465.648C997.525 465.648 997.525 468.88 997.525 471.152V478H993.173V462.224H997.525V463.856C998.677 462.384 1000.34 461.872 1002.13 461.872Z" fill="#052E50"/>
<path d="M1016.54 478.352C1013.15 478.352 1010.62 476.176 1009.88 473.84L1013.31 472.304C1013.69 473.296 1014.3 474.8 1016.44 474.8C1018.01 474.8 1018.59 474 1018.59 473.36C1018.59 470.928 1010.75 472.368 1010.75 466.64C1010.75 463.344 1013.66 461.872 1016.6 461.872C1019.42 461.872 1021.5 463.216 1022.72 465.328L1019.39 467.184C1018.91 466.32 1018.17 465.168 1016.51 465.168C1015.45 465.168 1014.84 465.68 1014.84 466.288C1014.84 468.528 1022.84 467.056 1022.84 472.912C1022.84 476.72 1019.52 478.352 1016.54 478.352Z" fill="#052E50"/>
<path d="M1026.6 478V465.616H1023.69V462.224H1026.63V460.624C1026.63 456.432 1029 455.344 1031.63 455.344C1032.94 455.344 1033.87 455.632 1034.76 456.016L1033.39 459.344C1033 459.12 1032.59 458.96 1032.11 458.96C1031.02 458.96 1030.92 459.92 1030.92 460.624V462.224H1034.35V465.616H1030.92V478H1026.6Z" fill="#052E50"/>
<path d="M1049.52 470.064C1049.52 470.544 1049.49 470.992 1049.43 471.568H1038.84C1039.03 473.232 1040.15 474.416 1042.42 474.416C1043.73 474.416 1044.98 473.968 1045.97 472.784L1048.98 475.44C1047.28 477.328 1045.11 478.352 1042.39 478.352C1036.76 478.352 1034.52 474.32 1034.52 470.192C1034.52 466.16 1036.69 461.872 1042.13 461.872C1047.06 461.872 1049.52 465.456 1049.52 470.064ZM1038.8 468.272H1045.4C1045.33 466.544 1043.89 465.488 1042.1 465.488C1039.89 465.488 1039 466.992 1038.8 468.272Z" fill="#052E50"/>
<path d="M1060.72 461.872C1061.77 461.872 1062.73 462.16 1063.79 462.832L1061.71 466.704C1061.23 466.384 1060.49 466.16 1059.72 466.16C1057.71 466.16 1056.59 467.472 1056.59 470.352V478H1052.24V462.224H1056.62V464.72C1057.32 462.928 1058.99 461.872 1060.72 461.872Z" fill="#052E50"/>
<path d="M1079.66 461.936C1083.76 461.936 1086.26 464.24 1086.26 468.08V478H1083.25L1082.99 475.76C1081.97 477.36 1080.14 478.288 1077.9 478.288C1074.54 478.288 1072.3 476.272 1072.3 473.264C1072.3 471.472 1073.07 470.128 1074.48 469.424C1075.57 468.88 1077.04 468.624 1079.28 468.624H1082.96V468.08C1082.96 466.032 1081.71 464.816 1079.63 464.816C1077.9 464.816 1076.37 465.648 1075.18 467.28L1072.78 465.264C1074.61 463.024 1076.85 461.936 1079.66 461.936ZM1078.51 475.504C1081.07 475.504 1082.96 473.712 1082.96 471.216V471.152H1079.66C1077.84 471.152 1076.91 471.312 1076.3 471.792C1075.82 472.112 1075.6 472.656 1075.6 473.328C1075.6 474.672 1076.72 475.504 1078.51 475.504Z" fill="#052E50"/>
<path d="M1098.97 461.936C1102.46 461.936 1104.38 464.112 1104.38 467.984V478H1101.08V468.816C1101.08 466.96 1100.73 464.816 1098.01 464.816C1094.62 464.816 1094.04 468.08 1094.04 471.44V478H1090.75V462.224H1094.04V464.176C1095.13 462.672 1096.92 461.936 1098.97 461.936Z" fill="#052E50"/>
<path d="M1119.27 455.696H1122.56V478H1119.27V476.24C1118.18 477.648 1116.39 478.288 1114.5 478.288C1110.12 478.288 1107.75 474.832 1107.75 470.096C1107.75 465.008 1110.47 461.904 1114.5 461.904C1116.45 461.904 1118.28 462.704 1119.27 463.984V455.696ZM1115.24 475.28C1118.21 475.28 1119.59 473.072 1119.59 470.128C1119.59 467.12 1118.15 464.88 1115.27 464.88C1112.48 464.88 1111.04 466.896 1111.04 470.128C1111.04 473.264 1112.42 475.28 1115.24 475.28Z" fill="#052E50"/>
<path d="M1138.95 478.288C1136.9 478.288 1135.46 477.04 1135.46 474.352V455.696H1138.76V474.128C1138.76 474.96 1139.17 475.376 1140 475.376C1140.39 475.376 1140.84 475.312 1141.32 475.152V477.84C1140.52 478.128 1139.68 478.288 1138.95 478.288Z" fill="#052E50"/>
<path d="M1150.83 478.288C1146.07 478.288 1143.03 474.608 1143.03 470.096C1143.03 465.552 1146.07 461.936 1150.83 461.936C1155.57 461.936 1158.61 465.552 1158.61 470.096C1158.61 474.608 1155.57 478.288 1150.83 478.288ZM1150.83 475.408C1153.91 475.408 1155.31 472.976 1155.31 470.096C1155.31 467.184 1153.87 464.816 1150.83 464.816C1147.76 464.816 1146.32 467.184 1146.32 470.096C1146.32 473.008 1147.76 475.408 1150.83 475.408Z" fill="#052E50"/>
<path d="M1168.01 475.76C1171.18 476.208 1175.18 476.592 1175.18 480.24C1175.18 483.44 1172.23 484.816 1168.07 484.816C1163.46 484.816 1160.81 483.088 1160.81 479.888C1160.81 479.504 1160.84 479.344 1160.87 479.184L1163.24 477.52C1162.09 476.912 1161.29 475.952 1161.29 474.32C1161.29 472.976 1161.83 471.984 1162.86 471.216C1162.02 470.224 1161.54 468.976 1161.54 467.6C1161.54 464.272 1164.36 461.936 1167.85 461.936C1169.26 461.936 1170.57 462.32 1171.62 463.024L1173.96 461.008L1175.69 463.12L1173.45 464.944C1173.93 465.776 1174.18 466.736 1174.18 467.792C1174.18 471.216 1171.37 473.424 1167.94 473.424C1166.79 473.424 1165.77 473.168 1164.84 472.752C1164.42 473.008 1164.2 473.36 1164.2 473.84C1164.2 475.12 1165.93 475.472 1168.01 475.76ZM1167.91 464.688C1166.06 464.688 1164.81 465.904 1164.81 467.696C1164.81 469.392 1165.9 470.704 1167.88 470.704C1169.86 470.704 1170.89 469.424 1170.89 467.696C1170.89 465.872 1169.74 464.688 1167.91 464.688ZM1168.2 482.288C1170.22 482.288 1171.88 481.776 1171.88 480.528C1171.88 479.088 1169.7 478.896 1167.3 478.544C1166.79 478.48 1166.25 478.384 1165.7 478.288L1164.1 479.856C1164.07 479.984 1164.07 480.08 1164.07 480.144C1164.07 481.776 1166.12 482.288 1168.2 482.288Z" fill="#052E50"/>
<path d="M1186.62 459.152V455.696H1190.14V459.152H1186.62ZM1186.75 478V462.224H1190.04V478H1186.75Z" fill="#052E50"/>
<path d="M1203.19 461.936C1206.68 461.936 1208.6 464.112 1208.6 467.984V478H1205.3V468.816C1205.3 466.96 1204.95 464.816 1202.23 464.816C1198.84 464.816 1198.26 468.08 1198.26 471.44V478H1194.96V462.224H1198.26V464.176C1199.35 462.672 1201.14 461.936 1203.19 461.936Z" fill="#052E50"/>
<path d="M1214.11 478V474.064H1217.66V478H1214.11Z" fill="#052E50"/>
<path d="M216 564.544C209.344 564.544 204.992 559.936 204.992 552.832C204.992 545.696 209.312 541.12 215.968 541.12C220.8 541.12 224.416 543.52 226.048 547.776L221.888 549.408C220.96 546.752 218.848 545.408 215.968 545.408C211.872 545.408 209.504 548.064 209.504 552.8C209.504 557.536 211.936 560.224 216 560.224C218.944 560.224 221.024 558.848 221.888 556.128L226.112 557.728C224.544 562.112 220.864 564.544 216 564.544Z" fill="#052E50"/>
<path d="M234.608 564.352C229.616 564.352 226.608 560.48 226.608 556.096C226.608 551.68 229.584 547.872 234.608 547.872C239.6 547.872 242.608 551.68 242.608 556.096C242.608 560.48 239.568 564.352 234.608 564.352ZM234.608 560.544C237.36 560.544 238.288 558.368 238.288 556.096C238.288 553.792 237.392 551.648 234.608 551.648C231.856 551.648 230.928 553.792 230.928 556.096C230.928 558.336 231.824 560.544 234.608 560.544Z" fill="#052E50"/>
<path d="M254.195 547.872C257.811 547.872 259.891 550.048 259.891 553.664V564H255.571V555.04C255.571 553.888 255.571 551.648 252.851 551.648C249.587 551.648 249.587 554.88 249.587 557.152V564H245.235V548.224H249.587V549.856C250.739 548.384 252.403 547.872 254.195 547.872Z" fill="#052E50"/>
<path d="M277.531 548.224V564H273.211V551.616H268.507V564H264.187V551.616H261.627V548.224H264.187V547.136C264.187 543.552 267.451 541.344 271.131 541.344C274.011 541.344 275.835 541.952 277.627 543.008L275.611 546.08C274.427 545.28 273.051 544.832 271.355 544.832C269.339 544.832 268.507 545.92 268.507 547.232V548.224H277.531Z" fill="#052E50"/>
<path d="M290.027 547.872C291.083 547.872 292.043 548.16 293.099 548.832L291.019 552.704C290.539 552.384 289.803 552.16 289.035 552.16C287.019 552.16 285.899 553.472 285.899 556.352V564H281.547V548.224H285.931V550.72C286.635 548.928 288.299 547.872 290.027 547.872Z" fill="#052E50"/>
<path d="M312.689 547.872C316.497 547.872 318.225 550.88 318.225 553.888V564H313.905V555.2C313.905 553.984 313.681 551.648 311.441 551.648C308.209 551.648 308.625 555.36 308.625 558.432V564H304.305V555.168C304.305 554.336 304.337 551.648 301.905 551.648C298.641 551.648 299.025 555.36 299.025 558.432V564H294.673L294.641 548.224H298.833V550.208C299.889 548.416 301.521 547.872 303.025 547.872C304.657 547.872 306.609 548.512 307.601 551.008C308.913 548.512 310.769 547.872 312.689 547.872Z" fill="#052E50"/>
<path d="M338.601 551.616H334.633V558.912C334.633 559.84 335.017 560.768 336.617 560.768C337.225 560.768 337.897 560.64 338.601 560.416V563.84C337.609 564.192 336.617 564.352 335.561 564.352C332.745 564.352 330.313 562.976 330.313 559.264V551.616H327.753V548.224H330.313V545.536L334.633 542.336V548.224H338.601V551.616Z" fill="#052E50"/>
<path d="M349.852 547.872C353.436 547.872 355.548 550.016 355.548 553.664V564H351.228V554.752C351.228 552.64 350.332 551.648 348.476 551.648C345.948 551.648 345.244 553.696 345.244 557.984V564H340.892V541.696H345.244V549.856C346.268 548.512 347.836 547.872 349.852 547.872Z" fill="#052E50"/>
<path d="M372.931 556.064C372.931 556.544 372.899 556.992 372.835 557.568H362.243C362.435 559.232 363.555 560.416 365.827 560.416C367.139 560.416 368.387 559.968 369.379 558.784L372.387 561.44C370.691 563.328 368.515 564.352 365.795 564.352C360.163 564.352 357.923 560.32 357.923 556.192C357.923 552.16 360.099 547.872 365.539 547.872C370.467 547.872 372.931 551.456 372.931 556.064ZM362.211 554.272H368.803C368.739 552.544 367.299 551.488 365.507 551.488C363.299 551.488 362.403 552.992 362.211 554.272Z" fill="#052E50"/>
<path d="M392.382 551.616H388.414V558.912C388.414 559.84 388.798 560.768 390.398 560.768C391.006 560.768 391.678 560.64 392.382 560.416V563.84C391.39 564.192 390.398 564.352 389.342 564.352C386.526 564.352 384.094 562.976 384.094 559.264V551.616H381.534V548.224H384.094V545.536L388.414 542.336V548.224H392.382V551.616Z" fill="#052E50"/>
<path d="M403.684 547.872C404.74 547.872 405.7 548.16 406.756 548.832L404.676 552.704C404.196 552.384 403.46 552.16 402.692 552.16C400.676 552.16 399.556 553.472 399.556 556.352V564H395.204V548.224H399.588V550.72C400.292 548.928 401.956 547.872 403.684 547.872Z" fill="#052E50"/>
<path d="M414.663 547.872C418.983 547.872 421.639 550.24 421.639 554.016V564H417.671L417.351 562.176C416.231 563.776 414.471 564.352 412.871 564.352C409.447 564.352 406.983 562.144 406.983 559.04C406.983 557.184 407.815 555.84 409.255 555.104C410.279 554.592 411.559 554.368 413.159 554.368H417.319V554.016C417.319 552.576 416.263 551.648 414.471 551.648C413.063 551.648 411.719 552.256 410.439 553.696L407.303 551.072C409.223 548.896 411.847 547.872 414.663 547.872ZM413.575 560.768C415.591 560.768 417.287 559.392 417.319 557.568H413.767C412.871 557.568 412.263 557.696 411.879 557.984C411.495 558.24 411.303 558.624 411.303 559.104C411.303 560.064 412.103 560.768 413.575 560.768Z" fill="#052E50"/>
<path d="M434.195 547.872C437.811 547.872 439.891 550.048 439.891 553.664V564H435.571V555.04C435.571 553.888 435.571 551.648 432.851 551.648C429.587 551.648 429.587 554.88 429.587 557.152V564H425.235V548.224H429.587V549.856C430.739 548.384 432.403 547.872 434.195 547.872Z" fill="#052E50"/>
<path d="M448.603 564.352C445.211 564.352 442.683 562.176 441.947 559.84L445.371 558.304C445.755 559.296 446.363 560.8 448.507 560.8C450.075 560.8 450.651 560 450.651 559.36C450.651 556.928 442.811 558.368 442.811 552.64C442.811 549.344 445.723 547.872 448.667 547.872C451.483 547.872 453.563 549.216 454.779 551.328L451.451 553.184C450.971 552.32 450.235 551.168 448.571 551.168C447.515 551.168 446.907 551.68 446.907 552.288C446.907 554.528 454.907 553.056 454.907 558.912C454.907 562.72 451.579 564.352 448.603 564.352Z" fill="#052E50"/>
<path d="M458.664 564V551.616H455.752V548.224H458.696V546.624C458.696 542.432 461.064 541.344 463.688 541.344C465 541.344 465.928 541.632 466.824 542.016L465.448 545.344C465.064 545.12 464.648 544.96 464.168 544.96C463.08 544.96 462.984 545.92 462.984 546.624V548.224H466.408V551.616H462.984V564H458.664Z" fill="#052E50"/>
<path d="M481.587 556.064C481.587 556.544 481.555 556.992 481.491 557.568H470.899C471.091 559.232 472.211 560.416 474.483 560.416C475.795 560.416 477.043 559.968 478.035 558.784L481.043 561.44C479.347 563.328 477.171 564.352 474.451 564.352C468.819 564.352 466.579 560.32 466.579 556.192C466.579 552.16 468.755 547.872 474.195 547.872C479.123 547.872 481.587 551.456 481.587 556.064ZM470.867 554.272H477.459C477.395 552.544 475.955 551.488 474.163 551.488C471.955 551.488 471.059 552.992 470.867 554.272Z" fill="#052E50"/>
<path d="M492.777 547.872C493.833 547.872 494.793 548.16 495.849 548.832L493.769 552.704C493.289 552.384 492.553 552.16 491.785 552.16C489.769 552.16 488.649 553.472 488.649 556.352V564H484.297V548.224H488.681V550.72C489.385 548.928 491.049 547.872 492.777 547.872Z" fill="#052E50"/>
<path d="M497.553 568.832L499.921 559.84H503.825L499.729 568.832H497.553Z" fill="#052E50"/>
<path d="M529.147 555.712C529.147 556.192 529.115 556.672 529.051 557.152H517.979C518.107 559.68 519.611 561.312 522.299 561.312C523.835 561.312 525.147 560.864 526.331 559.52L528.635 561.504C526.843 563.456 524.859 564.288 522.267 564.288C517.051 564.288 514.683 560.512 514.683 556.192C514.683 551.968 516.987 547.936 522.011 547.936C526.907 547.936 529.147 551.584 529.147 555.712ZM517.979 554.496H525.979V554.432C525.915 552.192 524.347 550.688 522.011 550.688C519.483 550.688 518.203 552.544 517.979 554.496Z" fill="#052E50"/>
<path d="M536.809 564L530.377 548.224H533.993L538.185 559.744L542.409 548.224H545.993L539.561 564H536.809Z" fill="#052E50"/>
<path d="M561.272 555.712C561.272 556.192 561.24 556.672 561.176 557.152H550.104C550.232 559.68 551.736 561.312 554.424 561.312C555.96 561.312 557.272 560.864 558.456 559.52L560.76 561.504C558.968 563.456 556.984 564.288 554.392 564.288C549.176 564.288 546.808 560.512 546.808 556.192C546.808 551.968 549.112 547.936 554.136 547.936C559.032 547.936 561.272 551.584 561.272 555.712ZM550.104 554.496H558.104V554.432C558.04 552.192 556.472 550.688 554.136 550.688C551.608 550.688 550.328 552.544 550.104 554.496Z" fill="#052E50"/>
<path d="M572.55 547.936C573.574 547.936 574.502 548.16 575.462 548.736L573.862 551.616C573.254 551.264 572.646 551.072 571.91 551.072C569.542 551.072 568.166 552.64 568.166 555.776V564H564.87V548.224H568.198V550.816C568.998 548.832 570.822 547.936 572.55 547.936Z" fill="#052E50"/>
<path d="M579.711 570.528L582.463 563.648L576.127 548.224H579.743L584.223 559.84L588.511 548.224H592.127L583.263 570.528H579.711Z" fill="#052E50"/>
<path d="M602.834 561.152L602.866 563.84C601.938 564.128 601.01 564.288 600.146 564.288C597.65 564.288 595.666 562.976 595.666 559.808V550.88H593.074V548.224H595.666V544.832L598.962 542.368V548.224H602.834V550.88H598.962V559.52C598.962 560.864 599.698 561.504 600.946 561.504C601.49 561.504 602.13 561.376 602.834 561.152Z" fill="#052E50"/>
<path d="M614.219 547.936C617.739 547.936 619.659 550.08 619.659 553.984V564H616.363V554.816C616.363 552.064 615.371 550.816 613.259 550.816C610.571 550.816 609.323 552.896 609.323 557.376V564H606.027V541.696H609.323V550.176C610.347 548.736 612.075 547.936 614.219 547.936Z" fill="#052E50"/>
<path d="M624.117 545.152V541.696H627.637V545.152H624.117ZM624.245 564V548.224H627.541V564H624.245Z" fill="#052E50"/>
<path d="M640.688 547.936C644.176 547.936 646.096 550.112 646.096 553.984V564H642.8V554.816C642.8 552.96 642.448 550.816 639.728 550.816C636.336 550.816 635.76 554.08 635.76 557.44V564H632.464V548.224H635.76V550.176C636.848 548.672 638.64 547.936 640.688 547.936Z" fill="#052E50"/>
<path d="M656.539 561.76C659.707 562.208 663.707 562.592 663.707 566.24C663.707 569.44 660.763 570.816 656.603 570.816C651.995 570.816 649.339 569.088 649.339 565.888C649.339 565.504 649.371 565.344 649.403 565.184L651.771 563.52C650.619 562.912 649.819 561.952 649.819 560.32C649.819 558.976 650.363 557.984 651.387 557.216C650.555 556.224 650.075 554.976 650.075 553.6C650.075 550.272 652.891 547.936 656.379 547.936C657.787 547.936 659.099 548.32 660.155 549.024L662.491 547.008L664.219 549.12L661.979 550.944C662.459 551.776 662.715 552.736 662.715 553.792C662.715 557.216 659.899 559.424 656.475 559.424C655.323 559.424 654.299 559.168 653.371 558.752C652.955 559.008 652.731 559.36 652.731 559.84C652.731 561.12 654.459 561.472 656.539 561.76ZM656.443 550.688C654.587 550.688 653.339 551.904 653.339 553.696C653.339 555.392 654.427 556.704 656.411 556.704C658.395 556.704 659.419 555.424 659.419 553.696C659.419 551.872 658.267 550.688 656.443 550.688ZM656.731 568.288C658.747 568.288 660.411 567.776 660.411 566.528C660.411 565.088 658.235 564.896 655.835 564.544C655.323 564.48 654.779 564.384 654.235 564.288L652.635 565.856C652.603 565.984 652.603 566.08 652.603 566.144C652.603 567.776 654.651 568.288 656.731 568.288Z" fill="#052E50"/>
<path d="M675.149 545.152V541.696H678.669V545.152H675.149ZM675.277 564V548.224H678.573V564H675.277Z" fill="#052E50"/>
<path d="M688.391 564.288C685.127 564.288 682.599 562.432 681.831 559.968L684.487 558.784C684.967 560.096 686.023 561.504 688.263 561.504C690.151 561.504 691.143 560.48 691.143 559.36C691.143 556.192 682.695 558.24 682.695 552.48C682.695 549.536 685.255 547.936 688.359 547.936C691.015 547.936 693.063 549.12 694.215 551.296L691.655 552.704C691.047 551.584 690.055 550.592 688.231 550.592C686.759 550.592 685.831 551.264 685.831 552.224C685.831 555.072 694.375 553.344 694.375 559.168C694.375 562.688 691.399 564.288 688.391 564.288Z" fill="#052E50"/>
<path d="M714.216 547.904C718.536 547.904 720.968 551.328 720.968 556.128C720.968 561.12 718.312 564.288 714.216 564.288C712.232 564.288 710.44 563.488 709.448 562.208V570.528H706.152V548.224H709.448V549.984C710.536 548.544 712.36 547.904 714.216 547.904ZM713.448 561.408C716.296 561.408 717.672 559.328 717.672 556.096C717.672 552.768 716.264 550.816 713.48 550.816C710.568 550.816 709.128 552.96 709.128 556.096C709.128 559.136 710.504 561.408 713.448 561.408Z" fill="#052E50"/>
<path d="M732.363 547.936C733.387 547.936 734.315 548.16 735.275 548.736L733.675 551.616C733.067 551.264 732.459 551.072 731.723 551.072C729.355 551.072 727.979 552.64 727.979 555.776V564H724.683V548.224H728.011V550.816C728.811 548.832 730.635 547.936 732.363 547.936Z" fill="#052E50"/>
<path d="M749.804 555.712C749.804 556.192 749.772 556.672 749.708 557.152H738.636C738.764 559.68 740.268 561.312 742.956 561.312C744.492 561.312 745.804 560.864 746.988 559.52L749.292 561.504C747.5 563.456 745.516 564.288 742.924 564.288C737.708 564.288 735.34 560.512 735.34 556.192C735.34 551.968 737.644 547.936 742.668 547.936C747.564 547.936 749.804 551.584 749.804 555.712ZM738.636 554.496H746.636V554.432C746.572 552.192 745.004 550.688 742.668 550.688C740.14 550.688 738.86 552.544 738.636 554.496Z" fill="#052E50"/>
<path d="M753.306 555.648V553.184H762.298V555.648H753.306Z" fill="#052E50"/>
<path d="M779.568 548.224V564H776.272V550.88H770.864V564H767.568V550.88H764.944V548.224H767.568V547.04C767.568 543.392 770.48 541.408 773.904 541.408C776.304 541.408 778 541.952 779.6 542.976L778.064 545.312C776.944 544.512 775.664 544.064 774.064 544.064C771.92 544.064 770.864 545.184 770.864 547.104V548.224H779.568Z" fill="#052E50"/>
<path d="M787.73 564.288C785.682 564.288 784.242 563.04 784.242 560.352V541.696H787.538V560.128C787.538 560.96 787.954 561.376 788.786 561.376C789.17 561.376 789.618 561.312 790.098 561.152V563.84C789.298 564.128 788.466 564.288 787.73 564.288Z" fill="#052E50"/>
<path d="M796.542 564.288C794.494 564.288 793.054 563.04 793.054 560.352V541.696H796.35V560.128C796.35 560.96 796.766 561.376 797.598 561.376C797.982 561.376 798.43 561.312 798.91 561.152V563.84C798.11 564.128 797.278 564.288 796.542 564.288Z" fill="#052E50"/>
<path d="M815.179 555.712C815.179 556.192 815.147 556.672 815.083 557.152H804.011C804.139 559.68 805.643 561.312 808.331 561.312C809.867 561.312 811.179 560.864 812.363 559.52L814.667 561.504C812.875 563.456 810.891 564.288 808.299 564.288C803.083 564.288 800.715 560.512 800.715 556.192C800.715 551.968 803.019 547.936 808.043 547.936C812.939 547.936 815.179 551.584 815.179 555.712ZM804.011 554.496H812.011V554.432C811.947 552.192 810.379 550.688 808.043 550.688C805.515 550.688 804.235 552.544 804.011 554.496Z" fill="#052E50"/>
<path d="M829.081 541.696H832.377V564H829.081V562.24C827.993 563.648 826.201 564.288 824.313 564.288C819.929 564.288 817.561 560.832 817.561 556.096C817.561 551.008 820.281 547.904 824.313 547.904C826.265 547.904 828.089 548.704 829.081 549.984V541.696ZM825.049 561.28C828.025 561.28 829.401 559.072 829.401 556.128C829.401 553.12 827.961 550.88 825.081 550.88C822.297 550.88 820.857 552.896 820.857 556.128C820.857 559.264 822.233 561.28 825.049 561.28Z" fill="#052E50"/>
<path d="M838.651 557.408L838.267 541.696H841.531L841.147 557.408H838.651ZM838.011 564V560.064H841.755V564H838.011Z" fill="#052E50"/>
<path d="M114 372.568V340.506H120.486V353.064H133.734V340.506H140.22V372.568H133.734V358.998H120.486V372.568H114Z" fill="#052E50"/>
<path d="M156.071 373.074C148.895 373.074 144.571 367.508 144.571 361.206C144.571 354.858 148.849 349.384 156.071 349.384C163.247 349.384 167.571 354.858 167.571 361.206C167.571 367.508 163.201 373.074 156.071 373.074ZM156.071 367.6C160.027 367.6 161.361 364.472 161.361 361.206C161.361 357.894 160.073 354.812 156.071 354.812C152.115 354.812 150.781 357.894 150.781 361.206C150.781 364.426 152.069 367.6 156.071 367.6Z" fill="#052E50"/>
<path d="M174.765 372.568L167.681 349.89H174.305L177.893 363L181.665 349.89H186.955L190.727 362.908L194.315 349.89H200.985L193.855 372.568H188.335L184.333 358.722L180.377 372.568H174.765Z" fill="#052E50"/>
<path d="M228.814 340.506H235.024V372.568H228.814V370.544C227.25 372.384 224.766 373.074 222.558 373.074C216.532 373.074 213.128 368.014 213.128 361.206C213.128 353.708 217.222 349.384 222.558 349.384C224.996 349.384 227.434 350.396 228.814 351.96V340.506ZM224.168 367.232C227.94 367.232 229.366 364.61 229.366 361.252C229.366 357.986 227.986 355.088 224.214 355.088C221.04 355.088 219.384 357.388 219.384 361.252C219.384 365.162 221.04 367.232 224.168 367.232Z" fill="#052E50"/>
<path d="M250.362 373.074C243.186 373.074 238.862 367.508 238.862 361.206C238.862 354.858 243.14 349.384 250.362 349.384C257.538 349.384 261.862 354.858 261.862 361.206C261.862 367.508 257.492 373.074 250.362 373.074ZM250.362 367.6C254.318 367.6 255.652 364.472 255.652 361.206C255.652 357.894 254.364 354.812 250.362 354.812C246.406 354.812 245.072 357.894 245.072 361.206C245.072 364.426 246.36 367.6 250.362 367.6Z" fill="#052E50"/>
<path d="M285.551 361.16C285.551 361.85 285.505 362.494 285.413 363.322H270.187C270.463 365.714 272.073 367.416 275.339 367.416C277.225 367.416 279.019 366.772 280.445 365.07L284.769 368.888C282.331 371.602 279.203 373.074 275.293 373.074C267.197 373.074 263.977 367.278 263.977 361.344C263.977 355.548 267.105 349.384 274.925 349.384C282.009 349.384 285.551 354.536 285.551 361.16ZM270.141 358.584H279.617C279.525 356.1 277.455 354.582 274.879 354.582C271.705 354.582 270.417 356.744 270.141 358.584Z" fill="#052E50"/>
<path d="M296.669 373.074C291.793 373.074 288.159 369.946 287.101 366.588L292.023 364.38C292.575 365.806 293.449 367.968 296.531 367.968C298.785 367.968 299.613 366.818 299.613 365.898C299.613 362.402 288.343 364.472 288.343 356.238C288.343 351.5 292.529 349.384 296.761 349.384C300.809 349.384 303.799 351.316 305.547 354.352L300.763 357.02C300.073 355.778 299.015 354.122 296.623 354.122C295.105 354.122 294.231 354.858 294.231 355.732C294.231 358.952 305.731 356.836 305.731 365.254C305.731 370.728 300.947 373.074 296.669 373.074Z" fill="#052E50"/>
<path d="M320.845 346.164V340.506H327.285V346.164H320.845ZM320.937 372.568V349.89H327.193V372.568H320.937Z" fill="#052E50"/>
<path d="M345.856 354.766H340.152V365.254C340.152 366.588 340.704 367.922 343.004 367.922C343.878 367.922 344.844 367.738 345.856 367.416V372.338C344.43 372.844 343.004 373.074 341.486 373.074C337.438 373.074 333.942 371.096 333.942 365.76V354.766H330.262V349.89H333.942V346.026L340.152 341.426V349.89H345.856V354.766Z" fill="#052E50"/>
<path d="M365.279 372.568L358.195 349.89H364.819L368.407 363L372.179 349.89H377.469L381.241 362.908L384.829 349.89H391.499L384.369 372.568H378.849L374.847 358.722L370.891 372.568H365.279Z" fill="#052E50"/>
<path d="M403.096 373.074C395.92 373.074 391.596 367.508 391.596 361.206C391.596 354.858 395.874 349.384 403.096 349.384C410.272 349.384 414.596 354.858 414.596 361.206C414.596 367.508 410.226 373.074 403.096 373.074ZM403.096 367.6C407.052 367.6 408.386 364.472 408.386 361.206C408.386 357.894 407.098 354.812 403.096 354.812C399.14 354.812 397.806 357.894 397.806 361.206C397.806 364.426 399.094 367.6 403.096 367.6Z" fill="#052E50"/>
<path d="M430.562 349.384C432.08 349.384 433.46 349.798 434.978 350.764L431.988 356.33C431.298 355.87 430.24 355.548 429.136 355.548C426.238 355.548 424.628 357.434 424.628 361.574V372.568H418.372V349.89H424.674V353.478C425.686 350.902 428.078 349.384 430.562 349.384Z" fill="#052E50"/>
<path d="M437.241 372.568V340.506H443.497V358.216L450.903 349.89H459.229L450.857 358.538L460.103 372.568H452.697L446.441 362.586L443.497 365.944V372.568H437.241Z" fill="#052E50"/>
<path d="M467.685 362.77V360.516C467.685 352.604 475.137 353.754 475.137 348.878C475.137 346.348 473.297 345.198 470.491 345.198C467.041 345.198 465.523 346.992 465.523 350.35H460.049C460.049 343.772 464.235 340 470.445 340C475.827 340 480.565 342.806 480.565 348.97C480.565 357.204 472.975 356.422 472.975 360.792V362.77H467.685ZM467.133 372.568V366.312H473.711V372.568H467.133Z" fill="#052E50"/>
<rect x="74" y="46" width="781" height="184.994" rx="20" fill="#FFF3D9"/>
<path fill-rule="evenodd" clip-rule="evenodd" d="M228.712 120.465L209.152 101.765C208.556 101.197 208.081 100.514 207.757 99.7572C207.433 99.0006 207.266 98.1862 207.266 97.3633C207.266 96.5403 207.433 95.726 207.757 94.9694C208.081 94.2128 208.556 93.5294 209.152 92.9609L228.696 74.3C229.877 73.2649 231.413 72.7235 232.984 72.7879C234.563 72.8525 236.057 73.5246 237.151 74.6645C238.246 75.8044 238.855 77.3235 238.85 78.9028C238.844 80.4738 238.232 81.9811 237.141 83.1118L228.606 91.2634L281.997 91.2634C283.618 91.2634 285.173 91.905 286.32 93.0485C287.468 94.1921 288.113 95.7441 288.113 97.3633C288.113 98.9825 287.468 100.534 286.32 101.678C285.173 102.822 283.618 103.463 281.997 103.463L228.582 103.463L237.157 111.653L237.178 111.671C237.793 112.215 238.293 112.878 238.646 113.619C238.999 114.361 239.199 115.166 239.232 115.986C239.266 116.807 239.134 117.625 238.843 118.393C238.552 119.161 238.108 119.862 237.539 120.455C236.97 121.047 236.288 121.519 235.532 121.843C234.776 122.166 233.963 122.334 233.141 122.337C232.319 122.339 231.505 122.177 230.747 121.858C229.989 121.54 229.303 121.073 228.731 120.484L228.712 120.465Z" fill="#FFAE00"/>
<path fill-rule="evenodd" clip-rule="evenodd" d="M359.864 202.34L379.425 183.64C380.021 183.072 380.495 182.388 380.819 181.632C381.144 180.875 381.311 180.061 381.311 179.238C381.311 178.415 381.144 177.601 380.819 176.844C380.495 176.088 380.02 175.404 379.424 174.836L359.88 156.175C358.699 155.14 357.163 154.598 355.592 154.663C354.013 154.727 352.519 155.399 351.425 156.539C350.331 157.679 349.721 159.198 349.727 160.778C349.732 162.349 350.345 163.856 351.436 164.987L359.971 173.138L306.58 173.138C304.959 173.138 303.403 173.78 302.256 174.923C301.108 176.067 300.463 177.619 300.463 179.238C300.463 180.857 301.108 182.409 302.256 183.553C303.403 184.696 304.959 185.338 306.58 185.338L359.995 185.338L351.42 193.528L351.399 193.546C350.783 194.09 350.284 194.753 349.93 195.494C349.577 196.236 349.378 197.041 349.344 197.861C349.31 198.681 349.443 199.5 349.734 200.268C350.025 201.036 350.468 201.737 351.037 202.33C351.606 202.922 352.289 203.394 353.044 203.717C353.8 204.041 354.613 204.209 355.435 204.211C356.257 204.214 357.071 204.051 357.829 203.733C358.587 203.415 359.273 202.948 359.846 202.359L359.864 202.34Z" fill="#FFAE00"/>
<path d="M242.958 126.191C242.958 122.731 246.546 119.926 250.971 119.926H339.92C344.346 119.926 347.933 122.731 347.933 126.191V149.374C347.933 152.835 344.346 155.64 339.92 155.64H250.971C246.546 155.64 242.958 152.835 242.958 149.374V126.191Z" fill="#052E50"/>
<path d="M266.675 131.292H269.448V144.913H266.596L261.147 136.021V144.913H258.373V131.292H261.206L266.675 140.125V131.292Z" fill="white"/>
<path d="M278.235 145.245C274.301 145.245 271.605 142.373 271.605 138.112C271.605 133.813 274.301 130.96 278.235 130.96C282.209 130.96 284.884 133.813 284.884 138.112C284.884 142.392 282.169 145.245 278.235 145.245ZM278.235 142.607C280.596 142.607 282.091 140.868 282.091 138.112C282.091 135.318 280.596 133.598 278.235 133.598C275.894 133.598 274.379 135.298 274.379 138.112C274.379 140.907 275.894 142.607 278.235 142.607Z" fill="white"/>
<path d="M291.838 144.913V131.292H294.612V144.913H291.838Z" fill="white"/>
<path d="M297.736 144.913V131.292H302.674C305.447 131.292 307.1 132.582 307.1 134.731C307.1 135.963 306.588 136.959 305.684 137.526C307.139 138.112 307.847 139.226 307.847 140.868C307.847 143.389 306.136 144.913 303.343 144.913H297.736ZM300.51 136.549H302.674C303.736 136.549 304.326 136.099 304.326 135.161C304.326 134.262 303.716 133.813 302.674 133.813H300.51V136.549ZM300.51 142.373H303.126C304.425 142.373 305.074 141.728 305.074 140.712C305.074 139.422 304.07 139.109 303.126 139.109H300.51V142.373Z" fill="white"/>
<path d="M318.223 144.913L317.259 142.353H311.987L311.023 144.913H307.993L313.6 131.292H315.665L321.233 144.913H318.223ZM312.951 139.813H316.315L314.643 135.376L312.951 139.813Z" fill="white"/>
<path d="M331.012 131.292H333.785V144.913H330.933L325.484 136.021V144.913H322.71V131.292H325.543L331.012 140.125V131.292Z" fill="white"/>
<path fill-rule="evenodd" clip-rule="evenodd" d="M309.543 104.396C312.449 104.396 314.806 102.055 314.806 99.167C314.806 96.2793 312.449 93.9383 309.543 93.9383C306.636 93.9383 304.279 96.2793 304.279 99.167C304.279 102.055 306.636 104.396 309.543 104.396ZM309.543 106.003C313.343 106.003 316.424 102.943 316.424 99.167C316.424 95.3915 313.343 92.3308 309.543 92.3308C305.742 92.3308 302.661 95.3915 302.661 99.167C302.661 102.943 305.742 106.003 309.543 106.003Z" fill="#9F9FB3"/>
<path fill-rule="evenodd" clip-rule="evenodd" d="M280.296 185.701C283.203 185.701 285.56 183.36 285.56 180.472C285.56 177.584 283.203 175.244 280.296 175.244C277.39 175.244 275.033 177.584 275.033 180.472C275.033 183.36 277.39 185.701 280.296 185.701ZM280.296 187.308C284.097 187.308 287.178 184.248 287.178 180.472C287.178 176.697 284.097 173.636 280.296 173.636C276.496 173.636 273.415 176.697 273.415 180.472C273.415 184.248 276.496 187.308 280.296 187.308Z" fill="#9F9FB3"/>
<path d="M417.324 126.643C412.496 126.643 408.722 123.753 408.008 119.333L412.768 118.143C413.04 120.931 414.842 122.393 417.392 122.393C419.466 122.393 420.928 121.373 420.928 119.469C420.928 118.109 419.772 117.191 416.474 115.865C411.476 113.859 409.674 112.023 409.674 108.487C409.674 104.611 412.7 101.891 417.222 101.891C420.486 101.891 423.07 103.387 424.566 106.345L420.588 108.827C419.84 107.059 418.548 106.141 417.086 106.141C415.624 106.141 414.468 107.093 414.468 108.385C414.468 109.745 415.488 110.595 418.99 111.955C424.056 113.927 425.722 115.661 425.722 119.027C425.722 123.583 422.152 126.643 417.324 126.643Z" fill="#052E50"/>
<path d="M428.367 106.651V102.469H433.127V106.651H428.367ZM428.435 126.167V109.405H433.059V126.167H428.435Z" fill="#052E50"/>
<path d="M456.51 109.031C460.556 109.031 462.392 112.227 462.392 115.423V126.167H457.802V116.817C457.802 115.525 457.564 113.043 455.184 113.043C451.75 113.043 452.192 116.987 452.192 120.251V126.167H447.602V116.783C447.602 115.899 447.636 113.043 445.052 113.043C441.584 113.043 441.992 116.987 441.992 120.251V126.167H437.368L437.334 109.405H441.788V111.513C442.91 109.609 444.644 109.031 446.242 109.031C447.976 109.031 450.05 109.711 451.104 112.363C452.498 109.711 454.47 109.031 456.51 109.031Z" fill="#052E50"/>
<path d="M475.502 109.031C480.024 109.031 482.472 112.839 482.472 117.803C482.472 123.413 479.378 126.541 475.502 126.541C473.768 126.541 471.966 125.827 470.912 124.671V133.103H466.288V109.405H470.912V110.833C472.102 109.541 473.904 109.031 475.502 109.031ZM474.278 122.495C476.692 122.495 477.882 120.863 477.882 117.769C477.882 114.675 476.726 113.077 474.346 113.077C471.49 113.077 470.47 115.083 470.47 117.769C470.47 120.421 471.558 122.495 474.278 122.495Z" fill="#052E50"/>
<path d="M489.456 126.541C487.11 126.541 485.308 125.147 485.308 122.019V102.469H489.898V121.543C489.898 122.325 490.306 122.529 490.986 122.529C491.326 122.529 491.734 122.461 492.176 122.359V125.997C491.19 126.371 490.238 126.541 489.456 126.541Z" fill="#052E50"/>
<path d="M494.873 106.651V102.469H499.633V106.651H494.873ZM494.941 126.167V109.405H499.565V126.167H494.941Z" fill="#052E50"/>
<path d="M518.663 109.405V126.167H514.073V113.009H509.075V126.167H504.485V113.009H501.765V109.405H504.485V108.249C504.485 104.441 507.953 102.095 511.863 102.095C514.923 102.095 516.861 102.741 518.765 103.863L516.623 107.127C515.365 106.277 513.903 105.801 512.101 105.801C509.959 105.801 509.075 106.957 509.075 108.351V109.405H518.663Z" fill="#052E50"/>
<path d="M537.483 117.735C537.483 118.245 537.449 118.721 537.381 119.333H526.127C526.331 121.101 527.521 122.359 529.935 122.359C531.329 122.359 532.655 121.883 533.709 120.625L536.905 123.447C535.103 125.453 532.791 126.541 529.901 126.541C523.917 126.541 521.537 122.257 521.537 117.871C521.537 113.587 523.849 109.031 529.629 109.031C534.865 109.031 537.483 112.839 537.483 117.735ZM526.093 115.831H533.097C533.029 113.995 531.499 112.873 529.595 112.873C527.249 112.873 526.297 114.471 526.093 115.831Z" fill="#052E50"/>
<path d="M550.665 102.469H555.255V126.167H550.665V124.671C549.509 126.031 547.673 126.541 546.041 126.541C541.587 126.541 539.071 122.801 539.071 117.769C539.071 112.227 542.097 109.031 546.041 109.031C547.843 109.031 549.645 109.779 550.665 110.935V102.469ZM547.231 122.223C550.019 122.223 551.073 120.285 551.073 117.803C551.073 115.389 550.053 113.247 547.265 113.247C544.919 113.247 543.695 114.947 543.695 117.803C543.695 120.693 544.919 122.223 547.231 122.223Z" fill="#052E50"/>
<path d="M577.375 113.009H573.159V120.761C573.159 121.747 573.567 122.733 575.267 122.733C575.913 122.733 576.627 122.597 577.375 122.359V125.997C576.321 126.371 575.267 126.541 574.145 126.541C571.153 126.541 568.569 125.079 568.569 121.135V113.009H565.849V109.405H568.569V106.549L573.159 103.149V109.405H577.375V113.009Z" fill="#052E50"/>
<path d="M589.383 109.031C590.505 109.031 591.525 109.337 592.647 110.051L590.437 114.165C589.927 113.825 589.145 113.587 588.329 113.587C586.187 113.587 584.997 114.981 584.997 118.041V126.167H580.373V109.405H585.031V112.057C585.779 110.153 587.547 109.031 589.383 109.031Z" fill="#052E50"/>
<path d="M601.048 109.031C605.638 109.031 608.46 111.547 608.46 115.559V126.167H604.244L603.904 124.229C602.714 125.929 600.844 126.541 599.144 126.541C595.506 126.541 592.888 124.195 592.888 120.897C592.888 118.925 593.772 117.497 595.302 116.715C596.39 116.171 597.75 115.933 599.45 115.933H603.87V115.559C603.87 114.029 602.748 113.043 600.844 113.043C599.348 113.043 597.92 113.689 596.56 115.219L593.228 112.431C595.268 110.119 598.056 109.031 601.048 109.031ZM599.892 122.733C602.034 122.733 603.836 121.271 603.87 119.333H600.096C599.144 119.333 598.498 119.469 598.09 119.775C597.682 120.047 597.478 120.455 597.478 120.965C597.478 121.985 598.328 122.733 599.892 122.733Z" fill="#052E50"/>
<path d="M621.801 109.031C625.643 109.031 627.853 111.343 627.853 115.185V126.167H623.263V116.647C623.263 115.423 623.263 113.043 620.373 113.043C616.905 113.043 616.905 116.477 616.905 118.891V126.167H612.281V109.405H616.905V111.139C618.129 109.575 619.897 109.031 621.801 109.031Z" fill="#052E50"/>
<path d="M637.109 126.541C633.505 126.541 630.819 124.229 630.037 121.747L633.675 120.115C634.083 121.169 634.729 122.767 637.007 122.767C638.673 122.767 639.285 121.917 639.285 121.237C639.285 118.653 630.955 120.183 630.955 114.097C630.955 110.595 634.049 109.031 637.177 109.031C640.169 109.031 642.379 110.459 643.671 112.703L640.135 114.675C639.625 113.757 638.843 112.533 637.075 112.533C635.953 112.533 635.307 113.077 635.307 113.723C635.307 116.103 643.807 114.539 643.807 120.761C643.807 124.807 640.271 126.541 637.109 126.541Z" fill="#052E50"/>
<path d="M647.799 126.167V113.009H644.705V109.405H647.833V107.705C647.833 103.251 650.349 102.095 653.137 102.095C654.531 102.095 655.517 102.401 656.469 102.809L655.007 106.345C654.599 106.107 654.157 105.937 653.647 105.937C652.491 105.937 652.389 106.957 652.389 107.705V109.405H656.027V113.009H652.389V126.167H647.799Z" fill="#052E50"/>
<path d="M672.155 117.735C672.155 118.245 672.121 118.721 672.053 119.333H660.799C661.003 121.101 662.193 122.359 664.607 122.359C666.001 122.359 667.327 121.883 668.381 120.625L671.577 123.447C669.775 125.453 667.463 126.541 664.573 126.541C658.589 126.541 656.209 122.257 656.209 117.871C656.209 113.587 658.521 109.031 664.301 109.031C669.537 109.031 672.155 112.839 672.155 117.735ZM660.765 115.831H667.769C667.701 113.995 666.171 112.873 664.267 112.873C661.921 112.873 660.969 114.471 660.765 115.831Z" fill="#052E50"/>
<path d="M684.045 109.031C685.167 109.031 686.187 109.337 687.309 110.051L685.099 114.165C684.589 113.825 683.807 113.587 682.991 113.587C680.849 113.587 679.659 114.981 679.659 118.041V126.167H675.035V109.405H679.693V112.057C680.441 110.153 682.209 109.031 684.045 109.031Z" fill="#052E50"/>
<path d="M413.108 170.615C410.66 168.031 408.96 162.625 408.96 156.369C408.96 149.399 410.694 144.707 413.074 142.123H417.188C414.06 146.033 412.598 150.521 412.598 156.403C412.598 162.625 414.094 166.637 417.188 170.615H413.108Z" fill="#052E50"/>
<path d="M421.266 168.167L416.03 151.405H420.926L423.578 161.095L426.366 151.405H430.276L433.064 161.027L435.716 151.405H440.646L435.376 168.167H431.296L428.338 157.933L425.414 168.167H421.266Z" fill="#052E50"/>
<path d="M442.578 148.651V144.469H447.338V148.651H442.578ZM442.646 168.167V151.405H447.27V168.167H442.646Z" fill="#052E50"/>
<path d="M461.065 155.009H456.849V162.761C456.849 163.747 457.257 164.733 458.957 164.733C459.603 164.733 460.317 164.597 461.065 164.359V167.997C460.011 168.371 458.957 168.541 457.835 168.541C454.843 168.541 452.259 167.079 452.259 163.135V155.009H449.539V151.405H452.259V148.549L456.849 145.149V151.405H461.065V155.009Z" fill="#052E50"/>
<path d="M473.018 151.031C476.826 151.031 479.07 153.309 479.07 157.185V168.167H474.48V158.341C474.48 156.097 473.528 155.043 471.556 155.043C468.87 155.043 468.122 157.219 468.122 161.775V168.167H463.498V144.469H468.122V153.139C469.21 151.711 470.876 151.031 473.018 151.031Z" fill="#052E50"/>
<path d="M500.503 151.031C505.025 151.031 507.473 154.839 507.473 159.803C507.473 165.413 504.379 168.541 500.503 168.541C498.769 168.541 496.967 167.827 495.913 166.671V175.103H491.289V151.405H495.913V152.833C497.103 151.541 498.905 151.031 500.503 151.031ZM499.279 164.495C501.693 164.495 502.883 162.863 502.883 159.769C502.883 156.675 501.727 155.077 499.347 155.077C496.491 155.077 495.471 157.083 495.471 159.769C495.471 162.421 496.559 164.495 499.279 164.495Z" fill="#052E50"/>
<path d="M519.49 151.031C520.612 151.031 521.632 151.337 522.754 152.051L520.544 156.165C520.034 155.825 519.252 155.587 518.436 155.587C516.294 155.587 515.104 156.981 515.104 160.041V168.167H510.48V151.405H515.138V154.057C515.886 152.153 517.654 151.031 519.49 151.031Z" fill="#052E50"/>
<path d="M538.081 159.735C538.081 160.245 538.047 160.721 537.979 161.333H526.725C526.929 163.101 528.119 164.359 530.533 164.359C531.927 164.359 533.253 163.883 534.307 162.625L537.503 165.447C535.701 167.453 533.389 168.541 530.499 168.541C524.515 168.541 522.135 164.257 522.135 159.871C522.135 155.587 524.447 151.031 530.227 151.031C535.463 151.031 538.081 154.839 538.081 159.735ZM526.691 157.831H533.695C533.627 155.995 532.097 154.873 530.193 154.873C527.847 154.873 526.895 156.471 526.691 157.831Z" fill="#052E50"/>
<path d="M540.893 159.905V156.471H550.923V159.905H540.893Z" fill="#052E50"/>
<path d="M569.962 151.405V168.167H565.372V155.009H560.374V168.167H555.784V155.009H553.064V151.405H555.784V150.249C555.784 146.441 559.252 144.095 563.162 144.095C566.222 144.095 568.16 144.741 570.064 145.863L567.922 149.127C566.664 148.277 565.202 147.801 563.4 147.801C561.258 147.801 560.374 148.957 560.374 150.351V151.405H569.962Z" fill="#052E50"/>
<path d="M578.208 168.541C575.862 168.541 574.06 167.147 574.06 164.019V144.469H578.65V163.543C578.65 164.325 579.058 164.529 579.738 164.529C580.078 164.529 580.486 164.461 580.928 164.359V167.997C579.942 168.371 578.99 168.541 578.208 168.541Z" fill="#052E50"/>
<path d="M587.671 168.541C585.325 168.541 583.523 167.147 583.523 164.019V144.469H588.113V163.543C588.113 164.325 588.521 164.529 589.201 164.529C589.541 164.529 589.949 164.461 590.391 164.359V167.997C589.405 168.371 588.453 168.541 587.671 168.541Z" fill="#052E50"/>
<path d="M607.708 159.735C607.708 160.245 607.674 160.721 607.606 161.333H596.352C596.556 163.101 597.746 164.359 600.16 164.359C601.554 164.359 602.88 163.883 603.934 162.625L607.13 165.447C605.328 167.453 603.016 168.541 600.126 168.541C594.142 168.541 591.762 164.257 591.762 159.871C591.762 155.587 594.074 151.031 599.854 151.031C605.09 151.031 607.708 154.839 607.708 159.735ZM596.318 157.831H603.322C603.254 155.995 601.724 154.873 599.82 154.873C597.474 154.873 596.522 156.471 596.318 157.831Z" fill="#052E50"/>
<path d="M620.89 144.469H625.48V168.167H620.89V166.671C619.734 168.031 617.898 168.541 616.266 168.541C611.812 168.541 609.296 164.801 609.296 159.769C609.296 154.227 612.322 151.031 616.266 151.031C618.068 151.031 619.87 151.779 620.89 152.935V144.469ZM617.456 164.223C620.244 164.223 621.298 162.285 621.298 159.803C621.298 157.389 620.278 155.247 617.49 155.247C615.144 155.247 613.92 156.947 613.92 159.803C613.92 162.693 615.144 164.223 617.456 164.223Z" fill="#052E50"/>
<path d="M638.658 168.167V144.469H643.452V168.167H638.658Z" fill="#052E50"/>
<path d="M648.851 168.167V144.469H657.385C662.179 144.469 665.035 146.713 665.035 150.453C665.035 152.595 664.151 154.329 662.587 155.315C665.103 156.335 666.327 158.273 666.327 161.129C666.327 165.515 663.369 168.167 658.541 168.167H648.851ZM653.645 153.615H657.385C659.221 153.615 660.241 152.833 660.241 151.201C660.241 149.637 659.187 148.855 657.385 148.855H653.645V153.615ZM653.645 163.747H658.167C660.411 163.747 661.533 162.625 661.533 160.857C661.533 158.613 659.799 158.069 658.167 158.069H653.645V163.747Z" fill="#052E50"/>
<path d="M684.259 168.167L682.593 163.713H673.481L671.815 168.167H666.579L676.269 144.469H679.839L689.461 168.167H684.259ZM675.147 159.293H680.961L678.071 151.575L675.147 159.293Z" fill="#052E50"/>
<path d="M706.363 144.469H711.157V168.167H706.227L696.809 152.697V168.167H692.015V144.469H696.911L706.363 159.837V144.469Z" fill="#052E50"/>
<path d="M717.843 170.615H713.729C716.857 166.637 718.353 162.625 718.353 156.403C718.353 150.521 716.891 146.033 713.729 142.123H717.877C720.223 144.707 721.991 149.399 721.991 156.369C721.991 162.625 720.291 168.031 717.843 170.615Z" fill="#052E50"/>
<rect x="915" y="46" width="781" height="184.994" rx="20" fill="#FFF3D9"/>
<path d="M1164.69 123.102L1148.4 122.359L1154.9 87.1032C1155.89 81.2177 1148.36 77.6353 1144.66 82.4926L1096.45 142.638C1093.44 146.257 1096.06 151.766 1100.73 152.061L1117.02 152.804L1110.53 188.059C1109.35 193.926 1117.06 197.527 1120.77 192.67L1168.97 132.525C1172 128.721 1169.38 123.211 1164.69 123.102Z" fill="#052E50"/>
<mask id="path-28-outside-1_177_3232" maskUnits="userSpaceOnUse" x="1155.96" y="137.844" width="70" height="70" fill="black">
<rect fill="white" x="1155.96" y="137.844" width="70" height="70"/>
<path fill-rule="evenodd" clip-rule="evenodd" d="M1190.83 203.261C1207.88 203.261 1221.7 189.512 1221.7 172.552C1221.7 155.592 1207.88 141.844 1190.83 141.844C1173.78 141.844 1159.96 155.592 1159.96 172.552C1159.96 189.512 1173.78 203.261 1190.83 203.261ZM1199.78 166.179H1202.39C1204.43 166.179 1206.08 167.813 1206.08 169.823V183.184C1206.08 185.195 1204.43 186.828 1202.39 186.828H1180.27C1178.24 186.828 1176.58 185.195 1176.58 183.184V169.823C1176.58 167.813 1178.24 166.179 1180.27 166.179H1182.89V162.38C1182.89 157.778 1186.68 154.032 1191.33 154.032C1193.59 154.032 1195.71 154.901 1197.3 156.477C1198.9 158.054 1199.78 160.151 1199.78 162.38V166.179ZM1193.07 180.249V177.123L1193.07 177.125C1193.86 176.581 1194.38 175.681 1194.38 174.659C1194.38 172.488 1192.05 170.852 1189.73 172.056C1189.3 172.277 1188.94 172.626 1188.71 173.046C1187.83 174.68 1188.41 176.305 1189.59 177.125V180.213C1189.59 180.91 1189.99 181.587 1190.64 181.839C1191.89 182.317 1193.07 181.42 1193.07 180.249ZM1186.5 162.38V166.179H1196.16L1196.17 166.181V162.382C1196.17 161.106 1195.66 159.907 1194.75 159.005C1193.84 158.103 1192.62 157.605 1191.33 157.605C1188.67 157.605 1186.5 159.747 1186.5 162.38Z"/>
</mask>
<path fill-rule="evenodd" clip-rule="evenodd" d="M1190.83 203.261C1207.88 203.261 1221.7 189.512 1221.7 172.552C1221.7 155.592 1207.88 141.844 1190.83 141.844C1173.78 141.844 1159.96 155.592 1159.96 172.552C1159.96 189.512 1173.78 203.261 1190.83 203.261ZM1199.78 166.179H1202.39C1204.43 166.179 1206.08 167.813 1206.08 169.823V183.184C1206.08 185.195 1204.43 186.828 1202.39 186.828H1180.27C1178.24 186.828 1176.58 185.195 1176.58 183.184V169.823C1176.58 167.813 1178.24 166.179 1180.27 166.179H1182.89V162.38C1182.89 157.778 1186.68 154.032 1191.33 154.032C1193.59 154.032 1195.71 154.901 1197.3 156.477C1198.9 158.054 1199.78 160.151 1199.78 162.38V166.179ZM1193.07 180.249V177.123L1193.07 177.125C1193.86 176.581 1194.38 175.681 1194.38 174.659C1194.38 172.488 1192.05 170.852 1189.73 172.056C1189.3 172.277 1188.94 172.626 1188.71 173.046C1187.83 174.68 1188.41 176.305 1189.59 177.125V180.213C1189.59 180.91 1189.99 181.587 1190.64 181.839C1191.89 182.317 1193.07 181.42 1193.07 180.249ZM1186.5 162.38V166.179H1196.16L1196.17 166.181V162.382C1196.17 161.106 1195.66 159.907 1194.75 159.005C1193.84 158.103 1192.62 157.605 1191.33 157.605C1188.67 157.605 1186.5 159.747 1186.5 162.38Z" fill="#FF7300"/>
<path d="M1199.78 166.179H1195.78V170.179H1199.78V166.179ZM1182.89 166.179V170.179H1186.89V166.179H1182.89ZM1197.3 156.477L1200.12 153.632L1200.11 153.63L1197.3 156.477ZM1193.07 177.123L1196.03 174.425L1189.07 166.817V177.123H1193.07ZM1193.07 177.125L1190.12 179.823L1192.47 182.398L1195.35 180.417L1193.07 177.125ZM1189.73 172.056L1191.56 175.612L1191.57 175.608L1189.73 172.056ZM1188.71 173.046L1192.23 174.949L1192.23 174.949L1188.71 173.046ZM1189.59 177.125H1193.59V175.027L1191.87 173.834L1189.59 177.125ZM1190.64 181.839L1192.07 178.104L1192.07 178.104L1190.64 181.839ZM1186.5 166.179H1182.5V170.179H1186.5V166.179ZM1196.16 166.179L1198.98 163.334L1197.81 162.179H1196.16V166.179ZM1196.17 166.181L1193.35 169.026L1200.17 175.757V166.181H1196.17ZM1194.75 159.005L1197.56 156.16L1197.56 156.158L1194.75 159.005ZM1217.7 172.552C1217.7 187.283 1205.69 199.261 1190.83 199.261V207.261C1210.07 207.261 1225.7 191.741 1225.7 172.552H1217.7ZM1190.83 145.844C1205.69 145.844 1217.7 157.821 1217.7 172.552H1225.7C1225.7 153.363 1210.07 137.844 1190.83 137.844V145.844ZM1163.96 172.552C1163.96 157.821 1175.97 145.844 1190.83 145.844V137.844C1171.59 137.844 1155.96 153.363 1155.96 172.552H1163.96ZM1190.83 199.261C1175.97 199.261 1163.96 187.283 1163.96 172.552H1155.96C1155.96 191.741 1171.59 207.261 1190.83 207.261V199.261ZM1202.39 162.179H1199.78V170.179H1202.39V162.179ZM1210.08 169.823C1210.08 165.56 1206.59 162.179 1202.39 162.179V170.179C1202.26 170.179 1202.08 170.066 1202.08 169.823H1210.08ZM1210.08 183.184V169.823H1202.08V183.184H1210.08ZM1202.39 190.828C1206.59 190.828 1210.08 187.448 1210.08 183.184H1202.08C1202.08 182.941 1202.26 182.828 1202.39 182.828V190.828ZM1180.27 190.828H1202.39V182.828H1180.27V190.828ZM1172.58 183.184C1172.58 187.448 1176.07 190.828 1180.27 190.828V182.828C1180.4 182.828 1180.58 182.941 1180.58 183.184H1172.58ZM1172.58 169.823V183.184H1180.58V169.823H1172.58ZM1180.27 162.179C1176.07 162.179 1172.58 165.559 1172.58 169.823H1180.58C1180.58 170.066 1180.4 170.179 1180.27 170.179V162.179ZM1182.89 162.179H1180.27V170.179H1182.89V162.179ZM1178.89 162.38V166.179H1186.89V162.38H1178.89ZM1191.33 150.032C1184.51 150.032 1178.89 155.524 1178.89 162.38H1186.89C1186.89 160.031 1188.84 158.032 1191.33 158.032V150.032ZM1200.11 153.63C1197.77 151.311 1194.63 150.032 1191.33 150.032V158.032C1192.54 158.032 1193.65 158.49 1194.49 159.323L1200.11 153.63ZM1203.78 162.38C1203.78 159.075 1202.47 155.955 1200.12 153.632L1194.49 159.322C1195.33 160.153 1195.78 161.228 1195.78 162.38H1203.78ZM1203.78 166.179V162.38H1195.78V166.179H1203.78ZM1189.07 177.123V180.249H1197.07V177.123H1189.07ZM1196.03 174.426L1196.03 174.425L1190.12 179.822L1190.12 179.823L1196.03 174.426ZM1190.38 174.659C1190.38 174.288 1190.57 173.99 1190.8 173.832L1195.35 180.417C1197.15 179.172 1198.38 177.073 1198.38 174.659H1190.38ZM1191.57 175.608C1191.57 175.606 1191.55 175.619 1191.5 175.63C1191.45 175.642 1191.38 175.65 1191.3 175.648C1191.15 175.642 1190.99 175.594 1190.85 175.511C1190.59 175.354 1190.38 175.044 1190.38 174.659H1198.38C1198.38 169.481 1192.87 165.925 1187.89 168.505L1191.57 175.608ZM1192.23 174.949C1192.07 175.25 1191.84 175.47 1191.56 175.612L1187.9 168.501C1186.77 169.083 1185.81 170.002 1185.2 171.144L1192.23 174.949ZM1191.87 173.834C1192.04 173.951 1192.19 174.143 1192.25 174.404C1192.29 174.536 1192.29 174.666 1192.28 174.778C1192.26 174.891 1192.23 174.949 1192.23 174.949L1185.2 171.144C1183.29 174.661 1184.54 178.493 1187.32 180.415L1191.87 173.834ZM1193.59 180.213V177.125H1185.59V180.213H1193.59ZM1192.07 178.104C1193.21 178.54 1193.59 179.536 1193.59 180.213H1185.59C1185.59 182.284 1186.76 184.634 1189.21 185.574L1192.07 178.104ZM1189.07 180.249C1189.07 178.619 1190.7 177.577 1192.07 178.104L1189.21 185.574C1193.08 187.058 1197.07 184.221 1197.07 180.249H1189.07ZM1190.5 166.179V162.38H1182.5V166.179H1190.5ZM1196.16 162.179H1186.5V170.179H1196.16V162.179ZM1198.98 163.335L1198.98 163.334L1193.35 169.024L1193.35 169.026L1198.98 163.335ZM1192.17 162.382V166.181H1200.17V162.382H1192.17ZM1191.94 161.85C1192.1 162.007 1192.17 162.185 1192.17 162.382H1200.17C1200.17 160.028 1199.23 157.806 1197.56 156.16L1191.94 161.85ZM1191.33 161.605C1191.57 161.605 1191.78 161.69 1191.94 161.852L1197.56 156.158C1195.89 154.516 1193.67 153.605 1191.33 153.605V161.605ZM1190.5 162.38C1190.5 162.001 1190.83 161.605 1191.33 161.605V153.605C1186.5 153.605 1182.5 157.494 1182.5 162.38H1190.5Z" fill="#FFF3D9" mask="url(#path-28-outside-1_177_3232)"/>
<path d="M1096.6 98.9057L1079.9 86.1544C1076.85 83.7989 1072.62 84.4023 1070.25 87.431C1069.09 88.8554 1068.61 90.6528 1068.89 92.4636C1069.18 94.2744 1070.11 95.8707 1071.54 97.0243L1088.24 109.776C1091.1 112.083 1095.52 111.528 1097.88 108.499C1098.44 107.877 1098.86 107.026 1099.11 106.128C1099.65 103.383 1098.66 100.612 1096.6 98.9057Z" fill="#FFAE00"/>
<path d="M1075.42 157.226L1054.55 159.932C1050.72 160.452 1048.26 163.841 1048.6 167.594C1049.13 171.395 1052.53 173.847 1056.3 173.507L1077.18 170.8C1080 170.398 1082.08 168.448 1082.81 165.752C1083.05 164.853 1083.06 164.086 1082.94 163.091C1082.55 159.517 1079.02 156.837 1075.42 157.226Z" fill="#FFAE00"/>
<path d="M1084.9 134.322C1085.87 130.727 1083.76 127.079 1080.15 126.113L1059.73 120.655C1056.12 119.69 1052.45 121.793 1051.48 125.387C1050.51 128.982 1052.62 132.631 1056.24 133.597L1076.47 139.005C1080.26 140.02 1083.93 137.917 1084.9 134.322Z" fill="#FFAE00"/>
<path d="M1259.11 150.159V126.461H1263.9V150.159H1259.11Z" fill="#052E50"/>
<path d="M1287.9 133.023C1291.94 133.023 1293.78 136.219 1293.78 139.415V150.159H1289.19V140.809C1289.19 139.517 1288.95 137.035 1286.57 137.035C1283.14 137.035 1283.58 140.979 1283.58 144.243V150.159H1278.99V140.775C1278.99 139.891 1279.02 137.035 1276.44 137.035C1272.97 137.035 1273.38 140.979 1273.38 144.243V150.159H1268.76L1268.72 133.397H1273.18V135.505C1274.3 133.601 1276.03 133.023 1277.63 133.023C1279.36 133.023 1281.44 133.703 1282.49 136.355C1283.89 133.703 1285.86 133.023 1287.9 133.023Z" fill="#052E50"/>
<path d="M1316.82 133.023C1320.86 133.023 1322.7 136.219 1322.7 139.415V150.159H1318.11V140.809C1318.11 139.517 1317.87 137.035 1315.49 137.035C1312.06 137.035 1312.5 140.979 1312.5 144.243V150.159H1307.91V140.775C1307.91 139.891 1307.94 137.035 1305.36 137.035C1301.89 137.035 1302.3 140.979 1302.3 144.243V150.159H1297.68L1297.64 133.397H1302.1V135.505C1303.22 133.601 1304.95 133.023 1306.55 133.023C1308.28 133.023 1310.36 133.703 1311.41 136.355C1312.81 133.703 1314.78 133.023 1316.82 133.023Z" fill="#052E50"/>
<path d="M1341.11 141.727C1341.11 142.237 1341.08 142.713 1341.01 143.325H1329.76C1329.96 145.093 1331.15 146.351 1333.57 146.351C1334.96 146.351 1336.29 145.875 1337.34 144.617L1340.54 147.439C1338.73 149.445 1336.42 150.533 1333.53 150.533C1327.55 150.533 1325.17 146.249 1325.17 141.863C1325.17 137.579 1327.48 133.023 1333.26 133.023C1338.5 133.023 1341.11 136.831 1341.11 141.727ZM1329.72 139.823H1336.73C1336.66 137.987 1335.13 136.865 1333.23 136.865C1330.88 136.865 1329.93 138.463 1329.72 139.823Z" fill="#052E50"/>
<path d="M1354.3 126.461H1358.89V150.159H1354.3V148.663C1353.14 150.023 1351.3 150.533 1349.67 150.533C1345.22 150.533 1342.7 146.793 1342.7 141.761C1342.7 136.219 1345.73 133.023 1349.67 133.023C1351.47 133.023 1353.28 133.771 1354.3 134.927V126.461ZM1350.86 146.215C1353.65 146.215 1354.7 144.277 1354.7 141.795C1354.7 139.381 1353.68 137.239 1350.9 137.239C1348.55 137.239 1347.33 138.939 1347.33 141.795C1347.33 144.685 1348.55 146.215 1350.86 146.215Z" fill="#052E50"/>
<path d="M1363.15 130.643V126.461H1367.91V130.643H1363.15ZM1363.22 150.159V133.397H1367.84V150.159H1363.22Z" fill="#052E50"/>
<path d="M1378.78 133.023C1383.37 133.023 1386.19 135.539 1386.19 139.551V150.159H1381.98L1381.64 148.221C1380.45 149.921 1378.58 150.533 1376.88 150.533C1373.24 150.533 1370.62 148.187 1370.62 144.889C1370.62 142.917 1371.51 141.489 1373.04 140.707C1374.12 140.163 1375.48 139.925 1377.18 139.925H1381.6V139.551C1381.6 138.021 1380.48 137.035 1378.58 137.035C1377.08 137.035 1375.65 137.681 1374.29 139.211L1370.96 136.423C1373 134.111 1375.79 133.023 1378.78 133.023ZM1377.63 146.725C1379.77 146.725 1381.57 145.263 1381.6 143.325H1377.83C1376.88 143.325 1376.23 143.461 1375.82 143.767C1375.42 144.039 1375.21 144.447 1375.21 144.957C1375.21 145.977 1376.06 146.725 1377.63 146.725Z" fill="#052E50"/>
<path d="M1399.43 137.001H1395.22V144.753C1395.22 145.739 1395.63 146.725 1397.33 146.725C1397.97 146.725 1398.69 146.589 1399.43 146.351V149.989C1398.38 150.363 1397.33 150.533 1396.2 150.533C1393.21 150.533 1390.63 149.071 1390.63 145.127V137.001H1387.91V133.397H1390.63V130.541L1395.22 127.141V133.397H1399.43V137.001Z" fill="#052E50"/>
<path d="M1417.05 141.727C1417.05 142.237 1417.02 142.713 1416.95 143.325H1405.69C1405.9 145.093 1407.09 146.351 1409.5 146.351C1410.9 146.351 1412.22 145.875 1413.28 144.617L1416.47 147.439C1414.67 149.445 1412.36 150.533 1409.47 150.533C1403.48 150.533 1401.1 146.249 1401.1 141.863C1401.1 137.579 1403.42 133.023 1409.2 133.023C1414.43 133.023 1417.05 136.831 1417.05 141.727ZM1405.66 139.823H1412.66C1412.6 137.987 1411.07 136.865 1409.16 136.865C1406.82 136.865 1405.86 138.463 1405.66 139.823Z" fill="#052E50"/>
<path d="M1434.86 133.023C1439.45 133.023 1442.27 135.539 1442.27 139.551V150.159H1438.06L1437.72 148.221C1436.53 149.921 1434.66 150.533 1432.96 150.533C1429.32 150.533 1426.7 148.187 1426.7 144.889C1426.7 142.917 1427.59 141.489 1429.12 140.707C1430.2 140.163 1431.56 139.925 1433.26 139.925H1437.68V139.551C1437.68 138.021 1436.56 137.035 1434.66 137.035C1433.16 137.035 1431.73 137.681 1430.37 139.211L1427.04 136.423C1429.08 134.111 1431.87 133.023 1434.86 133.023ZM1433.71 146.725C1435.85 146.725 1437.65 145.263 1437.68 143.325H1433.91C1432.96 143.325 1432.31 143.461 1431.9 143.767C1431.5 144.039 1431.29 144.447 1431.29 144.957C1431.29 145.977 1432.14 146.725 1433.71 146.725Z" fill="#052E50"/>
<path d="M1455.61 133.023C1459.46 133.023 1461.67 135.335 1461.67 139.177V150.159H1457.08V140.639C1457.08 139.415 1457.08 137.035 1454.19 137.035C1450.72 137.035 1450.72 140.469 1450.72 142.883V150.159H1446.09V133.397H1450.72V135.131C1451.94 133.567 1453.71 133.023 1455.61 133.023Z" fill="#052E50"/>
<path d="M1475.89 126.461H1480.48V150.159H1475.89V148.663C1474.73 150.023 1472.89 150.533 1471.26 150.533C1466.81 150.533 1464.29 146.793 1464.29 141.761C1464.29 136.219 1467.32 133.023 1471.26 133.023C1473.06 133.023 1474.87 133.771 1475.89 134.927V126.461ZM1472.45 146.215C1475.24 146.215 1476.29 144.277 1476.29 141.795C1476.29 139.381 1475.27 137.239 1472.49 137.239C1470.14 137.239 1468.92 138.939 1468.92 141.795C1468.92 144.685 1470.14 146.215 1472.45 146.215Z" fill="#052E50"/>
<path d="M1498.41 150.533C1494.81 150.533 1492.12 148.221 1491.34 145.739L1494.98 144.107C1495.39 145.161 1496.03 146.759 1498.31 146.759C1499.98 146.759 1500.59 145.909 1500.59 145.229C1500.59 142.645 1492.26 144.175 1492.26 138.089C1492.26 134.587 1495.35 133.023 1498.48 133.023C1501.47 133.023 1503.68 134.451 1504.98 136.695L1501.44 138.667C1500.93 137.749 1500.15 136.525 1498.38 136.525C1497.26 136.525 1496.61 137.069 1496.61 137.715C1496.61 140.095 1505.11 138.531 1505.11 144.753C1505.11 148.799 1501.58 150.533 1498.41 150.533Z" fill="#052E50"/>
<path d="M1522.57 141.727C1522.57 142.237 1522.54 142.713 1522.47 143.325H1511.21C1511.42 145.093 1512.61 146.351 1515.02 146.351C1516.42 146.351 1517.74 145.875 1518.8 144.617L1521.99 147.439C1520.19 149.445 1517.88 150.533 1514.99 150.533C1509 150.533 1506.62 146.249 1506.62 141.863C1506.62 137.579 1508.94 133.023 1514.72 133.023C1519.95 133.023 1522.57 136.831 1522.57 141.727ZM1511.18 139.823H1518.18C1518.12 137.987 1516.59 136.865 1514.68 136.865C1512.34 136.865 1511.38 138.463 1511.18 139.823Z" fill="#052E50"/>
<path d="M1532.28 150.533C1526.61 150.533 1523.99 146.181 1523.99 141.829C1523.99 137.409 1526.64 133.023 1532.25 133.023C1535.68 133.023 1538.34 134.655 1539.59 138.055L1535.24 139.789C1534.9 138.123 1533.75 137.035 1532.25 137.035C1529.63 137.035 1528.71 139.415 1528.71 141.829C1528.71 144.209 1529.6 146.487 1532.22 146.487C1533.71 146.487 1534.9 145.467 1535.28 143.835L1539.42 145.467C1538.3 148.595 1535.68 150.533 1532.28 150.533Z" fill="#052E50"/>
<path d="M1552.33 133.397H1556.95V150.159H1552.33V148.357C1551.14 149.887 1549.37 150.533 1547.5 150.533C1543.18 150.533 1541.38 147.575 1541.38 143.801V133.397H1545.97V142.781C1545.97 144.175 1546.1 146.487 1548.89 146.487C1552.33 146.487 1552.33 142.815 1552.33 139.347V133.397Z" fill="#052E50"/>
<path d="M1570.25 133.023C1571.37 133.023 1572.39 133.329 1573.52 134.043L1571.31 138.157C1570.8 137.817 1570.01 137.579 1569.2 137.579C1567.06 137.579 1565.87 138.973 1565.87 142.033V150.159H1561.24V133.397H1565.9V136.049C1566.65 134.145 1568.42 133.023 1570.25 133.023Z" fill="#052E50"/>
<path d="M1588.84 141.727C1588.84 142.237 1588.81 142.713 1588.74 143.325H1577.49C1577.69 145.093 1578.88 146.351 1581.3 146.351C1582.69 146.351 1584.02 145.875 1585.07 144.617L1588.27 147.439C1586.46 149.445 1584.15 150.533 1581.26 150.533C1575.28 150.533 1572.9 146.249 1572.9 141.863C1572.9 137.579 1575.21 133.023 1580.99 133.023C1586.23 133.023 1588.84 136.831 1588.84 141.727ZM1577.45 139.823H1584.46C1584.39 137.987 1582.86 136.865 1580.96 136.865C1578.61 136.865 1577.66 138.463 1577.45 139.823Z" fill="#052E50"/>
<defs>
<clipPath id="clip0_177_3232">
<rect width="328.75" height="45" fill="white" transform="translate(381.45 671)"/>
</clipPath>
</defs>
</svg>
