<svg width="20" height="20" viewBox="0 0 23 23" fill="none" xmlns="http://www.w3.org/2000/svg">
<path fill-rule="evenodd" clip-rule="evenodd" d="M10.1931 7.62939e-06H20.1249C21.7127 7.62939e-06 22.9999 1.28719 22.9999 2.87501C22.9999 4.46283 21.7127 5.75001 20.1249 5.75001H10.1931C8.60529 5.75001 7.31812 4.46283 7.31812 2.87501C7.31812 1.28719 8.60529 7.62939e-06 10.1931 7.62939e-06Z" fill="#FFC74D"/>
<path opacity="0.75" fill-rule="evenodd" clip-rule="evenodd" d="M20.125 1.52588e-05C21.7128 1.52588e-05 23 1.2872 23 2.87502V12.8068C23 14.3947 21.7128 15.6818 20.125 15.6818C18.5372 15.6818 17.25 14.3947 17.25 12.8068V2.87502C17.25 1.2872 18.5372 1.52588e-05 20.125 1.52588e-05Z" fill="#FFAE00"/>
<path fill-rule="evenodd" clip-rule="evenodd" d="M12.8068 23H2.87497C1.28715 23 -2.85871e-05 21.7128 -2.85871e-05 20.125C-2.85871e-05 18.5372 1.28715 17.25 2.87497 17.25H12.8068C14.3946 17.25 15.6818 18.5372 15.6818 20.125C15.6818 21.7128 14.3946 23 12.8068 23Z" fill="#FFC74D"/>
<path opacity="0.75" fill-rule="evenodd" clip-rule="evenodd" d="M2.87501 23C1.28719 23 9.66322e-06 21.7128 9.66322e-06 20.125L9.66322e-06 10.1932C9.66322e-06 8.60536 1.28719 7.31818 2.87501 7.31818C4.46282 7.31818 5.75 8.60536 5.75 10.1932L5.75 20.125C5.75 21.7128 4.46282 23 2.87501 23Z" fill="#FFAE00"/>
</svg>
